M48
; DRILL file {KiCad 7.0.7} date Fri Aug 23 02:48:47 2024
; FORMAT={-:-/ absolute / inch / decimal}
; #@! TF.CreationDate,2024-08-23T02:48:47-05:00
; #@! TF.GenerationSoftware,Kicad,Pcbnew,7.0.7
; #@! TF.FileFunction,Plated,1,2,PTH
FMAT,2
INCH
; #@! TA.AperFunction,Plated,PTH,ComponentDrill
T1C0.0236
; #@! TA.AperFunction,Plated,PTH,ComponentDrill
T2C0.0276
; #@! TA.AperFunction,Plated,PTH,ComponentDrill
T3C0.0315
; #@! TA.AperFunction,Plated,PTH,ComponentDrill
T4C0.0394
; #@! TA.AperFunction,Plated,PTH,ComponentDrill
T5C0.0433
; #@! TA.AperFunction,Plated,PTH,ComponentDrill
T6C0.0591
; #@! TA.AperFunction,Plated,PTH,ComponentDrill
T7C0.0787
%
G90
G05
T3
X2.8Y-2.1016
X2.8Y-2.2
X2.8Y-3.1016
X2.8Y-3.2
X2.8Y-4.1516
X2.8Y-4.25
X2.8Y-5.05
X2.8Y-5.1484
X3.1Y-1.55
X3.1Y-1.85
X3.1Y-2.55
X3.1Y-2.85
X3.1Y-4.4
X3.1Y-4.7
X3.1004Y-3.5496
X3.1004Y-3.8496
X3.25Y-1.55
X3.25Y-1.85
X3.25Y-2.55
X3.25Y-2.85
X3.25Y-4.4
X3.25Y-4.7
X3.2504Y-3.5496
X3.2504Y-3.8496
X3.4Y-1.55
X3.4Y-1.85
X3.4Y-2.55
X3.4Y-2.85
X3.4Y-4.4
X3.4Y-4.7
X3.4004Y-3.5496
X3.4004Y-3.8496
X3.5504Y-1.7004
X3.5504Y-1.8004
X3.5504Y-1.9004
X3.5504Y-2.0004
X3.5504Y-2.7004
X3.5504Y-2.8004
X3.5504Y-2.9004
X3.5504Y-3.0004
X3.5504Y-4.5654
X3.5504Y-4.6654
X3.5504Y-4.7654
X3.5504Y-4.8654
X3.5508Y-3.7
X3.5508Y-3.8
X3.5508Y-3.9
X3.5508Y-4.0
X3.65Y-2.5754
X3.6516Y-4.44
X3.652Y-1.5744
X3.6524Y-3.575
X3.7484Y-2.5754
X3.75Y-4.44
X3.7504Y-1.5744
X3.7508Y-3.575
X3.8504Y-1.7004
X3.8504Y-1.8004
X3.8504Y-1.9004
X3.8504Y-2.0004
X3.8504Y-2.7004
X3.8504Y-2.8004
X3.8504Y-2.9004
X3.8504Y-3.0004
X3.8504Y-4.5654
X3.8504Y-4.6654
X3.8504Y-4.7654
X3.8504Y-4.8654
X3.8508Y-3.7
X3.8508Y-3.8
X3.8508Y-3.9
X3.8508Y-4.0
T4
X3.15Y-2.05
X3.15Y-3.1
X3.15Y-4.95
X3.1504Y-4.0996
X3.25Y-2.05
X3.25Y-3.1
X3.25Y-4.95
X3.2504Y-4.0996
X3.35Y-2.05
X3.35Y-3.1
X3.35Y-4.95
X3.3504Y-4.0996
T5
X2.7953Y-2.6598
X2.7953Y-2.75
X2.7953Y-2.8402
X2.7953Y-3.6598
X2.7953Y-3.75
X2.7953Y-3.8402
X2.8Y-1.6598
X2.8Y-1.75
X2.8Y-1.8402
X2.8Y-4.6098
X2.8Y-4.7
X2.8Y-4.7902
T6
X4.1549Y-2.7551
X4.1549Y-3.6449
T7
X4.15Y-2.123
X4.15Y-2.423
T1
G00X2.3622Y-1.7315
M15
G01X2.3622Y-1.6685
M16
G05
G00X2.3622Y-2.7589
M15
G01X2.3622Y-2.6959
M16
G05
G00X2.3622Y-3.7717
M15
G01X2.3622Y-3.7087
M16
G05
G00X2.3622Y-4.7559
M15
G01X2.3622Y-4.6929
M16
G05
T2
G00X2.5187Y-1.7
M15
G01X2.5935Y-1.7
M16
G05
G00X2.5187Y-2.7274
M15
G01X2.5935Y-2.7274
M16
G05
G00X2.5187Y-3.7402
M15
G01X2.5935Y-3.7402
M16
G05
G00X2.5187Y-4.7244
M15
G01X2.5935Y-4.7244
M16
G05
T4
G00X3.9728Y-1.6043
M15
G01X3.9728Y-1.5453
M16
G05
G00X4.1756Y-1.6142
M15
G01X4.1244Y-1.6142
M16
G05
G00X4.1894Y-1.8504
M15
G01X4.1106Y-1.8504
M16
G05
G00X4.3272Y-1.6043
M15
G01X4.3272Y-1.5453
M16
G05
T0
M30
