%TF.GenerationSoftware,KiCad,Pcbnew,7.0.7*%
%TF.CreationDate,2024-08-23T02:48:45-05:00*%
%TF.ProjectId,telescope_dew_heater,74656c65-7363-46f7-9065-5f6465775f68,rev?*%
%TF.SameCoordinates,Original*%
%TF.FileFunction,Copper,L1,Top*%
%TF.FilePolarity,Positive*%
%FSLAX46Y46*%
G04 Gerber Fmt 4.6, Leading zero omitted, Abs format (unit mm)*
G04 Created by KiCad (PCBNEW 7.0.7) date 2024-08-23 02:48:45*
%MOMM*%
%LPD*%
G01*
G04 APERTURE LIST*
%TA.AperFunction,ComponentPad*%
%ADD10O,4.000000X2.000000*%
%TD*%
%TA.AperFunction,ComponentPad*%
%ADD11O,2.000000X3.500000*%
%TD*%
%TA.AperFunction,ComponentPad*%
%ADD12R,3.000000X3.000000*%
%TD*%
%TA.AperFunction,ComponentPad*%
%ADD13O,3.500000X3.500000*%
%TD*%
%TA.AperFunction,ComponentPad*%
%ADD14O,1.600000X1.600000*%
%TD*%
%TA.AperFunction,ComponentPad*%
%ADD15R,1.600000X1.600000*%
%TD*%
%TA.AperFunction,ComponentPad*%
%ADD16C,1.600000*%
%TD*%
%TA.AperFunction,ComponentPad*%
%ADD17R,1.800000X1.717500*%
%TD*%
%TA.AperFunction,ComponentPad*%
%ADD18O,1.800000X1.717500*%
%TD*%
%TA.AperFunction,ComponentPad*%
%ADD19O,1.700000X1.700000*%
%TD*%
%TA.AperFunction,ComponentPad*%
%ADD20R,1.700000X1.700000*%
%TD*%
%TA.AperFunction,ComponentPad*%
%ADD21R,4.000000X2.000000*%
%TD*%
%TA.AperFunction,ComponentPad*%
%ADD22O,3.300000X2.000000*%
%TD*%
%TA.AperFunction,ComponentPad*%
%ADD23C,5.000000*%
%TD*%
%TA.AperFunction,Conductor*%
%ADD24C,0.350000*%
%TD*%
%TA.AperFunction,Conductor*%
%ADD25C,8.000000*%
%TD*%
%TA.AperFunction,Conductor*%
%ADD26C,2.000000*%
%TD*%
G04 APERTURE END LIST*
D10*
%TO.P,J1,1,In*%
%TO.N,+12V*%
X64925000Y-43180000D03*
D11*
%TO.P,J1,2,Ext*%
%TO.N,Net-(J1-Ext)*%
X60000000Y-43180000D03*
%TD*%
D10*
%TO.P,J2,1,In*%
%TO.N,+12V*%
X64925000Y-69275000D03*
D11*
%TO.P,J2,2,Ext*%
%TO.N,Net-(J2-Ext)*%
X60000000Y-69275000D03*
%TD*%
D10*
%TO.P,J4,1,In*%
%TO.N,+12V*%
X64925000Y-120000000D03*
D11*
%TO.P,J4,2,Ext*%
%TO.N,Net-(J4-Ext)*%
X60000000Y-120000000D03*
%TD*%
D10*
%TO.P,J3,1,In*%
%TO.N,+12V*%
X64925000Y-95000000D03*
D11*
%TO.P,J3,2,Ext*%
%TO.N,Net-(J3-Ext)*%
X60000000Y-95000000D03*
%TD*%
D12*
%TO.P,SW1,1,A*%
%TO.N,Net-(SW1A-A)*%
X105410000Y-61545000D03*
D13*
%TO.P,SW1,2,B*%
%TO.N,Net-(SW1A-B)*%
X105410000Y-53925000D03*
%TD*%
D14*
%TO.P,U3,8,VCC*%
%TO.N,+12V*%
X97810000Y-93980000D03*
%TO.P,U3,7,DIS*%
%TO.N,Net-(D5-A)*%
X97810000Y-96520000D03*
%TO.P,U3,6,THR*%
%TO.N,Net-(U3-THR)*%
X97810000Y-99060000D03*
%TO.P,U3,5,CV*%
%TO.N,unconnected-(U3-CV-Pad5)*%
X97810000Y-101600000D03*
%TO.P,U3,4,R*%
%TO.N,+12V*%
X90190000Y-101600000D03*
%TO.P,U3,3,Q*%
%TO.N,Net-(Q3-G)*%
X90190000Y-99060000D03*
%TO.P,U3,2,TR*%
%TO.N,Net-(U3-THR)*%
X90190000Y-96520000D03*
D15*
%TO.P,U3,1,GND*%
%TO.N,GND*%
X90190000Y-93980000D03*
%TD*%
D16*
%TO.P,C5,2*%
%TO.N,GND*%
X92770000Y-90805000D03*
%TO.P,C5,1*%
%TO.N,+12V*%
X95270000Y-90805000D03*
%TD*%
%TO.P,R4,1*%
%TO.N,+12V*%
X86360000Y-119380000D03*
D14*
%TO.P,R4,2*%
%TO.N,Net-(D7-A)*%
X86360000Y-111760000D03*
%TD*%
%TO.P,R3,2*%
%TO.N,Net-(D5-A)*%
X86370000Y-90160000D03*
D16*
%TO.P,R3,1*%
%TO.N,+12V*%
X86370000Y-97780000D03*
%TD*%
D17*
%TO.P,Q4,1,G*%
%TO.N,Net-(Q4-G)*%
X71120000Y-117090000D03*
D18*
%TO.P,Q4,2,D*%
%TO.N,Net-(J4-Ext)*%
X71120000Y-119380000D03*
%TO.P,Q4,3,S*%
%TO.N,GND*%
X71120000Y-121670000D03*
%TD*%
D17*
%TO.P,Q3,1,G*%
%TO.N,Net-(Q3-G)*%
X71000000Y-92960000D03*
D18*
%TO.P,Q3,2,D*%
%TO.N,Net-(J3-Ext)*%
X71000000Y-95250000D03*
%TO.P,Q3,3,S*%
%TO.N,GND*%
X71000000Y-97540000D03*
%TD*%
D19*
%TO.P,RV3,3,3*%
%TO.N,Net-(D5-K)*%
X85100000Y-104130000D03*
%TO.P,RV3,2,2*%
%TO.N,Net-(U3-THR)*%
X82560000Y-104130000D03*
D20*
%TO.P,RV3,1,1*%
%TO.N,Net-(D6-A)*%
X80020000Y-104130000D03*
%TD*%
%TO.P,RV4,1,1*%
%TO.N,Net-(D8-A)*%
X80010000Y-125730000D03*
D19*
%TO.P,RV4,2,2*%
%TO.N,Net-(U4-THR)*%
X82550000Y-125730000D03*
%TO.P,RV4,3,3*%
%TO.N,Net-(D7-K)*%
X85090000Y-125730000D03*
%TD*%
D15*
%TO.P,U4,1,GND*%
%TO.N,GND*%
X90180000Y-115961000D03*
D14*
%TO.P,U4,2,TR*%
%TO.N,Net-(U4-THR)*%
X90180000Y-118501000D03*
%TO.P,U4,3,Q*%
%TO.N,Net-(Q4-G)*%
X90180000Y-121041000D03*
%TO.P,U4,4,R*%
%TO.N,+12V*%
X90180000Y-123581000D03*
%TO.P,U4,5,CV*%
%TO.N,unconnected-(U4-CV-Pad5)*%
X97800000Y-123581000D03*
%TO.P,U4,6,THR*%
%TO.N,Net-(U4-THR)*%
X97800000Y-121041000D03*
%TO.P,U4,7,DIS*%
%TO.N,Net-(D7-A)*%
X97800000Y-118501000D03*
%TO.P,U4,8,VCC*%
%TO.N,+12V*%
X97800000Y-115961000D03*
%TD*%
D15*
%TO.P,D8,1,K*%
%TO.N,Net-(D7-A)*%
X78740000Y-111760000D03*
D14*
%TO.P,D8,2,A*%
%TO.N,Net-(D8-A)*%
X78740000Y-119380000D03*
%TD*%
D16*
%TO.P,C6,1*%
%TO.N,+12V*%
X92750000Y-112776000D03*
%TO.P,C6,2*%
%TO.N,GND*%
X95250000Y-112776000D03*
%TD*%
D15*
%TO.P,C7,1*%
%TO.N,Net-(U3-THR)*%
X71120000Y-107950000D03*
D16*
%TO.P,C7,2*%
%TO.N,GND*%
X71120000Y-105450000D03*
%TD*%
D15*
%TO.P,C8,1*%
%TO.N,Net-(U4-THR)*%
X71120000Y-130770000D03*
D16*
%TO.P,C8,2*%
%TO.N,GND*%
X71120000Y-128270000D03*
%TD*%
D14*
%TO.P,D5,2,A*%
%TO.N,Net-(D5-A)*%
X82560000Y-90160000D03*
D15*
%TO.P,D5,1,K*%
%TO.N,Net-(D5-K)*%
X82560000Y-97780000D03*
%TD*%
D14*
%TO.P,D6,2,A*%
%TO.N,Net-(D6-A)*%
X78750000Y-97780000D03*
D15*
%TO.P,D6,1,K*%
%TO.N,Net-(D5-A)*%
X78750000Y-90160000D03*
%TD*%
%TO.P,D7,1,K*%
%TO.N,Net-(D7-K)*%
X82550000Y-119380000D03*
D14*
%TO.P,D7,2,A*%
%TO.N,Net-(D7-A)*%
X82550000Y-111760000D03*
%TD*%
D21*
%TO.P,J5,1*%
%TO.N,Net-(SW1A-B)*%
X105410000Y-47000000D03*
D22*
%TO.P,J5,2*%
%TO.N,GND*%
X105410000Y-41000000D03*
D11*
%TO.P,J5,MP*%
%TO.N,N/C*%
X109910000Y-40000000D03*
X100910000Y-40000000D03*
%TD*%
D20*
%TO.P,RV2,1,1*%
%TO.N,Net-(D4-A)*%
X80010000Y-78740000D03*
D19*
%TO.P,RV2,2,2*%
%TO.N,Net-(U2-THR)*%
X82550000Y-78740000D03*
%TO.P,RV2,3,3*%
%TO.N,Net-(D3-K)*%
X85090000Y-78740000D03*
%TD*%
D15*
%TO.P,U2,1,GND*%
%TO.N,GND*%
X90180000Y-68590000D03*
D14*
%TO.P,U2,2,TR*%
%TO.N,Net-(U2-THR)*%
X90180000Y-71130000D03*
%TO.P,U2,3,Q*%
%TO.N,Net-(Q2-G)*%
X90180000Y-73670000D03*
%TO.P,U2,4,R*%
%TO.N,+12V*%
X90180000Y-76210000D03*
%TO.P,U2,5,CV*%
%TO.N,unconnected-(U2-CV-Pad5)*%
X97800000Y-76210000D03*
%TO.P,U2,6,THR*%
%TO.N,Net-(U2-THR)*%
X97800000Y-73670000D03*
%TO.P,U2,7,DIS*%
%TO.N,Net-(D3-A)*%
X97800000Y-71130000D03*
%TO.P,U2,8,VCC*%
%TO.N,+12V*%
X97800000Y-68590000D03*
%TD*%
D17*
%TO.P,Q2,1,G*%
%TO.N,Net-(Q2-G)*%
X71000000Y-67560000D03*
D18*
%TO.P,Q2,2,D*%
%TO.N,Net-(J2-Ext)*%
X71000000Y-69850000D03*
%TO.P,Q2,3,S*%
%TO.N,GND*%
X71000000Y-72140000D03*
%TD*%
D16*
%TO.P,R2,1*%
%TO.N,+12V*%
X86360000Y-72390000D03*
D14*
%TO.P,R2,2*%
%TO.N,Net-(D3-A)*%
X86360000Y-64770000D03*
%TD*%
D15*
%TO.P,D4,1,K*%
%TO.N,Net-(D3-A)*%
X78740000Y-64770000D03*
D14*
%TO.P,D4,2,A*%
%TO.N,Net-(D4-A)*%
X78740000Y-72390000D03*
%TD*%
D23*
%TO.P,F1,1*%
%TO.N,Net-(SW1A-A)*%
X105533321Y-69980000D03*
%TO.P,F1,2*%
%TO.N,+12V*%
X105533321Y-92580000D03*
%TD*%
D15*
%TO.P,D3,1,K*%
%TO.N,Net-(D3-K)*%
X82550000Y-72390000D03*
D14*
%TO.P,D3,2,A*%
%TO.N,Net-(D3-A)*%
X82550000Y-64770000D03*
%TD*%
D15*
%TO.P,C4,1*%
%TO.N,Net-(U2-THR)*%
X71120000Y-81280000D03*
D16*
%TO.P,C4,2*%
%TO.N,GND*%
X71120000Y-78780000D03*
%TD*%
%TO.P,C2,1*%
%TO.N,+12V*%
X95210000Y-65415000D03*
%TO.P,C2,2*%
%TO.N,GND*%
X92710000Y-65415000D03*
%TD*%
D15*
%TO.P,U1,1,GND*%
%TO.N,GND*%
X90180000Y-43190000D03*
D14*
%TO.P,U1,2,TR*%
%TO.N,Net-(U1-THR)*%
X90180000Y-45730000D03*
%TO.P,U1,3,Q*%
%TO.N,Net-(Q1-G)*%
X90180000Y-48270000D03*
%TO.P,U1,4,R*%
%TO.N,+12V*%
X90180000Y-50810000D03*
%TO.P,U1,5,CV*%
%TO.N,unconnected-(U1-CV-Pad5)*%
X97800000Y-50810000D03*
%TO.P,U1,6,THR*%
%TO.N,Net-(U1-THR)*%
X97800000Y-48270000D03*
%TO.P,U1,7,DIS*%
%TO.N,Net-(D1-A)*%
X97800000Y-45730000D03*
%TO.P,U1,8,VCC*%
%TO.N,+12V*%
X97800000Y-43190000D03*
%TD*%
D20*
%TO.P,RV1,1,1*%
%TO.N,Net-(D2-A)*%
X80010000Y-52070000D03*
D19*
%TO.P,RV1,2,2*%
%TO.N,Net-(U1-THR)*%
X82550000Y-52070000D03*
%TO.P,RV1,3,3*%
%TO.N,Net-(D1-K)*%
X85090000Y-52070000D03*
%TD*%
D16*
%TO.P,R1,1*%
%TO.N,+12V*%
X86360000Y-46990000D03*
D14*
%TO.P,R1,2*%
%TO.N,Net-(D1-A)*%
X86360000Y-39370000D03*
%TD*%
D17*
%TO.P,Q1,1,G*%
%TO.N,Net-(Q1-G)*%
X71120000Y-42160000D03*
D18*
%TO.P,Q1,2,D*%
%TO.N,Net-(J1-Ext)*%
X71120000Y-44450000D03*
%TO.P,Q1,3,S*%
%TO.N,GND*%
X71120000Y-46740000D03*
%TD*%
D15*
%TO.P,D2,1,K*%
%TO.N,Net-(D1-A)*%
X78740000Y-39370000D03*
D14*
%TO.P,D2,2,A*%
%TO.N,Net-(D2-A)*%
X78740000Y-46990000D03*
%TD*%
D15*
%TO.P,D1,1,K*%
%TO.N,Net-(D1-K)*%
X82550000Y-46990000D03*
D14*
%TO.P,D1,2,A*%
%TO.N,Net-(D1-A)*%
X82550000Y-39370000D03*
%TD*%
D16*
%TO.P,C3,2*%
%TO.N,GND*%
X71120000Y-53380000D03*
D15*
%TO.P,C3,1*%
%TO.N,Net-(U1-THR)*%
X71120000Y-55880000D03*
%TD*%
D16*
%TO.P,C1,2*%
%TO.N,GND*%
X92760000Y-39990000D03*
%TO.P,C1,1*%
%TO.N,+12V*%
X95260000Y-39990000D03*
%TD*%
D24*
%TO.N,+12V*%
X97810000Y-93345000D02*
X97810000Y-93980000D01*
%TO.N,Net-(Q4-G)*%
X86229000Y-117090000D02*
X90180000Y-121041000D01*
X71120000Y-117090000D02*
X86229000Y-117090000D01*
D25*
%TO.N,Net-(SW1A-A)*%
X105533321Y-69980000D02*
X105533321Y-64893321D01*
%TO.N,Net-(SW1A-B)*%
X105410000Y-46990000D02*
X105410000Y-50800000D01*
D24*
X105410000Y-47000000D02*
X105410000Y-46990000D01*
%TO.N,Net-(SW1A-A)*%
X105410000Y-69856679D02*
X105533321Y-69980000D01*
D26*
%TO.N,Net-(J4-Ext)*%
X66040000Y-123190000D02*
X69850000Y-119380000D01*
X69850000Y-119380000D02*
X71120000Y-119380000D01*
X63190000Y-123190000D02*
X66040000Y-123190000D01*
X60000000Y-120000000D02*
X63190000Y-123190000D01*
%TO.N,Net-(J1-Ext)*%
X62631068Y-46121068D02*
X68178932Y-46121068D01*
X69850000Y-44450000D02*
X71120000Y-44450000D01*
X60000000Y-43490000D02*
X62631068Y-46121068D01*
X60000000Y-43180000D02*
X60000000Y-43490000D01*
X68178932Y-46121068D02*
X69850000Y-44450000D01*
%TO.N,Net-(J3-Ext)*%
X69850000Y-95250000D02*
X71000000Y-95250000D01*
X67310000Y-97790000D02*
X69850000Y-95250000D01*
X62230000Y-97790000D02*
X67310000Y-97790000D01*
X60000000Y-95560000D02*
X62230000Y-97790000D01*
X60000000Y-95000000D02*
X60000000Y-95560000D01*
%TO.N,Net-(J2-Ext)*%
X63115000Y-72390000D02*
X67310000Y-72390000D01*
X67310000Y-72390000D02*
X69850000Y-69850000D01*
X60000000Y-69275000D02*
X63115000Y-72390000D01*
X69850000Y-69850000D02*
X71000000Y-69850000D01*
D24*
%TO.N,Net-(U4-THR)*%
X77510000Y-130770000D02*
X71120000Y-130770000D01*
X82550000Y-125730000D02*
X77510000Y-130770000D01*
X92319000Y-118501000D02*
X94859000Y-121041000D01*
X90180000Y-118501000D02*
X92319000Y-118501000D01*
X85090000Y-128270000D02*
X82550000Y-125730000D01*
X87630000Y-128270000D02*
X85090000Y-128270000D01*
X94859000Y-121041000D02*
X87630000Y-128270000D01*
X97800000Y-121041000D02*
X94859000Y-121041000D01*
%TO.N,Net-(D5-A)*%
X82560000Y-90160000D02*
X86370000Y-90160000D01*
%TO.N,Net-(U3-THR)*%
X97810000Y-99060000D02*
X95250000Y-99060000D01*
X87640000Y-106670000D02*
X84610840Y-106670000D01*
X82560000Y-104619160D02*
X82560000Y-104130000D01*
X84610840Y-106670000D02*
X82560000Y-104619160D01*
X95250000Y-99060000D02*
X87640000Y-106670000D01*
%TO.N,+12V*%
X90180000Y-123200000D02*
X90180000Y-123581000D01*
X86360000Y-119380000D02*
X90180000Y-123200000D01*
%TO.N,Net-(D8-A)*%
X80010000Y-123190000D02*
X80010000Y-125730000D01*
X78740000Y-119380000D02*
X78740000Y-121920000D01*
X78740000Y-121920000D02*
X80010000Y-123190000D01*
%TO.N,Net-(D7-K)*%
X85090000Y-123190000D02*
X85090000Y-125730000D01*
X82550000Y-120650000D02*
X85090000Y-123190000D01*
%TO.N,Net-(D7-A)*%
X88900000Y-111760000D02*
X95641000Y-118501000D01*
X95641000Y-118501000D02*
X97800000Y-118501000D01*
%TO.N,Net-(D7-K)*%
X82550000Y-119380000D02*
X82550000Y-120650000D01*
%TO.N,Net-(D7-A)*%
X86360000Y-111760000D02*
X88900000Y-111760000D01*
X82550000Y-111760000D02*
X86360000Y-111760000D01*
X78740000Y-111760000D02*
X82550000Y-111760000D01*
%TO.N,+12V*%
X86370000Y-97780000D02*
X90190000Y-101600000D01*
%TO.N,Net-(Q3-G)*%
X86380000Y-95250000D02*
X90190000Y-99060000D01*
X71000000Y-92960000D02*
X81530000Y-92960000D01*
X83820000Y-95250000D02*
X86380000Y-95250000D01*
X81530000Y-92960000D02*
X83820000Y-95250000D01*
%TO.N,Net-(U3-THR)*%
X97810000Y-99060000D02*
X95270000Y-99060000D01*
X92730000Y-96520000D02*
X95270000Y-99060000D01*
X90190000Y-96520000D02*
X92730000Y-96520000D01*
%TO.N,Net-(D5-A)*%
X78750000Y-90160000D02*
X82560000Y-90160000D01*
%TO.N,Net-(D5-K)*%
X85100000Y-104130000D02*
X85100000Y-101610000D01*
X85100000Y-101610000D02*
X82550000Y-99060000D01*
X82560000Y-99050000D02*
X82560000Y-97780000D01*
X82550000Y-99060000D02*
X82560000Y-99050000D01*
%TO.N,Net-(D5-A)*%
X95250000Y-96520000D02*
X97810000Y-96520000D01*
%TO.N,Net-(U3-THR)*%
X78740000Y-107950000D02*
X71120000Y-107950000D01*
%TO.N,Net-(D6-A)*%
X78750000Y-100340000D02*
X80020000Y-101610000D01*
%TO.N,Net-(D5-A)*%
X88890000Y-90160000D02*
X95250000Y-96520000D01*
%TO.N,Net-(D6-A)*%
X78750000Y-97780000D02*
X78750000Y-100340000D01*
%TO.N,Net-(D5-A)*%
X86370000Y-90160000D02*
X88890000Y-90160000D01*
%TO.N,Net-(D6-A)*%
X80020000Y-101610000D02*
X80020000Y-104130000D01*
%TO.N,Net-(U3-THR)*%
X82560000Y-104130000D02*
X78740000Y-107950000D01*
%TO.N,Net-(D3-K)*%
X82550000Y-73660000D02*
X85090000Y-76200000D01*
X85090000Y-76200000D02*
X85090000Y-78740000D01*
X82550000Y-72390000D02*
X82550000Y-73660000D01*
%TO.N,+12V*%
X86360000Y-72390000D02*
X90180000Y-76210000D01*
%TO.N,Net-(U2-THR)*%
X97800000Y-73670000D02*
X95260000Y-73670000D01*
%TO.N,Net-(Q2-G)*%
X86360000Y-69850000D02*
X83820000Y-69850000D01*
X83820000Y-69850000D02*
X81530000Y-67560000D01*
X81530000Y-67560000D02*
X71000000Y-67560000D01*
X90180000Y-73670000D02*
X86360000Y-69850000D01*
%TO.N,Net-(D3-A)*%
X95260000Y-71130000D02*
X97800000Y-71130000D01*
X88900000Y-64770000D02*
X95260000Y-71130000D01*
X78740000Y-64770000D02*
X82550000Y-64770000D01*
X86360000Y-64770000D02*
X88900000Y-64770000D01*
%TO.N,Net-(D4-A)*%
X78740000Y-74930000D02*
X80010000Y-76200000D01*
%TO.N,Net-(U2-THR)*%
X82550000Y-78740000D02*
X80010000Y-81280000D01*
%TO.N,Net-(D4-A)*%
X80010000Y-76200000D02*
X80010000Y-78740000D01*
%TO.N,Net-(U2-THR)*%
X80010000Y-81280000D02*
X71120000Y-81280000D01*
%TO.N,Net-(D4-A)*%
X78740000Y-72390000D02*
X78740000Y-74930000D01*
%TO.N,Net-(U2-THR)*%
X90180000Y-71130000D02*
X92720000Y-71130000D01*
%TO.N,Net-(D3-A)*%
X82550000Y-64770000D02*
X86360000Y-64770000D01*
%TO.N,Net-(U2-THR)*%
X92720000Y-71130000D02*
X95260000Y-73670000D01*
X95240000Y-73670000D02*
X87630000Y-81280000D01*
X97800000Y-73670000D02*
X95240000Y-73670000D01*
X87630000Y-81280000D02*
X84781975Y-81280000D01*
X84781975Y-81280000D02*
X82550000Y-79048025D01*
X82550000Y-79048025D02*
X82550000Y-78740000D01*
%TO.N,Net-(U1-THR)*%
X78740000Y-55880000D02*
X82550000Y-52070000D01*
X71120000Y-55880000D02*
X78740000Y-55880000D01*
X82550000Y-52457696D02*
X82550000Y-52070000D01*
X84702304Y-54610000D02*
X82550000Y-52457696D01*
X88900000Y-54610000D02*
X84702304Y-54610000D01*
X95240000Y-48270000D02*
X88900000Y-54610000D01*
X97800000Y-48270000D02*
X95240000Y-48270000D01*
X92720000Y-45730000D02*
X95260000Y-48270000D01*
X90180000Y-45730000D02*
X92720000Y-45730000D01*
X95260000Y-48270000D02*
X97800000Y-48270000D01*
%TO.N,Net-(Q1-G)*%
X83820000Y-44450000D02*
X86360000Y-44450000D01*
X81530000Y-42160000D02*
X83820000Y-44450000D01*
X86360000Y-44450000D02*
X90180000Y-48270000D01*
X71120000Y-42160000D02*
X81530000Y-42160000D01*
%TO.N,+12V*%
X86360000Y-46990000D02*
X90180000Y-50810000D01*
%TO.N,Net-(D2-A)*%
X80010000Y-50040896D02*
X80010000Y-52070000D01*
X78740000Y-48770896D02*
X80010000Y-50040896D01*
X78740000Y-46990000D02*
X78740000Y-48770896D01*
%TO.N,Net-(D1-K)*%
X85090000Y-49530000D02*
X85090000Y-52070000D01*
X82550000Y-46990000D02*
X85090000Y-49530000D01*
%TO.N,Net-(D1-A)*%
X89243432Y-39370000D02*
X86360000Y-39370000D01*
X95603432Y-45730000D02*
X89243432Y-39370000D01*
X97800000Y-45730000D02*
X95603432Y-45730000D01*
X86360000Y-39370000D02*
X82550000Y-39370000D01*
X78740000Y-39370000D02*
X82550000Y-39370000D01*
%TD*%
%TA.AperFunction,Conductor*%
%TO.N,+12V*%
G36*
X104693072Y-37019685D02*
G01*
X104738827Y-37072489D01*
X104748771Y-37141647D01*
X104719746Y-37205203D01*
X104704698Y-37219853D01*
X104663590Y-37253589D01*
X104532317Y-37413547D01*
X104434769Y-37596043D01*
X104374699Y-37794067D01*
X104354417Y-37999999D01*
X104374699Y-38205932D01*
X104381142Y-38227171D01*
X104434768Y-38403954D01*
X104532315Y-38586450D01*
X104532317Y-38586452D01*
X104663589Y-38746410D01*
X104758762Y-38824515D01*
X104823550Y-38877685D01*
X105006046Y-38975232D01*
X105204066Y-39035300D01*
X105204065Y-39035300D01*
X105242647Y-39039100D01*
X105358392Y-39050500D01*
X105358395Y-39050500D01*
X105461605Y-39050500D01*
X105461608Y-39050500D01*
X105615934Y-39035300D01*
X105813954Y-38975232D01*
X105996450Y-38877685D01*
X106156410Y-38746410D01*
X106287685Y-38586450D01*
X106385232Y-38403954D01*
X106445300Y-38205934D01*
X106465583Y-38000000D01*
X106445300Y-37794066D01*
X106385232Y-37596046D01*
X106287685Y-37413550D01*
X106156410Y-37253590D01*
X106156409Y-37253589D01*
X106115302Y-37219853D01*
X106075968Y-37162108D01*
X106074097Y-37092263D01*
X106110284Y-37032495D01*
X106173040Y-37001779D01*
X106193967Y-37000000D01*
X110876000Y-37000000D01*
X110943039Y-37019685D01*
X110988794Y-37072489D01*
X111000000Y-37124000D01*
X111000000Y-37943298D01*
X110980315Y-38010337D01*
X110927511Y-38056092D01*
X110858353Y-38066036D01*
X110799838Y-38041152D01*
X110790131Y-38033597D01*
X110733509Y-37989526D01*
X110616427Y-37926164D01*
X110514811Y-37871172D01*
X110514802Y-37871169D01*
X110279616Y-37790429D01*
X110034335Y-37749500D01*
X109785665Y-37749500D01*
X109540383Y-37790429D01*
X109305197Y-37871169D01*
X109305188Y-37871172D01*
X109086493Y-37989524D01*
X108890257Y-38142261D01*
X108721833Y-38325217D01*
X108585826Y-38533393D01*
X108485936Y-38761118D01*
X108424892Y-39002175D01*
X108424890Y-39002186D01*
X108409500Y-39187935D01*
X108409500Y-40812065D01*
X108424890Y-40997813D01*
X108424892Y-40997824D01*
X108485936Y-41238881D01*
X108585826Y-41466606D01*
X108721833Y-41674782D01*
X108721836Y-41674785D01*
X108890256Y-41857738D01*
X109086491Y-42010474D01*
X109305190Y-42128828D01*
X109540386Y-42209571D01*
X109785665Y-42250500D01*
X110034335Y-42250500D01*
X110279614Y-42209571D01*
X110514810Y-42128828D01*
X110733509Y-42010474D01*
X110799839Y-41958847D01*
X110864832Y-41933205D01*
X110933371Y-41946771D01*
X110983696Y-41995240D01*
X111000000Y-42056701D01*
X111000000Y-134876000D01*
X110980315Y-134943039D01*
X110927511Y-134988794D01*
X110876000Y-135000000D01*
X55124000Y-135000000D01*
X55056961Y-134980315D01*
X55011206Y-134927511D01*
X55000000Y-134876000D01*
X55000000Y-124275000D01*
X55369341Y-124275000D01*
X55389936Y-124510403D01*
X55389938Y-124510413D01*
X55451094Y-124738655D01*
X55451096Y-124738659D01*
X55451097Y-124738663D01*
X55483308Y-124807739D01*
X55550964Y-124952828D01*
X55550965Y-124952830D01*
X55686505Y-125146402D01*
X55853597Y-125313494D01*
X56047169Y-125449034D01*
X56047171Y-125449035D01*
X56261337Y-125548903D01*
X56489592Y-125610063D01*
X56666034Y-125625500D01*
X56783966Y-125625500D01*
X56960408Y-125610063D01*
X57188663Y-125548903D01*
X57402829Y-125449035D01*
X57596401Y-125313495D01*
X57763495Y-125146401D01*
X57899035Y-124952830D01*
X57998903Y-124738663D01*
X58060063Y-124510408D01*
X58080659Y-124275000D01*
X58060063Y-124039592D01*
X57998903Y-123811337D01*
X57899035Y-123597171D01*
X57899034Y-123597169D01*
X57763494Y-123403597D01*
X57596402Y-123236505D01*
X57402830Y-123100965D01*
X57402828Y-123100964D01*
X57295746Y-123051031D01*
X57188663Y-123001097D01*
X57188659Y-123001096D01*
X57188655Y-123001094D01*
X56960413Y-122939938D01*
X56960403Y-122939936D01*
X56783966Y-122924500D01*
X56666034Y-122924500D01*
X56489596Y-122939936D01*
X56489586Y-122939938D01*
X56261344Y-123001094D01*
X56261335Y-123001098D01*
X56047171Y-123100964D01*
X56047169Y-123100965D01*
X55853597Y-123236505D01*
X55686506Y-123403597D01*
X55686501Y-123403604D01*
X55550967Y-123597165D01*
X55550965Y-123597169D01*
X55463706Y-123784295D01*
X55452800Y-123807686D01*
X55451098Y-123811335D01*
X55451094Y-123811344D01*
X55389938Y-124039586D01*
X55389936Y-124039596D01*
X55369341Y-124274999D01*
X55369341Y-124275000D01*
X55000000Y-124275000D01*
X55000000Y-119937779D01*
X58495643Y-119937779D01*
X58499500Y-120031035D01*
X58499500Y-120812067D01*
X58499685Y-120814299D01*
X58514890Y-120997813D01*
X58514892Y-120997824D01*
X58575936Y-121238881D01*
X58675826Y-121466606D01*
X58811833Y-121674782D01*
X58811836Y-121674785D01*
X58980256Y-121857738D01*
X59176491Y-122010474D01*
X59395190Y-122128828D01*
X59630386Y-122209571D01*
X59875665Y-122250500D01*
X60077110Y-122250500D01*
X60144149Y-122270185D01*
X60164791Y-122286819D01*
X62060384Y-124182412D01*
X62065473Y-124188174D01*
X62082262Y-124209744D01*
X62082264Y-124209746D01*
X62082265Y-124209747D01*
X62150921Y-124272950D01*
X62172866Y-124294894D01*
X62172874Y-124294902D01*
X62196564Y-124314966D01*
X62265215Y-124378164D01*
X62265217Y-124378165D01*
X62265218Y-124378166D01*
X62288086Y-124393106D01*
X62294250Y-124397702D01*
X62315106Y-124415366D01*
X62383457Y-124456094D01*
X62395272Y-124463134D01*
X62467622Y-124510403D01*
X62473393Y-124514173D01*
X62498414Y-124525148D01*
X62505245Y-124528664D01*
X62528726Y-124542655D01*
X62553124Y-124552175D01*
X62615651Y-124576574D01*
X62678116Y-124603973D01*
X62701119Y-124614063D01*
X62701123Y-124614064D01*
X62727609Y-124620771D01*
X62734932Y-124623116D01*
X62760386Y-124633049D01*
X62851702Y-124652196D01*
X62942179Y-124675108D01*
X62969415Y-124677364D01*
X62977018Y-124678471D01*
X63003763Y-124684080D01*
X63096994Y-124687936D01*
X63127933Y-124690500D01*
X63127935Y-124690500D01*
X63158974Y-124690500D01*
X63252221Y-124694357D01*
X63268914Y-124692276D01*
X63279342Y-124690977D01*
X63287018Y-124690500D01*
X65942981Y-124690500D01*
X65950652Y-124690975D01*
X65977779Y-124694357D01*
X66071035Y-124690500D01*
X66102067Y-124690500D01*
X66132990Y-124687937D01*
X66226237Y-124684081D01*
X66252982Y-124678472D01*
X66260582Y-124677364D01*
X66287821Y-124675108D01*
X66287824Y-124675107D01*
X66287826Y-124675107D01*
X66287829Y-124675106D01*
X66378288Y-124652198D01*
X66378298Y-124652196D01*
X66469614Y-124633049D01*
X66495077Y-124623112D01*
X66502374Y-124620774D01*
X66528881Y-124614063D01*
X66614335Y-124576579D01*
X66701274Y-124542656D01*
X66724761Y-124528659D01*
X66731581Y-124525149D01*
X66756607Y-124514173D01*
X66834720Y-124463139D01*
X66914894Y-124415366D01*
X66935754Y-124397697D01*
X66941894Y-124393117D01*
X66964785Y-124378164D01*
X67033435Y-124314966D01*
X67057126Y-124294902D01*
X67079078Y-124272949D01*
X67147738Y-124209744D01*
X67164530Y-124188167D01*
X67169604Y-124182422D01*
X69526237Y-121825788D01*
X69587558Y-121792305D01*
X69657250Y-121797289D01*
X69713183Y-121839161D01*
X69735133Y-121887346D01*
X69774382Y-122069460D01*
X69855779Y-122272023D01*
X69860653Y-122284152D01*
X69981966Y-122481177D01*
X69981970Y-122481181D01*
X70134828Y-122654863D01*
X70134835Y-122654870D01*
X70314846Y-122800218D01*
X70314852Y-122800223D01*
X70516846Y-122913064D01*
X70516849Y-122913065D01*
X70735011Y-122990146D01*
X70838300Y-123007857D01*
X70963052Y-123029249D01*
X70963061Y-123029250D01*
X71218991Y-123029250D01*
X71391790Y-123014543D01*
X71391793Y-123014542D01*
X71391795Y-123014542D01*
X71615707Y-122956239D01*
X71615708Y-122956238D01*
X71615710Y-122956238D01*
X71826536Y-122860939D01*
X71826539Y-122860936D01*
X71826546Y-122860934D01*
X72018245Y-122731368D01*
X72185290Y-122571269D01*
X72322875Y-122385241D01*
X72427043Y-122178637D01*
X72494796Y-121957401D01*
X72524185Y-121727897D01*
X72522002Y-121676517D01*
X72514365Y-121496730D01*
X72514365Y-121496729D01*
X72512375Y-121487497D01*
X72465618Y-121270542D01*
X72464470Y-121267686D01*
X72408613Y-121128680D01*
X72379347Y-121055848D01*
X72258034Y-120858823D01*
X72105168Y-120685133D01*
X72105167Y-120685132D01*
X72101688Y-120681179D01*
X72103536Y-120679551D01*
X72073871Y-120627907D01*
X72077349Y-120558124D01*
X72110455Y-120507709D01*
X72227738Y-120399744D01*
X72380474Y-120203509D01*
X72498828Y-119984810D01*
X72579571Y-119749614D01*
X72620500Y-119504335D01*
X72620500Y-119255665D01*
X72579571Y-119010386D01*
X72498828Y-118775190D01*
X72380474Y-118556491D01*
X72333957Y-118496727D01*
X72308316Y-118431736D01*
X72321882Y-118363196D01*
X72357500Y-118321302D01*
X72377546Y-118306296D01*
X72463796Y-118191081D01*
X72514091Y-118056233D01*
X72520500Y-117996623D01*
X72520500Y-117889500D01*
X72540185Y-117822461D01*
X72592989Y-117776706D01*
X72644500Y-117765500D01*
X85897837Y-117765500D01*
X85964876Y-117785185D01*
X85985518Y-117801819D01*
X88865644Y-120681945D01*
X88899129Y-120743268D01*
X88897738Y-120801718D01*
X88894367Y-120814299D01*
X88894364Y-120814313D01*
X88874532Y-121040998D01*
X88874532Y-121041001D01*
X88894364Y-121267686D01*
X88894366Y-121267697D01*
X88953258Y-121487488D01*
X88953261Y-121487497D01*
X89049431Y-121693732D01*
X89049432Y-121693734D01*
X89179954Y-121880141D01*
X89340858Y-122041045D01*
X89340861Y-122041047D01*
X89527266Y-122171568D01*
X89733504Y-122267739D01*
X89733509Y-122267740D01*
X89733511Y-122267741D01*
X89749511Y-122272028D01*
X89953308Y-122326635D01*
X90115230Y-122340801D01*
X90179998Y-122346468D01*
X90180000Y-122346468D01*
X90180002Y-122346468D01*
X90236673Y-122341509D01*
X90406692Y-122326635D01*
X90626496Y-122267739D01*
X90832734Y-122171568D01*
X91019139Y-122041047D01*
X91180047Y-121880139D01*
X91310568Y-121693734D01*
X91406739Y-121487496D01*
X91465635Y-121267692D01*
X91485468Y-121041000D01*
X91465635Y-120814308D01*
X91406739Y-120594504D01*
X91310568Y-120388266D01*
X91198254Y-120227864D01*
X91180045Y-120201858D01*
X91019141Y-120040954D01*
X90832734Y-119910432D01*
X90832728Y-119910429D01*
X90774725Y-119883382D01*
X90722285Y-119837210D01*
X90703133Y-119770017D01*
X90723348Y-119703135D01*
X90774725Y-119658618D01*
X90832734Y-119631568D01*
X91019139Y-119501047D01*
X91180047Y-119340139D01*
X91257601Y-119229377D01*
X91312180Y-119185752D01*
X91359178Y-119176500D01*
X91987837Y-119176500D01*
X92054876Y-119196185D01*
X92075517Y-119212818D01*
X93816018Y-120953320D01*
X93849502Y-121014641D01*
X93844518Y-121084333D01*
X93816017Y-121128680D01*
X87386518Y-127558181D01*
X87325195Y-127591666D01*
X87298837Y-127594500D01*
X85421164Y-127594500D01*
X85354125Y-127574815D01*
X85333483Y-127558181D01*
X85067419Y-127292117D01*
X85033934Y-127230794D01*
X85038918Y-127161102D01*
X85080790Y-127105169D01*
X85144290Y-127080909D01*
X85325408Y-127065063D01*
X85553663Y-127003903D01*
X85767830Y-126904035D01*
X85961401Y-126768495D01*
X86128495Y-126601401D01*
X86264035Y-126407830D01*
X86363903Y-126193663D01*
X86425063Y-125965408D01*
X86445659Y-125730000D01*
X86425063Y-125494592D01*
X86363903Y-125266337D01*
X86264035Y-125052171D01*
X86258425Y-125044158D01*
X86128494Y-124858597D01*
X85961402Y-124691506D01*
X85961401Y-124691505D01*
X85863731Y-124623116D01*
X85818375Y-124591357D01*
X85774752Y-124536781D01*
X85765500Y-124489783D01*
X85765500Y-123212272D01*
X85765613Y-123208527D01*
X85769219Y-123148915D01*
X85760432Y-123100965D01*
X85758451Y-123090158D01*
X85757889Y-123086463D01*
X85750688Y-123027157D01*
X85750688Y-123027155D01*
X85747363Y-123018389D01*
X85741338Y-122996776D01*
X85739650Y-122987561D01*
X85715131Y-122933082D01*
X85713703Y-122929635D01*
X85713184Y-122928266D01*
X85692518Y-122873774D01*
X85687194Y-122866061D01*
X85676169Y-122846514D01*
X85672325Y-122837972D01*
X85635478Y-122790940D01*
X85633281Y-122787955D01*
X85599332Y-122738771D01*
X85554633Y-122699171D01*
X85551921Y-122696619D01*
X83628761Y-120773460D01*
X83595277Y-120712138D01*
X83600261Y-120642446D01*
X83642130Y-120586515D01*
X83707546Y-120537546D01*
X83793796Y-120422331D01*
X83844091Y-120287483D01*
X83850500Y-120227873D01*
X83850499Y-118532128D01*
X83844091Y-118472517D01*
X83815283Y-118395280D01*
X83793797Y-118337671D01*
X83793793Y-118337664D01*
X83707547Y-118222455D01*
X83707544Y-118222452D01*
X83592335Y-118136206D01*
X83592328Y-118136202D01*
X83457482Y-118085908D01*
X83457483Y-118085908D01*
X83397883Y-118079501D01*
X83397881Y-118079500D01*
X83397873Y-118079500D01*
X83397864Y-118079500D01*
X81702129Y-118079500D01*
X81702123Y-118079501D01*
X81642516Y-118085908D01*
X81507671Y-118136202D01*
X81507664Y-118136206D01*
X81392455Y-118222452D01*
X81392452Y-118222455D01*
X81306206Y-118337664D01*
X81306202Y-118337671D01*
X81255908Y-118472517D01*
X81249501Y-118532116D01*
X81249501Y-118532123D01*
X81249500Y-118532135D01*
X81249500Y-120227870D01*
X81249501Y-120227876D01*
X81255908Y-120287483D01*
X81306202Y-120422328D01*
X81306206Y-120422335D01*
X81392452Y-120537544D01*
X81392455Y-120537547D01*
X81507664Y-120623793D01*
X81507671Y-120623797D01*
X81518691Y-120627907D01*
X81642517Y-120674091D01*
X81702127Y-120680500D01*
X81763387Y-120680499D01*
X81830425Y-120700183D01*
X81876181Y-120752986D01*
X81886483Y-120789550D01*
X81889312Y-120812845D01*
X81892637Y-120821614D01*
X81898661Y-120843223D01*
X81900350Y-120852440D01*
X81924863Y-120906907D01*
X81926296Y-120910366D01*
X81947481Y-120966224D01*
X81947481Y-120966225D01*
X81952805Y-120973938D01*
X81963824Y-120993476D01*
X81967671Y-121002023D01*
X81967672Y-121002025D01*
X82004515Y-121049051D01*
X82006730Y-121052061D01*
X82040668Y-121101229D01*
X82085392Y-121140851D01*
X82088084Y-121143385D01*
X83254716Y-122310017D01*
X84378181Y-123433482D01*
X84411666Y-123494805D01*
X84414500Y-123521163D01*
X84414500Y-124489783D01*
X84394815Y-124556822D01*
X84361624Y-124591358D01*
X84218594Y-124691508D01*
X84051505Y-124858597D01*
X83921575Y-125044158D01*
X83866998Y-125087783D01*
X83797500Y-125094977D01*
X83735145Y-125063454D01*
X83718425Y-125044158D01*
X83588494Y-124858597D01*
X83421402Y-124691506D01*
X83421395Y-124691501D01*
X83420645Y-124690976D01*
X83344518Y-124637671D01*
X83227834Y-124555967D01*
X83227830Y-124555965D01*
X83169285Y-124528665D01*
X83013663Y-124456097D01*
X83013659Y-124456096D01*
X83013655Y-124456094D01*
X82785413Y-124394938D01*
X82785403Y-124394936D01*
X82550001Y-124374341D01*
X82549999Y-124374341D01*
X82314596Y-124394936D01*
X82314586Y-124394938D01*
X82086344Y-124456094D01*
X82086335Y-124456098D01*
X81872171Y-124555964D01*
X81872169Y-124555965D01*
X81678600Y-124691503D01*
X81556673Y-124813430D01*
X81495350Y-124846914D01*
X81425658Y-124841930D01*
X81369725Y-124800058D01*
X81352810Y-124769081D01*
X81303797Y-124637671D01*
X81303793Y-124637664D01*
X81217547Y-124522455D01*
X81217544Y-124522452D01*
X81102335Y-124436206D01*
X81102328Y-124436202D01*
X80967482Y-124385908D01*
X80967483Y-124385908D01*
X80907883Y-124379501D01*
X80907881Y-124379500D01*
X80907873Y-124379500D01*
X80907865Y-124379500D01*
X80809500Y-124379500D01*
X80742461Y-124359815D01*
X80696706Y-124307011D01*
X80685500Y-124255500D01*
X80685500Y-123212277D01*
X80685613Y-123208533D01*
X80689219Y-123148915D01*
X80680432Y-123100965D01*
X80678451Y-123090158D01*
X80677889Y-123086463D01*
X80670688Y-123027157D01*
X80670688Y-123027155D01*
X80667363Y-123018389D01*
X80661338Y-122996776D01*
X80659650Y-122987561D01*
X80635126Y-122933070D01*
X80633705Y-122929639D01*
X80612518Y-122873774D01*
X80607198Y-122866066D01*
X80596171Y-122846515D01*
X80592327Y-122837974D01*
X80592326Y-122837973D01*
X80592326Y-122837972D01*
X80555465Y-122790923D01*
X80553258Y-122787922D01*
X80519332Y-122738771D01*
X80474633Y-122699171D01*
X80471921Y-122696619D01*
X79451819Y-121676517D01*
X79418334Y-121615194D01*
X79415500Y-121588836D01*
X79415500Y-120559177D01*
X79435185Y-120492138D01*
X79468375Y-120457603D01*
X79579139Y-120380047D01*
X79740047Y-120219139D01*
X79870568Y-120032734D01*
X79966739Y-119826496D01*
X80025635Y-119606692D01*
X80045468Y-119380000D01*
X80025635Y-119153308D01*
X79980916Y-118986415D01*
X79966741Y-118933511D01*
X79966738Y-118933502D01*
X79870568Y-118727266D01*
X79740047Y-118540861D01*
X79740045Y-118540858D01*
X79579141Y-118379954D01*
X79392734Y-118249432D01*
X79392732Y-118249431D01*
X79186497Y-118153261D01*
X79186488Y-118153258D01*
X78966697Y-118094366D01*
X78966693Y-118094365D01*
X78966692Y-118094365D01*
X78966691Y-118094364D01*
X78966686Y-118094364D01*
X78740002Y-118074532D01*
X78739998Y-118074532D01*
X78513313Y-118094364D01*
X78513302Y-118094366D01*
X78293511Y-118153258D01*
X78293502Y-118153261D01*
X78087267Y-118249431D01*
X78087265Y-118249432D01*
X77900858Y-118379954D01*
X77739954Y-118540858D01*
X77609432Y-118727265D01*
X77609431Y-118727267D01*
X77513261Y-118933502D01*
X77513258Y-118933511D01*
X77454366Y-119153302D01*
X77454364Y-119153313D01*
X77434532Y-119379998D01*
X77434532Y-119380001D01*
X77454364Y-119606686D01*
X77454366Y-119606697D01*
X77513258Y-119826488D01*
X77513261Y-119826497D01*
X77609431Y-120032732D01*
X77609432Y-120032734D01*
X77739954Y-120219141D01*
X77900858Y-120380045D01*
X77912599Y-120388266D01*
X78011620Y-120457601D01*
X78011622Y-120457602D01*
X78055247Y-120512178D01*
X78064499Y-120559177D01*
X78064499Y-121897722D01*
X78064386Y-121901465D01*
X78060780Y-121961080D01*
X78060781Y-121961085D01*
X78071545Y-122019828D01*
X78072108Y-122023529D01*
X78079311Y-122082845D01*
X78082637Y-122091614D01*
X78088661Y-122113223D01*
X78090350Y-122122440D01*
X78114863Y-122176907D01*
X78116296Y-122180366D01*
X78137481Y-122236224D01*
X78137481Y-122236225D01*
X78142805Y-122243938D01*
X78153824Y-122263476D01*
X78157671Y-122272023D01*
X78157672Y-122272025D01*
X78157673Y-122272026D01*
X78157674Y-122272028D01*
X78187437Y-122310017D01*
X78194515Y-122319051D01*
X78196730Y-122322061D01*
X78230668Y-122371229D01*
X78275392Y-122410851D01*
X78278084Y-122413385D01*
X78789199Y-122924500D01*
X79298181Y-123433482D01*
X79331666Y-123494805D01*
X79334500Y-123521163D01*
X79334500Y-124255500D01*
X79314815Y-124322539D01*
X79262011Y-124368294D01*
X79210501Y-124379500D01*
X79112130Y-124379500D01*
X79112123Y-124379501D01*
X79052516Y-124385908D01*
X78917671Y-124436202D01*
X78917664Y-124436206D01*
X78802455Y-124522452D01*
X78802452Y-124522455D01*
X78716206Y-124637664D01*
X78716202Y-124637671D01*
X78665908Y-124772517D01*
X78659501Y-124832116D01*
X78659500Y-124832135D01*
X78659500Y-126627870D01*
X78659501Y-126627876D01*
X78665908Y-126687483D01*
X78716202Y-126822328D01*
X78716206Y-126822335D01*
X78802452Y-126937544D01*
X78802455Y-126937547D01*
X78917664Y-127023793D01*
X78917671Y-127023797D01*
X79052517Y-127074091D01*
X79052516Y-127074091D01*
X79059444Y-127074835D01*
X79112127Y-127080500D01*
X79944835Y-127080499D01*
X80011874Y-127100183D01*
X80057629Y-127152987D01*
X80067573Y-127222146D01*
X80038548Y-127285702D01*
X80032516Y-127292180D01*
X77266518Y-130058181D01*
X77205195Y-130091666D01*
X77178837Y-130094500D01*
X72544499Y-130094500D01*
X72477460Y-130074815D01*
X72431705Y-130022011D01*
X72420499Y-129970500D01*
X72420499Y-129922129D01*
X72420498Y-129922123D01*
X72420497Y-129922116D01*
X72414091Y-129862517D01*
X72363796Y-129727669D01*
X72363795Y-129727668D01*
X72363793Y-129727664D01*
X72277547Y-129612455D01*
X72277544Y-129612452D01*
X72162335Y-129526206D01*
X72162328Y-129526202D01*
X72027483Y-129475908D01*
X72022079Y-129474632D01*
X71961363Y-129440060D01*
X71928976Y-129378149D01*
X71935202Y-129308558D01*
X71962910Y-129266275D01*
X72120047Y-129109139D01*
X72250568Y-128922734D01*
X72346739Y-128716496D01*
X72405635Y-128496692D01*
X72425468Y-128270000D01*
X72405635Y-128043308D01*
X72346739Y-127823504D01*
X72250568Y-127617266D01*
X72120047Y-127430861D01*
X72120045Y-127430858D01*
X71959141Y-127269954D01*
X71772734Y-127139432D01*
X71772732Y-127139431D01*
X71566497Y-127043261D01*
X71566488Y-127043258D01*
X71346697Y-126984366D01*
X71346693Y-126984365D01*
X71346692Y-126984365D01*
X71346691Y-126984364D01*
X71346686Y-126984364D01*
X71120002Y-126964532D01*
X71119998Y-126964532D01*
X70893313Y-126984364D01*
X70893302Y-126984366D01*
X70673511Y-127043258D01*
X70673502Y-127043261D01*
X70467267Y-127139431D01*
X70467265Y-127139432D01*
X70280858Y-127269954D01*
X70119954Y-127430858D01*
X69989432Y-127617265D01*
X69989431Y-127617267D01*
X69893261Y-127823502D01*
X69893258Y-127823511D01*
X69834366Y-128043302D01*
X69834364Y-128043313D01*
X69814532Y-128269998D01*
X69814532Y-128270001D01*
X69834364Y-128496686D01*
X69834366Y-128496697D01*
X69893258Y-128716488D01*
X69893261Y-128716497D01*
X69938881Y-128814327D01*
X69987992Y-128919647D01*
X69989430Y-128922729D01*
X69989432Y-128922734D01*
X70119954Y-129109141D01*
X70277086Y-129266273D01*
X70310571Y-129327596D01*
X70305587Y-129397288D01*
X70263715Y-129453221D01*
X70217932Y-129474628D01*
X70212522Y-129475906D01*
X70077671Y-129526202D01*
X70077664Y-129526206D01*
X69962455Y-129612452D01*
X69962452Y-129612455D01*
X69876206Y-129727664D01*
X69876202Y-129727671D01*
X69825908Y-129862517D01*
X69819501Y-129922116D01*
X69819501Y-129922123D01*
X69819500Y-129922135D01*
X69819500Y-131617870D01*
X69819501Y-131617876D01*
X69825908Y-131677483D01*
X69876202Y-131812328D01*
X69876206Y-131812335D01*
X69962452Y-131927544D01*
X69962455Y-131927547D01*
X70077664Y-132013793D01*
X70077671Y-132013797D01*
X70212517Y-132064091D01*
X70212516Y-132064091D01*
X70219444Y-132064835D01*
X70272127Y-132070500D01*
X71967872Y-132070499D01*
X72027483Y-132064091D01*
X72162331Y-132013796D01*
X72277546Y-131927546D01*
X72363796Y-131812331D01*
X72414091Y-131677483D01*
X72420500Y-131617873D01*
X72420500Y-131569500D01*
X72440185Y-131502461D01*
X72492989Y-131456706D01*
X72544500Y-131445500D01*
X77487722Y-131445500D01*
X77491466Y-131445613D01*
X77551082Y-131449219D01*
X77551082Y-131449218D01*
X77551085Y-131449219D01*
X77587327Y-131442577D01*
X77609836Y-131438453D01*
X77613540Y-131437889D01*
X77634888Y-131435296D01*
X77672845Y-131430688D01*
X77681605Y-131427365D01*
X77703221Y-131421338D01*
X77712439Y-131419650D01*
X77766916Y-131395132D01*
X77770358Y-131393705D01*
X77826226Y-131372518D01*
X77833933Y-131367197D01*
X77853480Y-131356172D01*
X77862028Y-131352326D01*
X77909066Y-131315472D01*
X77912059Y-131313269D01*
X77961229Y-131279332D01*
X78000852Y-131234605D01*
X78003386Y-131231913D01*
X82150121Y-127085178D01*
X82211442Y-127051695D01*
X82269893Y-127053086D01*
X82269897Y-127053087D01*
X82314592Y-127065063D01*
X82491034Y-127080500D01*
X82549999Y-127085659D01*
X82550000Y-127085659D01*
X82550001Y-127085659D01*
X82568939Y-127084001D01*
X82785408Y-127065063D01*
X82804844Y-127059855D01*
X82830103Y-127053087D01*
X82899953Y-127054748D01*
X82949878Y-127085179D01*
X84596619Y-128731921D01*
X84599171Y-128734633D01*
X84638771Y-128779332D01*
X84687955Y-128813281D01*
X84690944Y-128815481D01*
X84737972Y-128852325D01*
X84746514Y-128856169D01*
X84766061Y-128867194D01*
X84773774Y-128872518D01*
X84829643Y-128893706D01*
X84833082Y-128895131D01*
X84887561Y-128919650D01*
X84896776Y-128921338D01*
X84918389Y-128927363D01*
X84927155Y-128930688D01*
X84986471Y-128937890D01*
X84990158Y-128938451D01*
X85048915Y-128949219D01*
X85104889Y-128945833D01*
X85108527Y-128945613D01*
X85112272Y-128945500D01*
X87607722Y-128945500D01*
X87611466Y-128945613D01*
X87671082Y-128949219D01*
X87671082Y-128949218D01*
X87671085Y-128949219D01*
X87707327Y-128942577D01*
X87729836Y-128938453D01*
X87733540Y-128937889D01*
X87754888Y-128935296D01*
X87792845Y-128930688D01*
X87801605Y-128927365D01*
X87823221Y-128921338D01*
X87832439Y-128919650D01*
X87886916Y-128895132D01*
X87890358Y-128893705D01*
X87946226Y-128872518D01*
X87953933Y-128867197D01*
X87973480Y-128856172D01*
X87982028Y-128852326D01*
X88029066Y-128815472D01*
X88032072Y-128813261D01*
X88081229Y-128779332D01*
X88120852Y-128734605D01*
X88123395Y-128731905D01*
X95102481Y-121752819D01*
X95163805Y-121719334D01*
X95190163Y-121716500D01*
X96620822Y-121716500D01*
X96687861Y-121736185D01*
X96722397Y-121769377D01*
X96799954Y-121880141D01*
X96960858Y-122041045D01*
X96960861Y-122041047D01*
X97147266Y-122171568D01*
X97205275Y-122198618D01*
X97257714Y-122244791D01*
X97276866Y-122311984D01*
X97256650Y-122378865D01*
X97205275Y-122423382D01*
X97147267Y-122450431D01*
X97147265Y-122450432D01*
X96960858Y-122580954D01*
X96799954Y-122741858D01*
X96669432Y-122928265D01*
X96669431Y-122928267D01*
X96573261Y-123134502D01*
X96573258Y-123134511D01*
X96514366Y-123354302D01*
X96514364Y-123354313D01*
X96494532Y-123580998D01*
X96494532Y-123581001D01*
X96514364Y-123807686D01*
X96514366Y-123807697D01*
X96573258Y-124027488D01*
X96573261Y-124027497D01*
X96669431Y-124233732D01*
X96669432Y-124233734D01*
X96799954Y-124420141D01*
X96960858Y-124581045D01*
X96960861Y-124581047D01*
X97147266Y-124711568D01*
X97353504Y-124807739D01*
X97573308Y-124866635D01*
X97735230Y-124880801D01*
X97799998Y-124886468D01*
X97800000Y-124886468D01*
X97800002Y-124886468D01*
X97856672Y-124881509D01*
X98026692Y-124866635D01*
X98246496Y-124807739D01*
X98452734Y-124711568D01*
X98639139Y-124581047D01*
X98800047Y-124420139D01*
X98930568Y-124233734D01*
X99026739Y-124027496D01*
X99085635Y-123807692D01*
X99105468Y-123581000D01*
X99085635Y-123354308D01*
X99026739Y-123134504D01*
X98930568Y-122928266D01*
X98800047Y-122741861D01*
X98800045Y-122741858D01*
X98639141Y-122580954D01*
X98452734Y-122450432D01*
X98452728Y-122450429D01*
X98394725Y-122423382D01*
X98342285Y-122377210D01*
X98323133Y-122310017D01*
X98343348Y-122243135D01*
X98394725Y-122198618D01*
X98452734Y-122171568D01*
X98639139Y-122041047D01*
X98800047Y-121880139D01*
X98930568Y-121693734D01*
X99026739Y-121487496D01*
X99085635Y-121267692D01*
X99105468Y-121041000D01*
X99085635Y-120814308D01*
X99026739Y-120594504D01*
X98930568Y-120388266D01*
X98818254Y-120227864D01*
X98800045Y-120201858D01*
X98639141Y-120040954D01*
X98452734Y-119910432D01*
X98452728Y-119910429D01*
X98394725Y-119883382D01*
X98342285Y-119837210D01*
X98323133Y-119770017D01*
X98343348Y-119703135D01*
X98394725Y-119658618D01*
X98452734Y-119631568D01*
X98639139Y-119501047D01*
X98800047Y-119340139D01*
X98930568Y-119153734D01*
X98930765Y-119153313D01*
X98981119Y-119045327D01*
X99026739Y-118947496D01*
X99085635Y-118727692D01*
X99105468Y-118501000D01*
X99105094Y-118496730D01*
X99095307Y-118384864D01*
X99085635Y-118274308D01*
X99033437Y-118079500D01*
X99026741Y-118054511D01*
X99026738Y-118054502D01*
X98977207Y-117948284D01*
X98930568Y-117848266D01*
X98800047Y-117661861D01*
X98800045Y-117661858D01*
X98639141Y-117500954D01*
X98452734Y-117370432D01*
X98452732Y-117370431D01*
X98246497Y-117274261D01*
X98246488Y-117274258D01*
X98026697Y-117215366D01*
X98026693Y-117215365D01*
X98026692Y-117215365D01*
X98026691Y-117215364D01*
X98026686Y-117215364D01*
X97800002Y-117195532D01*
X97799998Y-117195532D01*
X97573313Y-117215364D01*
X97573302Y-117215366D01*
X97353511Y-117274258D01*
X97353502Y-117274261D01*
X97147267Y-117370431D01*
X97147265Y-117370432D01*
X96960858Y-117500954D01*
X96799954Y-117661858D01*
X96722397Y-117772623D01*
X96667820Y-117816248D01*
X96620822Y-117825500D01*
X95972163Y-117825500D01*
X95905124Y-117805815D01*
X95884482Y-117789181D01*
X92646265Y-114550964D01*
X90871302Y-112776001D01*
X93944532Y-112776001D01*
X93964364Y-113002686D01*
X93964366Y-113002697D01*
X94023258Y-113222488D01*
X94023261Y-113222497D01*
X94119431Y-113428732D01*
X94119432Y-113428734D01*
X94249954Y-113615141D01*
X94410858Y-113776045D01*
X94410861Y-113776047D01*
X94597266Y-113906568D01*
X94803504Y-114002739D01*
X95023308Y-114061635D01*
X95185230Y-114075801D01*
X95249998Y-114081468D01*
X95250000Y-114081468D01*
X95250002Y-114081468D01*
X95306673Y-114076509D01*
X95476692Y-114061635D01*
X95696496Y-114002739D01*
X95902734Y-113906568D01*
X96089139Y-113776047D01*
X96250047Y-113615139D01*
X96380568Y-113428734D01*
X96476739Y-113222496D01*
X96535635Y-113002692D01*
X96555468Y-112776000D01*
X96535635Y-112549308D01*
X96476739Y-112329504D01*
X96380568Y-112123266D01*
X96250047Y-111936861D01*
X96250045Y-111936858D01*
X96089141Y-111775954D01*
X95902734Y-111645432D01*
X95902732Y-111645431D01*
X95696497Y-111549261D01*
X95696488Y-111549258D01*
X95476697Y-111490366D01*
X95476693Y-111490365D01*
X95476692Y-111490365D01*
X95476691Y-111490364D01*
X95476686Y-111490364D01*
X95250002Y-111470532D01*
X95249998Y-111470532D01*
X95023313Y-111490364D01*
X95023302Y-111490366D01*
X94803511Y-111549258D01*
X94803502Y-111549261D01*
X94597267Y-111645431D01*
X94597265Y-111645432D01*
X94410858Y-111775954D01*
X94249954Y-111936858D01*
X94119432Y-112123265D01*
X94119431Y-112123267D01*
X94023261Y-112329502D01*
X94023258Y-112329511D01*
X93964366Y-112549302D01*
X93964364Y-112549313D01*
X93944532Y-112775998D01*
X93944532Y-112776001D01*
X90871302Y-112776001D01*
X89393385Y-111298084D01*
X89390851Y-111295392D01*
X89351229Y-111250668D01*
X89302061Y-111216730D01*
X89299051Y-111214515D01*
X89252025Y-111177672D01*
X89252023Y-111177671D01*
X89243476Y-111173824D01*
X89223938Y-111162805D01*
X89216226Y-111157482D01*
X89216224Y-111157481D01*
X89160366Y-111136296D01*
X89156907Y-111134863D01*
X89102440Y-111110350D01*
X89102441Y-111110350D01*
X89095087Y-111109002D01*
X89093222Y-111108660D01*
X89071614Y-111102637D01*
X89062845Y-111099311D01*
X89003529Y-111092108D01*
X88999828Y-111091545D01*
X88941089Y-111080781D01*
X88941082Y-111080781D01*
X88881466Y-111084387D01*
X88877722Y-111084500D01*
X87539178Y-111084500D01*
X87472139Y-111064815D01*
X87437603Y-111031623D01*
X87360045Y-110920858D01*
X87199141Y-110759954D01*
X87012734Y-110629432D01*
X87012732Y-110629431D01*
X86806497Y-110533261D01*
X86806488Y-110533258D01*
X86586697Y-110474366D01*
X86586693Y-110474365D01*
X86586692Y-110474365D01*
X86586691Y-110474364D01*
X86586686Y-110474364D01*
X86360002Y-110454532D01*
X86359998Y-110454532D01*
X86133313Y-110474364D01*
X86133302Y-110474366D01*
X85913511Y-110533258D01*
X85913502Y-110533261D01*
X85707267Y-110629431D01*
X85707265Y-110629432D01*
X85520858Y-110759954D01*
X85359954Y-110920858D01*
X85282397Y-111031623D01*
X85227820Y-111075248D01*
X85180822Y-111084500D01*
X83729178Y-111084500D01*
X83662139Y-111064815D01*
X83627603Y-111031623D01*
X83550045Y-110920858D01*
X83389141Y-110759954D01*
X83202734Y-110629432D01*
X83202732Y-110629431D01*
X82996497Y-110533261D01*
X82996488Y-110533258D01*
X82776697Y-110474366D01*
X82776693Y-110474365D01*
X82776692Y-110474365D01*
X82776691Y-110474364D01*
X82776686Y-110474364D01*
X82550002Y-110454532D01*
X82549998Y-110454532D01*
X82323313Y-110474364D01*
X82323302Y-110474366D01*
X82103511Y-110533258D01*
X82103502Y-110533261D01*
X81897267Y-110629431D01*
X81897265Y-110629432D01*
X81710858Y-110759954D01*
X81549954Y-110920858D01*
X81472397Y-111031623D01*
X81417820Y-111075248D01*
X81370822Y-111084500D01*
X80164499Y-111084500D01*
X80097460Y-111064815D01*
X80051705Y-111012011D01*
X80040499Y-110960500D01*
X80040499Y-110912129D01*
X80040498Y-110912123D01*
X80040497Y-110912116D01*
X80034091Y-110852517D01*
X79999567Y-110759954D01*
X79983797Y-110717671D01*
X79983793Y-110717664D01*
X79897547Y-110602455D01*
X79897544Y-110602452D01*
X79782335Y-110516206D01*
X79782328Y-110516202D01*
X79647482Y-110465908D01*
X79647483Y-110465908D01*
X79587883Y-110459501D01*
X79587881Y-110459500D01*
X79587873Y-110459500D01*
X79587864Y-110459500D01*
X77892129Y-110459500D01*
X77892123Y-110459501D01*
X77832516Y-110465908D01*
X77697671Y-110516202D01*
X77697664Y-110516206D01*
X77582455Y-110602452D01*
X77582452Y-110602455D01*
X77496206Y-110717664D01*
X77496202Y-110717671D01*
X77445908Y-110852517D01*
X77439501Y-110912116D01*
X77439501Y-110912123D01*
X77439500Y-110912135D01*
X77439500Y-112607870D01*
X77439501Y-112607876D01*
X77445908Y-112667483D01*
X77496202Y-112802328D01*
X77496206Y-112802335D01*
X77582452Y-112917544D01*
X77582455Y-112917547D01*
X77697664Y-113003793D01*
X77697671Y-113003797D01*
X77832517Y-113054091D01*
X77832516Y-113054091D01*
X77839444Y-113054835D01*
X77892127Y-113060500D01*
X79587872Y-113060499D01*
X79647483Y-113054091D01*
X79782331Y-113003796D01*
X79897546Y-112917546D01*
X79983796Y-112802331D01*
X80034091Y-112667483D01*
X80040500Y-112607873D01*
X80040500Y-112559500D01*
X80060185Y-112492461D01*
X80112989Y-112446706D01*
X80164500Y-112435500D01*
X81370822Y-112435500D01*
X81437861Y-112455185D01*
X81472397Y-112488377D01*
X81549954Y-112599141D01*
X81710858Y-112760045D01*
X81710861Y-112760047D01*
X81897266Y-112890568D01*
X82103504Y-112986739D01*
X82323308Y-113045635D01*
X82485230Y-113059801D01*
X82549998Y-113065468D01*
X82550000Y-113065468D01*
X82550002Y-113065468D01*
X82606807Y-113060498D01*
X82776692Y-113045635D01*
X82996496Y-112986739D01*
X83202734Y-112890568D01*
X83389139Y-112760047D01*
X83550047Y-112599139D01*
X83627601Y-112488377D01*
X83682180Y-112444752D01*
X83729178Y-112435500D01*
X85180822Y-112435500D01*
X85247861Y-112455185D01*
X85282397Y-112488377D01*
X85359954Y-112599141D01*
X85520858Y-112760045D01*
X85520861Y-112760047D01*
X85707266Y-112890568D01*
X85913504Y-112986739D01*
X86133308Y-113045635D01*
X86295230Y-113059801D01*
X86359998Y-113065468D01*
X86360000Y-113065468D01*
X86360002Y-113065468D01*
X86416807Y-113060498D01*
X86586692Y-113045635D01*
X86806496Y-112986739D01*
X87012734Y-112890568D01*
X87199139Y-112760047D01*
X87360047Y-112599139D01*
X87437601Y-112488377D01*
X87492180Y-112444752D01*
X87539178Y-112435500D01*
X88568837Y-112435500D01*
X88635876Y-112455185D01*
X88656518Y-112471819D01*
X90633518Y-114448819D01*
X90667003Y-114510142D01*
X90662019Y-114579834D01*
X90620147Y-114635767D01*
X90554683Y-114660184D01*
X90545837Y-114660500D01*
X89332129Y-114660500D01*
X89332123Y-114660501D01*
X89272516Y-114666908D01*
X89137671Y-114717202D01*
X89137664Y-114717206D01*
X89022455Y-114803452D01*
X89022452Y-114803455D01*
X88936206Y-114918664D01*
X88936202Y-114918671D01*
X88885908Y-115053517D01*
X88879501Y-115113116D01*
X88879500Y-115113135D01*
X88879500Y-116808870D01*
X88879501Y-116808876D01*
X88885908Y-116868483D01*
X88936202Y-117003328D01*
X88936206Y-117003335D01*
X89022452Y-117118544D01*
X89022455Y-117118547D01*
X89137664Y-117204793D01*
X89137671Y-117204797D01*
X89182618Y-117221560D01*
X89272517Y-117255091D01*
X89307596Y-117258862D01*
X89372144Y-117285599D01*
X89411993Y-117342991D01*
X89414488Y-117412816D01*
X89378836Y-117472905D01*
X89365464Y-117483725D01*
X89340858Y-117500954D01*
X89179954Y-117661858D01*
X89049432Y-117848265D01*
X89049431Y-117848267D01*
X88953261Y-118054502D01*
X88953258Y-118054511D01*
X88894366Y-118274302D01*
X88894364Y-118274313D01*
X88875244Y-118492860D01*
X88849792Y-118557929D01*
X88793201Y-118598908D01*
X88723439Y-118602786D01*
X88664035Y-118569734D01*
X87756159Y-117661858D01*
X86722385Y-116628084D01*
X86719851Y-116625392D01*
X86680229Y-116580668D01*
X86631061Y-116546730D01*
X86628051Y-116544515D01*
X86581025Y-116507672D01*
X86581023Y-116507671D01*
X86572476Y-116503824D01*
X86552938Y-116492805D01*
X86545226Y-116487482D01*
X86545224Y-116487481D01*
X86489366Y-116466296D01*
X86485907Y-116464863D01*
X86431440Y-116440350D01*
X86431441Y-116440350D01*
X86424087Y-116439002D01*
X86422222Y-116438660D01*
X86400614Y-116432637D01*
X86391845Y-116429311D01*
X86332529Y-116422108D01*
X86328828Y-116421545D01*
X86270089Y-116410781D01*
X86270082Y-116410781D01*
X86210466Y-116414387D01*
X86206722Y-116414500D01*
X72644499Y-116414500D01*
X72577460Y-116394815D01*
X72531705Y-116342011D01*
X72520499Y-116290500D01*
X72520499Y-116183379D01*
X72520498Y-116183373D01*
X72520497Y-116183366D01*
X72514091Y-116123767D01*
X72463796Y-115988919D01*
X72463795Y-115988918D01*
X72463793Y-115988914D01*
X72377547Y-115873705D01*
X72377544Y-115873702D01*
X72262335Y-115787456D01*
X72262328Y-115787452D01*
X72127482Y-115737158D01*
X72127483Y-115737158D01*
X72067883Y-115730751D01*
X72067881Y-115730750D01*
X72067873Y-115730750D01*
X72067864Y-115730750D01*
X70172129Y-115730750D01*
X70172123Y-115730751D01*
X70112516Y-115737158D01*
X69977671Y-115787452D01*
X69977664Y-115787456D01*
X69862455Y-115873702D01*
X69862452Y-115873705D01*
X69776206Y-115988914D01*
X69776202Y-115988921D01*
X69725908Y-116123767D01*
X69719501Y-116183366D01*
X69719501Y-116183373D01*
X69719500Y-116183385D01*
X69719500Y-117771020D01*
X69699815Y-117838059D01*
X69647011Y-117883814D01*
X69605743Y-117894596D01*
X69602186Y-117894890D01*
X69602175Y-117894892D01*
X69541714Y-117910203D01*
X69511725Y-117917797D01*
X69507543Y-117918674D01*
X69420390Y-117936948D01*
X69420375Y-117936953D01*
X69394920Y-117946886D01*
X69387599Y-117949231D01*
X69361119Y-117955937D01*
X69361113Y-117955939D01*
X69275667Y-117993419D01*
X69188723Y-118027345D01*
X69165247Y-118041333D01*
X69158413Y-118044851D01*
X69133388Y-118055829D01*
X69133385Y-118055830D01*
X69055275Y-118106862D01*
X68975101Y-118154637D01*
X68954250Y-118172297D01*
X68948087Y-118176892D01*
X68925215Y-118191835D01*
X68925212Y-118191838D01*
X68856554Y-118255042D01*
X68832871Y-118275101D01*
X68810934Y-118297038D01*
X68742261Y-118360257D01*
X68742256Y-118360262D01*
X68725472Y-118381826D01*
X68720383Y-118387589D01*
X65454791Y-121653181D01*
X65393468Y-121686666D01*
X65367110Y-121689500D01*
X63862890Y-121689500D01*
X63795851Y-121669815D01*
X63775209Y-121653181D01*
X61536819Y-119414790D01*
X61503334Y-119353467D01*
X61500500Y-119327109D01*
X61500500Y-119187935D01*
X61485109Y-119002186D01*
X61485107Y-119002175D01*
X61424063Y-118761118D01*
X61324173Y-118533393D01*
X61188166Y-118325217D01*
X61118400Y-118249431D01*
X61019744Y-118142262D01*
X60823509Y-117989526D01*
X60823507Y-117989525D01*
X60823506Y-117989524D01*
X60604811Y-117871172D01*
X60604802Y-117871169D01*
X60369616Y-117790429D01*
X60124335Y-117749500D01*
X59875665Y-117749500D01*
X59630383Y-117790429D01*
X59395197Y-117871169D01*
X59395188Y-117871172D01*
X59176493Y-117989524D01*
X58980257Y-118142261D01*
X58811833Y-118325217D01*
X58675826Y-118533393D01*
X58575936Y-118761118D01*
X58514892Y-119002175D01*
X58514890Y-119002186D01*
X58499500Y-119187935D01*
X58499500Y-119902981D01*
X58499024Y-119910651D01*
X58495643Y-119937779D01*
X55000000Y-119937779D01*
X55000000Y-115725000D01*
X55369341Y-115725000D01*
X55389936Y-115960403D01*
X55389938Y-115960413D01*
X55451094Y-116188655D01*
X55451096Y-116188659D01*
X55451097Y-116188663D01*
X55498585Y-116290500D01*
X55550964Y-116402828D01*
X55550965Y-116402830D01*
X55686505Y-116596402D01*
X55853597Y-116763494D01*
X56047169Y-116899034D01*
X56047171Y-116899035D01*
X56261337Y-116998903D01*
X56261343Y-116998904D01*
X56261344Y-116998905D01*
X56316285Y-117013626D01*
X56489592Y-117060063D01*
X56666034Y-117075500D01*
X56783966Y-117075500D01*
X56960408Y-117060063D01*
X57188663Y-116998903D01*
X57402829Y-116899035D01*
X57596401Y-116763495D01*
X57763495Y-116596401D01*
X57899035Y-116402830D01*
X57998903Y-116188663D01*
X58060063Y-115960408D01*
X58080659Y-115725000D01*
X58060063Y-115489592D01*
X57998903Y-115261337D01*
X57899035Y-115047171D01*
X57899034Y-115047169D01*
X57763494Y-114853597D01*
X57596402Y-114686505D01*
X57402830Y-114550965D01*
X57402828Y-114550964D01*
X57295746Y-114501031D01*
X57188663Y-114451097D01*
X57188659Y-114451096D01*
X57188655Y-114451094D01*
X56960413Y-114389938D01*
X56960403Y-114389936D01*
X56783966Y-114374500D01*
X56666034Y-114374500D01*
X56489596Y-114389936D01*
X56489586Y-114389938D01*
X56261344Y-114451094D01*
X56261335Y-114451098D01*
X56047171Y-114550964D01*
X56047169Y-114550965D01*
X55853597Y-114686505D01*
X55686506Y-114853597D01*
X55686501Y-114853604D01*
X55550967Y-115047165D01*
X55550965Y-115047169D01*
X55451098Y-115261335D01*
X55451094Y-115261344D01*
X55389938Y-115489586D01*
X55389936Y-115489596D01*
X55369341Y-115724999D01*
X55369341Y-115725000D01*
X55000000Y-115725000D01*
X55000000Y-99275000D01*
X55369341Y-99275000D01*
X55389936Y-99510403D01*
X55389938Y-99510413D01*
X55451094Y-99738655D01*
X55451096Y-99738659D01*
X55451097Y-99738663D01*
X55466558Y-99771819D01*
X55550964Y-99952828D01*
X55550965Y-99952830D01*
X55686505Y-100146402D01*
X55853597Y-100313494D01*
X56047169Y-100449034D01*
X56047171Y-100449035D01*
X56261337Y-100548903D01*
X56489592Y-100610063D01*
X56666034Y-100625500D01*
X56783966Y-100625500D01*
X56960408Y-100610063D01*
X57188663Y-100548903D01*
X57402829Y-100449035D01*
X57596401Y-100313495D01*
X57763495Y-100146401D01*
X57899035Y-99952830D01*
X57998903Y-99738663D01*
X58060063Y-99510408D01*
X58080659Y-99275000D01*
X58060063Y-99039592D01*
X58004790Y-98833308D01*
X57998905Y-98811344D01*
X57998904Y-98811343D01*
X57998903Y-98811337D01*
X57899035Y-98597171D01*
X57899034Y-98597169D01*
X57763494Y-98403597D01*
X57596402Y-98236505D01*
X57402830Y-98100965D01*
X57402828Y-98100964D01*
X57290612Y-98048637D01*
X57188663Y-98001097D01*
X57188659Y-98001096D01*
X57188655Y-98001094D01*
X56960413Y-97939938D01*
X56960403Y-97939936D01*
X56783966Y-97924500D01*
X56666034Y-97924500D01*
X56489596Y-97939936D01*
X56489586Y-97939938D01*
X56261344Y-98001094D01*
X56261335Y-98001098D01*
X56047171Y-98100964D01*
X56047169Y-98100965D01*
X55853597Y-98236505D01*
X55686506Y-98403597D01*
X55686501Y-98403604D01*
X55550967Y-98597165D01*
X55550965Y-98597169D01*
X55451098Y-98811335D01*
X55451094Y-98811344D01*
X55389938Y-99039586D01*
X55389936Y-99039596D01*
X55369341Y-99274999D01*
X55369341Y-99275000D01*
X55000000Y-99275000D01*
X55000000Y-95497779D01*
X58495643Y-95497779D01*
X58499500Y-95591035D01*
X58499500Y-95812065D01*
X58514890Y-95997813D01*
X58514892Y-95997824D01*
X58575936Y-96238881D01*
X58675826Y-96466606D01*
X58811833Y-96674782D01*
X58811836Y-96674785D01*
X58980256Y-96857738D01*
X59176491Y-97010474D01*
X59395190Y-97128828D01*
X59446649Y-97146493D01*
X59494065Y-97176093D01*
X61100384Y-98782412D01*
X61105473Y-98788174D01*
X61122262Y-98809744D01*
X61122264Y-98809746D01*
X61122265Y-98809747D01*
X61190921Y-98872950D01*
X61202514Y-98884542D01*
X61212874Y-98894902D01*
X61236564Y-98914966D01*
X61305215Y-98978164D01*
X61305217Y-98978165D01*
X61305218Y-98978166D01*
X61328086Y-98993106D01*
X61334250Y-98997702D01*
X61355106Y-99015366D01*
X61369255Y-99023797D01*
X61435278Y-99063139D01*
X61461852Y-99080500D01*
X61513393Y-99114173D01*
X61538412Y-99125147D01*
X61545243Y-99128663D01*
X61558657Y-99136656D01*
X61568720Y-99142653D01*
X61568730Y-99142658D01*
X61655663Y-99176579D01*
X61669518Y-99182656D01*
X61741119Y-99214063D01*
X61765908Y-99220340D01*
X61767609Y-99220771D01*
X61774932Y-99223116D01*
X61800386Y-99233049D01*
X61891702Y-99252196D01*
X61982179Y-99275108D01*
X62009415Y-99277364D01*
X62017018Y-99278471D01*
X62043763Y-99284080D01*
X62136994Y-99287936D01*
X62167933Y-99290500D01*
X62167935Y-99290500D01*
X62198974Y-99290500D01*
X62292221Y-99294357D01*
X62308914Y-99292276D01*
X62319342Y-99290977D01*
X62327018Y-99290500D01*
X67212981Y-99290500D01*
X67220652Y-99290975D01*
X67247779Y-99294357D01*
X67341035Y-99290500D01*
X67372067Y-99290500D01*
X67402990Y-99287937D01*
X67496237Y-99284081D01*
X67522982Y-99278472D01*
X67530582Y-99277364D01*
X67557821Y-99275108D01*
X67557824Y-99275107D01*
X67557826Y-99275107D01*
X67557829Y-99275106D01*
X67648288Y-99252198D01*
X67648298Y-99252196D01*
X67739614Y-99233049D01*
X67765077Y-99223112D01*
X67772374Y-99220774D01*
X67798881Y-99214063D01*
X67884335Y-99176579D01*
X67971274Y-99142656D01*
X67994761Y-99128659D01*
X68001581Y-99125149D01*
X68026607Y-99114173D01*
X68104720Y-99063139D01*
X68184894Y-99015366D01*
X68205754Y-98997697D01*
X68211894Y-98993117D01*
X68234785Y-98978164D01*
X68303435Y-98914966D01*
X68327126Y-98894902D01*
X68349078Y-98872949D01*
X68417738Y-98809744D01*
X68434530Y-98788167D01*
X68439604Y-98782422D01*
X69427514Y-97794512D01*
X69488835Y-97761029D01*
X69558527Y-97766013D01*
X69614460Y-97807885D01*
X69636410Y-97856070D01*
X69654382Y-97939460D01*
X69740651Y-98154148D01*
X69740653Y-98154152D01*
X69861966Y-98351177D01*
X69911331Y-98407267D01*
X70014828Y-98524863D01*
X70014835Y-98524870D01*
X70194846Y-98670218D01*
X70194852Y-98670223D01*
X70396846Y-98783064D01*
X70396849Y-98783065D01*
X70615011Y-98860146D01*
X70742265Y-98881966D01*
X70843052Y-98899249D01*
X70843061Y-98899250D01*
X71098991Y-98899250D01*
X71271790Y-98884543D01*
X71271793Y-98884542D01*
X71271795Y-98884542D01*
X71495707Y-98826239D01*
X71495708Y-98826238D01*
X71495710Y-98826238D01*
X71706536Y-98730939D01*
X71706539Y-98730936D01*
X71706546Y-98730934D01*
X71898245Y-98601368D01*
X72065290Y-98441269D01*
X72202875Y-98255241D01*
X72307043Y-98048637D01*
X72374796Y-97827401D01*
X72404185Y-97597897D01*
X72394365Y-97366727D01*
X72345618Y-97140542D01*
X72338375Y-97122518D01*
X72282405Y-96983231D01*
X72259347Y-96925848D01*
X72138034Y-96728823D01*
X71985168Y-96555133D01*
X71985167Y-96555132D01*
X71981688Y-96551179D01*
X71983536Y-96549551D01*
X71953871Y-96497907D01*
X71957349Y-96428124D01*
X71990455Y-96377709D01*
X72107738Y-96269744D01*
X72260474Y-96073509D01*
X72378828Y-95854810D01*
X72459571Y-95619614D01*
X72500500Y-95374335D01*
X72500500Y-95125665D01*
X72459571Y-94880386D01*
X72378828Y-94645190D01*
X72260474Y-94426491D01*
X72213957Y-94366727D01*
X72188316Y-94301736D01*
X72201882Y-94233196D01*
X72237500Y-94191302D01*
X72257546Y-94176296D01*
X72343796Y-94061081D01*
X72394091Y-93926233D01*
X72400500Y-93866623D01*
X72400500Y-93759500D01*
X72420185Y-93692461D01*
X72472989Y-93646706D01*
X72524500Y-93635500D01*
X81198837Y-93635500D01*
X81265876Y-93655185D01*
X81286518Y-93671819D01*
X83326611Y-95711912D01*
X83329163Y-95714624D01*
X83368772Y-95759333D01*
X83417932Y-95793265D01*
X83420949Y-95795486D01*
X83458385Y-95824815D01*
X83467972Y-95832326D01*
X83476515Y-95836171D01*
X83496067Y-95847198D01*
X83503774Y-95852518D01*
X83559639Y-95873705D01*
X83563070Y-95875126D01*
X83617561Y-95899650D01*
X83626776Y-95901338D01*
X83648389Y-95907363D01*
X83657155Y-95910688D01*
X83716471Y-95917890D01*
X83720158Y-95918451D01*
X83778915Y-95929219D01*
X83778916Y-95929218D01*
X83778917Y-95929219D01*
X83838534Y-95925613D01*
X83842278Y-95925500D01*
X86048837Y-95925500D01*
X86115876Y-95945185D01*
X86136518Y-95961819D01*
X88875644Y-98700945D01*
X88909129Y-98762268D01*
X88907738Y-98820718D01*
X88904367Y-98833299D01*
X88904364Y-98833313D01*
X88884532Y-99059998D01*
X88884532Y-99060001D01*
X88904364Y-99286686D01*
X88904366Y-99286697D01*
X88963258Y-99506488D01*
X88963261Y-99506497D01*
X89059431Y-99712732D01*
X89059432Y-99712734D01*
X89189954Y-99899141D01*
X89350858Y-100060045D01*
X89350861Y-100060047D01*
X89537266Y-100190568D01*
X89743504Y-100286739D01*
X89963308Y-100345635D01*
X90125230Y-100359801D01*
X90189998Y-100365468D01*
X90190000Y-100365468D01*
X90190002Y-100365468D01*
X90246672Y-100360509D01*
X90416692Y-100345635D01*
X90636496Y-100286739D01*
X90842734Y-100190568D01*
X91029139Y-100060047D01*
X91190047Y-99899139D01*
X91320568Y-99712734D01*
X91416739Y-99506496D01*
X91475635Y-99286692D01*
X91492634Y-99092384D01*
X91495468Y-99060001D01*
X91495468Y-99059998D01*
X91484755Y-98937547D01*
X91475635Y-98833308D01*
X91420587Y-98627864D01*
X91416741Y-98613511D01*
X91416738Y-98613502D01*
X91375408Y-98524870D01*
X91320568Y-98407266D01*
X91190047Y-98220861D01*
X91190045Y-98220858D01*
X91029141Y-98059954D01*
X90842734Y-97929432D01*
X90842728Y-97929429D01*
X90784725Y-97902382D01*
X90732285Y-97856210D01*
X90713133Y-97789017D01*
X90733348Y-97722135D01*
X90784725Y-97677618D01*
X90842734Y-97650568D01*
X91029139Y-97520047D01*
X91190047Y-97359139D01*
X91267601Y-97248377D01*
X91322180Y-97204752D01*
X91369178Y-97195500D01*
X92398837Y-97195500D01*
X92465876Y-97215185D01*
X92486518Y-97231819D01*
X94217017Y-98962318D01*
X94250502Y-99023641D01*
X94245518Y-99093333D01*
X94217017Y-99137680D01*
X87396518Y-105958181D01*
X87335195Y-105991666D01*
X87308837Y-105994500D01*
X84942003Y-105994500D01*
X84874964Y-105974815D01*
X84854322Y-105958181D01*
X84503103Y-105606962D01*
X84469618Y-105545639D01*
X84474602Y-105475947D01*
X84516474Y-105420014D01*
X84581938Y-105395597D01*
X84633201Y-105402762D01*
X84636334Y-105403902D01*
X84636336Y-105403902D01*
X84636337Y-105403903D01*
X84864592Y-105465063D01*
X85041034Y-105480500D01*
X85099999Y-105485659D01*
X85100000Y-105485659D01*
X85100001Y-105485659D01*
X85158966Y-105480500D01*
X85335408Y-105465063D01*
X85563663Y-105403903D01*
X85777830Y-105304035D01*
X85971401Y-105168495D01*
X86138495Y-105001401D01*
X86274035Y-104807830D01*
X86373903Y-104593663D01*
X86435063Y-104365408D01*
X86455659Y-104130000D01*
X86435063Y-103894592D01*
X86373903Y-103666337D01*
X86274035Y-103452171D01*
X86268425Y-103444158D01*
X86138494Y-103258597D01*
X85971402Y-103091506D01*
X85971401Y-103091505D01*
X85828376Y-102991358D01*
X85784752Y-102936781D01*
X85775500Y-102889783D01*
X85775500Y-101632277D01*
X85775613Y-101628533D01*
X85779219Y-101568915D01*
X85768453Y-101510168D01*
X85767889Y-101506463D01*
X85760688Y-101447157D01*
X85760688Y-101447155D01*
X85757363Y-101438389D01*
X85751338Y-101416776D01*
X85749650Y-101407561D01*
X85725126Y-101353070D01*
X85723703Y-101349634D01*
X85702518Y-101293774D01*
X85697198Y-101286066D01*
X85686171Y-101266515D01*
X85682326Y-101257972D01*
X85675944Y-101249827D01*
X85645486Y-101210949D01*
X85643265Y-101207932D01*
X85609333Y-101158772D01*
X85603384Y-101153502D01*
X85564624Y-101119163D01*
X85561905Y-101116604D01*
X83627325Y-99182024D01*
X83593840Y-99120701D01*
X83598824Y-99051009D01*
X83640693Y-98995077D01*
X83717546Y-98937546D01*
X83803796Y-98822331D01*
X83854091Y-98687483D01*
X83860500Y-98627873D01*
X83860499Y-96932128D01*
X83854091Y-96872517D01*
X83819567Y-96779954D01*
X83803797Y-96737671D01*
X83803793Y-96737664D01*
X83717547Y-96622455D01*
X83717544Y-96622452D01*
X83602335Y-96536206D01*
X83602328Y-96536202D01*
X83467482Y-96485908D01*
X83467483Y-96485908D01*
X83407883Y-96479501D01*
X83407881Y-96479500D01*
X83407873Y-96479500D01*
X83407864Y-96479500D01*
X81712129Y-96479500D01*
X81712123Y-96479501D01*
X81652516Y-96485908D01*
X81517671Y-96536202D01*
X81517664Y-96536206D01*
X81402455Y-96622452D01*
X81402452Y-96622455D01*
X81316206Y-96737664D01*
X81316202Y-96737671D01*
X81265908Y-96872517D01*
X81259501Y-96932116D01*
X81259501Y-96932123D01*
X81259500Y-96932135D01*
X81259500Y-98627870D01*
X81259501Y-98627876D01*
X81265908Y-98687483D01*
X81316202Y-98822328D01*
X81316206Y-98822335D01*
X81402452Y-98937544D01*
X81402455Y-98937547D01*
X81517664Y-99023793D01*
X81517671Y-99023797D01*
X81560004Y-99039586D01*
X81652517Y-99074091D01*
X81712127Y-99080500D01*
X81758622Y-99080499D01*
X81825659Y-99100182D01*
X81871415Y-99152985D01*
X81880589Y-99182138D01*
X81880683Y-99182654D01*
X81891813Y-99218369D01*
X81893606Y-99225644D01*
X81900350Y-99262440D01*
X81915703Y-99296553D01*
X81918360Y-99303559D01*
X81929485Y-99339264D01*
X81929488Y-99339271D01*
X81948839Y-99371280D01*
X81952321Y-99377915D01*
X81967674Y-99412028D01*
X81967675Y-99412031D01*
X81990741Y-99441472D01*
X81994997Y-99447638D01*
X82014350Y-99479651D01*
X82014351Y-99479652D01*
X82014352Y-99479653D01*
X82043459Y-99508759D01*
X82043459Y-99508760D01*
X83218175Y-100683476D01*
X84388181Y-101853482D01*
X84421666Y-101914805D01*
X84424500Y-101941163D01*
X84424500Y-102889783D01*
X84404815Y-102956822D01*
X84371624Y-102991358D01*
X84228594Y-103091508D01*
X84061505Y-103258597D01*
X83931575Y-103444158D01*
X83876998Y-103487783D01*
X83807500Y-103494977D01*
X83745145Y-103463454D01*
X83728425Y-103444158D01*
X83598494Y-103258597D01*
X83431402Y-103091506D01*
X83431395Y-103091501D01*
X83237834Y-102955967D01*
X83237830Y-102955965D01*
X83196690Y-102936781D01*
X83023663Y-102856097D01*
X83023659Y-102856096D01*
X83023655Y-102856094D01*
X82795413Y-102794938D01*
X82795403Y-102794936D01*
X82560001Y-102774341D01*
X82559999Y-102774341D01*
X82324596Y-102794936D01*
X82324586Y-102794938D01*
X82096344Y-102856094D01*
X82096335Y-102856098D01*
X81882171Y-102955964D01*
X81882169Y-102955965D01*
X81688600Y-103091503D01*
X81566673Y-103213430D01*
X81505350Y-103246914D01*
X81435658Y-103241930D01*
X81379725Y-103200058D01*
X81362810Y-103169081D01*
X81313797Y-103037671D01*
X81313793Y-103037664D01*
X81227547Y-102922455D01*
X81227544Y-102922452D01*
X81112335Y-102836206D01*
X81112328Y-102836202D01*
X80977482Y-102785908D01*
X80977483Y-102785908D01*
X80917883Y-102779501D01*
X80917881Y-102779500D01*
X80917873Y-102779500D01*
X80917865Y-102779500D01*
X80819500Y-102779500D01*
X80752461Y-102759815D01*
X80706706Y-102707011D01*
X80695500Y-102655500D01*
X80695500Y-101632277D01*
X80695613Y-101628533D01*
X80699219Y-101568915D01*
X80688453Y-101510168D01*
X80687889Y-101506463D01*
X80680688Y-101447157D01*
X80680688Y-101447155D01*
X80677363Y-101438389D01*
X80671338Y-101416776D01*
X80669650Y-101407561D01*
X80645126Y-101353070D01*
X80643703Y-101349634D01*
X80622518Y-101293774D01*
X80617198Y-101286066D01*
X80606171Y-101266515D01*
X80602327Y-101257974D01*
X80602326Y-101257973D01*
X80602326Y-101257972D01*
X80565465Y-101210923D01*
X80563258Y-101207922D01*
X80529332Y-101158771D01*
X80484624Y-101119163D01*
X80481921Y-101116619D01*
X79461818Y-100096516D01*
X79428333Y-100035193D01*
X79425499Y-100008843D01*
X79425499Y-98959176D01*
X79445184Y-98892138D01*
X79478373Y-98857604D01*
X79589139Y-98780047D01*
X79750047Y-98619139D01*
X79880568Y-98432734D01*
X79976739Y-98226496D01*
X80035635Y-98006692D01*
X80055468Y-97780000D01*
X80035635Y-97553308D01*
X79976739Y-97333504D01*
X79880568Y-97127266D01*
X79750047Y-96940861D01*
X79750045Y-96940858D01*
X79589141Y-96779954D01*
X79402734Y-96649432D01*
X79402732Y-96649431D01*
X79196497Y-96553261D01*
X79196488Y-96553258D01*
X78976697Y-96494366D01*
X78976693Y-96494365D01*
X78976692Y-96494365D01*
X78976691Y-96494364D01*
X78976686Y-96494364D01*
X78750002Y-96474532D01*
X78749998Y-96474532D01*
X78523313Y-96494364D01*
X78523302Y-96494366D01*
X78303511Y-96553258D01*
X78303502Y-96553261D01*
X78097267Y-96649431D01*
X78097265Y-96649432D01*
X77910858Y-96779954D01*
X77749954Y-96940858D01*
X77619432Y-97127265D01*
X77619431Y-97127267D01*
X77523261Y-97333502D01*
X77523258Y-97333511D01*
X77464366Y-97553302D01*
X77464364Y-97553313D01*
X77444532Y-97779998D01*
X77444532Y-97780001D01*
X77464364Y-98006686D01*
X77464366Y-98006697D01*
X77523258Y-98226488D01*
X77523261Y-98226497D01*
X77619431Y-98432732D01*
X77619432Y-98432734D01*
X77749954Y-98619141D01*
X77910857Y-98780044D01*
X77910860Y-98780046D01*
X77910861Y-98780047D01*
X78021623Y-98857602D01*
X78065248Y-98912178D01*
X78074500Y-98959177D01*
X78074500Y-100317722D01*
X78074387Y-100321466D01*
X78070781Y-100381082D01*
X78070781Y-100381085D01*
X78081545Y-100439828D01*
X78082108Y-100443529D01*
X78089311Y-100502845D01*
X78092637Y-100511614D01*
X78098661Y-100533223D01*
X78100350Y-100542440D01*
X78124863Y-100596907D01*
X78126296Y-100600366D01*
X78147481Y-100656224D01*
X78147481Y-100656225D01*
X78152805Y-100663938D01*
X78163824Y-100683476D01*
X78167671Y-100692023D01*
X78167672Y-100692025D01*
X78204515Y-100739051D01*
X78206730Y-100742061D01*
X78240668Y-100791229D01*
X78285392Y-100830851D01*
X78288084Y-100833385D01*
X78804333Y-101349634D01*
X79308181Y-101853482D01*
X79341666Y-101914805D01*
X79344500Y-101941163D01*
X79344500Y-102655500D01*
X79324815Y-102722539D01*
X79272011Y-102768294D01*
X79220501Y-102779500D01*
X79122130Y-102779500D01*
X79122123Y-102779501D01*
X79062516Y-102785908D01*
X78927671Y-102836202D01*
X78927664Y-102836206D01*
X78812455Y-102922452D01*
X78812452Y-102922455D01*
X78726206Y-103037664D01*
X78726202Y-103037671D01*
X78675908Y-103172517D01*
X78669501Y-103232116D01*
X78669500Y-103232135D01*
X78669500Y-105027870D01*
X78669501Y-105027876D01*
X78675908Y-105087483D01*
X78726202Y-105222328D01*
X78726206Y-105222335D01*
X78812452Y-105337544D01*
X78812455Y-105337547D01*
X78927664Y-105423793D01*
X78927671Y-105423797D01*
X79062517Y-105474091D01*
X79062516Y-105474091D01*
X79069444Y-105474835D01*
X79122127Y-105480500D01*
X79954836Y-105480499D01*
X80021875Y-105500183D01*
X80067630Y-105552987D01*
X80077574Y-105622146D01*
X80048549Y-105685702D01*
X80042517Y-105692180D01*
X78496518Y-107238181D01*
X78435195Y-107271666D01*
X78408837Y-107274500D01*
X72544499Y-107274500D01*
X72477460Y-107254815D01*
X72431705Y-107202011D01*
X72420499Y-107150500D01*
X72420499Y-107102129D01*
X72420498Y-107102123D01*
X72420497Y-107102116D01*
X72414091Y-107042517D01*
X72363796Y-106907669D01*
X72363795Y-106907668D01*
X72363793Y-106907664D01*
X72277547Y-106792455D01*
X72277544Y-106792452D01*
X72162335Y-106706206D01*
X72162328Y-106706202D01*
X72027483Y-106655908D01*
X72022079Y-106654632D01*
X71961363Y-106620060D01*
X71928976Y-106558149D01*
X71935202Y-106488558D01*
X71962910Y-106446275D01*
X72120047Y-106289139D01*
X72250568Y-106102734D01*
X72346739Y-105896496D01*
X72405635Y-105676692D01*
X72425468Y-105450000D01*
X72423175Y-105423796D01*
X72419801Y-105385230D01*
X72405635Y-105223308D01*
X72346739Y-105003504D01*
X72250568Y-104797266D01*
X72120047Y-104610861D01*
X72120045Y-104610858D01*
X71959141Y-104449954D01*
X71772734Y-104319432D01*
X71772732Y-104319431D01*
X71566497Y-104223261D01*
X71566488Y-104223258D01*
X71346697Y-104164366D01*
X71346693Y-104164365D01*
X71346692Y-104164365D01*
X71346691Y-104164364D01*
X71346686Y-104164364D01*
X71120002Y-104144532D01*
X71119998Y-104144532D01*
X70893313Y-104164364D01*
X70893302Y-104164366D01*
X70673511Y-104223258D01*
X70673502Y-104223261D01*
X70467267Y-104319431D01*
X70467265Y-104319432D01*
X70280858Y-104449954D01*
X70119954Y-104610858D01*
X69989432Y-104797265D01*
X69989431Y-104797267D01*
X69893261Y-105003502D01*
X69893258Y-105003511D01*
X69834366Y-105223302D01*
X69834364Y-105223313D01*
X69814532Y-105449998D01*
X69814532Y-105450001D01*
X69834364Y-105676686D01*
X69834366Y-105676697D01*
X69893258Y-105896488D01*
X69893261Y-105896497D01*
X69989431Y-106102732D01*
X69989432Y-106102734D01*
X70119954Y-106289141D01*
X70277086Y-106446273D01*
X70310571Y-106507596D01*
X70305587Y-106577288D01*
X70263715Y-106633221D01*
X70217932Y-106654628D01*
X70212522Y-106655906D01*
X70077671Y-106706202D01*
X70077664Y-106706206D01*
X69962455Y-106792452D01*
X69962452Y-106792455D01*
X69876206Y-106907664D01*
X69876202Y-106907671D01*
X69825908Y-107042517D01*
X69819501Y-107102116D01*
X69819501Y-107102123D01*
X69819500Y-107102135D01*
X69819500Y-108797870D01*
X69819501Y-108797876D01*
X69825908Y-108857483D01*
X69876202Y-108992328D01*
X69876206Y-108992335D01*
X69962452Y-109107544D01*
X69962455Y-109107547D01*
X70077664Y-109193793D01*
X70077671Y-109193797D01*
X70212517Y-109244091D01*
X70212516Y-109244091D01*
X70219444Y-109244835D01*
X70272127Y-109250500D01*
X71967872Y-109250499D01*
X72027483Y-109244091D01*
X72162331Y-109193796D01*
X72277546Y-109107546D01*
X72363796Y-108992331D01*
X72414091Y-108857483D01*
X72420500Y-108797873D01*
X72420500Y-108749499D01*
X72440185Y-108682461D01*
X72492989Y-108636706D01*
X72544500Y-108625500D01*
X78717722Y-108625500D01*
X78721466Y-108625613D01*
X78781082Y-108629219D01*
X78781082Y-108629218D01*
X78781085Y-108629219D01*
X78817327Y-108622577D01*
X78839836Y-108618453D01*
X78843540Y-108617889D01*
X78864888Y-108615296D01*
X78902845Y-108610688D01*
X78911605Y-108607365D01*
X78933221Y-108601338D01*
X78942439Y-108599650D01*
X78996916Y-108575132D01*
X79000358Y-108573705D01*
X79056226Y-108552518D01*
X79063933Y-108547197D01*
X79083480Y-108536172D01*
X79092028Y-108532326D01*
X79139066Y-108495472D01*
X79142059Y-108493269D01*
X79191229Y-108459332D01*
X79230852Y-108414605D01*
X79233386Y-108411913D01*
X82160121Y-105485178D01*
X82221442Y-105451695D01*
X82279893Y-105453086D01*
X82287912Y-105455234D01*
X82324592Y-105465063D01*
X82417723Y-105473210D01*
X82482790Y-105498662D01*
X82494595Y-105509056D01*
X84117451Y-107131912D01*
X84120003Y-107134624D01*
X84159612Y-107179333D01*
X84208772Y-107213265D01*
X84211789Y-107215486D01*
X84250667Y-107245944D01*
X84258812Y-107252326D01*
X84267348Y-107256168D01*
X84267355Y-107256171D01*
X84286906Y-107267198D01*
X84294608Y-107272514D01*
X84294614Y-107272518D01*
X84350479Y-107293705D01*
X84353910Y-107295126D01*
X84408401Y-107319650D01*
X84417616Y-107321338D01*
X84439229Y-107327363D01*
X84447995Y-107330688D01*
X84507311Y-107337890D01*
X84510998Y-107338451D01*
X84569755Y-107349219D01*
X84569756Y-107349218D01*
X84569757Y-107349219D01*
X84629374Y-107345613D01*
X84633118Y-107345500D01*
X87617722Y-107345500D01*
X87621466Y-107345613D01*
X87681082Y-107349219D01*
X87681082Y-107349218D01*
X87681085Y-107349219D01*
X87717327Y-107342577D01*
X87739836Y-107338453D01*
X87743540Y-107337889D01*
X87764888Y-107335296D01*
X87802845Y-107330688D01*
X87811605Y-107327365D01*
X87833221Y-107321338D01*
X87842439Y-107319650D01*
X87896916Y-107295132D01*
X87900358Y-107293705D01*
X87956226Y-107272518D01*
X87960764Y-107269385D01*
X87963935Y-107267197D01*
X87983480Y-107256172D01*
X87992028Y-107252326D01*
X88039066Y-107215472D01*
X88042059Y-107213269D01*
X88091229Y-107179332D01*
X88130852Y-107134605D01*
X88133386Y-107131913D01*
X95493482Y-99771819D01*
X95554806Y-99738334D01*
X95581164Y-99735500D01*
X96630822Y-99735500D01*
X96697861Y-99755185D01*
X96732397Y-99788377D01*
X96809954Y-99899141D01*
X96970858Y-100060045D01*
X96970861Y-100060047D01*
X97157266Y-100190568D01*
X97215275Y-100217618D01*
X97267714Y-100263791D01*
X97286866Y-100330984D01*
X97266650Y-100397865D01*
X97215275Y-100442382D01*
X97157267Y-100469431D01*
X97157265Y-100469432D01*
X96970858Y-100599954D01*
X96809954Y-100760858D01*
X96679432Y-100947265D01*
X96679431Y-100947267D01*
X96583261Y-101153502D01*
X96583258Y-101153511D01*
X96524366Y-101373302D01*
X96524364Y-101373313D01*
X96504532Y-101599998D01*
X96504532Y-101600001D01*
X96524364Y-101826686D01*
X96524366Y-101826697D01*
X96583258Y-102046488D01*
X96583261Y-102046497D01*
X96679431Y-102252732D01*
X96679432Y-102252734D01*
X96809954Y-102439141D01*
X96970858Y-102600045D01*
X96970861Y-102600047D01*
X97157266Y-102730568D01*
X97363504Y-102826739D01*
X97363509Y-102826740D01*
X97363511Y-102826741D01*
X97416415Y-102840916D01*
X97583308Y-102885635D01*
X97745230Y-102899801D01*
X97809998Y-102905468D01*
X97810000Y-102905468D01*
X97810002Y-102905468D01*
X97866673Y-102900509D01*
X98036692Y-102885635D01*
X98256496Y-102826739D01*
X98462734Y-102730568D01*
X98649139Y-102600047D01*
X98810047Y-102439139D01*
X98940568Y-102252734D01*
X99036739Y-102046496D01*
X99095635Y-101826692D01*
X99115468Y-101600000D01*
X99112748Y-101568915D01*
X99107447Y-101508322D01*
X99095635Y-101373308D01*
X99036739Y-101153504D01*
X98940568Y-100947266D01*
X98810047Y-100760861D01*
X98810045Y-100760858D01*
X98649141Y-100599954D01*
X98462734Y-100469432D01*
X98462728Y-100469429D01*
X98418993Y-100449035D01*
X98404724Y-100442381D01*
X98352285Y-100396210D01*
X98333133Y-100329017D01*
X98353348Y-100262135D01*
X98404725Y-100217618D01*
X98462734Y-100190568D01*
X98649139Y-100060047D01*
X98810047Y-99899139D01*
X98940568Y-99712734D01*
X99036739Y-99506496D01*
X99095635Y-99286692D01*
X99112634Y-99092384D01*
X99115468Y-99060001D01*
X99115468Y-99059998D01*
X99104755Y-98937547D01*
X99095635Y-98833308D01*
X99040587Y-98627864D01*
X99036741Y-98613511D01*
X99036738Y-98613502D01*
X98995408Y-98524870D01*
X98940568Y-98407266D01*
X98810047Y-98220861D01*
X98810045Y-98220858D01*
X98649141Y-98059954D01*
X98462734Y-97929432D01*
X98462728Y-97929429D01*
X98404725Y-97902382D01*
X98352285Y-97856210D01*
X98333133Y-97789017D01*
X98353348Y-97722135D01*
X98404725Y-97677618D01*
X98462734Y-97650568D01*
X98649139Y-97520047D01*
X98810047Y-97359139D01*
X98940568Y-97172734D01*
X98954106Y-97143703D01*
X98971607Y-97106171D01*
X99036739Y-96966496D01*
X99095635Y-96746692D01*
X99115468Y-96520000D01*
X99112485Y-96485909D01*
X99095635Y-96293313D01*
X99095635Y-96293308D01*
X99036739Y-96073504D01*
X98940568Y-95867266D01*
X98810047Y-95680861D01*
X98810045Y-95680858D01*
X98649141Y-95519954D01*
X98462734Y-95389432D01*
X98462732Y-95389431D01*
X98256497Y-95293261D01*
X98256488Y-95293258D01*
X98036697Y-95234366D01*
X98036693Y-95234365D01*
X98036692Y-95234365D01*
X98036691Y-95234364D01*
X98036686Y-95234364D01*
X97810002Y-95214532D01*
X97809998Y-95214532D01*
X97583313Y-95234364D01*
X97583302Y-95234366D01*
X97363511Y-95293258D01*
X97363502Y-95293261D01*
X97157267Y-95389431D01*
X97157265Y-95389432D01*
X96970858Y-95519954D01*
X96809954Y-95680858D01*
X96732397Y-95791623D01*
X96677820Y-95835248D01*
X96630822Y-95844500D01*
X95581164Y-95844500D01*
X95514125Y-95824815D01*
X95493483Y-95808181D01*
X93987038Y-94301736D01*
X90490302Y-90805001D01*
X91464532Y-90805001D01*
X91484364Y-91031686D01*
X91484366Y-91031697D01*
X91543258Y-91251488D01*
X91543261Y-91251497D01*
X91639431Y-91457732D01*
X91639432Y-91457734D01*
X91769954Y-91644141D01*
X91930858Y-91805045D01*
X91930861Y-91805047D01*
X92117266Y-91935568D01*
X92323504Y-92031739D01*
X92543308Y-92090635D01*
X92705230Y-92104801D01*
X92769998Y-92110468D01*
X92770000Y-92110468D01*
X92770002Y-92110468D01*
X92826672Y-92105509D01*
X92996692Y-92090635D01*
X93216496Y-92031739D01*
X93422734Y-91935568D01*
X93609139Y-91805047D01*
X93770047Y-91644139D01*
X93900568Y-91457734D01*
X93996739Y-91251496D01*
X94055635Y-91031692D01*
X94075468Y-90805000D01*
X94055635Y-90578308D01*
X93996739Y-90358504D01*
X93900568Y-90152266D01*
X93770047Y-89965861D01*
X93770045Y-89965858D01*
X93609141Y-89804954D01*
X93422734Y-89674432D01*
X93422732Y-89674431D01*
X93216497Y-89578261D01*
X93216488Y-89578258D01*
X92996697Y-89519366D01*
X92996693Y-89519365D01*
X92996692Y-89519365D01*
X92996691Y-89519364D01*
X92996686Y-89519364D01*
X92770002Y-89499532D01*
X92769998Y-89499532D01*
X92543313Y-89519364D01*
X92543302Y-89519366D01*
X92323511Y-89578258D01*
X92323502Y-89578261D01*
X92117267Y-89674431D01*
X92117265Y-89674432D01*
X91930858Y-89804954D01*
X91769954Y-89965858D01*
X91639432Y-90152265D01*
X91639431Y-90152267D01*
X91543261Y-90358502D01*
X91543258Y-90358511D01*
X91484366Y-90578302D01*
X91484364Y-90578313D01*
X91464532Y-90804998D01*
X91464532Y-90805001D01*
X90490302Y-90805001D01*
X89383385Y-89698084D01*
X89380851Y-89695392D01*
X89341229Y-89650668D01*
X89292061Y-89616730D01*
X89289051Y-89614515D01*
X89242025Y-89577672D01*
X89242023Y-89577671D01*
X89233476Y-89573824D01*
X89213938Y-89562805D01*
X89206226Y-89557482D01*
X89206224Y-89557481D01*
X89150366Y-89536296D01*
X89146907Y-89534863D01*
X89092440Y-89510350D01*
X89092441Y-89510350D01*
X89085087Y-89509002D01*
X89083222Y-89508660D01*
X89061614Y-89502637D01*
X89052845Y-89499311D01*
X88993529Y-89492108D01*
X88989828Y-89491545D01*
X88931089Y-89480781D01*
X88931082Y-89480781D01*
X88871466Y-89484387D01*
X88867722Y-89484500D01*
X87549178Y-89484500D01*
X87482139Y-89464815D01*
X87447603Y-89431623D01*
X87370045Y-89320858D01*
X87209141Y-89159954D01*
X87022734Y-89029432D01*
X87022732Y-89029431D01*
X86816497Y-88933261D01*
X86816488Y-88933258D01*
X86596697Y-88874366D01*
X86596693Y-88874365D01*
X86596692Y-88874365D01*
X86596691Y-88874364D01*
X86596686Y-88874364D01*
X86370002Y-88854532D01*
X86369998Y-88854532D01*
X86143313Y-88874364D01*
X86143302Y-88874366D01*
X85923511Y-88933258D01*
X85923502Y-88933261D01*
X85717267Y-89029431D01*
X85717265Y-89029432D01*
X85530858Y-89159954D01*
X85369954Y-89320858D01*
X85292397Y-89431623D01*
X85237820Y-89475248D01*
X85190822Y-89484500D01*
X83739178Y-89484500D01*
X83672139Y-89464815D01*
X83637603Y-89431623D01*
X83560045Y-89320858D01*
X83399141Y-89159954D01*
X83212734Y-89029432D01*
X83212732Y-89029431D01*
X83006497Y-88933261D01*
X83006488Y-88933258D01*
X82786697Y-88874366D01*
X82786693Y-88874365D01*
X82786692Y-88874365D01*
X82786691Y-88874364D01*
X82786686Y-88874364D01*
X82560002Y-88854532D01*
X82559998Y-88854532D01*
X82333313Y-88874364D01*
X82333302Y-88874366D01*
X82113511Y-88933258D01*
X82113502Y-88933261D01*
X81907267Y-89029431D01*
X81907265Y-89029432D01*
X81720858Y-89159954D01*
X81559954Y-89320858D01*
X81482397Y-89431623D01*
X81427820Y-89475248D01*
X81380822Y-89484500D01*
X80174499Y-89484500D01*
X80107460Y-89464815D01*
X80061705Y-89412011D01*
X80050499Y-89360500D01*
X80050499Y-89312129D01*
X80050498Y-89312123D01*
X80050497Y-89312116D01*
X80044091Y-89252517D01*
X80009567Y-89159954D01*
X79993797Y-89117671D01*
X79993793Y-89117664D01*
X79907547Y-89002455D01*
X79907544Y-89002452D01*
X79792335Y-88916206D01*
X79792328Y-88916202D01*
X79657482Y-88865908D01*
X79657483Y-88865908D01*
X79597883Y-88859501D01*
X79597881Y-88859500D01*
X79597873Y-88859500D01*
X79597864Y-88859500D01*
X77902129Y-88859500D01*
X77902123Y-88859501D01*
X77842516Y-88865908D01*
X77707671Y-88916202D01*
X77707664Y-88916206D01*
X77592455Y-89002452D01*
X77592452Y-89002455D01*
X77506206Y-89117664D01*
X77506202Y-89117671D01*
X77455908Y-89252517D01*
X77449501Y-89312116D01*
X77449501Y-89312123D01*
X77449500Y-89312135D01*
X77449500Y-91007870D01*
X77449501Y-91007876D01*
X77455908Y-91067483D01*
X77506202Y-91202328D01*
X77506206Y-91202335D01*
X77592452Y-91317544D01*
X77592455Y-91317547D01*
X77707664Y-91403793D01*
X77707671Y-91403797D01*
X77842517Y-91454091D01*
X77842516Y-91454091D01*
X77849444Y-91454835D01*
X77902127Y-91460500D01*
X79597872Y-91460499D01*
X79657483Y-91454091D01*
X79792331Y-91403796D01*
X79907546Y-91317546D01*
X79993796Y-91202331D01*
X80044091Y-91067483D01*
X80050500Y-91007873D01*
X80050500Y-90959500D01*
X80070185Y-90892461D01*
X80122989Y-90846706D01*
X80174500Y-90835500D01*
X81380822Y-90835500D01*
X81447861Y-90855185D01*
X81482397Y-90888377D01*
X81559954Y-90999141D01*
X81720858Y-91160045D01*
X81720861Y-91160047D01*
X81907266Y-91290568D01*
X82113504Y-91386739D01*
X82333308Y-91445635D01*
X82495230Y-91459801D01*
X82559998Y-91465468D01*
X82560000Y-91465468D01*
X82560002Y-91465468D01*
X82616807Y-91460498D01*
X82786692Y-91445635D01*
X83006496Y-91386739D01*
X83212734Y-91290568D01*
X83399139Y-91160047D01*
X83560047Y-90999139D01*
X83637601Y-90888377D01*
X83692180Y-90844752D01*
X83739178Y-90835500D01*
X85190822Y-90835500D01*
X85257861Y-90855185D01*
X85292397Y-90888377D01*
X85369954Y-90999141D01*
X85530858Y-91160045D01*
X85530861Y-91160047D01*
X85717266Y-91290568D01*
X85923504Y-91386739D01*
X86143308Y-91445635D01*
X86305230Y-91459801D01*
X86369998Y-91465468D01*
X86370000Y-91465468D01*
X86370002Y-91465468D01*
X86426807Y-91460498D01*
X86596692Y-91445635D01*
X86816496Y-91386739D01*
X87022734Y-91290568D01*
X87209139Y-91160047D01*
X87370047Y-90999139D01*
X87447601Y-90888377D01*
X87502180Y-90844752D01*
X87549178Y-90835500D01*
X88558837Y-90835500D01*
X88625876Y-90855185D01*
X88646518Y-90871819D01*
X90242518Y-92467819D01*
X90276003Y-92529142D01*
X90271019Y-92598834D01*
X90229147Y-92654767D01*
X90163683Y-92679184D01*
X90154837Y-92679500D01*
X89342129Y-92679500D01*
X89342123Y-92679501D01*
X89282516Y-92685908D01*
X89147671Y-92736202D01*
X89147664Y-92736206D01*
X89032455Y-92822452D01*
X89032452Y-92822455D01*
X88946206Y-92937664D01*
X88946202Y-92937671D01*
X88895908Y-93072517D01*
X88889501Y-93132116D01*
X88889500Y-93132135D01*
X88889500Y-94827870D01*
X88889501Y-94827876D01*
X88895908Y-94887483D01*
X88946202Y-95022328D01*
X88946206Y-95022335D01*
X89032452Y-95137544D01*
X89032455Y-95137547D01*
X89147664Y-95223793D01*
X89147671Y-95223797D01*
X89192618Y-95240560D01*
X89282517Y-95274091D01*
X89317596Y-95277862D01*
X89382144Y-95304599D01*
X89421993Y-95361991D01*
X89424488Y-95431816D01*
X89388836Y-95491905D01*
X89375464Y-95502725D01*
X89350858Y-95519954D01*
X89189954Y-95680858D01*
X89059432Y-95867265D01*
X89059431Y-95867267D01*
X88963261Y-96073502D01*
X88963258Y-96073511D01*
X88904366Y-96293302D01*
X88904364Y-96293313D01*
X88885244Y-96511860D01*
X88859792Y-96576929D01*
X88803201Y-96617908D01*
X88733439Y-96621786D01*
X88674035Y-96588734D01*
X87797197Y-95711896D01*
X86873385Y-94788084D01*
X86870851Y-94785392D01*
X86831229Y-94740668D01*
X86782061Y-94706730D01*
X86779051Y-94704515D01*
X86732025Y-94667672D01*
X86732023Y-94667671D01*
X86723476Y-94663824D01*
X86703938Y-94652805D01*
X86696226Y-94647482D01*
X86696224Y-94647481D01*
X86640366Y-94626296D01*
X86636907Y-94624863D01*
X86582440Y-94600350D01*
X86582441Y-94600350D01*
X86575087Y-94599002D01*
X86573222Y-94598660D01*
X86551614Y-94592637D01*
X86542845Y-94589311D01*
X86483529Y-94582108D01*
X86479828Y-94581545D01*
X86421089Y-94570781D01*
X86421082Y-94570781D01*
X86361466Y-94574387D01*
X86357722Y-94574500D01*
X84151163Y-94574500D01*
X84084124Y-94554815D01*
X84063482Y-94538181D01*
X83058694Y-93533393D01*
X82023385Y-92498084D01*
X82020851Y-92495392D01*
X81981229Y-92450668D01*
X81932061Y-92416730D01*
X81929051Y-92414515D01*
X81882025Y-92377672D01*
X81882023Y-92377671D01*
X81873476Y-92373824D01*
X81853938Y-92362805D01*
X81846226Y-92357482D01*
X81846224Y-92357481D01*
X81790366Y-92336296D01*
X81786907Y-92334863D01*
X81732440Y-92310350D01*
X81732441Y-92310350D01*
X81725087Y-92309002D01*
X81723222Y-92308660D01*
X81701614Y-92302637D01*
X81692845Y-92299311D01*
X81633529Y-92292108D01*
X81629828Y-92291545D01*
X81571089Y-92280781D01*
X81571082Y-92280781D01*
X81511466Y-92284387D01*
X81507722Y-92284500D01*
X72524499Y-92284500D01*
X72457460Y-92264815D01*
X72411705Y-92212011D01*
X72400499Y-92160500D01*
X72400499Y-92053379D01*
X72400498Y-92053373D01*
X72400497Y-92053366D01*
X72394091Y-91993767D01*
X72372384Y-91935568D01*
X72343797Y-91858921D01*
X72343793Y-91858914D01*
X72257547Y-91743705D01*
X72257544Y-91743702D01*
X72142335Y-91657456D01*
X72142328Y-91657452D01*
X72007482Y-91607158D01*
X72007483Y-91607158D01*
X71947883Y-91600751D01*
X71947881Y-91600750D01*
X71947873Y-91600750D01*
X71947864Y-91600750D01*
X70052129Y-91600750D01*
X70052123Y-91600751D01*
X69992516Y-91607158D01*
X69857671Y-91657452D01*
X69857664Y-91657456D01*
X69742455Y-91743702D01*
X69742452Y-91743705D01*
X69656206Y-91858914D01*
X69656202Y-91858921D01*
X69605908Y-91993767D01*
X69601826Y-92031739D01*
X69599501Y-92053373D01*
X69599500Y-92053385D01*
X69599500Y-93668697D01*
X69579815Y-93735736D01*
X69527011Y-93781491D01*
X69500949Y-93790057D01*
X69420392Y-93806949D01*
X69420380Y-93806953D01*
X69394935Y-93816881D01*
X69387616Y-93819226D01*
X69361120Y-93825936D01*
X69361115Y-93825937D01*
X69275651Y-93863425D01*
X69204374Y-93891238D01*
X69188726Y-93897345D01*
X69188724Y-93897345D01*
X69188724Y-93897346D01*
X69188717Y-93897349D01*
X69165248Y-93911332D01*
X69158417Y-93914848D01*
X69133395Y-93925826D01*
X69133393Y-93925827D01*
X69099266Y-93948123D01*
X69055272Y-93976865D01*
X68975103Y-94024635D01*
X68954250Y-94042297D01*
X68948087Y-94046892D01*
X68925215Y-94061835D01*
X68925212Y-94061838D01*
X68856552Y-94125044D01*
X68832870Y-94145102D01*
X68810934Y-94167038D01*
X68742261Y-94230257D01*
X68742256Y-94230262D01*
X68725472Y-94251826D01*
X68720383Y-94257589D01*
X66724791Y-96253181D01*
X66663468Y-96286666D01*
X66637110Y-96289500D01*
X62902890Y-96289500D01*
X62835851Y-96269815D01*
X62815209Y-96253181D01*
X61536819Y-94974790D01*
X61503334Y-94913467D01*
X61500500Y-94887109D01*
X61500500Y-94187935D01*
X61499535Y-94176294D01*
X61495289Y-94125044D01*
X61485109Y-94002186D01*
X61485107Y-94002175D01*
X61424063Y-93761118D01*
X61324173Y-93533393D01*
X61188166Y-93325217D01*
X61166557Y-93301744D01*
X61019744Y-93142262D01*
X60823509Y-92989526D01*
X60823507Y-92989525D01*
X60823506Y-92989524D01*
X60604811Y-92871172D01*
X60604802Y-92871169D01*
X60369616Y-92790429D01*
X60124335Y-92749500D01*
X59875665Y-92749500D01*
X59630383Y-92790429D01*
X59395197Y-92871169D01*
X59395188Y-92871172D01*
X59176493Y-92989524D01*
X58980257Y-93142261D01*
X58811833Y-93325217D01*
X58675826Y-93533393D01*
X58575936Y-93761118D01*
X58514892Y-94002175D01*
X58514890Y-94002186D01*
X58504711Y-94125044D01*
X58500465Y-94176294D01*
X58499500Y-94187935D01*
X58499500Y-95462981D01*
X58499024Y-95470656D01*
X58495643Y-95497779D01*
X55000000Y-95497779D01*
X55000000Y-90725000D01*
X55369341Y-90725000D01*
X55389936Y-90960403D01*
X55389938Y-90960413D01*
X55451094Y-91188655D01*
X55451096Y-91188659D01*
X55451097Y-91188663D01*
X55480393Y-91251488D01*
X55550964Y-91402828D01*
X55550965Y-91402830D01*
X55686505Y-91596402D01*
X55853597Y-91763494D01*
X56047169Y-91899034D01*
X56047171Y-91899035D01*
X56261337Y-91998903D01*
X56489592Y-92060063D01*
X56666034Y-92075500D01*
X56783966Y-92075500D01*
X56960408Y-92060063D01*
X57188663Y-91998903D01*
X57402829Y-91899035D01*
X57596401Y-91763495D01*
X57763495Y-91596401D01*
X57899035Y-91402830D01*
X57998903Y-91188663D01*
X58060063Y-90960408D01*
X58080659Y-90725000D01*
X58060063Y-90489592D01*
X57998903Y-90261337D01*
X57899035Y-90047171D01*
X57899034Y-90047169D01*
X57763494Y-89853597D01*
X57596402Y-89686505D01*
X57402830Y-89550965D01*
X57402828Y-89550964D01*
X57252320Y-89480781D01*
X57188663Y-89451097D01*
X57188659Y-89451096D01*
X57188655Y-89451094D01*
X56960413Y-89389938D01*
X56960403Y-89389936D01*
X56783966Y-89374500D01*
X56666034Y-89374500D01*
X56489596Y-89389936D01*
X56489586Y-89389938D01*
X56261344Y-89451094D01*
X56261335Y-89451098D01*
X56047171Y-89550964D01*
X56047169Y-89550965D01*
X55853597Y-89686505D01*
X55686506Y-89853597D01*
X55686501Y-89853604D01*
X55550967Y-90047165D01*
X55550965Y-90047169D01*
X55451098Y-90261335D01*
X55451094Y-90261344D01*
X55389938Y-90489586D01*
X55389936Y-90489596D01*
X55369341Y-90724999D01*
X55369341Y-90725000D01*
X55000000Y-90725000D01*
X55000000Y-73550000D01*
X55369341Y-73550000D01*
X55389936Y-73785403D01*
X55389938Y-73785413D01*
X55451094Y-74013655D01*
X55451096Y-74013659D01*
X55451097Y-74013663D01*
X55496593Y-74111228D01*
X55550964Y-74227828D01*
X55550965Y-74227830D01*
X55686505Y-74421402D01*
X55853597Y-74588494D01*
X56047169Y-74724034D01*
X56047171Y-74724035D01*
X56261337Y-74823903D01*
X56261343Y-74823904D01*
X56261344Y-74823905D01*
X56316285Y-74838626D01*
X56489592Y-74885063D01*
X56666034Y-74900500D01*
X56783966Y-74900500D01*
X56960408Y-74885063D01*
X57188663Y-74823903D01*
X57402829Y-74724035D01*
X57596401Y-74588495D01*
X57763495Y-74421401D01*
X57899035Y-74227830D01*
X57998903Y-74013663D01*
X58060063Y-73785408D01*
X58080659Y-73550000D01*
X58060063Y-73314592D01*
X57998903Y-73086337D01*
X57899035Y-72872171D01*
X57899034Y-72872169D01*
X57763494Y-72678597D01*
X57596402Y-72511505D01*
X57402830Y-72375965D01*
X57402828Y-72375964D01*
X57295746Y-72326030D01*
X57188663Y-72276097D01*
X57188659Y-72276096D01*
X57188655Y-72276094D01*
X56960413Y-72214938D01*
X56960403Y-72214936D01*
X56783966Y-72199500D01*
X56666034Y-72199500D01*
X56489596Y-72214936D01*
X56489586Y-72214938D01*
X56261344Y-72276094D01*
X56261335Y-72276098D01*
X56047171Y-72375964D01*
X56047169Y-72375965D01*
X55853597Y-72511505D01*
X55686506Y-72678597D01*
X55686501Y-72678604D01*
X55550967Y-72872165D01*
X55550965Y-72872169D01*
X55451098Y-73086335D01*
X55451094Y-73086344D01*
X55389938Y-73314586D01*
X55389936Y-73314596D01*
X55369341Y-73549999D01*
X55369341Y-73550000D01*
X55000000Y-73550000D01*
X55000000Y-69212779D01*
X58495643Y-69212779D01*
X58499500Y-69306035D01*
X58499500Y-70087065D01*
X58514890Y-70272813D01*
X58514892Y-70272824D01*
X58575936Y-70513881D01*
X58675826Y-70741606D01*
X58811833Y-70949782D01*
X58811836Y-70949785D01*
X58980256Y-71132738D01*
X59176491Y-71285474D01*
X59395190Y-71403828D01*
X59630386Y-71484571D01*
X59875665Y-71525500D01*
X60077110Y-71525500D01*
X60144149Y-71545185D01*
X60164791Y-71561819D01*
X61985384Y-73382412D01*
X61990473Y-73388174D01*
X62007262Y-73409744D01*
X62007264Y-73409746D01*
X62007265Y-73409747D01*
X62075921Y-73472950D01*
X62087514Y-73484542D01*
X62097874Y-73494902D01*
X62121564Y-73514966D01*
X62190215Y-73578164D01*
X62190217Y-73578165D01*
X62190218Y-73578166D01*
X62213086Y-73593106D01*
X62219250Y-73597702D01*
X62240106Y-73615366D01*
X62320272Y-73663134D01*
X62398393Y-73714173D01*
X62423414Y-73725148D01*
X62430245Y-73728664D01*
X62453726Y-73742655D01*
X62478124Y-73752175D01*
X62540651Y-73776574D01*
X62593033Y-73799550D01*
X62626119Y-73814063D01*
X62626123Y-73814064D01*
X62652609Y-73820771D01*
X62659932Y-73823116D01*
X62685386Y-73833049D01*
X62776702Y-73852196D01*
X62867179Y-73875108D01*
X62894415Y-73877364D01*
X62902018Y-73878471D01*
X62928763Y-73884080D01*
X63021994Y-73887936D01*
X63052933Y-73890500D01*
X63052935Y-73890500D01*
X63083974Y-73890500D01*
X63177221Y-73894357D01*
X63193914Y-73892276D01*
X63204342Y-73890977D01*
X63212018Y-73890500D01*
X67212981Y-73890500D01*
X67220652Y-73890975D01*
X67247779Y-73894357D01*
X67341035Y-73890500D01*
X67372067Y-73890500D01*
X67402990Y-73887937D01*
X67496237Y-73884081D01*
X67522982Y-73878472D01*
X67530582Y-73877364D01*
X67557821Y-73875108D01*
X67557824Y-73875107D01*
X67557826Y-73875107D01*
X67557829Y-73875106D01*
X67648288Y-73852198D01*
X67677108Y-73846155D01*
X67739614Y-73833049D01*
X67765077Y-73823112D01*
X67772374Y-73820774D01*
X67798881Y-73814063D01*
X67884335Y-73776579D01*
X67971274Y-73742656D01*
X67994761Y-73728659D01*
X68001581Y-73725149D01*
X68026607Y-73714173D01*
X68104720Y-73663139D01*
X68184894Y-73615366D01*
X68205754Y-73597697D01*
X68211894Y-73593117D01*
X68234785Y-73578164D01*
X68303435Y-73514966D01*
X68327126Y-73494902D01*
X68349078Y-73472949D01*
X68417738Y-73409744D01*
X68434530Y-73388167D01*
X68439604Y-73382422D01*
X69427514Y-72394512D01*
X69488835Y-72361029D01*
X69558527Y-72366013D01*
X69614460Y-72407885D01*
X69636410Y-72456070D01*
X69654382Y-72539460D01*
X69710293Y-72678599D01*
X69740653Y-72754152D01*
X69861966Y-72951177D01*
X69920132Y-73017267D01*
X70014828Y-73124863D01*
X70014835Y-73124870D01*
X70194846Y-73270218D01*
X70194852Y-73270223D01*
X70396846Y-73383064D01*
X70396849Y-73383065D01*
X70615011Y-73460146D01*
X70742265Y-73481966D01*
X70843052Y-73499249D01*
X70843061Y-73499250D01*
X71098991Y-73499250D01*
X71271790Y-73484543D01*
X71271793Y-73484542D01*
X71271795Y-73484542D01*
X71495707Y-73426239D01*
X71495708Y-73426238D01*
X71495710Y-73426238D01*
X71706536Y-73330939D01*
X71706539Y-73330936D01*
X71706546Y-73330934D01*
X71898245Y-73201368D01*
X72065290Y-73041269D01*
X72202875Y-72855241D01*
X72307043Y-72648637D01*
X72374796Y-72427401D01*
X72404185Y-72197897D01*
X72402715Y-72163302D01*
X72396459Y-72016012D01*
X72394365Y-71966727D01*
X72345618Y-71740542D01*
X72337683Y-71720796D01*
X72267117Y-71545185D01*
X72259347Y-71525848D01*
X72138034Y-71328823D01*
X71985168Y-71155133D01*
X71985167Y-71155132D01*
X71981688Y-71151179D01*
X71983536Y-71149551D01*
X71953871Y-71097907D01*
X71957349Y-71028124D01*
X71990455Y-70977709D01*
X72107738Y-70869744D01*
X72260474Y-70673509D01*
X72378828Y-70454810D01*
X72459571Y-70219614D01*
X72500500Y-69974335D01*
X72500500Y-69725665D01*
X72459571Y-69480386D01*
X72378828Y-69245190D01*
X72260474Y-69026491D01*
X72213957Y-68966727D01*
X72188316Y-68901736D01*
X72201882Y-68833196D01*
X72237500Y-68791302D01*
X72257546Y-68776296D01*
X72343796Y-68661081D01*
X72394091Y-68526233D01*
X72400500Y-68466623D01*
X72400500Y-68359500D01*
X72420185Y-68292461D01*
X72472989Y-68246706D01*
X72524500Y-68235500D01*
X81198837Y-68235500D01*
X81265876Y-68255185D01*
X81286518Y-68271819D01*
X83326611Y-70311912D01*
X83329163Y-70314624D01*
X83368772Y-70359333D01*
X83417932Y-70393265D01*
X83420949Y-70395486D01*
X83459827Y-70425944D01*
X83467972Y-70432326D01*
X83476515Y-70436171D01*
X83496067Y-70447198D01*
X83503774Y-70452518D01*
X83559639Y-70473705D01*
X83563070Y-70475126D01*
X83617561Y-70499650D01*
X83626776Y-70501338D01*
X83648389Y-70507363D01*
X83657155Y-70510688D01*
X83716471Y-70517890D01*
X83720158Y-70518451D01*
X83778915Y-70529219D01*
X83778916Y-70529218D01*
X83778917Y-70529219D01*
X83838534Y-70525613D01*
X83842278Y-70525500D01*
X86028837Y-70525500D01*
X86095876Y-70545185D01*
X86116518Y-70561819D01*
X88865644Y-73310945D01*
X88899129Y-73372268D01*
X88897738Y-73430718D01*
X88894367Y-73443299D01*
X88894364Y-73443313D01*
X88874532Y-73669998D01*
X88874532Y-73670001D01*
X88894364Y-73896686D01*
X88894366Y-73896697D01*
X88953258Y-74116488D01*
X88953261Y-74116497D01*
X89049431Y-74322732D01*
X89049432Y-74322734D01*
X89179954Y-74509141D01*
X89340858Y-74670045D01*
X89340861Y-74670047D01*
X89527266Y-74800568D01*
X89733504Y-74896739D01*
X89953308Y-74955635D01*
X90115230Y-74969801D01*
X90179998Y-74975468D01*
X90180000Y-74975468D01*
X90180002Y-74975468D01*
X90236673Y-74970509D01*
X90406692Y-74955635D01*
X90626496Y-74896739D01*
X90832734Y-74800568D01*
X91019139Y-74670047D01*
X91180047Y-74509139D01*
X91310568Y-74322734D01*
X91406739Y-74116496D01*
X91465635Y-73896692D01*
X91482748Y-73701085D01*
X91485468Y-73670001D01*
X91485468Y-73669998D01*
X91478740Y-73593103D01*
X91465635Y-73443308D01*
X91410587Y-73237864D01*
X91406741Y-73223511D01*
X91406738Y-73223502D01*
X91397161Y-73202964D01*
X91310568Y-73017266D01*
X91180047Y-72830861D01*
X91180045Y-72830858D01*
X91019141Y-72669954D01*
X90832734Y-72539432D01*
X90832728Y-72539429D01*
X90774725Y-72512382D01*
X90722285Y-72466210D01*
X90703133Y-72399017D01*
X90723348Y-72332135D01*
X90774725Y-72287618D01*
X90832734Y-72260568D01*
X91019139Y-72130047D01*
X91180047Y-71969139D01*
X91257601Y-71858377D01*
X91312180Y-71814752D01*
X91359178Y-71805500D01*
X92388837Y-71805500D01*
X92455876Y-71825185D01*
X92476518Y-71841819D01*
X94207017Y-73572318D01*
X94240502Y-73633641D01*
X94235518Y-73703333D01*
X94207017Y-73747680D01*
X87386518Y-80568181D01*
X87325195Y-80601666D01*
X87298837Y-80604500D01*
X85113139Y-80604500D01*
X85046100Y-80584815D01*
X85025458Y-80568181D01*
X84889393Y-80432116D01*
X84741441Y-80284164D01*
X84707957Y-80222843D01*
X84712941Y-80153152D01*
X84754812Y-80097218D01*
X84820277Y-80072801D01*
X84850653Y-80074368D01*
X84854584Y-80075060D01*
X84854592Y-80075063D01*
X85031034Y-80090500D01*
X85089999Y-80095659D01*
X85090000Y-80095659D01*
X85090001Y-80095659D01*
X85148966Y-80090500D01*
X85325408Y-80075063D01*
X85553663Y-80013903D01*
X85767830Y-79914035D01*
X85961401Y-79778495D01*
X86128495Y-79611401D01*
X86264035Y-79417830D01*
X86363903Y-79203663D01*
X86425063Y-78975408D01*
X86445659Y-78740000D01*
X86425063Y-78504592D01*
X86363903Y-78276337D01*
X86264035Y-78062171D01*
X86258425Y-78054158D01*
X86128494Y-77868597D01*
X85961402Y-77701506D01*
X85961401Y-77701505D01*
X85887033Y-77649432D01*
X85818375Y-77601357D01*
X85774752Y-77546781D01*
X85765500Y-77499783D01*
X85765500Y-76222272D01*
X85765613Y-76218527D01*
X85769219Y-76158915D01*
X85758453Y-76100168D01*
X85757889Y-76096463D01*
X85750688Y-76037157D01*
X85750688Y-76037155D01*
X85747363Y-76028389D01*
X85741338Y-76006776D01*
X85739650Y-75997561D01*
X85715131Y-75943082D01*
X85713703Y-75939635D01*
X85713703Y-75939634D01*
X85692518Y-75883774D01*
X85687194Y-75876061D01*
X85676169Y-75856514D01*
X85672325Y-75847972D01*
X85635478Y-75800940D01*
X85633281Y-75797955D01*
X85599332Y-75748771D01*
X85554633Y-75709171D01*
X85551921Y-75706619D01*
X83628761Y-73783460D01*
X83595277Y-73722138D01*
X83600261Y-73652446D01*
X83642130Y-73596515D01*
X83707546Y-73547546D01*
X83793796Y-73432331D01*
X83844091Y-73297483D01*
X83850500Y-73237873D01*
X83850499Y-71542128D01*
X83844091Y-71482517D01*
X83825397Y-71432397D01*
X83793797Y-71347671D01*
X83793793Y-71347664D01*
X83707547Y-71232455D01*
X83707544Y-71232452D01*
X83592335Y-71146206D01*
X83592328Y-71146202D01*
X83457482Y-71095908D01*
X83457483Y-71095908D01*
X83397883Y-71089501D01*
X83397881Y-71089500D01*
X83397873Y-71089500D01*
X83397864Y-71089500D01*
X81702129Y-71089500D01*
X81702123Y-71089501D01*
X81642516Y-71095908D01*
X81507671Y-71146202D01*
X81507664Y-71146206D01*
X81392455Y-71232452D01*
X81392452Y-71232455D01*
X81306206Y-71347664D01*
X81306202Y-71347671D01*
X81255908Y-71482517D01*
X81251250Y-71525848D01*
X81249501Y-71542123D01*
X81249500Y-71542135D01*
X81249500Y-73237870D01*
X81249501Y-73237876D01*
X81255908Y-73297483D01*
X81306202Y-73432328D01*
X81306206Y-73432335D01*
X81392452Y-73547544D01*
X81392455Y-73547547D01*
X81507664Y-73633793D01*
X81507671Y-73633797D01*
X81552618Y-73650560D01*
X81642517Y-73684091D01*
X81702127Y-73690500D01*
X81763387Y-73690499D01*
X81830425Y-73710183D01*
X81876181Y-73762986D01*
X81886483Y-73799550D01*
X81889312Y-73822845D01*
X81892637Y-73831614D01*
X81898661Y-73853223D01*
X81900350Y-73862440D01*
X81924863Y-73916907D01*
X81926296Y-73920366D01*
X81947481Y-73976224D01*
X81947481Y-73976225D01*
X81952805Y-73983938D01*
X81963824Y-74003476D01*
X81967671Y-74012023D01*
X81967672Y-74012025D01*
X81967673Y-74012026D01*
X81967674Y-74012028D01*
X82004515Y-74059051D01*
X82006730Y-74062061D01*
X82040668Y-74111229D01*
X82085392Y-74150851D01*
X82088084Y-74153385D01*
X83263750Y-75329051D01*
X84378181Y-76443482D01*
X84411666Y-76504805D01*
X84414500Y-76531163D01*
X84414500Y-77499783D01*
X84394815Y-77566822D01*
X84361624Y-77601358D01*
X84218594Y-77701508D01*
X84051505Y-77868597D01*
X83921575Y-78054158D01*
X83866998Y-78097783D01*
X83797500Y-78104977D01*
X83735145Y-78073454D01*
X83718425Y-78054158D01*
X83588494Y-77868597D01*
X83421402Y-77701506D01*
X83421395Y-77701501D01*
X83227834Y-77565967D01*
X83227830Y-77565965D01*
X83186690Y-77546781D01*
X83013663Y-77466097D01*
X83013659Y-77466096D01*
X83013655Y-77466094D01*
X82785413Y-77404938D01*
X82785403Y-77404936D01*
X82550001Y-77384341D01*
X82549999Y-77384341D01*
X82314596Y-77404936D01*
X82314586Y-77404938D01*
X82086344Y-77466094D01*
X82086335Y-77466098D01*
X81872171Y-77565964D01*
X81872169Y-77565965D01*
X81678600Y-77701503D01*
X81556673Y-77823430D01*
X81495350Y-77856914D01*
X81425658Y-77851930D01*
X81369725Y-77810058D01*
X81352810Y-77779081D01*
X81303797Y-77647671D01*
X81303793Y-77647664D01*
X81217547Y-77532455D01*
X81217544Y-77532452D01*
X81102335Y-77446206D01*
X81102328Y-77446202D01*
X80967482Y-77395908D01*
X80967483Y-77395908D01*
X80907883Y-77389501D01*
X80907881Y-77389500D01*
X80907873Y-77389500D01*
X80907865Y-77389500D01*
X80809500Y-77389500D01*
X80742461Y-77369815D01*
X80696706Y-77317011D01*
X80685500Y-77265500D01*
X80685500Y-76222277D01*
X80685613Y-76218533D01*
X80689219Y-76158915D01*
X80678453Y-76100168D01*
X80677889Y-76096463D01*
X80670688Y-76037157D01*
X80670688Y-76037155D01*
X80667363Y-76028389D01*
X80661338Y-76006776D01*
X80659650Y-75997561D01*
X80635126Y-75943070D01*
X80633705Y-75939639D01*
X80612518Y-75883774D01*
X80607198Y-75876066D01*
X80596171Y-75856515D01*
X80592327Y-75847974D01*
X80592326Y-75847973D01*
X80592326Y-75847972D01*
X80555465Y-75800923D01*
X80553258Y-75797922D01*
X80519332Y-75748771D01*
X80474633Y-75709171D01*
X80471921Y-75706619D01*
X79451819Y-74686517D01*
X79418334Y-74625194D01*
X79415500Y-74598836D01*
X79415500Y-73569177D01*
X79435185Y-73502138D01*
X79468375Y-73467603D01*
X79579139Y-73390047D01*
X79740047Y-73229139D01*
X79870568Y-73042734D01*
X79966739Y-72836496D01*
X80025635Y-72616692D01*
X80045468Y-72390000D01*
X80043369Y-72366013D01*
X80035503Y-72276097D01*
X80025635Y-72163308D01*
X79966739Y-71943504D01*
X79870568Y-71737266D01*
X79740047Y-71550861D01*
X79740045Y-71550858D01*
X79579141Y-71389954D01*
X79392734Y-71259432D01*
X79392732Y-71259431D01*
X79186497Y-71163261D01*
X79186488Y-71163258D01*
X78966697Y-71104366D01*
X78966693Y-71104365D01*
X78966692Y-71104365D01*
X78966691Y-71104364D01*
X78966686Y-71104364D01*
X78740002Y-71084532D01*
X78739998Y-71084532D01*
X78513313Y-71104364D01*
X78513302Y-71104366D01*
X78293511Y-71163258D01*
X78293502Y-71163261D01*
X78087267Y-71259431D01*
X78087265Y-71259432D01*
X77900858Y-71389954D01*
X77739954Y-71550858D01*
X77609432Y-71737265D01*
X77609431Y-71737267D01*
X77513261Y-71943502D01*
X77513258Y-71943511D01*
X77454366Y-72163302D01*
X77454364Y-72163313D01*
X77434532Y-72389998D01*
X77434532Y-72390001D01*
X77454364Y-72616686D01*
X77454366Y-72616697D01*
X77513258Y-72836488D01*
X77513261Y-72836497D01*
X77609431Y-73042732D01*
X77609432Y-73042734D01*
X77739954Y-73229141D01*
X77900858Y-73390045D01*
X77900861Y-73390047D01*
X78011620Y-73467601D01*
X78011622Y-73467602D01*
X78055247Y-73522178D01*
X78064499Y-73569177D01*
X78064499Y-74907722D01*
X78064386Y-74911465D01*
X78060780Y-74971080D01*
X78060781Y-74971085D01*
X78071545Y-75029828D01*
X78072108Y-75033529D01*
X78079311Y-75092845D01*
X78082637Y-75101614D01*
X78088661Y-75123223D01*
X78090350Y-75132440D01*
X78114863Y-75186907D01*
X78116296Y-75190366D01*
X78137481Y-75246224D01*
X78137481Y-75246225D01*
X78142805Y-75253938D01*
X78153824Y-75273476D01*
X78157671Y-75282023D01*
X78157672Y-75282025D01*
X78194515Y-75329051D01*
X78196730Y-75332061D01*
X78230668Y-75381229D01*
X78275392Y-75420851D01*
X78278084Y-75423385D01*
X78794333Y-75939634D01*
X79298181Y-76443482D01*
X79331666Y-76504805D01*
X79334500Y-76531163D01*
X79334500Y-77265500D01*
X79314815Y-77332539D01*
X79262011Y-77378294D01*
X79210501Y-77389500D01*
X79112130Y-77389500D01*
X79112123Y-77389501D01*
X79052516Y-77395908D01*
X78917671Y-77446202D01*
X78917664Y-77446206D01*
X78802455Y-77532452D01*
X78802452Y-77532455D01*
X78716206Y-77647664D01*
X78716202Y-77647671D01*
X78665908Y-77782517D01*
X78659501Y-77842116D01*
X78659500Y-77842135D01*
X78659500Y-79637870D01*
X78659501Y-79637876D01*
X78665908Y-79697483D01*
X78716202Y-79832328D01*
X78716206Y-79832335D01*
X78802452Y-79947544D01*
X78802455Y-79947547D01*
X78917664Y-80033793D01*
X78917671Y-80033797D01*
X79052517Y-80084091D01*
X79052516Y-80084091D01*
X79059444Y-80084835D01*
X79112127Y-80090500D01*
X79944837Y-80090499D01*
X80011876Y-80110183D01*
X80057631Y-80162987D01*
X80067575Y-80232146D01*
X80038550Y-80295702D01*
X80032518Y-80302180D01*
X79766518Y-80568181D01*
X79705195Y-80601666D01*
X79678837Y-80604500D01*
X72544499Y-80604500D01*
X72477460Y-80584815D01*
X72431705Y-80532011D01*
X72420499Y-80480500D01*
X72420499Y-80432129D01*
X72420498Y-80432123D01*
X72420497Y-80432116D01*
X72414091Y-80372517D01*
X72381138Y-80284166D01*
X72363797Y-80237671D01*
X72363793Y-80237664D01*
X72277547Y-80122455D01*
X72277544Y-80122452D01*
X72162335Y-80036206D01*
X72162328Y-80036202D01*
X72027483Y-79985908D01*
X72022079Y-79984632D01*
X71961363Y-79950060D01*
X71928976Y-79888149D01*
X71935202Y-79818558D01*
X71962910Y-79776275D01*
X72120047Y-79619139D01*
X72250568Y-79432734D01*
X72346739Y-79226496D01*
X72405635Y-79006692D01*
X72425468Y-78780000D01*
X72421968Y-78740000D01*
X72405635Y-78553313D01*
X72405635Y-78553308D01*
X72346739Y-78333504D01*
X72250568Y-78127266D01*
X72120047Y-77940861D01*
X72120045Y-77940858D01*
X71959141Y-77779954D01*
X71772734Y-77649432D01*
X71772732Y-77649431D01*
X71566497Y-77553261D01*
X71566488Y-77553258D01*
X71346697Y-77494366D01*
X71346693Y-77494365D01*
X71346692Y-77494365D01*
X71346691Y-77494364D01*
X71346686Y-77494364D01*
X71120002Y-77474532D01*
X71119998Y-77474532D01*
X70893313Y-77494364D01*
X70893302Y-77494366D01*
X70673511Y-77553258D01*
X70673502Y-77553261D01*
X70467267Y-77649431D01*
X70467265Y-77649432D01*
X70280858Y-77779954D01*
X70119954Y-77940858D01*
X69989432Y-78127265D01*
X69989431Y-78127267D01*
X69893261Y-78333502D01*
X69893258Y-78333511D01*
X69834366Y-78553302D01*
X69834364Y-78553313D01*
X69814532Y-78779998D01*
X69814532Y-78780001D01*
X69834364Y-79006686D01*
X69834366Y-79006697D01*
X69893258Y-79226488D01*
X69893261Y-79226497D01*
X69989431Y-79432732D01*
X69989432Y-79432734D01*
X70119954Y-79619141D01*
X70277086Y-79776273D01*
X70310571Y-79837596D01*
X70305587Y-79907288D01*
X70263715Y-79963221D01*
X70217932Y-79984628D01*
X70212522Y-79985906D01*
X70077671Y-80036202D01*
X70077664Y-80036206D01*
X69962455Y-80122452D01*
X69962452Y-80122455D01*
X69876206Y-80237664D01*
X69876202Y-80237671D01*
X69825908Y-80372517D01*
X69819501Y-80432116D01*
X69819501Y-80432123D01*
X69819500Y-80432135D01*
X69819500Y-82127870D01*
X69819501Y-82127876D01*
X69825908Y-82187483D01*
X69876202Y-82322328D01*
X69876206Y-82322335D01*
X69962452Y-82437544D01*
X69962455Y-82437547D01*
X70077664Y-82523793D01*
X70077671Y-82523797D01*
X70212517Y-82574091D01*
X70212516Y-82574091D01*
X70219444Y-82574835D01*
X70272127Y-82580500D01*
X71967872Y-82580499D01*
X72027483Y-82574091D01*
X72162331Y-82523796D01*
X72277546Y-82437546D01*
X72363796Y-82322331D01*
X72414091Y-82187483D01*
X72420500Y-82127873D01*
X72420500Y-82079500D01*
X72440185Y-82012461D01*
X72492989Y-81966706D01*
X72544500Y-81955500D01*
X79987722Y-81955500D01*
X79991466Y-81955613D01*
X80051082Y-81959219D01*
X80051082Y-81959218D01*
X80051085Y-81959219D01*
X80087327Y-81952577D01*
X80109836Y-81948453D01*
X80113540Y-81947889D01*
X80134888Y-81945296D01*
X80172845Y-81940688D01*
X80181605Y-81937365D01*
X80203221Y-81931338D01*
X80212439Y-81929650D01*
X80266916Y-81905132D01*
X80270358Y-81903705D01*
X80326226Y-81882518D01*
X80330764Y-81879385D01*
X80333935Y-81877197D01*
X80353480Y-81866172D01*
X80362028Y-81862326D01*
X80409066Y-81825472D01*
X80412059Y-81823269D01*
X80461229Y-81789332D01*
X80500852Y-81744605D01*
X80503395Y-81741905D01*
X82150121Y-80095178D01*
X82211442Y-80061695D01*
X82269893Y-80063086D01*
X82282843Y-80066555D01*
X82314592Y-80075063D01*
X82491034Y-80090500D01*
X82549999Y-80095659D01*
X82550000Y-80095659D01*
X82577301Y-80093270D01*
X82645801Y-80107036D01*
X82675790Y-80129116D01*
X84288594Y-81741921D01*
X84291146Y-81744633D01*
X84330746Y-81789332D01*
X84379897Y-81823258D01*
X84382898Y-81825465D01*
X84429947Y-81862326D01*
X84429948Y-81862326D01*
X84429949Y-81862327D01*
X84438490Y-81866171D01*
X84458042Y-81877198D01*
X84465749Y-81882518D01*
X84521614Y-81903705D01*
X84525045Y-81905126D01*
X84579536Y-81929650D01*
X84588751Y-81931338D01*
X84610364Y-81937363D01*
X84619130Y-81940688D01*
X84678446Y-81947890D01*
X84682133Y-81948451D01*
X84740890Y-81959219D01*
X84740891Y-81959218D01*
X84740892Y-81959219D01*
X84800509Y-81955613D01*
X84804253Y-81955500D01*
X87607722Y-81955500D01*
X87611466Y-81955613D01*
X87671082Y-81959219D01*
X87671082Y-81959218D01*
X87671085Y-81959219D01*
X87707327Y-81952577D01*
X87729836Y-81948453D01*
X87733540Y-81947889D01*
X87754888Y-81945296D01*
X87792845Y-81940688D01*
X87801605Y-81937365D01*
X87823221Y-81931338D01*
X87832439Y-81929650D01*
X87886916Y-81905132D01*
X87890358Y-81903705D01*
X87946226Y-81882518D01*
X87950764Y-81879385D01*
X87953935Y-81877197D01*
X87973480Y-81866172D01*
X87982028Y-81862326D01*
X88029066Y-81825472D01*
X88032059Y-81823269D01*
X88081229Y-81789332D01*
X88120852Y-81744605D01*
X88123395Y-81741905D01*
X95483482Y-74381819D01*
X95544806Y-74348334D01*
X95571164Y-74345500D01*
X96620822Y-74345500D01*
X96687861Y-74365185D01*
X96722397Y-74398377D01*
X96799954Y-74509141D01*
X96960858Y-74670045D01*
X96960861Y-74670047D01*
X97147266Y-74800568D01*
X97205275Y-74827618D01*
X97257714Y-74873791D01*
X97276866Y-74940984D01*
X97256650Y-75007865D01*
X97205275Y-75052382D01*
X97147267Y-75079431D01*
X97147265Y-75079432D01*
X96960858Y-75209954D01*
X96799954Y-75370858D01*
X96669432Y-75557265D01*
X96669431Y-75557267D01*
X96573261Y-75763502D01*
X96573258Y-75763511D01*
X96514366Y-75983302D01*
X96514364Y-75983313D01*
X96494532Y-76209998D01*
X96494532Y-76210001D01*
X96514364Y-76436686D01*
X96514366Y-76436697D01*
X96573258Y-76656488D01*
X96573261Y-76656497D01*
X96669431Y-76862732D01*
X96669432Y-76862734D01*
X96799954Y-77049141D01*
X96960858Y-77210045D01*
X96960861Y-77210047D01*
X97147266Y-77340568D01*
X97353504Y-77436739D01*
X97353509Y-77436740D01*
X97353511Y-77436741D01*
X97406415Y-77450916D01*
X97573308Y-77495635D01*
X97735230Y-77509801D01*
X97799998Y-77515468D01*
X97800000Y-77515468D01*
X97800002Y-77515468D01*
X97856673Y-77510509D01*
X98026692Y-77495635D01*
X98246496Y-77436739D01*
X98452734Y-77340568D01*
X98639139Y-77210047D01*
X98800047Y-77049139D01*
X98930568Y-76862734D01*
X99026739Y-76656496D01*
X99085635Y-76436692D01*
X99104559Y-76220394D01*
X99105468Y-76210001D01*
X99105468Y-76209998D01*
X99089579Y-76028391D01*
X99085635Y-75983308D01*
X99026739Y-75763504D01*
X98930568Y-75557266D01*
X98800047Y-75370861D01*
X98800045Y-75370858D01*
X98639141Y-75209954D01*
X98452734Y-75079432D01*
X98452728Y-75079429D01*
X98394725Y-75052382D01*
X98342285Y-75006210D01*
X98323133Y-74939017D01*
X98343348Y-74872135D01*
X98394725Y-74827618D01*
X98452734Y-74800568D01*
X98639139Y-74670047D01*
X98800047Y-74509139D01*
X98930568Y-74322734D01*
X99026739Y-74116496D01*
X99085635Y-73896692D01*
X99102748Y-73701085D01*
X99105468Y-73670001D01*
X99105468Y-73669998D01*
X99098740Y-73593103D01*
X99085635Y-73443308D01*
X99030587Y-73237864D01*
X99026741Y-73223511D01*
X99026738Y-73223502D01*
X99017161Y-73202964D01*
X98930568Y-73017266D01*
X98800047Y-72830861D01*
X98800045Y-72830858D01*
X98639141Y-72669954D01*
X98452734Y-72539432D01*
X98452728Y-72539429D01*
X98394725Y-72512382D01*
X98342285Y-72466210D01*
X98323133Y-72399017D01*
X98343348Y-72332135D01*
X98394725Y-72287618D01*
X98452734Y-72260568D01*
X98639139Y-72130047D01*
X98800047Y-71969139D01*
X98930568Y-71782734D01*
X98944106Y-71753703D01*
X98961607Y-71716171D01*
X99026739Y-71576496D01*
X99085635Y-71356692D01*
X99104051Y-71146202D01*
X99105468Y-71130001D01*
X99105468Y-71129998D01*
X99085635Y-70903313D01*
X99085635Y-70903308D01*
X99026739Y-70683504D01*
X98930568Y-70477266D01*
X98800047Y-70290861D01*
X98800045Y-70290858D01*
X98639141Y-70129954D01*
X98575700Y-70085533D01*
X101032821Y-70085533D01*
X101047666Y-70401897D01*
X101047666Y-70401902D01*
X101047667Y-70401907D01*
X101106880Y-70820075D01*
X101205002Y-71230903D01*
X101205005Y-71230911D01*
X101341149Y-71630697D01*
X101341156Y-71630714D01*
X101514147Y-72016012D01*
X101514149Y-72016016D01*
X101722464Y-72383429D01*
X101722469Y-72383437D01*
X101964258Y-72729707D01*
X101964267Y-72729719D01*
X101964269Y-72729722D01*
X101964271Y-72729724D01*
X102237442Y-73051852D01*
X102539577Y-73346986D01*
X102539581Y-73346989D01*
X102539586Y-73346994D01*
X102722523Y-73494896D01*
X102868021Y-73612530D01*
X103219888Y-73846151D01*
X103219895Y-73846155D01*
X103219894Y-73846155D01*
X103592074Y-74045791D01*
X103592083Y-74045795D01*
X103592085Y-74045796D01*
X103981342Y-74209711D01*
X104384238Y-74336456D01*
X104797232Y-74424915D01*
X105216695Y-74474313D01*
X105638940Y-74484214D01*
X105638941Y-74484213D01*
X105638946Y-74484214D01*
X105638949Y-74484213D01*
X106060258Y-74454532D01*
X106476944Y-74385528D01*
X106885338Y-74277807D01*
X107281850Y-74132318D01*
X107662996Y-73950338D01*
X108025427Y-73733466D01*
X108365957Y-73483609D01*
X108681593Y-73202961D01*
X108969562Y-72893991D01*
X108986375Y-72872169D01*
X109227327Y-72559421D01*
X109227332Y-72559414D01*
X109227334Y-72559412D01*
X109452642Y-72202165D01*
X109643508Y-71825390D01*
X109798252Y-71432397D01*
X109915517Y-71026641D01*
X109941545Y-70889500D01*
X109994268Y-70611699D01*
X109994270Y-70611682D01*
X109996617Y-70586736D01*
X110033821Y-70191181D01*
X110033821Y-64787788D01*
X110018976Y-64471424D01*
X109980112Y-64196971D01*
X109979500Y-64188272D01*
X109979500Y-59814009D01*
X109979500Y-59814000D01*
X109967947Y-59706544D01*
X109956741Y-59655033D01*
X109956637Y-59654722D01*
X109922616Y-59552502D01*
X109922613Y-59552496D01*
X109844828Y-59431462D01*
X109844825Y-59431457D01*
X109844820Y-59431451D01*
X109799076Y-59378659D01*
X109799072Y-59378656D01*
X109799070Y-59378653D01*
X109690336Y-59284433D01*
X109690333Y-59284431D01*
X109690331Y-59284430D01*
X109559465Y-59224664D01*
X109559460Y-59224662D01*
X109559459Y-59224662D01*
X109536858Y-59218025D01*
X109492425Y-59204978D01*
X109492419Y-59204976D01*
X109406966Y-59192690D01*
X109350000Y-59184500D01*
X101724000Y-59184500D01*
X101723991Y-59184500D01*
X101723990Y-59184501D01*
X101616549Y-59196052D01*
X101616537Y-59196054D01*
X101565027Y-59207260D01*
X101462502Y-59241383D01*
X101462496Y-59241386D01*
X101341462Y-59319171D01*
X101341451Y-59319179D01*
X101288659Y-59364923D01*
X101194433Y-59473664D01*
X101194430Y-59473668D01*
X101134664Y-59604534D01*
X101114978Y-59671575D01*
X101114976Y-59671580D01*
X101098595Y-59785516D01*
X101094502Y-59813990D01*
X101094500Y-59814001D01*
X101094500Y-64133379D01*
X101092325Y-64156500D01*
X101072373Y-64261621D01*
X101072371Y-64261638D01*
X101057951Y-64414954D01*
X101032821Y-64682140D01*
X101032821Y-70085533D01*
X98575700Y-70085533D01*
X98452734Y-69999432D01*
X98452732Y-69999431D01*
X98246497Y-69903261D01*
X98246488Y-69903258D01*
X98026697Y-69844366D01*
X98026693Y-69844365D01*
X98026692Y-69844365D01*
X98026691Y-69844364D01*
X98026686Y-69844364D01*
X97800002Y-69824532D01*
X97799998Y-69824532D01*
X97573313Y-69844364D01*
X97573302Y-69844366D01*
X97353511Y-69903258D01*
X97353502Y-69903261D01*
X97147267Y-69999431D01*
X97147265Y-69999432D01*
X96960858Y-70129954D01*
X96799954Y-70290858D01*
X96722397Y-70401623D01*
X96667820Y-70445248D01*
X96620822Y-70454500D01*
X95591164Y-70454500D01*
X95524125Y-70434815D01*
X95503483Y-70418181D01*
X93987038Y-68901736D01*
X90500302Y-65415001D01*
X91404532Y-65415001D01*
X91424364Y-65641686D01*
X91424366Y-65641697D01*
X91483258Y-65861488D01*
X91483261Y-65861497D01*
X91579431Y-66067732D01*
X91579432Y-66067734D01*
X91709954Y-66254141D01*
X91870858Y-66415045D01*
X91870861Y-66415047D01*
X92057266Y-66545568D01*
X92263504Y-66641739D01*
X92263509Y-66641740D01*
X92263511Y-66641741D01*
X92306945Y-66653379D01*
X92483308Y-66700635D01*
X92645230Y-66714801D01*
X92709998Y-66720468D01*
X92710000Y-66720468D01*
X92710002Y-66720468D01*
X92766672Y-66715509D01*
X92936692Y-66700635D01*
X93156496Y-66641739D01*
X93362734Y-66545568D01*
X93549139Y-66415047D01*
X93710047Y-66254139D01*
X93840568Y-66067734D01*
X93936739Y-65861496D01*
X93995635Y-65641692D01*
X94015468Y-65415000D01*
X93995635Y-65188308D01*
X93936739Y-64968504D01*
X93840568Y-64762266D01*
X93710047Y-64575861D01*
X93710045Y-64575858D01*
X93549141Y-64414954D01*
X93362734Y-64284432D01*
X93362732Y-64284431D01*
X93156497Y-64188261D01*
X93156488Y-64188258D01*
X92936697Y-64129366D01*
X92936693Y-64129365D01*
X92936692Y-64129365D01*
X92936691Y-64129364D01*
X92936686Y-64129364D01*
X92710002Y-64109532D01*
X92709998Y-64109532D01*
X92483313Y-64129364D01*
X92483302Y-64129366D01*
X92263511Y-64188258D01*
X92263502Y-64188261D01*
X92057267Y-64284431D01*
X92057265Y-64284432D01*
X91870858Y-64414954D01*
X91709954Y-64575858D01*
X91579432Y-64762265D01*
X91579431Y-64762267D01*
X91483261Y-64968502D01*
X91483258Y-64968511D01*
X91424366Y-65188302D01*
X91424364Y-65188313D01*
X91404532Y-65414998D01*
X91404532Y-65415001D01*
X90500302Y-65415001D01*
X89393385Y-64308084D01*
X89390851Y-64305392D01*
X89351229Y-64260668D01*
X89302061Y-64226730D01*
X89299051Y-64224515D01*
X89252028Y-64187674D01*
X89252026Y-64187673D01*
X89252025Y-64187672D01*
X89252023Y-64187671D01*
X89243476Y-64183824D01*
X89223938Y-64172805D01*
X89216226Y-64167482D01*
X89216224Y-64167481D01*
X89160366Y-64146296D01*
X89156907Y-64144863D01*
X89102440Y-64120350D01*
X89102441Y-64120350D01*
X89095087Y-64119002D01*
X89093222Y-64118660D01*
X89071614Y-64112637D01*
X89062845Y-64109311D01*
X89003529Y-64102108D01*
X88999828Y-64101545D01*
X88941089Y-64090781D01*
X88941082Y-64090781D01*
X88881466Y-64094387D01*
X88877722Y-64094500D01*
X87539178Y-64094500D01*
X87472139Y-64074815D01*
X87437603Y-64041623D01*
X87360045Y-63930858D01*
X87199141Y-63769954D01*
X87012734Y-63639432D01*
X87012732Y-63639431D01*
X86806497Y-63543261D01*
X86806488Y-63543258D01*
X86586697Y-63484366D01*
X86586693Y-63484365D01*
X86586692Y-63484365D01*
X86586691Y-63484364D01*
X86586686Y-63484364D01*
X86360002Y-63464532D01*
X86359998Y-63464532D01*
X86133313Y-63484364D01*
X86133302Y-63484366D01*
X85913511Y-63543258D01*
X85913502Y-63543261D01*
X85707267Y-63639431D01*
X85707265Y-63639432D01*
X85520858Y-63769954D01*
X85359954Y-63930858D01*
X85282397Y-64041623D01*
X85227820Y-64085248D01*
X85180822Y-64094500D01*
X83729178Y-64094500D01*
X83662139Y-64074815D01*
X83627603Y-64041623D01*
X83550045Y-63930858D01*
X83389141Y-63769954D01*
X83202734Y-63639432D01*
X83202732Y-63639431D01*
X82996497Y-63543261D01*
X82996488Y-63543258D01*
X82776697Y-63484366D01*
X82776693Y-63484365D01*
X82776692Y-63484365D01*
X82776691Y-63484364D01*
X82776686Y-63484364D01*
X82550002Y-63464532D01*
X82549998Y-63464532D01*
X82323313Y-63484364D01*
X82323302Y-63484366D01*
X82103511Y-63543258D01*
X82103502Y-63543261D01*
X81897267Y-63639431D01*
X81897265Y-63639432D01*
X81710858Y-63769954D01*
X81549954Y-63930858D01*
X81472397Y-64041623D01*
X81417820Y-64085248D01*
X81370822Y-64094500D01*
X80164499Y-64094500D01*
X80097460Y-64074815D01*
X80051705Y-64022011D01*
X80040499Y-63970500D01*
X80040499Y-63922129D01*
X80040498Y-63922123D01*
X80040497Y-63922116D01*
X80034091Y-63862517D01*
X79999567Y-63769954D01*
X79983797Y-63727671D01*
X79983793Y-63727664D01*
X79897547Y-63612455D01*
X79897544Y-63612452D01*
X79782335Y-63526206D01*
X79782328Y-63526202D01*
X79647482Y-63475908D01*
X79647483Y-63475908D01*
X79587883Y-63469501D01*
X79587881Y-63469500D01*
X79587873Y-63469500D01*
X79587864Y-63469500D01*
X77892129Y-63469500D01*
X77892123Y-63469501D01*
X77832516Y-63475908D01*
X77697671Y-63526202D01*
X77697664Y-63526206D01*
X77582455Y-63612452D01*
X77582452Y-63612455D01*
X77496206Y-63727664D01*
X77496202Y-63727671D01*
X77445908Y-63862517D01*
X77439501Y-63922116D01*
X77439501Y-63922123D01*
X77439500Y-63922135D01*
X77439500Y-65617870D01*
X77439501Y-65617876D01*
X77445908Y-65677483D01*
X77496202Y-65812328D01*
X77496206Y-65812335D01*
X77582452Y-65927544D01*
X77582455Y-65927547D01*
X77697664Y-66013793D01*
X77697671Y-66013797D01*
X77832517Y-66064091D01*
X77832516Y-66064091D01*
X77839444Y-66064835D01*
X77892127Y-66070500D01*
X79587872Y-66070499D01*
X79647483Y-66064091D01*
X79782331Y-66013796D01*
X79897546Y-65927546D01*
X79983796Y-65812331D01*
X80034091Y-65677483D01*
X80040500Y-65617873D01*
X80040500Y-65569500D01*
X80060185Y-65502461D01*
X80112989Y-65456706D01*
X80164500Y-65445500D01*
X81370822Y-65445500D01*
X81437861Y-65465185D01*
X81472397Y-65498377D01*
X81549954Y-65609141D01*
X81710858Y-65770045D01*
X81710861Y-65770047D01*
X81897266Y-65900568D01*
X82103504Y-65996739D01*
X82323308Y-66055635D01*
X82485230Y-66069801D01*
X82549998Y-66075468D01*
X82550000Y-66075468D01*
X82550002Y-66075468D01*
X82606807Y-66070498D01*
X82776692Y-66055635D01*
X82996496Y-65996739D01*
X83202734Y-65900568D01*
X83389139Y-65770047D01*
X83550047Y-65609139D01*
X83627601Y-65498377D01*
X83682180Y-65454752D01*
X83729178Y-65445500D01*
X85180822Y-65445500D01*
X85247861Y-65465185D01*
X85282397Y-65498377D01*
X85359954Y-65609141D01*
X85520858Y-65770045D01*
X85520861Y-65770047D01*
X85707266Y-65900568D01*
X85913504Y-65996739D01*
X86133308Y-66055635D01*
X86295230Y-66069801D01*
X86359998Y-66075468D01*
X86360000Y-66075468D01*
X86360002Y-66075468D01*
X86416807Y-66070498D01*
X86586692Y-66055635D01*
X86806496Y-65996739D01*
X87012734Y-65900568D01*
X87199139Y-65770047D01*
X87360047Y-65609139D01*
X87437601Y-65498377D01*
X87492180Y-65454752D01*
X87539178Y-65445500D01*
X88568837Y-65445500D01*
X88635876Y-65465185D01*
X88656518Y-65481819D01*
X90252518Y-67077819D01*
X90286003Y-67139142D01*
X90281019Y-67208834D01*
X90239147Y-67264767D01*
X90173683Y-67289184D01*
X90164837Y-67289500D01*
X89332129Y-67289500D01*
X89332123Y-67289501D01*
X89272516Y-67295908D01*
X89137671Y-67346202D01*
X89137664Y-67346206D01*
X89022455Y-67432452D01*
X89022452Y-67432455D01*
X88936206Y-67547664D01*
X88936202Y-67547671D01*
X88885908Y-67682517D01*
X88879501Y-67742116D01*
X88879500Y-67742135D01*
X88879500Y-69437870D01*
X88879501Y-69437876D01*
X88885908Y-69497483D01*
X88936202Y-69632328D01*
X88936206Y-69632335D01*
X89022452Y-69747544D01*
X89022455Y-69747547D01*
X89137664Y-69833793D01*
X89137671Y-69833797D01*
X89182618Y-69850561D01*
X89272517Y-69884091D01*
X89307596Y-69887862D01*
X89372144Y-69914599D01*
X89411993Y-69971991D01*
X89414488Y-70041816D01*
X89378836Y-70101905D01*
X89365464Y-70112725D01*
X89340858Y-70129954D01*
X89179954Y-70290858D01*
X89049432Y-70477265D01*
X89049431Y-70477267D01*
X88953261Y-70683502D01*
X88953258Y-70683511D01*
X88894366Y-70903302D01*
X88894364Y-70903313D01*
X88875244Y-71121860D01*
X88849792Y-71186929D01*
X88793201Y-71227908D01*
X88723439Y-71231786D01*
X88664035Y-71198734D01*
X87777197Y-70311896D01*
X86853385Y-69388084D01*
X86850851Y-69385392D01*
X86811229Y-69340668D01*
X86762061Y-69306730D01*
X86759051Y-69304515D01*
X86712025Y-69267672D01*
X86712023Y-69267671D01*
X86703476Y-69263824D01*
X86683938Y-69252805D01*
X86676226Y-69247482D01*
X86676224Y-69247481D01*
X86620366Y-69226296D01*
X86616907Y-69224863D01*
X86562440Y-69200350D01*
X86562441Y-69200350D01*
X86555087Y-69199002D01*
X86553222Y-69198660D01*
X86531614Y-69192637D01*
X86522845Y-69189311D01*
X86463529Y-69182108D01*
X86459828Y-69181545D01*
X86401089Y-69170781D01*
X86401082Y-69170781D01*
X86341466Y-69174387D01*
X86337722Y-69174500D01*
X84151163Y-69174500D01*
X84084124Y-69154815D01*
X84063482Y-69138181D01*
X83160801Y-68235500D01*
X82023385Y-67098084D01*
X82020851Y-67095392D01*
X81981229Y-67050668D01*
X81932061Y-67016730D01*
X81929051Y-67014515D01*
X81882025Y-66977672D01*
X81882023Y-66977671D01*
X81873476Y-66973824D01*
X81853938Y-66962805D01*
X81846226Y-66957482D01*
X81846224Y-66957481D01*
X81790366Y-66936296D01*
X81786907Y-66934863D01*
X81732440Y-66910350D01*
X81732441Y-66910350D01*
X81725087Y-66909002D01*
X81723222Y-66908660D01*
X81701614Y-66902637D01*
X81692845Y-66899311D01*
X81633529Y-66892108D01*
X81629828Y-66891545D01*
X81571089Y-66880781D01*
X81571082Y-66880781D01*
X81511466Y-66884387D01*
X81507722Y-66884500D01*
X72524499Y-66884500D01*
X72457460Y-66864815D01*
X72411705Y-66812011D01*
X72400499Y-66760500D01*
X72400499Y-66653379D01*
X72400498Y-66653373D01*
X72400497Y-66653366D01*
X72394091Y-66593767D01*
X72343796Y-66458919D01*
X72343795Y-66458918D01*
X72343793Y-66458914D01*
X72257547Y-66343705D01*
X72257544Y-66343702D01*
X72142335Y-66257456D01*
X72142328Y-66257452D01*
X72007482Y-66207158D01*
X72007483Y-66207158D01*
X71947883Y-66200751D01*
X71947881Y-66200750D01*
X71947873Y-66200750D01*
X71947864Y-66200750D01*
X70052129Y-66200750D01*
X70052123Y-66200751D01*
X69992516Y-66207158D01*
X69857671Y-66257452D01*
X69857664Y-66257456D01*
X69742455Y-66343702D01*
X69742452Y-66343705D01*
X69656206Y-66458914D01*
X69656202Y-66458921D01*
X69605908Y-66593767D01*
X69600751Y-66641738D01*
X69599501Y-66653373D01*
X69599500Y-66653385D01*
X69599500Y-68268697D01*
X69579815Y-68335736D01*
X69527011Y-68381491D01*
X69500949Y-68390057D01*
X69420392Y-68406949D01*
X69420380Y-68406953D01*
X69394935Y-68416881D01*
X69387616Y-68419226D01*
X69361120Y-68425936D01*
X69361115Y-68425937D01*
X69275651Y-68463425D01*
X69226964Y-68482424D01*
X69188726Y-68497345D01*
X69188724Y-68497345D01*
X69188724Y-68497346D01*
X69188717Y-68497349D01*
X69165248Y-68511332D01*
X69158417Y-68514848D01*
X69133395Y-68525826D01*
X69133393Y-68525827D01*
X69055272Y-68576864D01*
X69055272Y-68576865D01*
X68975103Y-68624635D01*
X68954250Y-68642297D01*
X68948087Y-68646892D01*
X68925215Y-68661835D01*
X68925212Y-68661838D01*
X68856552Y-68725044D01*
X68832870Y-68745102D01*
X68810934Y-68767038D01*
X68742261Y-68830257D01*
X68742256Y-68830262D01*
X68725472Y-68851826D01*
X68720383Y-68857589D01*
X66724791Y-70853181D01*
X66663468Y-70886666D01*
X66637110Y-70889500D01*
X63787890Y-70889500D01*
X63720851Y-70869815D01*
X63700209Y-70853181D01*
X61536819Y-68689791D01*
X61503334Y-68628468D01*
X61500500Y-68602110D01*
X61500500Y-68462935D01*
X61485109Y-68277186D01*
X61485107Y-68277175D01*
X61424063Y-68036118D01*
X61324173Y-67808393D01*
X61188166Y-67600217D01*
X61139787Y-67547664D01*
X61019744Y-67417262D01*
X60823509Y-67264526D01*
X60823507Y-67264525D01*
X60823506Y-67264524D01*
X60604811Y-67146172D01*
X60604802Y-67146169D01*
X60369616Y-67065429D01*
X60124335Y-67024500D01*
X59875665Y-67024500D01*
X59630383Y-67065429D01*
X59395197Y-67146169D01*
X59395188Y-67146172D01*
X59176493Y-67264524D01*
X58980257Y-67417261D01*
X58811833Y-67600217D01*
X58675826Y-67808393D01*
X58575936Y-68036118D01*
X58514892Y-68277175D01*
X58514890Y-68277186D01*
X58499500Y-68462935D01*
X58499500Y-69177981D01*
X58499024Y-69185656D01*
X58495643Y-69212779D01*
X55000000Y-69212779D01*
X55000000Y-65000000D01*
X55369341Y-65000000D01*
X55389936Y-65235403D01*
X55389938Y-65235413D01*
X55451094Y-65463655D01*
X55451096Y-65463659D01*
X55451097Y-65463663D01*
X55467285Y-65498377D01*
X55550964Y-65677828D01*
X55550965Y-65677830D01*
X55686505Y-65871402D01*
X55853597Y-66038494D01*
X56047169Y-66174034D01*
X56047171Y-66174035D01*
X56261337Y-66273903D01*
X56489592Y-66335063D01*
X56666034Y-66350500D01*
X56783966Y-66350500D01*
X56960408Y-66335063D01*
X57188663Y-66273903D01*
X57402829Y-66174035D01*
X57596401Y-66038495D01*
X57763495Y-65871401D01*
X57899035Y-65677830D01*
X57998903Y-65463663D01*
X58060063Y-65235408D01*
X58080659Y-65000000D01*
X58060063Y-64764592D01*
X58009493Y-64575861D01*
X57998905Y-64536344D01*
X57998904Y-64536343D01*
X57998903Y-64536337D01*
X57899035Y-64322171D01*
X57899034Y-64322169D01*
X57763494Y-64128597D01*
X57596402Y-63961505D01*
X57402830Y-63825965D01*
X57402828Y-63825964D01*
X57282712Y-63769953D01*
X57188663Y-63726097D01*
X57188659Y-63726096D01*
X57188655Y-63726094D01*
X56960413Y-63664938D01*
X56960403Y-63664936D01*
X56783966Y-63649500D01*
X56666034Y-63649500D01*
X56489596Y-63664936D01*
X56489586Y-63664938D01*
X56261344Y-63726094D01*
X56261335Y-63726098D01*
X56047171Y-63825964D01*
X56047169Y-63825965D01*
X55853597Y-63961505D01*
X55686506Y-64128597D01*
X55686501Y-64128604D01*
X55550967Y-64322165D01*
X55550965Y-64322169D01*
X55451098Y-64536335D01*
X55451094Y-64536344D01*
X55389938Y-64764586D01*
X55389936Y-64764596D01*
X55369341Y-64999999D01*
X55369341Y-65000000D01*
X55000000Y-65000000D01*
X55000000Y-47455000D01*
X55369341Y-47455000D01*
X55389936Y-47690403D01*
X55389938Y-47690413D01*
X55451094Y-47918655D01*
X55451096Y-47918659D01*
X55451097Y-47918663D01*
X55484383Y-47990044D01*
X55550964Y-48132828D01*
X55550965Y-48132830D01*
X55686505Y-48326402D01*
X55853597Y-48493494D01*
X56047169Y-48629034D01*
X56047171Y-48629035D01*
X56261337Y-48728903D01*
X56489592Y-48790063D01*
X56666034Y-48805500D01*
X56783966Y-48805500D01*
X56960408Y-48790063D01*
X57188663Y-48728903D01*
X57402829Y-48629035D01*
X57596401Y-48493495D01*
X57763495Y-48326401D01*
X57899035Y-48132830D01*
X57998903Y-47918663D01*
X58060063Y-47690408D01*
X58080659Y-47455000D01*
X58060063Y-47219592D01*
X58008566Y-47027399D01*
X57998905Y-46991344D01*
X57998904Y-46991343D01*
X57998903Y-46991337D01*
X57899035Y-46777171D01*
X57899034Y-46777169D01*
X57763494Y-46583597D01*
X57596402Y-46416505D01*
X57402830Y-46280965D01*
X57402828Y-46280964D01*
X57295746Y-46231030D01*
X57188663Y-46181097D01*
X57188659Y-46181096D01*
X57188655Y-46181094D01*
X56960413Y-46119938D01*
X56960403Y-46119936D01*
X56783966Y-46104500D01*
X56666034Y-46104500D01*
X56489596Y-46119936D01*
X56489586Y-46119938D01*
X56261344Y-46181094D01*
X56261335Y-46181098D01*
X56047171Y-46280964D01*
X56047169Y-46280965D01*
X55853597Y-46416505D01*
X55686506Y-46583597D01*
X55686501Y-46583604D01*
X55550967Y-46777165D01*
X55550965Y-46777169D01*
X55512076Y-46860567D01*
X55451721Y-46990000D01*
X55451098Y-46991335D01*
X55451094Y-46991344D01*
X55389938Y-47219586D01*
X55389936Y-47219596D01*
X55369341Y-47454999D01*
X55369341Y-47455000D01*
X55000000Y-47455000D01*
X55000000Y-43427779D01*
X58495643Y-43427779D01*
X58499500Y-43521035D01*
X58499500Y-43992065D01*
X58514890Y-44177813D01*
X58514892Y-44177824D01*
X58575936Y-44418881D01*
X58675826Y-44646606D01*
X58811833Y-44854782D01*
X58811836Y-44854785D01*
X58980256Y-45037738D01*
X59176491Y-45190474D01*
X59395190Y-45308828D01*
X59630386Y-45389571D01*
X59761663Y-45411476D01*
X59767834Y-45412506D01*
X59830719Y-45442956D01*
X59835106Y-45447134D01*
X61501452Y-47113480D01*
X61506541Y-47119242D01*
X61523330Y-47140812D01*
X61523332Y-47140814D01*
X61523333Y-47140815D01*
X61591989Y-47204018D01*
X61604658Y-47216686D01*
X61613942Y-47225970D01*
X61637632Y-47246034D01*
X61706283Y-47309232D01*
X61706285Y-47309233D01*
X61706286Y-47309234D01*
X61729154Y-47324174D01*
X61735318Y-47328770D01*
X61756174Y-47346434D01*
X61788572Y-47365739D01*
X61836346Y-47394207D01*
X61887380Y-47427548D01*
X61914461Y-47445241D01*
X61939480Y-47456215D01*
X61946311Y-47459731D01*
X61959725Y-47467724D01*
X61969788Y-47473721D01*
X61969798Y-47473726D01*
X62056731Y-47507647D01*
X62094215Y-47524088D01*
X62142187Y-47545131D01*
X62166059Y-47551176D01*
X62168677Y-47551839D01*
X62176000Y-47554184D01*
X62201454Y-47564117D01*
X62292779Y-47583266D01*
X62383247Y-47606176D01*
X62383252Y-47606176D01*
X62383255Y-47606177D01*
X62410474Y-47608432D01*
X62418084Y-47609541D01*
X62432948Y-47612657D01*
X62444831Y-47615149D01*
X62538077Y-47619005D01*
X62569001Y-47621568D01*
X62600033Y-47621568D01*
X62693287Y-47625425D01*
X62693288Y-47625425D01*
X62693288Y-47625424D01*
X62693289Y-47625425D01*
X62697375Y-47624915D01*
X62720410Y-47622045D01*
X62728086Y-47621568D01*
X68081913Y-47621568D01*
X68089584Y-47622043D01*
X68116711Y-47625425D01*
X68209967Y-47621568D01*
X68240999Y-47621568D01*
X68271922Y-47619005D01*
X68365169Y-47615149D01*
X68391914Y-47609540D01*
X68399514Y-47608432D01*
X68426753Y-47606176D01*
X68426756Y-47606175D01*
X68426758Y-47606175D01*
X68426761Y-47606174D01*
X68517220Y-47583266D01*
X68517219Y-47583265D01*
X68608546Y-47564117D01*
X68634009Y-47554180D01*
X68641306Y-47551842D01*
X68667813Y-47545131D01*
X68753267Y-47507647D01*
X68840206Y-47473724D01*
X68863693Y-47459727D01*
X68870513Y-47456217D01*
X68895539Y-47445241D01*
X68973652Y-47394207D01*
X69053826Y-47346434D01*
X69074686Y-47328765D01*
X69080826Y-47324185D01*
X69103717Y-47309232D01*
X69172367Y-47246034D01*
X69196058Y-47225970D01*
X69218010Y-47204017D01*
X69286670Y-47140812D01*
X69303462Y-47119235D01*
X69308536Y-47113490D01*
X69526237Y-46895789D01*
X69587558Y-46862306D01*
X69657250Y-46867290D01*
X69713183Y-46909162D01*
X69735133Y-46957347D01*
X69774382Y-47139460D01*
X69857553Y-47346438D01*
X69860653Y-47354152D01*
X69981966Y-47551177D01*
X70040132Y-47617267D01*
X70134828Y-47724863D01*
X70134835Y-47724870D01*
X70314846Y-47870218D01*
X70314852Y-47870223D01*
X70516846Y-47983064D01*
X70516849Y-47983065D01*
X70735011Y-48060146D01*
X70862265Y-48081966D01*
X70963052Y-48099249D01*
X70963061Y-48099250D01*
X71218991Y-48099250D01*
X71391790Y-48084543D01*
X71391793Y-48084542D01*
X71391795Y-48084542D01*
X71615707Y-48026239D01*
X71615708Y-48026238D01*
X71615710Y-48026238D01*
X71826536Y-47930939D01*
X71826539Y-47930936D01*
X71826546Y-47930934D01*
X72018245Y-47801368D01*
X72185290Y-47641269D01*
X72322875Y-47455241D01*
X72427043Y-47248637D01*
X72494796Y-47027401D01*
X72524185Y-46797897D01*
X72523304Y-46777169D01*
X72515082Y-46583597D01*
X72514365Y-46566727D01*
X72465618Y-46340542D01*
X72457683Y-46320796D01*
X72389397Y-46150858D01*
X72379347Y-46125848D01*
X72258034Y-45928823D01*
X72105168Y-45755133D01*
X72105167Y-45755132D01*
X72101688Y-45751179D01*
X72103536Y-45749551D01*
X72073871Y-45697907D01*
X72077349Y-45628124D01*
X72110455Y-45577709D01*
X72227738Y-45469744D01*
X72380474Y-45273509D01*
X72498828Y-45054810D01*
X72579571Y-44819614D01*
X72620500Y-44574335D01*
X72620500Y-44325665D01*
X72579571Y-44080386D01*
X72498828Y-43845190D01*
X72380474Y-43626491D01*
X72333957Y-43566727D01*
X72308316Y-43501736D01*
X72321882Y-43433196D01*
X72357500Y-43391302D01*
X72377546Y-43376296D01*
X72463796Y-43261081D01*
X72514091Y-43126233D01*
X72520500Y-43066623D01*
X72520500Y-42959500D01*
X72540185Y-42892461D01*
X72592989Y-42846706D01*
X72644500Y-42835500D01*
X81198837Y-42835500D01*
X81265876Y-42855185D01*
X81286517Y-42871819D01*
X83326611Y-44911912D01*
X83329163Y-44914624D01*
X83368772Y-44959333D01*
X83417932Y-44993265D01*
X83420949Y-44995486D01*
X83459827Y-45025944D01*
X83467972Y-45032326D01*
X83476515Y-45036171D01*
X83496067Y-45047198D01*
X83503774Y-45052518D01*
X83559639Y-45073705D01*
X83563070Y-45075126D01*
X83617561Y-45099650D01*
X83626776Y-45101338D01*
X83648389Y-45107363D01*
X83657155Y-45110688D01*
X83716471Y-45117890D01*
X83720158Y-45118451D01*
X83778915Y-45129219D01*
X83778916Y-45129218D01*
X83778917Y-45129219D01*
X83838534Y-45125613D01*
X83842278Y-45125500D01*
X86028837Y-45125500D01*
X86095876Y-45145185D01*
X86116518Y-45161819D01*
X88865644Y-47910945D01*
X88899129Y-47972268D01*
X88897738Y-48030718D01*
X88894367Y-48043299D01*
X88894364Y-48043313D01*
X88874532Y-48269998D01*
X88874532Y-48270001D01*
X88894364Y-48496686D01*
X88894366Y-48496697D01*
X88953258Y-48716488D01*
X88953261Y-48716497D01*
X89049431Y-48922732D01*
X89049432Y-48922734D01*
X89179954Y-49109141D01*
X89340858Y-49270045D01*
X89340861Y-49270047D01*
X89527266Y-49400568D01*
X89733504Y-49496739D01*
X89953308Y-49555635D01*
X90115230Y-49569801D01*
X90179998Y-49575468D01*
X90180000Y-49575468D01*
X90180002Y-49575468D01*
X90236673Y-49570509D01*
X90406692Y-49555635D01*
X90626496Y-49496739D01*
X90832734Y-49400568D01*
X91019139Y-49270047D01*
X91180047Y-49109139D01*
X91310568Y-48922734D01*
X91406739Y-48716496D01*
X91465635Y-48496692D01*
X91482634Y-48302384D01*
X91485468Y-48270001D01*
X91485468Y-48269998D01*
X91474755Y-48147547D01*
X91465635Y-48043308D01*
X91410588Y-47837870D01*
X91406741Y-47823511D01*
X91406738Y-47823502D01*
X91360745Y-47724870D01*
X91310568Y-47617266D01*
X91196949Y-47455000D01*
X91180045Y-47430858D01*
X91019141Y-47269954D01*
X90832734Y-47139432D01*
X90832728Y-47139429D01*
X90805038Y-47126517D01*
X90774724Y-47112381D01*
X90722285Y-47066210D01*
X90703133Y-46999017D01*
X90723348Y-46932135D01*
X90774725Y-46887618D01*
X90832734Y-46860568D01*
X91019139Y-46730047D01*
X91180047Y-46569139D01*
X91257601Y-46458377D01*
X91312180Y-46414752D01*
X91359178Y-46405500D01*
X92388837Y-46405500D01*
X92455876Y-46425185D01*
X92476517Y-46441818D01*
X94207018Y-48172320D01*
X94240502Y-48233641D01*
X94235518Y-48303333D01*
X94207017Y-48347680D01*
X88656518Y-53898181D01*
X88595195Y-53931666D01*
X88568837Y-53934500D01*
X85033467Y-53934500D01*
X84966428Y-53914815D01*
X84945786Y-53898181D01*
X84632784Y-53585179D01*
X84599299Y-53523856D01*
X84604283Y-53454164D01*
X84646155Y-53398231D01*
X84711619Y-53373814D01*
X84752555Y-53377722D01*
X84854592Y-53405063D01*
X85031034Y-53420500D01*
X85089999Y-53425659D01*
X85090000Y-53425659D01*
X85090001Y-53425659D01*
X85148966Y-53420500D01*
X85325408Y-53405063D01*
X85553663Y-53343903D01*
X85767830Y-53244035D01*
X85961401Y-53108495D01*
X86128495Y-52941401D01*
X86264035Y-52747830D01*
X86363903Y-52533663D01*
X86425063Y-52305408D01*
X86445659Y-52070000D01*
X86425063Y-51834592D01*
X86363903Y-51606337D01*
X86264035Y-51392171D01*
X86258425Y-51384158D01*
X86128494Y-51198597D01*
X85961402Y-51031506D01*
X85961401Y-51031505D01*
X85818376Y-50931358D01*
X85774752Y-50876781D01*
X85765500Y-50829783D01*
X85765500Y-49552272D01*
X85765613Y-49548527D01*
X85769219Y-49488915D01*
X85758453Y-49430168D01*
X85757889Y-49426463D01*
X85750688Y-49367157D01*
X85750688Y-49367155D01*
X85747363Y-49358389D01*
X85741338Y-49336776D01*
X85739650Y-49327561D01*
X85715131Y-49273082D01*
X85713703Y-49269635D01*
X85710705Y-49261730D01*
X85692518Y-49213774D01*
X85687194Y-49206061D01*
X85676169Y-49186514D01*
X85672325Y-49177972D01*
X85668402Y-49172965D01*
X85635482Y-49130945D01*
X85633281Y-49127955D01*
X85599332Y-49078771D01*
X85554633Y-49039171D01*
X85551921Y-49036619D01*
X84710711Y-48195409D01*
X83886818Y-47371516D01*
X83853333Y-47310193D01*
X83850499Y-47283835D01*
X83850499Y-46142129D01*
X83850498Y-46142123D01*
X83850497Y-46142116D01*
X83844091Y-46082517D01*
X83809567Y-45989954D01*
X83793797Y-45947671D01*
X83793793Y-45947664D01*
X83707547Y-45832455D01*
X83707544Y-45832452D01*
X83592335Y-45746206D01*
X83592328Y-45746202D01*
X83457482Y-45695908D01*
X83457483Y-45695908D01*
X83397883Y-45689501D01*
X83397881Y-45689500D01*
X83397873Y-45689500D01*
X83397864Y-45689500D01*
X81702129Y-45689500D01*
X81702123Y-45689501D01*
X81642516Y-45695908D01*
X81507671Y-45746202D01*
X81507664Y-45746206D01*
X81392455Y-45832452D01*
X81392452Y-45832455D01*
X81306206Y-45947664D01*
X81306202Y-45947671D01*
X81255908Y-46082517D01*
X81251250Y-46125848D01*
X81249501Y-46142123D01*
X81249500Y-46142135D01*
X81249500Y-47837870D01*
X81249501Y-47837876D01*
X81255908Y-47897483D01*
X81306202Y-48032328D01*
X81306206Y-48032335D01*
X81392452Y-48147544D01*
X81392455Y-48147547D01*
X81507664Y-48233793D01*
X81507671Y-48233797D01*
X81642517Y-48284091D01*
X81642516Y-48284091D01*
X81649444Y-48284835D01*
X81702127Y-48290500D01*
X82843835Y-48290499D01*
X82910874Y-48310184D01*
X82931516Y-48326818D01*
X84378181Y-49773482D01*
X84411666Y-49834805D01*
X84414500Y-49861163D01*
X84414500Y-50829783D01*
X84394815Y-50896822D01*
X84361624Y-50931358D01*
X84218594Y-51031508D01*
X84051505Y-51198597D01*
X83921575Y-51384158D01*
X83866998Y-51427783D01*
X83797500Y-51434977D01*
X83735145Y-51403454D01*
X83718425Y-51384158D01*
X83588494Y-51198597D01*
X83421402Y-51031506D01*
X83421395Y-51031501D01*
X83227834Y-50895967D01*
X83227830Y-50895965D01*
X83186690Y-50876781D01*
X83013663Y-50796097D01*
X83013659Y-50796096D01*
X83013655Y-50796094D01*
X82785413Y-50734938D01*
X82785403Y-50734936D01*
X82550001Y-50714341D01*
X82549999Y-50714341D01*
X82314596Y-50734936D01*
X82314586Y-50734938D01*
X82086344Y-50796094D01*
X82086335Y-50796098D01*
X81872171Y-50895964D01*
X81872169Y-50895965D01*
X81678600Y-51031503D01*
X81556673Y-51153430D01*
X81495350Y-51186914D01*
X81425658Y-51181930D01*
X81369725Y-51140058D01*
X81352810Y-51109081D01*
X81303797Y-50977671D01*
X81303793Y-50977664D01*
X81217547Y-50862455D01*
X81217544Y-50862452D01*
X81102335Y-50776206D01*
X81102328Y-50776202D01*
X80967482Y-50725908D01*
X80967483Y-50725908D01*
X80907883Y-50719501D01*
X80907881Y-50719500D01*
X80907873Y-50719500D01*
X80907865Y-50719500D01*
X80809499Y-50719500D01*
X80742460Y-50699815D01*
X80696705Y-50647011D01*
X80685499Y-50595500D01*
X80685499Y-50583302D01*
X80685499Y-50063139D01*
X80685610Y-50059461D01*
X80689219Y-49999811D01*
X80678451Y-49941054D01*
X80677889Y-49937359D01*
X80670688Y-49878053D01*
X80670688Y-49878051D01*
X80667363Y-49869285D01*
X80661338Y-49847672D01*
X80659650Y-49838457D01*
X80635126Y-49783966D01*
X80633703Y-49780530D01*
X80631030Y-49773482D01*
X80612518Y-49724670D01*
X80607198Y-49716962D01*
X80596171Y-49697411D01*
X80592327Y-49688870D01*
X80592326Y-49688869D01*
X80592326Y-49688868D01*
X80555465Y-49641819D01*
X80553258Y-49638818D01*
X80519332Y-49589667D01*
X80474633Y-49550067D01*
X80471921Y-49547515D01*
X79451819Y-48527412D01*
X79418334Y-48466090D01*
X79415500Y-48439732D01*
X79415500Y-48169177D01*
X79435185Y-48102138D01*
X79468375Y-48067603D01*
X79579139Y-47990047D01*
X79740047Y-47829139D01*
X79870568Y-47642734D01*
X79966739Y-47436496D01*
X80025635Y-47216692D01*
X80045468Y-46990000D01*
X80025635Y-46763308D01*
X79966739Y-46543504D01*
X79870568Y-46337266D01*
X79740047Y-46150861D01*
X79740045Y-46150858D01*
X79579141Y-45989954D01*
X79392734Y-45859432D01*
X79392732Y-45859431D01*
X79186497Y-45763261D01*
X79186488Y-45763258D01*
X78966697Y-45704366D01*
X78966693Y-45704365D01*
X78966692Y-45704365D01*
X78966691Y-45704364D01*
X78966686Y-45704364D01*
X78740002Y-45684532D01*
X78739998Y-45684532D01*
X78513313Y-45704364D01*
X78513302Y-45704366D01*
X78293511Y-45763258D01*
X78293502Y-45763261D01*
X78087267Y-45859431D01*
X78087265Y-45859432D01*
X77900858Y-45989954D01*
X77739954Y-46150858D01*
X77609432Y-46337265D01*
X77609431Y-46337267D01*
X77513261Y-46543502D01*
X77513258Y-46543511D01*
X77454366Y-46763302D01*
X77454364Y-46763313D01*
X77434532Y-46989998D01*
X77434532Y-46990001D01*
X77454364Y-47216686D01*
X77454366Y-47216697D01*
X77513258Y-47436488D01*
X77513261Y-47436497D01*
X77609431Y-47642732D01*
X77609432Y-47642734D01*
X77739954Y-47829141D01*
X77900857Y-47990044D01*
X77900860Y-47990046D01*
X77900861Y-47990047D01*
X78011623Y-48067602D01*
X78055248Y-48122178D01*
X78064500Y-48169177D01*
X78064500Y-48748618D01*
X78064387Y-48752362D01*
X78060781Y-48811978D01*
X78060781Y-48811981D01*
X78071545Y-48870724D01*
X78072108Y-48874425D01*
X78079311Y-48933741D01*
X78082637Y-48942510D01*
X78088661Y-48964119D01*
X78090350Y-48973336D01*
X78114863Y-49027803D01*
X78116296Y-49031262D01*
X78137481Y-49087120D01*
X78137481Y-49087121D01*
X78142805Y-49094834D01*
X78153824Y-49114372D01*
X78157671Y-49122919D01*
X78157672Y-49122921D01*
X78157673Y-49122922D01*
X78157674Y-49122924D01*
X78162804Y-49129472D01*
X78194515Y-49169947D01*
X78196730Y-49172957D01*
X78230668Y-49222125D01*
X78275392Y-49261747D01*
X78278084Y-49264281D01*
X79298182Y-50284379D01*
X79331666Y-50345700D01*
X79334500Y-50372058D01*
X79334500Y-50595500D01*
X79314815Y-50662539D01*
X79262011Y-50708294D01*
X79210501Y-50719500D01*
X79112130Y-50719500D01*
X79112123Y-50719501D01*
X79052516Y-50725908D01*
X78917671Y-50776202D01*
X78917664Y-50776206D01*
X78802455Y-50862452D01*
X78802452Y-50862455D01*
X78716206Y-50977664D01*
X78716202Y-50977671D01*
X78665908Y-51112517D01*
X78659501Y-51172116D01*
X78659500Y-51172135D01*
X78659500Y-52967870D01*
X78659501Y-52967876D01*
X78665908Y-53027483D01*
X78716202Y-53162328D01*
X78716206Y-53162335D01*
X78802452Y-53277544D01*
X78802455Y-53277547D01*
X78917664Y-53363793D01*
X78917671Y-53363797D01*
X79052517Y-53414091D01*
X79052516Y-53414091D01*
X79059444Y-53414835D01*
X79112127Y-53420500D01*
X79944836Y-53420499D01*
X80011875Y-53440183D01*
X80057630Y-53492987D01*
X80067574Y-53562146D01*
X80038549Y-53625702D01*
X80032517Y-53632180D01*
X78496518Y-55168181D01*
X78435195Y-55201666D01*
X78408837Y-55204500D01*
X72544499Y-55204500D01*
X72477460Y-55184815D01*
X72431705Y-55132011D01*
X72420499Y-55080500D01*
X72420499Y-55032129D01*
X72420498Y-55032123D01*
X72420497Y-55032116D01*
X72414091Y-54972517D01*
X72363796Y-54837669D01*
X72363795Y-54837668D01*
X72363793Y-54837664D01*
X72277547Y-54722455D01*
X72277544Y-54722452D01*
X72162335Y-54636206D01*
X72162328Y-54636202D01*
X72027483Y-54585908D01*
X72022079Y-54584632D01*
X71961363Y-54550060D01*
X71928976Y-54488149D01*
X71935202Y-54418558D01*
X71962910Y-54376275D01*
X72120047Y-54219139D01*
X72250568Y-54032734D01*
X72346739Y-53826496D01*
X72405635Y-53606692D01*
X72425468Y-53380000D01*
X72424050Y-53363797D01*
X72419801Y-53315230D01*
X72405635Y-53153308D01*
X72346739Y-52933504D01*
X72250568Y-52727266D01*
X72120047Y-52540861D01*
X72120045Y-52540858D01*
X71959141Y-52379954D01*
X71772734Y-52249432D01*
X71772732Y-52249431D01*
X71566497Y-52153261D01*
X71566488Y-52153258D01*
X71346697Y-52094366D01*
X71346693Y-52094365D01*
X71346692Y-52094365D01*
X71346691Y-52094364D01*
X71346686Y-52094364D01*
X71120002Y-52074532D01*
X71119998Y-52074532D01*
X70893313Y-52094364D01*
X70893302Y-52094366D01*
X70673511Y-52153258D01*
X70673502Y-52153261D01*
X70467267Y-52249431D01*
X70467265Y-52249432D01*
X70280858Y-52379954D01*
X70119954Y-52540858D01*
X69989432Y-52727265D01*
X69989431Y-52727267D01*
X69893261Y-52933502D01*
X69893258Y-52933511D01*
X69834366Y-53153302D01*
X69834364Y-53153313D01*
X69814532Y-53379998D01*
X69814532Y-53380001D01*
X69834364Y-53606686D01*
X69834366Y-53606697D01*
X69893258Y-53826488D01*
X69893261Y-53826497D01*
X69989431Y-54032732D01*
X69989432Y-54032734D01*
X70119954Y-54219141D01*
X70277086Y-54376273D01*
X70310571Y-54437596D01*
X70305587Y-54507288D01*
X70263715Y-54563221D01*
X70217932Y-54584628D01*
X70212522Y-54585906D01*
X70077671Y-54636202D01*
X70077664Y-54636206D01*
X69962455Y-54722452D01*
X69962452Y-54722455D01*
X69876206Y-54837664D01*
X69876202Y-54837671D01*
X69825908Y-54972517D01*
X69819501Y-55032116D01*
X69819501Y-55032123D01*
X69819500Y-55032135D01*
X69819500Y-56727870D01*
X69819501Y-56727876D01*
X69825908Y-56787483D01*
X69876202Y-56922328D01*
X69876206Y-56922335D01*
X69962452Y-57037544D01*
X69962455Y-57037547D01*
X70077664Y-57123793D01*
X70077671Y-57123797D01*
X70212517Y-57174091D01*
X70212516Y-57174091D01*
X70219444Y-57174835D01*
X70272127Y-57180500D01*
X71967872Y-57180499D01*
X72027483Y-57174091D01*
X72162331Y-57123796D01*
X72277546Y-57037546D01*
X72363796Y-56922331D01*
X72414091Y-56787483D01*
X72420500Y-56727873D01*
X72420500Y-56679499D01*
X72440185Y-56612461D01*
X72492989Y-56566706D01*
X72544500Y-56555500D01*
X78717722Y-56555500D01*
X78721466Y-56555613D01*
X78781082Y-56559219D01*
X78781082Y-56559218D01*
X78781085Y-56559219D01*
X78817327Y-56552577D01*
X78839836Y-56548453D01*
X78843540Y-56547889D01*
X78864888Y-56545296D01*
X78902845Y-56540688D01*
X78911605Y-56537365D01*
X78933221Y-56531338D01*
X78942439Y-56529650D01*
X78996916Y-56505132D01*
X79000358Y-56503705D01*
X79056226Y-56482518D01*
X79063933Y-56477197D01*
X79083480Y-56466172D01*
X79092028Y-56462326D01*
X79139066Y-56425472D01*
X79142059Y-56423269D01*
X79191229Y-56389332D01*
X79230852Y-56344605D01*
X79233386Y-56341913D01*
X82150121Y-53425178D01*
X82211442Y-53391695D01*
X82269893Y-53393086D01*
X82282843Y-53396555D01*
X82314592Y-53405063D01*
X82518916Y-53422939D01*
X82583984Y-53448391D01*
X82595789Y-53458786D01*
X84208915Y-55071912D01*
X84211467Y-55074624D01*
X84251076Y-55119333D01*
X84300236Y-55153265D01*
X84303253Y-55155486D01*
X84340689Y-55184815D01*
X84350276Y-55192326D01*
X84358812Y-55196168D01*
X84358819Y-55196171D01*
X84378371Y-55207198D01*
X84386078Y-55212518D01*
X84441943Y-55233705D01*
X84445374Y-55235126D01*
X84499865Y-55259650D01*
X84499868Y-55259650D01*
X84499869Y-55259651D01*
X84502973Y-55260219D01*
X84509069Y-55261336D01*
X84530700Y-55267365D01*
X84539459Y-55270688D01*
X84598748Y-55277886D01*
X84602451Y-55278450D01*
X84640921Y-55285500D01*
X84661219Y-55289220D01*
X84661219Y-55289219D01*
X84661220Y-55289220D01*
X84720848Y-55285613D01*
X84724593Y-55285500D01*
X88877722Y-55285500D01*
X88881466Y-55285613D01*
X88941082Y-55289219D01*
X88941082Y-55289218D01*
X88941085Y-55289219D01*
X88977327Y-55282577D01*
X88999836Y-55278453D01*
X89003540Y-55277889D01*
X89024888Y-55275296D01*
X89062845Y-55270688D01*
X89071605Y-55267365D01*
X89093221Y-55261338D01*
X89102439Y-55259650D01*
X89156916Y-55235132D01*
X89160358Y-55233705D01*
X89216226Y-55212518D01*
X89220764Y-55209385D01*
X89223935Y-55207197D01*
X89243480Y-55196172D01*
X89252028Y-55192326D01*
X89299066Y-55155472D01*
X89302059Y-55153269D01*
X89351229Y-55119332D01*
X89390852Y-55074605D01*
X89393386Y-55071913D01*
X95483481Y-48981819D01*
X95544805Y-48948334D01*
X95571163Y-48945500D01*
X96620822Y-48945500D01*
X96687861Y-48965185D01*
X96722397Y-48998377D01*
X96799954Y-49109141D01*
X96960858Y-49270045D01*
X96960861Y-49270047D01*
X97147266Y-49400568D01*
X97202798Y-49426463D01*
X97205275Y-49427618D01*
X97257714Y-49473791D01*
X97276866Y-49540984D01*
X97256650Y-49607865D01*
X97205275Y-49652382D01*
X97147267Y-49679431D01*
X97147265Y-49679432D01*
X96960858Y-49809954D01*
X96799954Y-49970858D01*
X96669432Y-50157265D01*
X96669431Y-50157267D01*
X96573261Y-50363502D01*
X96573258Y-50363511D01*
X96514366Y-50583302D01*
X96514364Y-50583313D01*
X96494532Y-50809998D01*
X96494532Y-50810001D01*
X96514364Y-51036686D01*
X96514366Y-51036697D01*
X96573258Y-51256488D01*
X96573261Y-51256497D01*
X96669431Y-51462732D01*
X96669432Y-51462734D01*
X96799954Y-51649141D01*
X96960858Y-51810045D01*
X96960861Y-51810047D01*
X97147266Y-51940568D01*
X97353504Y-52036739D01*
X97573308Y-52095635D01*
X97735230Y-52109801D01*
X97799998Y-52115468D01*
X97800000Y-52115468D01*
X97800002Y-52115468D01*
X97856673Y-52110509D01*
X98026692Y-52095635D01*
X98246496Y-52036739D01*
X98452734Y-51940568D01*
X98639139Y-51810047D01*
X98800047Y-51649139D01*
X98930568Y-51462734D01*
X99026739Y-51256496D01*
X99085635Y-51036692D01*
X99097110Y-50905533D01*
X100909500Y-50905533D01*
X100924345Y-51221897D01*
X100958448Y-51462734D01*
X100966887Y-51522325D01*
X100967500Y-51531027D01*
X100967500Y-55756000D01*
X100967501Y-55756009D01*
X100979052Y-55863450D01*
X100979054Y-55863462D01*
X100990260Y-55914972D01*
X101024383Y-56017497D01*
X101024386Y-56017503D01*
X101102171Y-56138537D01*
X101102179Y-56138548D01*
X101147923Y-56191340D01*
X101147926Y-56191343D01*
X101147930Y-56191347D01*
X101256664Y-56285567D01*
X101256667Y-56285568D01*
X101256668Y-56285569D01*
X101385979Y-56344625D01*
X101387541Y-56345338D01*
X101432357Y-56358497D01*
X101454575Y-56365022D01*
X101454580Y-56365023D01*
X101454584Y-56365024D01*
X101597000Y-56385500D01*
X101597003Y-56385500D01*
X109222990Y-56385500D01*
X109223000Y-56385500D01*
X109330456Y-56373947D01*
X109381967Y-56362741D01*
X109416197Y-56351347D01*
X109484497Y-56328616D01*
X109484501Y-56328613D01*
X109484504Y-56328613D01*
X109605543Y-56250825D01*
X109658347Y-56205070D01*
X109752567Y-56096336D01*
X109812338Y-55965459D01*
X109832023Y-55898420D01*
X109832024Y-55898416D01*
X109852500Y-55756000D01*
X109852500Y-51540555D01*
X109854675Y-51517434D01*
X109870947Y-51431694D01*
X109870949Y-51431686D01*
X109910500Y-51011181D01*
X109910500Y-46884467D01*
X109895655Y-46568103D01*
X109859436Y-46312326D01*
X109836440Y-46149924D01*
X109836438Y-46149919D01*
X109836438Y-46149913D01*
X109738321Y-45739106D01*
X109723610Y-45695908D01*
X109602171Y-45339302D01*
X109602164Y-45339285D01*
X109429173Y-44953987D01*
X109429171Y-44953983D01*
X109220856Y-44586570D01*
X109220851Y-44586562D01*
X108979062Y-44240292D01*
X108979053Y-44240280D01*
X108979050Y-44240276D01*
X108705879Y-43918148D01*
X108403744Y-43623014D01*
X108403739Y-43623010D01*
X108403734Y-43623005D01*
X108156012Y-43422725D01*
X108075300Y-43357470D01*
X108075293Y-43357465D01*
X108075290Y-43357463D01*
X107803275Y-43176860D01*
X107723433Y-43123849D01*
X107723430Y-43123847D01*
X107723425Y-43123844D01*
X107723426Y-43123844D01*
X107351246Y-42924208D01*
X107351228Y-42924200D01*
X106961977Y-42760288D01*
X106961971Y-42760286D01*
X106590165Y-42643321D01*
X106532123Y-42604426D01*
X106504322Y-42540325D01*
X106515591Y-42471370D01*
X106562350Y-42419454D01*
X106577559Y-42411483D01*
X106776607Y-42324173D01*
X106984785Y-42188164D01*
X107167738Y-42019744D01*
X107320474Y-41823509D01*
X107438828Y-41604810D01*
X107519571Y-41369614D01*
X107560500Y-41124335D01*
X107560500Y-40875665D01*
X107519571Y-40630386D01*
X107438828Y-40395190D01*
X107320474Y-40176491D01*
X107167738Y-39980256D01*
X106984785Y-39811836D01*
X106984782Y-39811833D01*
X106776606Y-39675826D01*
X106548881Y-39575936D01*
X106307824Y-39514892D01*
X106307813Y-39514890D01*
X106142548Y-39501197D01*
X106122067Y-39499500D01*
X104697933Y-39499500D01*
X104678521Y-39501108D01*
X104512186Y-39514890D01*
X104512175Y-39514892D01*
X104271118Y-39575936D01*
X104043393Y-39675826D01*
X103835217Y-39811833D01*
X103652261Y-39980257D01*
X103499524Y-40176493D01*
X103381172Y-40395188D01*
X103381169Y-40395197D01*
X103300429Y-40630383D01*
X103259500Y-40875665D01*
X103259500Y-41124334D01*
X103300429Y-41369616D01*
X103381169Y-41604802D01*
X103381172Y-41604811D01*
X103491584Y-41808834D01*
X103499526Y-41823509D01*
X103652262Y-42019744D01*
X103770758Y-42128827D01*
X103835217Y-42188166D01*
X104043393Y-42324172D01*
X104043393Y-42324173D01*
X104247277Y-42413605D01*
X104300762Y-42458560D01*
X104321452Y-42525296D01*
X104302777Y-42592624D01*
X104250667Y-42639167D01*
X104229092Y-42647059D01*
X104057985Y-42692191D01*
X104057983Y-42692192D01*
X103661466Y-42837683D01*
X103280326Y-43019661D01*
X103280320Y-43019664D01*
X102917895Y-43236532D01*
X102917889Y-43236536D01*
X102577363Y-43486391D01*
X102261732Y-43767035D01*
X102261728Y-43767039D01*
X102186754Y-43847481D01*
X101973750Y-44076018D01*
X101715993Y-44410578D01*
X101715988Y-44410585D01*
X101490677Y-44767838D01*
X101490676Y-44767840D01*
X101299819Y-45144597D01*
X101299814Y-45144607D01*
X101145065Y-45537612D01*
X101052059Y-45859432D01*
X101027804Y-45943359D01*
X101027803Y-45943363D01*
X101027802Y-45943363D01*
X100949052Y-46358300D01*
X100949050Y-46358317D01*
X100927861Y-46583604D01*
X100909500Y-46778819D01*
X100909500Y-50905533D01*
X99097110Y-50905533D01*
X99105468Y-50810000D01*
X99104251Y-50796094D01*
X99091208Y-50647011D01*
X99085635Y-50583308D01*
X99026739Y-50363504D01*
X98930568Y-50157266D01*
X98800047Y-49970861D01*
X98800045Y-49970858D01*
X98639141Y-49809954D01*
X98452734Y-49679432D01*
X98452728Y-49679429D01*
X98394725Y-49652382D01*
X98342285Y-49606210D01*
X98323133Y-49539017D01*
X98343348Y-49472135D01*
X98394725Y-49427618D01*
X98397202Y-49426463D01*
X98452734Y-49400568D01*
X98639139Y-49270047D01*
X98800047Y-49109139D01*
X98930568Y-48922734D01*
X99026739Y-48716496D01*
X99085635Y-48496692D01*
X99102634Y-48302384D01*
X99105468Y-48270001D01*
X99105468Y-48269998D01*
X99094755Y-48147547D01*
X99085635Y-48043308D01*
X99030588Y-47837870D01*
X99026741Y-47823511D01*
X99026738Y-47823502D01*
X98980745Y-47724870D01*
X98930568Y-47617266D01*
X98816949Y-47455000D01*
X98800045Y-47430858D01*
X98639141Y-47269954D01*
X98452734Y-47139432D01*
X98452728Y-47139429D01*
X98425038Y-47126517D01*
X98394724Y-47112381D01*
X98342285Y-47066210D01*
X98323133Y-46999017D01*
X98343348Y-46932135D01*
X98394725Y-46887618D01*
X98452734Y-46860568D01*
X98639139Y-46730047D01*
X98800047Y-46569139D01*
X98930568Y-46382734D01*
X98944106Y-46353703D01*
X98961607Y-46316171D01*
X99026739Y-46176496D01*
X99085635Y-45956692D01*
X99105468Y-45730000D01*
X99102485Y-45695909D01*
X99085635Y-45503313D01*
X99085635Y-45503308D01*
X99026739Y-45283504D01*
X98930568Y-45077266D01*
X98800047Y-44890861D01*
X98800045Y-44890858D01*
X98639141Y-44729954D01*
X98452734Y-44599432D01*
X98452732Y-44599431D01*
X98246497Y-44503261D01*
X98246488Y-44503258D01*
X98026697Y-44444366D01*
X98026693Y-44444365D01*
X98026692Y-44444365D01*
X98026691Y-44444364D01*
X98026686Y-44444364D01*
X97800002Y-44424532D01*
X97799998Y-44424532D01*
X97573313Y-44444364D01*
X97573302Y-44444366D01*
X97353511Y-44503258D01*
X97353502Y-44503261D01*
X97147267Y-44599431D01*
X97147265Y-44599432D01*
X96960858Y-44729954D01*
X96799954Y-44890858D01*
X96722397Y-45001623D01*
X96667820Y-45045248D01*
X96620822Y-45054500D01*
X95934596Y-45054500D01*
X95867557Y-45034815D01*
X95846915Y-45018181D01*
X94065266Y-43236532D01*
X92274595Y-41445862D01*
X92241111Y-41384540D01*
X92246095Y-41314848D01*
X92287967Y-41258915D01*
X92353431Y-41234498D01*
X92394370Y-41238407D01*
X92533308Y-41275635D01*
X92695230Y-41289801D01*
X92759998Y-41295468D01*
X92760000Y-41295468D01*
X92760002Y-41295468D01*
X92816673Y-41290509D01*
X92986692Y-41275635D01*
X93206496Y-41216739D01*
X93412734Y-41120568D01*
X93599139Y-40990047D01*
X93760047Y-40829139D01*
X93772002Y-40812065D01*
X99409500Y-40812065D01*
X99424890Y-40997813D01*
X99424892Y-40997824D01*
X99485936Y-41238881D01*
X99585826Y-41466606D01*
X99721833Y-41674782D01*
X99721836Y-41674785D01*
X99890256Y-41857738D01*
X100086491Y-42010474D01*
X100305190Y-42128828D01*
X100540386Y-42209571D01*
X100785665Y-42250500D01*
X101034335Y-42250500D01*
X101279614Y-42209571D01*
X101514810Y-42128828D01*
X101733509Y-42010474D01*
X101929744Y-41857738D01*
X102098164Y-41674785D01*
X102234173Y-41466607D01*
X102334063Y-41238881D01*
X102395108Y-40997821D01*
X102395753Y-40990045D01*
X102410500Y-40812065D01*
X102410500Y-39187935D01*
X102395109Y-39002186D01*
X102395107Y-39002175D01*
X102334063Y-38761118D01*
X102234173Y-38533393D01*
X102098166Y-38325217D01*
X102007906Y-38227169D01*
X101929744Y-38142262D01*
X101733509Y-37989526D01*
X101733507Y-37989525D01*
X101733506Y-37989524D01*
X101514811Y-37871172D01*
X101514802Y-37871169D01*
X101279616Y-37790429D01*
X101034335Y-37749500D01*
X100785665Y-37749500D01*
X100540383Y-37790429D01*
X100305197Y-37871169D01*
X100305188Y-37871172D01*
X100086493Y-37989524D01*
X99890257Y-38142261D01*
X99721833Y-38325217D01*
X99585826Y-38533393D01*
X99485936Y-38761118D01*
X99424892Y-39002175D01*
X99424890Y-39002186D01*
X99409500Y-39187935D01*
X99409500Y-40812065D01*
X93772002Y-40812065D01*
X93890568Y-40642734D01*
X93986739Y-40436496D01*
X94045635Y-40216692D01*
X94065468Y-39990000D01*
X94045635Y-39763308D01*
X93986739Y-39543504D01*
X93890568Y-39337266D01*
X93760047Y-39150861D01*
X93760045Y-39150858D01*
X93599141Y-38989954D01*
X93412734Y-38859432D01*
X93412732Y-38859431D01*
X93206497Y-38763261D01*
X93206488Y-38763258D01*
X92986697Y-38704366D01*
X92986693Y-38704365D01*
X92986692Y-38704365D01*
X92986691Y-38704364D01*
X92986686Y-38704364D01*
X92760002Y-38684532D01*
X92759998Y-38684532D01*
X92533313Y-38704364D01*
X92533302Y-38704366D01*
X92313511Y-38763258D01*
X92313502Y-38763261D01*
X92107267Y-38859431D01*
X92107265Y-38859432D01*
X91920858Y-38989954D01*
X91759954Y-39150858D01*
X91629432Y-39337265D01*
X91629431Y-39337267D01*
X91533261Y-39543502D01*
X91533258Y-39543511D01*
X91474366Y-39763302D01*
X91474364Y-39763313D01*
X91454532Y-39989998D01*
X91454532Y-39990001D01*
X91474364Y-40216686D01*
X91474366Y-40216697D01*
X91511592Y-40355629D01*
X91509929Y-40425479D01*
X91470766Y-40483341D01*
X91406537Y-40510845D01*
X91337635Y-40499258D01*
X91304136Y-40475403D01*
X90592035Y-39763302D01*
X89736817Y-38908084D01*
X89734283Y-38905392D01*
X89694661Y-38860668D01*
X89645493Y-38826730D01*
X89642483Y-38824515D01*
X89595457Y-38787672D01*
X89595455Y-38787671D01*
X89586908Y-38783824D01*
X89567370Y-38772805D01*
X89559658Y-38767482D01*
X89559656Y-38767481D01*
X89503798Y-38746296D01*
X89500339Y-38744863D01*
X89445872Y-38720350D01*
X89445873Y-38720350D01*
X89438519Y-38719002D01*
X89436654Y-38718660D01*
X89415046Y-38712637D01*
X89406277Y-38709311D01*
X89346961Y-38702108D01*
X89343260Y-38701545D01*
X89284521Y-38690781D01*
X89284514Y-38690781D01*
X89224898Y-38694387D01*
X89221154Y-38694500D01*
X87539178Y-38694500D01*
X87472139Y-38674815D01*
X87437603Y-38641623D01*
X87360045Y-38530858D01*
X87199141Y-38369954D01*
X87012734Y-38239432D01*
X87012732Y-38239431D01*
X86806497Y-38143261D01*
X86806488Y-38143258D01*
X86586697Y-38084366D01*
X86586693Y-38084365D01*
X86586692Y-38084365D01*
X86586691Y-38084364D01*
X86586686Y-38084364D01*
X86360002Y-38064532D01*
X86359998Y-38064532D01*
X86133313Y-38084364D01*
X86133302Y-38084366D01*
X85913511Y-38143258D01*
X85913502Y-38143261D01*
X85707267Y-38239431D01*
X85707265Y-38239432D01*
X85520858Y-38369954D01*
X85359954Y-38530858D01*
X85282397Y-38641623D01*
X85227820Y-38685248D01*
X85180822Y-38694500D01*
X83729178Y-38694500D01*
X83662139Y-38674815D01*
X83627603Y-38641623D01*
X83550045Y-38530858D01*
X83389141Y-38369954D01*
X83202734Y-38239432D01*
X83202732Y-38239431D01*
X82996497Y-38143261D01*
X82996488Y-38143258D01*
X82776697Y-38084366D01*
X82776693Y-38084365D01*
X82776692Y-38084365D01*
X82776691Y-38084364D01*
X82776686Y-38084364D01*
X82550002Y-38064532D01*
X82549998Y-38064532D01*
X82323313Y-38084364D01*
X82323302Y-38084366D01*
X82103511Y-38143258D01*
X82103502Y-38143261D01*
X81897267Y-38239431D01*
X81897265Y-38239432D01*
X81710858Y-38369954D01*
X81549954Y-38530858D01*
X81472397Y-38641623D01*
X81417820Y-38685248D01*
X81370822Y-38694500D01*
X80164499Y-38694500D01*
X80097460Y-38674815D01*
X80051705Y-38622011D01*
X80040499Y-38570500D01*
X80040499Y-38522129D01*
X80040498Y-38522123D01*
X80040497Y-38522116D01*
X80034091Y-38462517D01*
X80026191Y-38441337D01*
X79983797Y-38327671D01*
X79983793Y-38327664D01*
X79897547Y-38212455D01*
X79897544Y-38212452D01*
X79782335Y-38126206D01*
X79782328Y-38126202D01*
X79647482Y-38075908D01*
X79647483Y-38075908D01*
X79587883Y-38069501D01*
X79587881Y-38069500D01*
X79587873Y-38069500D01*
X79587864Y-38069500D01*
X77892129Y-38069500D01*
X77892123Y-38069501D01*
X77832516Y-38075908D01*
X77697671Y-38126202D01*
X77697664Y-38126206D01*
X77582455Y-38212452D01*
X77582452Y-38212455D01*
X77496206Y-38327664D01*
X77496202Y-38327671D01*
X77445908Y-38462517D01*
X77439501Y-38522116D01*
X77439501Y-38522123D01*
X77439500Y-38522135D01*
X77439500Y-40217870D01*
X77439501Y-40217876D01*
X77445908Y-40277483D01*
X77496202Y-40412328D01*
X77496206Y-40412335D01*
X77582452Y-40527544D01*
X77582455Y-40527547D01*
X77697664Y-40613793D01*
X77697671Y-40613797D01*
X77832517Y-40664091D01*
X77832516Y-40664091D01*
X77839444Y-40664835D01*
X77892127Y-40670500D01*
X79587872Y-40670499D01*
X79647483Y-40664091D01*
X79782331Y-40613796D01*
X79897546Y-40527546D01*
X79983796Y-40412331D01*
X80034091Y-40277483D01*
X80040500Y-40217873D01*
X80040500Y-40169500D01*
X80060185Y-40102461D01*
X80112989Y-40056706D01*
X80164500Y-40045500D01*
X81370822Y-40045500D01*
X81437861Y-40065185D01*
X81472397Y-40098377D01*
X81549954Y-40209141D01*
X81710858Y-40370045D01*
X81710861Y-40370047D01*
X81897266Y-40500568D01*
X82103504Y-40596739D01*
X82323308Y-40655635D01*
X82485230Y-40669801D01*
X82549998Y-40675468D01*
X82550000Y-40675468D01*
X82550002Y-40675468D01*
X82606807Y-40670498D01*
X82776692Y-40655635D01*
X82996496Y-40596739D01*
X83202734Y-40500568D01*
X83389139Y-40370047D01*
X83550047Y-40209139D01*
X83627601Y-40098377D01*
X83682180Y-40054752D01*
X83729178Y-40045500D01*
X85180822Y-40045500D01*
X85247861Y-40065185D01*
X85282397Y-40098377D01*
X85359954Y-40209141D01*
X85520858Y-40370045D01*
X85520861Y-40370047D01*
X85707266Y-40500568D01*
X85913504Y-40596739D01*
X86133308Y-40655635D01*
X86295230Y-40669801D01*
X86359998Y-40675468D01*
X86360000Y-40675468D01*
X86360002Y-40675468D01*
X86416807Y-40670498D01*
X86586692Y-40655635D01*
X86806496Y-40596739D01*
X87012734Y-40500568D01*
X87199139Y-40370047D01*
X87360047Y-40209139D01*
X87437601Y-40098377D01*
X87492180Y-40054752D01*
X87539178Y-40045500D01*
X88912269Y-40045500D01*
X88979308Y-40065185D01*
X88999950Y-40081819D01*
X90595949Y-41677819D01*
X90629434Y-41739142D01*
X90624450Y-41808834D01*
X90582578Y-41864767D01*
X90517114Y-41889184D01*
X90508268Y-41889500D01*
X89332129Y-41889500D01*
X89332123Y-41889501D01*
X89272516Y-41895908D01*
X89137671Y-41946202D01*
X89137664Y-41946206D01*
X89022455Y-42032452D01*
X89022452Y-42032455D01*
X88936206Y-42147664D01*
X88936202Y-42147671D01*
X88885908Y-42282517D01*
X88879501Y-42342116D01*
X88879500Y-42342135D01*
X88879500Y-44037870D01*
X88879501Y-44037876D01*
X88885908Y-44097483D01*
X88936202Y-44232328D01*
X88936206Y-44232335D01*
X89022452Y-44347544D01*
X89022455Y-44347547D01*
X89137664Y-44433793D01*
X89137671Y-44433797D01*
X89182618Y-44450561D01*
X89272517Y-44484091D01*
X89307596Y-44487862D01*
X89372144Y-44514599D01*
X89411993Y-44571991D01*
X89414488Y-44641816D01*
X89378836Y-44701905D01*
X89365464Y-44712725D01*
X89340858Y-44729954D01*
X89179954Y-44890858D01*
X89049432Y-45077265D01*
X89049431Y-45077267D01*
X88953261Y-45283502D01*
X88953258Y-45283511D01*
X88894366Y-45503302D01*
X88894364Y-45503313D01*
X88875244Y-45721860D01*
X88849792Y-45786929D01*
X88793201Y-45827908D01*
X88723439Y-45831786D01*
X88664035Y-45798734D01*
X87777197Y-44911896D01*
X86853385Y-43988084D01*
X86850851Y-43985392D01*
X86811229Y-43940668D01*
X86762061Y-43906730D01*
X86759051Y-43904515D01*
X86712025Y-43867672D01*
X86712023Y-43867671D01*
X86703476Y-43863824D01*
X86683938Y-43852805D01*
X86676226Y-43847482D01*
X86676224Y-43847481D01*
X86620366Y-43826296D01*
X86616907Y-43824863D01*
X86562440Y-43800350D01*
X86562441Y-43800350D01*
X86555087Y-43799002D01*
X86553222Y-43798660D01*
X86531614Y-43792637D01*
X86522845Y-43789311D01*
X86463529Y-43782108D01*
X86459828Y-43781545D01*
X86401089Y-43770781D01*
X86401082Y-43770781D01*
X86341466Y-43774387D01*
X86337722Y-43774500D01*
X84151163Y-43774500D01*
X84084124Y-43754815D01*
X84063482Y-43738181D01*
X83064293Y-42738992D01*
X82023385Y-41698084D01*
X82020851Y-41695392D01*
X81981229Y-41650668D01*
X81932061Y-41616730D01*
X81929051Y-41614515D01*
X81916664Y-41604810D01*
X81882028Y-41577674D01*
X81882026Y-41577673D01*
X81882025Y-41577672D01*
X81882023Y-41577671D01*
X81873476Y-41573824D01*
X81853938Y-41562805D01*
X81846226Y-41557482D01*
X81846224Y-41557481D01*
X81790366Y-41536296D01*
X81786907Y-41534863D01*
X81732440Y-41510350D01*
X81732441Y-41510350D01*
X81725087Y-41509002D01*
X81723222Y-41508660D01*
X81701614Y-41502637D01*
X81692845Y-41499311D01*
X81633529Y-41492108D01*
X81629828Y-41491545D01*
X81571089Y-41480781D01*
X81571082Y-41480781D01*
X81511466Y-41484387D01*
X81507722Y-41484500D01*
X72644499Y-41484500D01*
X72577460Y-41464815D01*
X72531705Y-41412011D01*
X72520499Y-41360500D01*
X72520499Y-41253379D01*
X72520498Y-41253373D01*
X72520497Y-41253366D01*
X72514091Y-41193767D01*
X72488194Y-41124334D01*
X72463797Y-41058921D01*
X72463793Y-41058914D01*
X72377547Y-40943705D01*
X72377544Y-40943702D01*
X72262335Y-40857456D01*
X72262328Y-40857452D01*
X72127482Y-40807158D01*
X72127483Y-40807158D01*
X72067883Y-40800751D01*
X72067881Y-40800750D01*
X72067873Y-40800750D01*
X72067864Y-40800750D01*
X70172129Y-40800750D01*
X70172123Y-40800751D01*
X70112516Y-40807158D01*
X69977671Y-40857452D01*
X69977664Y-40857456D01*
X69862455Y-40943702D01*
X69862452Y-40943705D01*
X69776206Y-41058914D01*
X69776202Y-41058921D01*
X69725908Y-41193767D01*
X69719501Y-41253366D01*
X69719501Y-41253373D01*
X69719500Y-41253385D01*
X69719500Y-42841020D01*
X69699815Y-42908059D01*
X69647011Y-42953814D01*
X69605743Y-42964596D01*
X69602186Y-42964890D01*
X69602175Y-42964892D01*
X69511711Y-42987801D01*
X69420395Y-43006948D01*
X69420379Y-43006953D01*
X69394935Y-43016881D01*
X69387616Y-43019226D01*
X69361123Y-43025935D01*
X69275663Y-43063420D01*
X69188726Y-43097343D01*
X69188717Y-43097348D01*
X69165244Y-43111335D01*
X69158409Y-43114853D01*
X69133397Y-43125824D01*
X69133390Y-43125828D01*
X69055278Y-43176860D01*
X68975104Y-43224635D01*
X68954250Y-43242297D01*
X68948087Y-43246892D01*
X68925216Y-43261834D01*
X68889578Y-43294641D01*
X68856564Y-43325033D01*
X68837376Y-43341284D01*
X68832869Y-43345102D01*
X68810922Y-43367049D01*
X68742262Y-43430256D01*
X68725471Y-43451826D01*
X68720382Y-43457588D01*
X67593723Y-44584249D01*
X67532400Y-44617734D01*
X67506042Y-44620568D01*
X63303958Y-44620568D01*
X63236919Y-44600883D01*
X63216277Y-44584249D01*
X61536819Y-42904791D01*
X61503334Y-42843468D01*
X61500500Y-42817110D01*
X61500500Y-42367935D01*
X61485109Y-42182186D01*
X61485107Y-42182175D01*
X61424063Y-41941118D01*
X61324173Y-41713393D01*
X61188166Y-41505217D01*
X61150973Y-41464815D01*
X61019744Y-41322262D01*
X60823509Y-41169526D01*
X60823507Y-41169525D01*
X60823506Y-41169524D01*
X60604811Y-41051172D01*
X60604802Y-41051169D01*
X60369616Y-40970429D01*
X60124335Y-40929500D01*
X59875665Y-40929500D01*
X59630383Y-40970429D01*
X59395197Y-41051169D01*
X59395188Y-41051172D01*
X59176493Y-41169524D01*
X58980257Y-41322261D01*
X58811833Y-41505217D01*
X58675826Y-41713393D01*
X58575936Y-41941118D01*
X58514892Y-42182175D01*
X58514890Y-42182186D01*
X58499500Y-42367935D01*
X58499500Y-43392981D01*
X58499024Y-43400656D01*
X58495643Y-43427779D01*
X55000000Y-43427779D01*
X55000000Y-38905000D01*
X55369341Y-38905000D01*
X55389936Y-39140403D01*
X55389938Y-39140413D01*
X55451094Y-39368655D01*
X55451096Y-39368659D01*
X55451097Y-39368663D01*
X55501030Y-39475745D01*
X55550964Y-39582828D01*
X55550965Y-39582830D01*
X55686505Y-39776402D01*
X55853597Y-39943494D01*
X56047169Y-40079034D01*
X56047171Y-40079035D01*
X56261337Y-40178903D01*
X56489592Y-40240063D01*
X56666034Y-40255500D01*
X56783966Y-40255500D01*
X56960408Y-40240063D01*
X57188663Y-40178903D01*
X57402829Y-40079035D01*
X57596401Y-39943495D01*
X57763495Y-39776401D01*
X57899035Y-39582830D01*
X57998903Y-39368663D01*
X58060063Y-39140408D01*
X58080659Y-38905000D01*
X58060063Y-38669592D01*
X57998903Y-38441337D01*
X57899035Y-38227171D01*
X57899034Y-38227169D01*
X57763494Y-38033597D01*
X57596402Y-37866505D01*
X57402830Y-37730965D01*
X57402828Y-37730964D01*
X57295745Y-37681030D01*
X57188663Y-37631097D01*
X57188659Y-37631096D01*
X57188655Y-37631094D01*
X56960413Y-37569938D01*
X56960403Y-37569936D01*
X56783966Y-37554500D01*
X56666034Y-37554500D01*
X56489596Y-37569936D01*
X56489586Y-37569938D01*
X56261344Y-37631094D01*
X56261335Y-37631098D01*
X56047171Y-37730964D01*
X56047169Y-37730965D01*
X55853597Y-37866505D01*
X55686506Y-38033597D01*
X55686501Y-38033604D01*
X55550967Y-38227165D01*
X55550965Y-38227169D01*
X55451098Y-38441335D01*
X55451094Y-38441344D01*
X55389938Y-38669586D01*
X55389936Y-38669596D01*
X55369341Y-38904999D01*
X55369341Y-38905000D01*
X55000000Y-38905000D01*
X55000000Y-37124000D01*
X55019685Y-37056961D01*
X55072489Y-37011206D01*
X55124000Y-37000000D01*
X104626033Y-37000000D01*
X104693072Y-37019685D01*
G37*
%TD.AperFunction*%
%TD*%
%TA.AperFunction,Conductor*%
%TO.N,Net-(SW1A-A)*%
G36*
X109417039Y-59709685D02*
G01*
X109462794Y-59762489D01*
X109474000Y-59814000D01*
X109474000Y-67186000D01*
X109454315Y-67253039D01*
X109401511Y-67298794D01*
X109350000Y-67310000D01*
X101724000Y-67310000D01*
X101656961Y-67290315D01*
X101611206Y-67237511D01*
X101600000Y-67186000D01*
X101600000Y-59814000D01*
X101619685Y-59746961D01*
X101672489Y-59701206D01*
X101724000Y-59690000D01*
X109350000Y-59690000D01*
X109417039Y-59709685D01*
G37*
%TD.AperFunction*%
%TD*%
%TA.AperFunction,Conductor*%
%TO.N,Net-(SW1A-B)*%
G36*
X109290039Y-50819685D02*
G01*
X109335794Y-50872489D01*
X109347000Y-50924000D01*
X109347000Y-55756000D01*
X109327315Y-55823039D01*
X109274511Y-55868794D01*
X109223000Y-55880000D01*
X101597000Y-55880000D01*
X101529961Y-55860315D01*
X101484206Y-55807511D01*
X101473000Y-55756000D01*
X101473000Y-50924000D01*
X101492685Y-50856961D01*
X101545489Y-50811206D01*
X101597000Y-50800000D01*
X109223000Y-50800000D01*
X109290039Y-50819685D01*
G37*
%TD.AperFunction*%
%TD*%
M02*
