%TF.GenerationSoftware,KiCad,Pcbnew,7.0.7*%
%TF.CreationDate,2024-08-23T02:48:45-05:00*%
%TF.ProjectId,telescope_dew_heater,74656c65-7363-46f7-9065-5f6465775f68,rev?*%
%TF.SameCoordinates,Original*%
%TF.FileFunction,Copper,L2,Bot*%
%TF.FilePolarity,Positive*%
%FSLAX46Y46*%
G04 Gerber Fmt 4.6, Leading zero omitted, Abs format (unit mm)*
G04 Created by KiCad (PCBNEW 7.0.7) date 2024-08-23 02:48:45*
%MOMM*%
%LPD*%
G01*
G04 APERTURE LIST*
%TA.AperFunction,ComponentPad*%
%ADD10O,4.000000X2.000000*%
%TD*%
%TA.AperFunction,ComponentPad*%
%ADD11O,2.000000X3.500000*%
%TD*%
%TA.AperFunction,ComponentPad*%
%ADD12R,3.000000X3.000000*%
%TD*%
%TA.AperFunction,ComponentPad*%
%ADD13O,3.500000X3.500000*%
%TD*%
%TA.AperFunction,ComponentPad*%
%ADD14O,1.600000X1.600000*%
%TD*%
%TA.AperFunction,ComponentPad*%
%ADD15R,1.600000X1.600000*%
%TD*%
%TA.AperFunction,ComponentPad*%
%ADD16C,1.600000*%
%TD*%
%TA.AperFunction,ComponentPad*%
%ADD17R,1.800000X1.717500*%
%TD*%
%TA.AperFunction,ComponentPad*%
%ADD18O,1.800000X1.717500*%
%TD*%
%TA.AperFunction,ComponentPad*%
%ADD19O,1.700000X1.700000*%
%TD*%
%TA.AperFunction,ComponentPad*%
%ADD20R,1.700000X1.700000*%
%TD*%
%TA.AperFunction,ComponentPad*%
%ADD21R,4.000000X2.000000*%
%TD*%
%TA.AperFunction,ComponentPad*%
%ADD22O,3.300000X2.000000*%
%TD*%
%TA.AperFunction,ComponentPad*%
%ADD23C,5.000000*%
%TD*%
G04 APERTURE END LIST*
D10*
%TO.P,J1,1,In*%
%TO.N,+12V*%
X64925000Y-43180000D03*
D11*
%TO.P,J1,2,Ext*%
%TO.N,Net-(J1-Ext)*%
X60000000Y-43180000D03*
%TD*%
D10*
%TO.P,J2,1,In*%
%TO.N,+12V*%
X64925000Y-69275000D03*
D11*
%TO.P,J2,2,Ext*%
%TO.N,Net-(J2-Ext)*%
X60000000Y-69275000D03*
%TD*%
D10*
%TO.P,J4,1,In*%
%TO.N,+12V*%
X64925000Y-120000000D03*
D11*
%TO.P,J4,2,Ext*%
%TO.N,Net-(J4-Ext)*%
X60000000Y-120000000D03*
%TD*%
D10*
%TO.P,J3,1,In*%
%TO.N,+12V*%
X64925000Y-95000000D03*
D11*
%TO.P,J3,2,Ext*%
%TO.N,Net-(J3-Ext)*%
X60000000Y-95000000D03*
%TD*%
D12*
%TO.P,SW1,1,A*%
%TO.N,Net-(SW1A-A)*%
X105410000Y-61545000D03*
D13*
%TO.P,SW1,2,B*%
%TO.N,Net-(SW1A-B)*%
X105410000Y-53925000D03*
%TD*%
D14*
%TO.P,U3,8,VCC*%
%TO.N,+12V*%
X97810000Y-93980000D03*
%TO.P,U3,7,DIS*%
%TO.N,Net-(D5-A)*%
X97810000Y-96520000D03*
%TO.P,U3,6,THR*%
%TO.N,Net-(U3-THR)*%
X97810000Y-99060000D03*
%TO.P,U3,5,CV*%
%TO.N,unconnected-(U3-CV-Pad5)*%
X97810000Y-101600000D03*
%TO.P,U3,4,R*%
%TO.N,+12V*%
X90190000Y-101600000D03*
%TO.P,U3,3,Q*%
%TO.N,Net-(Q3-G)*%
X90190000Y-99060000D03*
%TO.P,U3,2,TR*%
%TO.N,Net-(U3-THR)*%
X90190000Y-96520000D03*
D15*
%TO.P,U3,1,GND*%
%TO.N,GND*%
X90190000Y-93980000D03*
%TD*%
D16*
%TO.P,C5,2*%
%TO.N,GND*%
X92770000Y-90805000D03*
%TO.P,C5,1*%
%TO.N,+12V*%
X95270000Y-90805000D03*
%TD*%
%TO.P,R4,1*%
%TO.N,+12V*%
X86360000Y-119380000D03*
D14*
%TO.P,R4,2*%
%TO.N,Net-(D7-A)*%
X86360000Y-111760000D03*
%TD*%
%TO.P,R3,2*%
%TO.N,Net-(D5-A)*%
X86370000Y-90160000D03*
D16*
%TO.P,R3,1*%
%TO.N,+12V*%
X86370000Y-97780000D03*
%TD*%
D17*
%TO.P,Q4,1,G*%
%TO.N,Net-(Q4-G)*%
X71120000Y-117090000D03*
D18*
%TO.P,Q4,2,D*%
%TO.N,Net-(J4-Ext)*%
X71120000Y-119380000D03*
%TO.P,Q4,3,S*%
%TO.N,GND*%
X71120000Y-121670000D03*
%TD*%
D17*
%TO.P,Q3,1,G*%
%TO.N,Net-(Q3-G)*%
X71000000Y-92960000D03*
D18*
%TO.P,Q3,2,D*%
%TO.N,Net-(J3-Ext)*%
X71000000Y-95250000D03*
%TO.P,Q3,3,S*%
%TO.N,GND*%
X71000000Y-97540000D03*
%TD*%
D19*
%TO.P,RV3,3,3*%
%TO.N,Net-(D5-K)*%
X85100000Y-104130000D03*
%TO.P,RV3,2,2*%
%TO.N,Net-(U3-THR)*%
X82560000Y-104130000D03*
D20*
%TO.P,RV3,1,1*%
%TO.N,Net-(D6-A)*%
X80020000Y-104130000D03*
%TD*%
%TO.P,RV4,1,1*%
%TO.N,Net-(D8-A)*%
X80010000Y-125730000D03*
D19*
%TO.P,RV4,2,2*%
%TO.N,Net-(U4-THR)*%
X82550000Y-125730000D03*
%TO.P,RV4,3,3*%
%TO.N,Net-(D7-K)*%
X85090000Y-125730000D03*
%TD*%
D15*
%TO.P,U4,1,GND*%
%TO.N,GND*%
X90180000Y-115961000D03*
D14*
%TO.P,U4,2,TR*%
%TO.N,Net-(U4-THR)*%
X90180000Y-118501000D03*
%TO.P,U4,3,Q*%
%TO.N,Net-(Q4-G)*%
X90180000Y-121041000D03*
%TO.P,U4,4,R*%
%TO.N,+12V*%
X90180000Y-123581000D03*
%TO.P,U4,5,CV*%
%TO.N,unconnected-(U4-CV-Pad5)*%
X97800000Y-123581000D03*
%TO.P,U4,6,THR*%
%TO.N,Net-(U4-THR)*%
X97800000Y-121041000D03*
%TO.P,U4,7,DIS*%
%TO.N,Net-(D7-A)*%
X97800000Y-118501000D03*
%TO.P,U4,8,VCC*%
%TO.N,+12V*%
X97800000Y-115961000D03*
%TD*%
D15*
%TO.P,D8,1,K*%
%TO.N,Net-(D7-A)*%
X78740000Y-111760000D03*
D14*
%TO.P,D8,2,A*%
%TO.N,Net-(D8-A)*%
X78740000Y-119380000D03*
%TD*%
D16*
%TO.P,C6,1*%
%TO.N,+12V*%
X92750000Y-112776000D03*
%TO.P,C6,2*%
%TO.N,GND*%
X95250000Y-112776000D03*
%TD*%
D15*
%TO.P,C7,1*%
%TO.N,Net-(U3-THR)*%
X71120000Y-107950000D03*
D16*
%TO.P,C7,2*%
%TO.N,GND*%
X71120000Y-105450000D03*
%TD*%
D15*
%TO.P,C8,1*%
%TO.N,Net-(U4-THR)*%
X71120000Y-130770000D03*
D16*
%TO.P,C8,2*%
%TO.N,GND*%
X71120000Y-128270000D03*
%TD*%
D14*
%TO.P,D5,2,A*%
%TO.N,Net-(D5-A)*%
X82560000Y-90160000D03*
D15*
%TO.P,D5,1,K*%
%TO.N,Net-(D5-K)*%
X82560000Y-97780000D03*
%TD*%
D14*
%TO.P,D6,2,A*%
%TO.N,Net-(D6-A)*%
X78750000Y-97780000D03*
D15*
%TO.P,D6,1,K*%
%TO.N,Net-(D5-A)*%
X78750000Y-90160000D03*
%TD*%
%TO.P,D7,1,K*%
%TO.N,Net-(D7-K)*%
X82550000Y-119380000D03*
D14*
%TO.P,D7,2,A*%
%TO.N,Net-(D7-A)*%
X82550000Y-111760000D03*
%TD*%
D21*
%TO.P,J5,1*%
%TO.N,Net-(SW1A-B)*%
X105410000Y-47000000D03*
D22*
%TO.P,J5,2*%
%TO.N,GND*%
X105410000Y-41000000D03*
D11*
%TO.P,J5,MP*%
%TO.N,N/C*%
X109910000Y-40000000D03*
X100910000Y-40000000D03*
%TD*%
D20*
%TO.P,RV2,1,1*%
%TO.N,Net-(D4-A)*%
X80010000Y-78740000D03*
D19*
%TO.P,RV2,2,2*%
%TO.N,Net-(U2-THR)*%
X82550000Y-78740000D03*
%TO.P,RV2,3,3*%
%TO.N,Net-(D3-K)*%
X85090000Y-78740000D03*
%TD*%
D15*
%TO.P,U2,1,GND*%
%TO.N,GND*%
X90180000Y-68590000D03*
D14*
%TO.P,U2,2,TR*%
%TO.N,Net-(U2-THR)*%
X90180000Y-71130000D03*
%TO.P,U2,3,Q*%
%TO.N,Net-(Q2-G)*%
X90180000Y-73670000D03*
%TO.P,U2,4,R*%
%TO.N,+12V*%
X90180000Y-76210000D03*
%TO.P,U2,5,CV*%
%TO.N,unconnected-(U2-CV-Pad5)*%
X97800000Y-76210000D03*
%TO.P,U2,6,THR*%
%TO.N,Net-(U2-THR)*%
X97800000Y-73670000D03*
%TO.P,U2,7,DIS*%
%TO.N,Net-(D3-A)*%
X97800000Y-71130000D03*
%TO.P,U2,8,VCC*%
%TO.N,+12V*%
X97800000Y-68590000D03*
%TD*%
D17*
%TO.P,Q2,1,G*%
%TO.N,Net-(Q2-G)*%
X71000000Y-67560000D03*
D18*
%TO.P,Q2,2,D*%
%TO.N,Net-(J2-Ext)*%
X71000000Y-69850000D03*
%TO.P,Q2,3,S*%
%TO.N,GND*%
X71000000Y-72140000D03*
%TD*%
D16*
%TO.P,R2,1*%
%TO.N,+12V*%
X86360000Y-72390000D03*
D14*
%TO.P,R2,2*%
%TO.N,Net-(D3-A)*%
X86360000Y-64770000D03*
%TD*%
D15*
%TO.P,D4,1,K*%
%TO.N,Net-(D3-A)*%
X78740000Y-64770000D03*
D14*
%TO.P,D4,2,A*%
%TO.N,Net-(D4-A)*%
X78740000Y-72390000D03*
%TD*%
D23*
%TO.P,F1,1*%
%TO.N,Net-(SW1A-A)*%
X105533321Y-69980000D03*
%TO.P,F1,2*%
%TO.N,+12V*%
X105533321Y-92580000D03*
%TD*%
D15*
%TO.P,D3,1,K*%
%TO.N,Net-(D3-K)*%
X82550000Y-72390000D03*
D14*
%TO.P,D3,2,A*%
%TO.N,Net-(D3-A)*%
X82550000Y-64770000D03*
%TD*%
D15*
%TO.P,C4,1*%
%TO.N,Net-(U2-THR)*%
X71120000Y-81280000D03*
D16*
%TO.P,C4,2*%
%TO.N,GND*%
X71120000Y-78780000D03*
%TD*%
%TO.P,C2,1*%
%TO.N,+12V*%
X95210000Y-65415000D03*
%TO.P,C2,2*%
%TO.N,GND*%
X92710000Y-65415000D03*
%TD*%
D15*
%TO.P,U1,1,GND*%
%TO.N,GND*%
X90180000Y-43190000D03*
D14*
%TO.P,U1,2,TR*%
%TO.N,Net-(U1-THR)*%
X90180000Y-45730000D03*
%TO.P,U1,3,Q*%
%TO.N,Net-(Q1-G)*%
X90180000Y-48270000D03*
%TO.P,U1,4,R*%
%TO.N,+12V*%
X90180000Y-50810000D03*
%TO.P,U1,5,CV*%
%TO.N,unconnected-(U1-CV-Pad5)*%
X97800000Y-50810000D03*
%TO.P,U1,6,THR*%
%TO.N,Net-(U1-THR)*%
X97800000Y-48270000D03*
%TO.P,U1,7,DIS*%
%TO.N,Net-(D1-A)*%
X97800000Y-45730000D03*
%TO.P,U1,8,VCC*%
%TO.N,+12V*%
X97800000Y-43190000D03*
%TD*%
D20*
%TO.P,RV1,1,1*%
%TO.N,Net-(D2-A)*%
X80010000Y-52070000D03*
D19*
%TO.P,RV1,2,2*%
%TO.N,Net-(U1-THR)*%
X82550000Y-52070000D03*
%TO.P,RV1,3,3*%
%TO.N,Net-(D1-K)*%
X85090000Y-52070000D03*
%TD*%
D16*
%TO.P,R1,1*%
%TO.N,+12V*%
X86360000Y-46990000D03*
D14*
%TO.P,R1,2*%
%TO.N,Net-(D1-A)*%
X86360000Y-39370000D03*
%TD*%
D17*
%TO.P,Q1,1,G*%
%TO.N,Net-(Q1-G)*%
X71120000Y-42160000D03*
D18*
%TO.P,Q1,2,D*%
%TO.N,Net-(J1-Ext)*%
X71120000Y-44450000D03*
%TO.P,Q1,3,S*%
%TO.N,GND*%
X71120000Y-46740000D03*
%TD*%
D15*
%TO.P,D2,1,K*%
%TO.N,Net-(D1-A)*%
X78740000Y-39370000D03*
D14*
%TO.P,D2,2,A*%
%TO.N,Net-(D2-A)*%
X78740000Y-46990000D03*
%TD*%
D15*
%TO.P,D1,1,K*%
%TO.N,Net-(D1-K)*%
X82550000Y-46990000D03*
D14*
%TO.P,D1,2,A*%
%TO.N,Net-(D1-A)*%
X82550000Y-39370000D03*
%TD*%
D16*
%TO.P,C3,2*%
%TO.N,GND*%
X71120000Y-53380000D03*
D15*
%TO.P,C3,1*%
%TO.N,Net-(U1-THR)*%
X71120000Y-55880000D03*
%TD*%
D16*
%TO.P,C1,2*%
%TO.N,GND*%
X92760000Y-39990000D03*
%TO.P,C1,1*%
%TO.N,+12V*%
X95260000Y-39990000D03*
%TD*%
%TA.AperFunction,Conductor*%
%TO.N,GND*%
G36*
X104693072Y-37019685D02*
G01*
X104738827Y-37072489D01*
X104748771Y-37141647D01*
X104719746Y-37205203D01*
X104704698Y-37219853D01*
X104663590Y-37253589D01*
X104532317Y-37413547D01*
X104434769Y-37596043D01*
X104374699Y-37794067D01*
X104354417Y-37999999D01*
X104374699Y-38205932D01*
X104381142Y-38227171D01*
X104434768Y-38403954D01*
X104532315Y-38586450D01*
X104532317Y-38586452D01*
X104663589Y-38746410D01*
X104760209Y-38825702D01*
X104823550Y-38877685D01*
X105006046Y-38975232D01*
X105204066Y-39035300D01*
X105204065Y-39035300D01*
X105242647Y-39039100D01*
X105358392Y-39050500D01*
X105358395Y-39050500D01*
X105461605Y-39050500D01*
X105461608Y-39050500D01*
X105615934Y-39035300D01*
X105813954Y-38975232D01*
X105996450Y-38877685D01*
X106156410Y-38746410D01*
X106287685Y-38586450D01*
X106385232Y-38403954D01*
X106445300Y-38205934D01*
X106465583Y-38000000D01*
X106445300Y-37794066D01*
X106385232Y-37596046D01*
X106287685Y-37413550D01*
X106156410Y-37253590D01*
X106156409Y-37253589D01*
X106115302Y-37219853D01*
X106075968Y-37162108D01*
X106074097Y-37092263D01*
X106110284Y-37032495D01*
X106173040Y-37001779D01*
X106193967Y-37000000D01*
X110876000Y-37000000D01*
X110943039Y-37019685D01*
X110988794Y-37072489D01*
X111000000Y-37124000D01*
X111000000Y-37943298D01*
X110980315Y-38010337D01*
X110927511Y-38056092D01*
X110858353Y-38066036D01*
X110799838Y-38041152D01*
X110790131Y-38033597D01*
X110733509Y-37989526D01*
X110616427Y-37926164D01*
X110514811Y-37871172D01*
X110514802Y-37871169D01*
X110279616Y-37790429D01*
X110034335Y-37749500D01*
X109785665Y-37749500D01*
X109540383Y-37790429D01*
X109305197Y-37871169D01*
X109305188Y-37871172D01*
X109086493Y-37989524D01*
X108890257Y-38142261D01*
X108721833Y-38325217D01*
X108585826Y-38533393D01*
X108485936Y-38761118D01*
X108424892Y-39002175D01*
X108424890Y-39002186D01*
X108409500Y-39187935D01*
X108409500Y-40812065D01*
X108424890Y-40997813D01*
X108424892Y-40997824D01*
X108485936Y-41238881D01*
X108585826Y-41466606D01*
X108721833Y-41674782D01*
X108721836Y-41674785D01*
X108890256Y-41857738D01*
X109086491Y-42010474D01*
X109305190Y-42128828D01*
X109540386Y-42209571D01*
X109785665Y-42250500D01*
X110034335Y-42250500D01*
X110279614Y-42209571D01*
X110514810Y-42128828D01*
X110733509Y-42010474D01*
X110799839Y-41958847D01*
X110864832Y-41933205D01*
X110933371Y-41946771D01*
X110983696Y-41995240D01*
X111000000Y-42056701D01*
X111000000Y-134876000D01*
X110980315Y-134943039D01*
X110927511Y-134988794D01*
X110876000Y-135000000D01*
X55124000Y-135000000D01*
X55056961Y-134980315D01*
X55011206Y-134927511D01*
X55000000Y-134876000D01*
X55000000Y-131617870D01*
X69819500Y-131617870D01*
X69819501Y-131617876D01*
X69825908Y-131677483D01*
X69876202Y-131812328D01*
X69876206Y-131812335D01*
X69962452Y-131927544D01*
X69962455Y-131927547D01*
X70077664Y-132013793D01*
X70077671Y-132013797D01*
X70212517Y-132064091D01*
X70212516Y-132064091D01*
X70219444Y-132064835D01*
X70272127Y-132070500D01*
X71967872Y-132070499D01*
X72027483Y-132064091D01*
X72162331Y-132013796D01*
X72277546Y-131927546D01*
X72363796Y-131812331D01*
X72414091Y-131677483D01*
X72420500Y-131617873D01*
X72420499Y-129922128D01*
X72414091Y-129862517D01*
X72363796Y-129727669D01*
X72363795Y-129727668D01*
X72363793Y-129727664D01*
X72277547Y-129612455D01*
X72277544Y-129612452D01*
X72162335Y-129526206D01*
X72162328Y-129526202D01*
X72027482Y-129475908D01*
X72027483Y-129475908D01*
X71967883Y-129469501D01*
X71967881Y-129469500D01*
X71967873Y-129469500D01*
X71967864Y-129469500D01*
X70272129Y-129469500D01*
X70272123Y-129469501D01*
X70212516Y-129475908D01*
X70077671Y-129526202D01*
X70077664Y-129526206D01*
X69962455Y-129612452D01*
X69962452Y-129612455D01*
X69876206Y-129727664D01*
X69876202Y-129727671D01*
X69825908Y-129862517D01*
X69819501Y-129922116D01*
X69819501Y-129922123D01*
X69819500Y-129922135D01*
X69819500Y-131617870D01*
X55000000Y-131617870D01*
X55000000Y-126627870D01*
X78659500Y-126627870D01*
X78659501Y-126627876D01*
X78665908Y-126687483D01*
X78716202Y-126822328D01*
X78716206Y-126822335D01*
X78802452Y-126937544D01*
X78802455Y-126937547D01*
X78917664Y-127023793D01*
X78917671Y-127023797D01*
X79052517Y-127074091D01*
X79052516Y-127074091D01*
X79059444Y-127074835D01*
X79112127Y-127080500D01*
X80907872Y-127080499D01*
X80967483Y-127074091D01*
X81102331Y-127023796D01*
X81217546Y-126937546D01*
X81303796Y-126822331D01*
X81352810Y-126690916D01*
X81394681Y-126634984D01*
X81460145Y-126610566D01*
X81528418Y-126625417D01*
X81556672Y-126646568D01*
X81678599Y-126768495D01*
X81775384Y-126836264D01*
X81872165Y-126904032D01*
X81872167Y-126904033D01*
X81872170Y-126904035D01*
X82086337Y-127003903D01*
X82314592Y-127065063D01*
X82491034Y-127080500D01*
X82549999Y-127085659D01*
X82550000Y-127085659D01*
X82550001Y-127085659D01*
X82608966Y-127080500D01*
X82785408Y-127065063D01*
X83013663Y-127003903D01*
X83227830Y-126904035D01*
X83421401Y-126768495D01*
X83588495Y-126601401D01*
X83718424Y-126415842D01*
X83773002Y-126372217D01*
X83842500Y-126365023D01*
X83904855Y-126396546D01*
X83921575Y-126415842D01*
X84051500Y-126601395D01*
X84051505Y-126601401D01*
X84218599Y-126768495D01*
X84315384Y-126836264D01*
X84412165Y-126904032D01*
X84412167Y-126904033D01*
X84412170Y-126904035D01*
X84626337Y-127003903D01*
X84854592Y-127065063D01*
X85031034Y-127080500D01*
X85089999Y-127085659D01*
X85090000Y-127085659D01*
X85090001Y-127085659D01*
X85148966Y-127080500D01*
X85325408Y-127065063D01*
X85553663Y-127003903D01*
X85767830Y-126904035D01*
X85961401Y-126768495D01*
X86128495Y-126601401D01*
X86264035Y-126407830D01*
X86363903Y-126193663D01*
X86425063Y-125965408D01*
X86445659Y-125730000D01*
X86425063Y-125494592D01*
X86363903Y-125266337D01*
X86264035Y-125052171D01*
X86258425Y-125044158D01*
X86128494Y-124858597D01*
X85961402Y-124691506D01*
X85961395Y-124691501D01*
X85767834Y-124555967D01*
X85767830Y-124555965D01*
X85767828Y-124555964D01*
X85553663Y-124456097D01*
X85553659Y-124456096D01*
X85553655Y-124456094D01*
X85325413Y-124394938D01*
X85325403Y-124394936D01*
X85090001Y-124374341D01*
X85089999Y-124374341D01*
X84854596Y-124394936D01*
X84854586Y-124394938D01*
X84626344Y-124456094D01*
X84626335Y-124456098D01*
X84412171Y-124555964D01*
X84412169Y-124555965D01*
X84218597Y-124691505D01*
X84051505Y-124858597D01*
X83921575Y-125044158D01*
X83866998Y-125087783D01*
X83797500Y-125094977D01*
X83735145Y-125063454D01*
X83718425Y-125044158D01*
X83588494Y-124858597D01*
X83421402Y-124691506D01*
X83421395Y-124691501D01*
X83227834Y-124555967D01*
X83227830Y-124555965D01*
X83227830Y-124555964D01*
X83013663Y-124456097D01*
X83013659Y-124456096D01*
X83013655Y-124456094D01*
X82785413Y-124394938D01*
X82785403Y-124394936D01*
X82550001Y-124374341D01*
X82549999Y-124374341D01*
X82314596Y-124394936D01*
X82314586Y-124394938D01*
X82086344Y-124456094D01*
X82086335Y-124456098D01*
X81872171Y-124555964D01*
X81872169Y-124555965D01*
X81678600Y-124691503D01*
X81556673Y-124813430D01*
X81495350Y-124846914D01*
X81425658Y-124841930D01*
X81369725Y-124800058D01*
X81352810Y-124769081D01*
X81303797Y-124637671D01*
X81303793Y-124637664D01*
X81217547Y-124522455D01*
X81217544Y-124522452D01*
X81102335Y-124436206D01*
X81102328Y-124436202D01*
X80967482Y-124385908D01*
X80967483Y-124385908D01*
X80907883Y-124379501D01*
X80907881Y-124379500D01*
X80907873Y-124379500D01*
X80907864Y-124379500D01*
X79112129Y-124379500D01*
X79112123Y-124379501D01*
X79052516Y-124385908D01*
X78917671Y-124436202D01*
X78917664Y-124436206D01*
X78802455Y-124522452D01*
X78802452Y-124522455D01*
X78716206Y-124637664D01*
X78716202Y-124637671D01*
X78665908Y-124772517D01*
X78659501Y-124832116D01*
X78659500Y-124832135D01*
X78659500Y-126627870D01*
X55000000Y-126627870D01*
X55000000Y-124275000D01*
X55369341Y-124275000D01*
X55389936Y-124510403D01*
X55389938Y-124510413D01*
X55451094Y-124738655D01*
X55451096Y-124738659D01*
X55451097Y-124738663D01*
X55483308Y-124807739D01*
X55550964Y-124952828D01*
X55550965Y-124952830D01*
X55686505Y-125146402D01*
X55853597Y-125313494D01*
X56047169Y-125449034D01*
X56047171Y-125449035D01*
X56261337Y-125548903D01*
X56489592Y-125610063D01*
X56666034Y-125625500D01*
X56783966Y-125625500D01*
X56960408Y-125610063D01*
X57188663Y-125548903D01*
X57402829Y-125449035D01*
X57596401Y-125313495D01*
X57763495Y-125146401D01*
X57899035Y-124952830D01*
X57998903Y-124738663D01*
X58060063Y-124510408D01*
X58080659Y-124275000D01*
X58060063Y-124039592D01*
X57998903Y-123811337D01*
X57899035Y-123597171D01*
X57899034Y-123597169D01*
X57887713Y-123581001D01*
X88874532Y-123581001D01*
X88894364Y-123807686D01*
X88894366Y-123807697D01*
X88953258Y-124027488D01*
X88953261Y-124027497D01*
X89049431Y-124233732D01*
X89049432Y-124233734D01*
X89179954Y-124420141D01*
X89340858Y-124581045D01*
X89340861Y-124581047D01*
X89527266Y-124711568D01*
X89733504Y-124807739D01*
X89953308Y-124866635D01*
X90115230Y-124880801D01*
X90179998Y-124886468D01*
X90180000Y-124886468D01*
X90180002Y-124886468D01*
X90236673Y-124881509D01*
X90406692Y-124866635D01*
X90626496Y-124807739D01*
X90832734Y-124711568D01*
X91019139Y-124581047D01*
X91180047Y-124420139D01*
X91310568Y-124233734D01*
X91406739Y-124027496D01*
X91465635Y-123807692D01*
X91485468Y-123581001D01*
X96494532Y-123581001D01*
X96514364Y-123807686D01*
X96514366Y-123807697D01*
X96573258Y-124027488D01*
X96573261Y-124027497D01*
X96669431Y-124233732D01*
X96669432Y-124233734D01*
X96799954Y-124420141D01*
X96960858Y-124581045D01*
X96960861Y-124581047D01*
X97147266Y-124711568D01*
X97353504Y-124807739D01*
X97573308Y-124866635D01*
X97735230Y-124880801D01*
X97799998Y-124886468D01*
X97800000Y-124886468D01*
X97800002Y-124886468D01*
X97856672Y-124881509D01*
X98026692Y-124866635D01*
X98246496Y-124807739D01*
X98452734Y-124711568D01*
X98639139Y-124581047D01*
X98800047Y-124420139D01*
X98930568Y-124233734D01*
X99026739Y-124027496D01*
X99085635Y-123807692D01*
X99105468Y-123581000D01*
X99085635Y-123354308D01*
X99026739Y-123134504D01*
X98930568Y-122928266D01*
X98800047Y-122741861D01*
X98800045Y-122741858D01*
X98639141Y-122580954D01*
X98452734Y-122450432D01*
X98452728Y-122450429D01*
X98394725Y-122423382D01*
X98342285Y-122377210D01*
X98323133Y-122310017D01*
X98343348Y-122243135D01*
X98394725Y-122198618D01*
X98452734Y-122171568D01*
X98639139Y-122041047D01*
X98800047Y-121880139D01*
X98930568Y-121693734D01*
X99026739Y-121487496D01*
X99085635Y-121267692D01*
X99105468Y-121041000D01*
X99085635Y-120814308D01*
X99029501Y-120604811D01*
X99026741Y-120594511D01*
X99026738Y-120594502D01*
X98987438Y-120510223D01*
X98930568Y-120388266D01*
X98818254Y-120227864D01*
X98800045Y-120201858D01*
X98639141Y-120040954D01*
X98452734Y-119910432D01*
X98452728Y-119910429D01*
X98405997Y-119888638D01*
X98394724Y-119883381D01*
X98342285Y-119837210D01*
X98323133Y-119770017D01*
X98343348Y-119703135D01*
X98394725Y-119658618D01*
X98452734Y-119631568D01*
X98639139Y-119501047D01*
X98800047Y-119340139D01*
X98930568Y-119153734D01*
X99026739Y-118947496D01*
X99085635Y-118727692D01*
X99105468Y-118501000D01*
X99085635Y-118274308D01*
X99033437Y-118079500D01*
X99026741Y-118054511D01*
X99026738Y-118054502D01*
X98941249Y-117871172D01*
X98930568Y-117848266D01*
X98800047Y-117661861D01*
X98800045Y-117661858D01*
X98639141Y-117500954D01*
X98452734Y-117370432D01*
X98452728Y-117370429D01*
X98394725Y-117343382D01*
X98342285Y-117297210D01*
X98323133Y-117230017D01*
X98343348Y-117163135D01*
X98394725Y-117118618D01*
X98452734Y-117091568D01*
X98639139Y-116961047D01*
X98800047Y-116800139D01*
X98930568Y-116613734D01*
X99026739Y-116407496D01*
X99085635Y-116187692D01*
X99105468Y-115961000D01*
X99085635Y-115734308D01*
X99026739Y-115514504D01*
X98930568Y-115308266D01*
X98800047Y-115121861D01*
X98800045Y-115121858D01*
X98639141Y-114960954D01*
X98452734Y-114830432D01*
X98452732Y-114830431D01*
X98246497Y-114734261D01*
X98246488Y-114734258D01*
X98026697Y-114675366D01*
X98026693Y-114675365D01*
X98026692Y-114675365D01*
X98026691Y-114675364D01*
X98026686Y-114675364D01*
X97800002Y-114655532D01*
X97799998Y-114655532D01*
X97573313Y-114675364D01*
X97573302Y-114675366D01*
X97353511Y-114734258D01*
X97353502Y-114734261D01*
X97147267Y-114830431D01*
X97147265Y-114830432D01*
X96960858Y-114960954D01*
X96799954Y-115121858D01*
X96669432Y-115308265D01*
X96669431Y-115308267D01*
X96573261Y-115514502D01*
X96573258Y-115514511D01*
X96514366Y-115734302D01*
X96514364Y-115734313D01*
X96494532Y-115960998D01*
X96494532Y-115961001D01*
X96514364Y-116187686D01*
X96514366Y-116187697D01*
X96573258Y-116407488D01*
X96573261Y-116407497D01*
X96669431Y-116613732D01*
X96669432Y-116613734D01*
X96799954Y-116800141D01*
X96960858Y-116961045D01*
X96960861Y-116961047D01*
X97147266Y-117091568D01*
X97205275Y-117118618D01*
X97257714Y-117164791D01*
X97276866Y-117231984D01*
X97256650Y-117298865D01*
X97205275Y-117343382D01*
X97147267Y-117370431D01*
X97147265Y-117370432D01*
X96960858Y-117500954D01*
X96799954Y-117661858D01*
X96669432Y-117848265D01*
X96669431Y-117848267D01*
X96573261Y-118054502D01*
X96573258Y-118054511D01*
X96514366Y-118274302D01*
X96514364Y-118274313D01*
X96494532Y-118500998D01*
X96494532Y-118501001D01*
X96514364Y-118727686D01*
X96514366Y-118727697D01*
X96573258Y-118947488D01*
X96573261Y-118947497D01*
X96669431Y-119153732D01*
X96669432Y-119153734D01*
X96799954Y-119340141D01*
X96960858Y-119501045D01*
X96960861Y-119501047D01*
X97147266Y-119631568D01*
X97205275Y-119658618D01*
X97257714Y-119704791D01*
X97276866Y-119771984D01*
X97256650Y-119838865D01*
X97205275Y-119883382D01*
X97147267Y-119910431D01*
X97147265Y-119910432D01*
X96960858Y-120040954D01*
X96799954Y-120201858D01*
X96669432Y-120388265D01*
X96669431Y-120388267D01*
X96573261Y-120594502D01*
X96573258Y-120594511D01*
X96514366Y-120814302D01*
X96514364Y-120814313D01*
X96494532Y-121040998D01*
X96494532Y-121041001D01*
X96514364Y-121267686D01*
X96514366Y-121267697D01*
X96573258Y-121487488D01*
X96573261Y-121487497D01*
X96669431Y-121693732D01*
X96669432Y-121693734D01*
X96799954Y-121880141D01*
X96960858Y-122041045D01*
X96960861Y-122041047D01*
X97147266Y-122171568D01*
X97205275Y-122198618D01*
X97257714Y-122244791D01*
X97276866Y-122311984D01*
X97256650Y-122378865D01*
X97205275Y-122423382D01*
X97147267Y-122450431D01*
X97147265Y-122450432D01*
X96960858Y-122580954D01*
X96799954Y-122741858D01*
X96669432Y-122928265D01*
X96669431Y-122928267D01*
X96573261Y-123134502D01*
X96573258Y-123134511D01*
X96514366Y-123354302D01*
X96514364Y-123354313D01*
X96494532Y-123580998D01*
X96494532Y-123581001D01*
X91485468Y-123581001D01*
X91485468Y-123581000D01*
X91465635Y-123354308D01*
X91406739Y-123134504D01*
X91310568Y-122928266D01*
X91180047Y-122741861D01*
X91180045Y-122741858D01*
X91019141Y-122580954D01*
X90832734Y-122450432D01*
X90832728Y-122450429D01*
X90774725Y-122423382D01*
X90722285Y-122377210D01*
X90703133Y-122310017D01*
X90723348Y-122243135D01*
X90774725Y-122198618D01*
X90832734Y-122171568D01*
X91019139Y-122041047D01*
X91180047Y-121880139D01*
X91310568Y-121693734D01*
X91406739Y-121487496D01*
X91465635Y-121267692D01*
X91485468Y-121041000D01*
X91465635Y-120814308D01*
X91409501Y-120604811D01*
X91406741Y-120594511D01*
X91406738Y-120594502D01*
X91367438Y-120510223D01*
X91310568Y-120388266D01*
X91198254Y-120227864D01*
X91180045Y-120201858D01*
X91019141Y-120040954D01*
X90832734Y-119910432D01*
X90832728Y-119910429D01*
X90785997Y-119888638D01*
X90774724Y-119883381D01*
X90722285Y-119837210D01*
X90703133Y-119770017D01*
X90723348Y-119703135D01*
X90774725Y-119658618D01*
X90832734Y-119631568D01*
X91019139Y-119501047D01*
X91180047Y-119340139D01*
X91310568Y-119153734D01*
X91406739Y-118947496D01*
X91465635Y-118727692D01*
X91485468Y-118501000D01*
X91465635Y-118274308D01*
X91413437Y-118079500D01*
X91406741Y-118054511D01*
X91406738Y-118054502D01*
X91321249Y-117871172D01*
X91310568Y-117848266D01*
X91180047Y-117661861D01*
X91180045Y-117661858D01*
X91019141Y-117500954D01*
X90832734Y-117370432D01*
X90832732Y-117370431D01*
X90626497Y-117274261D01*
X90626488Y-117274258D01*
X90406697Y-117215366D01*
X90406693Y-117215365D01*
X90406692Y-117215365D01*
X90406691Y-117215364D01*
X90406686Y-117215364D01*
X90180002Y-117195532D01*
X90179998Y-117195532D01*
X89953313Y-117215364D01*
X89953302Y-117215366D01*
X89733511Y-117274258D01*
X89733502Y-117274261D01*
X89527267Y-117370431D01*
X89527265Y-117370432D01*
X89340858Y-117500954D01*
X89179954Y-117661858D01*
X89049432Y-117848265D01*
X89049431Y-117848267D01*
X88953261Y-118054502D01*
X88953258Y-118054511D01*
X88894366Y-118274302D01*
X88894364Y-118274313D01*
X88874532Y-118500998D01*
X88874532Y-118501001D01*
X88894364Y-118727686D01*
X88894366Y-118727697D01*
X88953258Y-118947488D01*
X88953261Y-118947497D01*
X89049431Y-119153732D01*
X89049432Y-119153734D01*
X89179954Y-119340141D01*
X89340858Y-119501045D01*
X89340861Y-119501047D01*
X89527266Y-119631568D01*
X89585275Y-119658618D01*
X89637714Y-119704791D01*
X89656866Y-119771984D01*
X89636650Y-119838865D01*
X89585275Y-119883382D01*
X89527267Y-119910431D01*
X89527265Y-119910432D01*
X89340858Y-120040954D01*
X89179954Y-120201858D01*
X89049432Y-120388265D01*
X89049431Y-120388267D01*
X88953261Y-120594502D01*
X88953258Y-120594511D01*
X88894366Y-120814302D01*
X88894364Y-120814313D01*
X88874532Y-121040998D01*
X88874532Y-121041001D01*
X88894364Y-121267686D01*
X88894366Y-121267697D01*
X88953258Y-121487488D01*
X88953261Y-121487497D01*
X89049431Y-121693732D01*
X89049432Y-121693734D01*
X89179954Y-121880141D01*
X89340858Y-122041045D01*
X89340861Y-122041047D01*
X89527266Y-122171568D01*
X89585275Y-122198618D01*
X89637714Y-122244791D01*
X89656866Y-122311984D01*
X89636650Y-122378865D01*
X89585275Y-122423382D01*
X89527267Y-122450431D01*
X89527265Y-122450432D01*
X89340858Y-122580954D01*
X89179954Y-122741858D01*
X89049432Y-122928265D01*
X89049431Y-122928267D01*
X88953261Y-123134502D01*
X88953258Y-123134511D01*
X88894366Y-123354302D01*
X88894364Y-123354313D01*
X88874532Y-123580998D01*
X88874532Y-123581001D01*
X57887713Y-123581001D01*
X57763494Y-123403597D01*
X57596402Y-123236505D01*
X57402830Y-123100965D01*
X57402828Y-123100964D01*
X57295746Y-123051031D01*
X57188663Y-123001097D01*
X57188659Y-123001096D01*
X57188655Y-123001094D01*
X56960413Y-122939938D01*
X56960403Y-122939936D01*
X56783966Y-122924500D01*
X56666034Y-122924500D01*
X56489596Y-122939936D01*
X56489586Y-122939938D01*
X56261344Y-123001094D01*
X56261335Y-123001098D01*
X56047171Y-123100964D01*
X56047169Y-123100965D01*
X55853597Y-123236505D01*
X55686506Y-123403597D01*
X55686501Y-123403604D01*
X55550967Y-123597165D01*
X55550965Y-123597169D01*
X55463706Y-123784295D01*
X55452800Y-123807686D01*
X55451098Y-123811335D01*
X55451094Y-123811344D01*
X55389938Y-124039586D01*
X55389936Y-124039596D01*
X55369341Y-124274999D01*
X55369341Y-124275000D01*
X55000000Y-124275000D01*
X55000000Y-120812065D01*
X58499500Y-120812065D01*
X58514890Y-120997813D01*
X58514892Y-120997824D01*
X58575936Y-121238881D01*
X58675826Y-121466606D01*
X58811833Y-121674782D01*
X58811836Y-121674785D01*
X58980256Y-121857738D01*
X59176491Y-122010474D01*
X59395190Y-122128828D01*
X59630386Y-122209571D01*
X59875665Y-122250500D01*
X60124335Y-122250500D01*
X60369614Y-122209571D01*
X60604810Y-122128828D01*
X60823509Y-122010474D01*
X61019744Y-121857738D01*
X61188164Y-121674785D01*
X61324173Y-121466607D01*
X61424063Y-121238881D01*
X61485108Y-120997821D01*
X61500500Y-120812067D01*
X61500500Y-120124334D01*
X62424500Y-120124334D01*
X62465429Y-120369616D01*
X62546169Y-120604802D01*
X62546172Y-120604811D01*
X62659549Y-120814313D01*
X62664526Y-120823509D01*
X62817262Y-121019744D01*
X62976744Y-121166557D01*
X63000217Y-121188166D01*
X63208393Y-121324173D01*
X63436118Y-121424063D01*
X63677175Y-121485107D01*
X63677179Y-121485108D01*
X63677181Y-121485108D01*
X63677186Y-121485109D01*
X63810376Y-121496145D01*
X63862933Y-121500500D01*
X63862935Y-121500500D01*
X65987065Y-121500500D01*
X65987067Y-121500500D01*
X66048284Y-121495427D01*
X66172813Y-121485109D01*
X66172816Y-121485108D01*
X66172821Y-121485108D01*
X66413881Y-121424063D01*
X66641607Y-121324173D01*
X66849785Y-121188164D01*
X67032738Y-121019744D01*
X67185474Y-120823509D01*
X67303828Y-120604810D01*
X67384571Y-120369614D01*
X67425500Y-120124335D01*
X67425500Y-119875665D01*
X67384571Y-119630386D01*
X67303828Y-119395190D01*
X67295606Y-119379998D01*
X67264275Y-119322103D01*
X69715815Y-119322103D01*
X69725634Y-119553269D01*
X69725634Y-119553270D01*
X69774382Y-119779460D01*
X69860651Y-119994148D01*
X69860653Y-119994152D01*
X69981966Y-120191177D01*
X70058398Y-120278022D01*
X70134828Y-120364863D01*
X70134835Y-120364870D01*
X70314846Y-120510218D01*
X70314852Y-120510223D01*
X70516846Y-120623064D01*
X70516849Y-120623065D01*
X70735011Y-120700146D01*
X70862265Y-120721966D01*
X70963052Y-120739249D01*
X70963061Y-120739250D01*
X71218991Y-120739250D01*
X71391790Y-120724543D01*
X71391793Y-120724542D01*
X71391795Y-120724542D01*
X71615707Y-120666239D01*
X71615708Y-120666238D01*
X71615710Y-120666238D01*
X71826536Y-120570939D01*
X71826539Y-120570936D01*
X71826546Y-120570934D01*
X72018245Y-120441368D01*
X72185290Y-120281269D01*
X72322875Y-120095241D01*
X72427043Y-119888637D01*
X72494796Y-119667401D01*
X72524185Y-119437897D01*
X72521725Y-119380001D01*
X77434532Y-119380001D01*
X77454364Y-119606686D01*
X77454366Y-119606697D01*
X77513258Y-119826488D01*
X77513261Y-119826497D01*
X77609431Y-120032732D01*
X77609432Y-120032734D01*
X77739954Y-120219141D01*
X77900858Y-120380045D01*
X77900861Y-120380047D01*
X78087266Y-120510568D01*
X78293504Y-120606739D01*
X78513308Y-120665635D01*
X78675230Y-120679801D01*
X78739998Y-120685468D01*
X78740000Y-120685468D01*
X78740002Y-120685468D01*
X78796807Y-120680498D01*
X78966692Y-120665635D01*
X79186496Y-120606739D01*
X79392734Y-120510568D01*
X79579139Y-120380047D01*
X79731316Y-120227870D01*
X81249500Y-120227870D01*
X81249501Y-120227876D01*
X81255908Y-120287483D01*
X81306202Y-120422328D01*
X81306206Y-120422335D01*
X81392452Y-120537544D01*
X81392455Y-120537547D01*
X81507664Y-120623793D01*
X81507671Y-120623797D01*
X81642517Y-120674091D01*
X81642516Y-120674091D01*
X81649444Y-120674835D01*
X81702127Y-120680500D01*
X83397872Y-120680499D01*
X83457483Y-120674091D01*
X83592331Y-120623796D01*
X83707546Y-120537546D01*
X83793796Y-120422331D01*
X83844091Y-120287483D01*
X83850500Y-120227873D01*
X83850500Y-119380001D01*
X85054532Y-119380001D01*
X85074364Y-119606686D01*
X85074366Y-119606697D01*
X85133258Y-119826488D01*
X85133261Y-119826497D01*
X85229431Y-120032732D01*
X85229432Y-120032734D01*
X85359954Y-120219141D01*
X85520858Y-120380045D01*
X85520861Y-120380047D01*
X85707266Y-120510568D01*
X85913504Y-120606739D01*
X86133308Y-120665635D01*
X86295230Y-120679801D01*
X86359998Y-120685468D01*
X86360000Y-120685468D01*
X86360002Y-120685468D01*
X86416807Y-120680498D01*
X86586692Y-120665635D01*
X86806496Y-120606739D01*
X87012734Y-120510568D01*
X87199139Y-120380047D01*
X87360047Y-120219139D01*
X87490568Y-120032734D01*
X87586739Y-119826496D01*
X87645635Y-119606692D01*
X87665468Y-119380000D01*
X87645635Y-119153308D01*
X87586739Y-118933504D01*
X87490568Y-118727266D01*
X87360047Y-118540861D01*
X87360045Y-118540858D01*
X87199141Y-118379954D01*
X87012734Y-118249432D01*
X87012732Y-118249431D01*
X86806497Y-118153261D01*
X86806488Y-118153258D01*
X86586697Y-118094366D01*
X86586693Y-118094365D01*
X86586692Y-118094365D01*
X86586691Y-118094364D01*
X86586686Y-118094364D01*
X86360002Y-118074532D01*
X86359998Y-118074532D01*
X86133313Y-118094364D01*
X86133302Y-118094366D01*
X85913511Y-118153258D01*
X85913502Y-118153261D01*
X85707267Y-118249431D01*
X85707265Y-118249432D01*
X85520858Y-118379954D01*
X85359954Y-118540858D01*
X85229432Y-118727265D01*
X85229431Y-118727267D01*
X85133261Y-118933502D01*
X85133258Y-118933511D01*
X85074366Y-119153302D01*
X85074364Y-119153313D01*
X85054532Y-119379998D01*
X85054532Y-119380001D01*
X83850500Y-119380001D01*
X83850499Y-118532128D01*
X83844091Y-118472517D01*
X83809567Y-118379954D01*
X83793797Y-118337671D01*
X83793793Y-118337664D01*
X83707547Y-118222455D01*
X83707544Y-118222452D01*
X83592335Y-118136206D01*
X83592328Y-118136202D01*
X83457482Y-118085908D01*
X83457483Y-118085908D01*
X83397883Y-118079501D01*
X83397881Y-118079500D01*
X83397873Y-118079500D01*
X83397864Y-118079500D01*
X81702129Y-118079500D01*
X81702123Y-118079501D01*
X81642516Y-118085908D01*
X81507671Y-118136202D01*
X81507664Y-118136206D01*
X81392455Y-118222452D01*
X81392452Y-118222455D01*
X81306206Y-118337664D01*
X81306202Y-118337671D01*
X81255908Y-118472517D01*
X81251353Y-118514890D01*
X81249501Y-118532123D01*
X81249500Y-118532135D01*
X81249500Y-120227870D01*
X79731316Y-120227870D01*
X79740047Y-120219139D01*
X79870568Y-120032734D01*
X79966739Y-119826496D01*
X80025635Y-119606692D01*
X80045468Y-119380000D01*
X80025635Y-119153308D01*
X79966739Y-118933504D01*
X79870568Y-118727266D01*
X79740047Y-118540861D01*
X79740045Y-118540858D01*
X79579141Y-118379954D01*
X79392734Y-118249432D01*
X79392732Y-118249431D01*
X79186497Y-118153261D01*
X79186488Y-118153258D01*
X78966697Y-118094366D01*
X78966693Y-118094365D01*
X78966692Y-118094365D01*
X78966691Y-118094364D01*
X78966686Y-118094364D01*
X78740002Y-118074532D01*
X78739998Y-118074532D01*
X78513313Y-118094364D01*
X78513302Y-118094366D01*
X78293511Y-118153258D01*
X78293502Y-118153261D01*
X78087267Y-118249431D01*
X78087265Y-118249432D01*
X77900858Y-118379954D01*
X77739954Y-118540858D01*
X77609432Y-118727265D01*
X77609431Y-118727267D01*
X77513261Y-118933502D01*
X77513258Y-118933511D01*
X77454366Y-119153302D01*
X77454364Y-119153313D01*
X77434532Y-119379998D01*
X77434532Y-119380001D01*
X72521725Y-119380001D01*
X72521725Y-119379998D01*
X72514365Y-119206730D01*
X72514365Y-119206729D01*
X72510314Y-119187933D01*
X72465618Y-118980542D01*
X72465503Y-118980257D01*
X72379348Y-118765851D01*
X72379347Y-118765848D01*
X72258034Y-118568823D01*
X72258031Y-118568820D01*
X72258031Y-118568819D01*
X72254887Y-118565247D01*
X72225376Y-118501915D01*
X72234789Y-118432683D01*
X72273661Y-118384063D01*
X72377546Y-118306296D01*
X72463796Y-118191081D01*
X72514091Y-118056233D01*
X72520500Y-117996623D01*
X72520499Y-116183378D01*
X72514091Y-116123767D01*
X72463796Y-115988919D01*
X72463795Y-115988918D01*
X72463793Y-115988914D01*
X72377547Y-115873705D01*
X72377544Y-115873702D01*
X72262335Y-115787456D01*
X72262328Y-115787452D01*
X72127482Y-115737158D01*
X72127483Y-115737158D01*
X72067883Y-115730751D01*
X72067881Y-115730750D01*
X72067873Y-115730750D01*
X72067864Y-115730750D01*
X70172129Y-115730750D01*
X70172123Y-115730751D01*
X70112516Y-115737158D01*
X69977671Y-115787452D01*
X69977664Y-115787456D01*
X69862455Y-115873702D01*
X69862452Y-115873705D01*
X69776206Y-115988914D01*
X69776202Y-115988921D01*
X69725908Y-116123767D01*
X69719501Y-116183366D01*
X69719501Y-116183373D01*
X69719500Y-116183385D01*
X69719500Y-117996620D01*
X69719501Y-117996626D01*
X69725908Y-118056233D01*
X69776202Y-118191078D01*
X69776206Y-118191085D01*
X69862452Y-118306294D01*
X69862455Y-118306297D01*
X69969589Y-118386498D01*
X70011460Y-118442431D01*
X70016444Y-118512123D01*
X69994974Y-118559497D01*
X69917131Y-118664749D01*
X69917124Y-118664760D01*
X69812957Y-118871361D01*
X69745203Y-119092600D01*
X69715815Y-119322103D01*
X67264275Y-119322103D01*
X67244651Y-119285840D01*
X67185474Y-119176491D01*
X67032738Y-118980256D01*
X66849785Y-118811836D01*
X66849782Y-118811833D01*
X66641606Y-118675826D01*
X66413881Y-118575936D01*
X66172824Y-118514892D01*
X66172813Y-118514890D01*
X66005145Y-118500998D01*
X65987067Y-118499500D01*
X63862933Y-118499500D01*
X63844855Y-118500998D01*
X63677186Y-118514890D01*
X63677175Y-118514892D01*
X63436118Y-118575936D01*
X63208393Y-118675826D01*
X63000217Y-118811833D01*
X62817261Y-118980257D01*
X62664524Y-119176493D01*
X62546172Y-119395188D01*
X62546169Y-119395197D01*
X62465429Y-119630383D01*
X62424500Y-119875665D01*
X62424500Y-120124334D01*
X61500500Y-120124334D01*
X61500500Y-119187933D01*
X61496145Y-119135376D01*
X61485109Y-119002186D01*
X61485107Y-119002175D01*
X61424063Y-118761118D01*
X61324173Y-118533393D01*
X61188166Y-118325217D01*
X61118400Y-118249431D01*
X61019744Y-118142262D01*
X60823509Y-117989526D01*
X60823507Y-117989525D01*
X60823506Y-117989524D01*
X60604811Y-117871172D01*
X60604802Y-117871169D01*
X60369616Y-117790429D01*
X60124335Y-117749500D01*
X59875665Y-117749500D01*
X59630383Y-117790429D01*
X59395197Y-117871169D01*
X59395188Y-117871172D01*
X59176493Y-117989524D01*
X58980257Y-118142261D01*
X58811833Y-118325217D01*
X58675826Y-118533393D01*
X58575936Y-118761118D01*
X58514892Y-119002175D01*
X58514890Y-119002186D01*
X58499500Y-119187935D01*
X58499500Y-120812065D01*
X55000000Y-120812065D01*
X55000000Y-115725000D01*
X55369341Y-115725000D01*
X55389936Y-115960403D01*
X55389938Y-115960413D01*
X55451094Y-116188655D01*
X55451096Y-116188659D01*
X55451097Y-116188663D01*
X55501031Y-116295746D01*
X55550964Y-116402828D01*
X55550965Y-116402830D01*
X55686505Y-116596402D01*
X55853597Y-116763494D01*
X56047169Y-116899034D01*
X56047171Y-116899035D01*
X56261337Y-116998903D01*
X56489592Y-117060063D01*
X56666034Y-117075500D01*
X56783966Y-117075500D01*
X56960408Y-117060063D01*
X57188663Y-116998903D01*
X57402829Y-116899035D01*
X57596401Y-116763495D01*
X57763495Y-116596401D01*
X57899035Y-116402830D01*
X57998903Y-116188663D01*
X58060063Y-115960408D01*
X58080659Y-115725000D01*
X58060063Y-115489592D01*
X57998903Y-115261337D01*
X57899035Y-115047171D01*
X57899034Y-115047169D01*
X57763494Y-114853597D01*
X57596402Y-114686505D01*
X57402830Y-114550965D01*
X57402828Y-114550964D01*
X57295746Y-114501031D01*
X57188663Y-114451097D01*
X57188659Y-114451096D01*
X57188655Y-114451094D01*
X56960413Y-114389938D01*
X56960403Y-114389936D01*
X56783966Y-114374500D01*
X56666034Y-114374500D01*
X56489596Y-114389936D01*
X56489586Y-114389938D01*
X56261344Y-114451094D01*
X56261335Y-114451098D01*
X56047171Y-114550964D01*
X56047169Y-114550965D01*
X55853597Y-114686505D01*
X55686506Y-114853597D01*
X55686501Y-114853604D01*
X55550967Y-115047165D01*
X55550965Y-115047169D01*
X55451098Y-115261335D01*
X55451094Y-115261344D01*
X55389938Y-115489586D01*
X55389936Y-115489596D01*
X55369341Y-115724999D01*
X55369341Y-115725000D01*
X55000000Y-115725000D01*
X55000000Y-112607870D01*
X77439500Y-112607870D01*
X77439501Y-112607876D01*
X77445908Y-112667483D01*
X77496202Y-112802328D01*
X77496206Y-112802335D01*
X77582452Y-112917544D01*
X77582455Y-112917547D01*
X77697664Y-113003793D01*
X77697671Y-113003797D01*
X77832517Y-113054091D01*
X77832516Y-113054091D01*
X77839444Y-113054835D01*
X77892127Y-113060500D01*
X79587872Y-113060499D01*
X79647483Y-113054091D01*
X79782331Y-113003796D01*
X79897546Y-112917546D01*
X79983796Y-112802331D01*
X80034091Y-112667483D01*
X80040500Y-112607873D01*
X80040500Y-111760001D01*
X81244532Y-111760001D01*
X81264364Y-111986686D01*
X81264366Y-111986697D01*
X81323258Y-112206488D01*
X81323261Y-112206497D01*
X81419431Y-112412732D01*
X81419432Y-112412734D01*
X81549954Y-112599141D01*
X81710858Y-112760045D01*
X81710861Y-112760047D01*
X81897266Y-112890568D01*
X82103504Y-112986739D01*
X82323308Y-113045635D01*
X82485230Y-113059801D01*
X82549998Y-113065468D01*
X82550000Y-113065468D01*
X82550002Y-113065468D01*
X82606807Y-113060498D01*
X82776692Y-113045635D01*
X82996496Y-112986739D01*
X83202734Y-112890568D01*
X83389139Y-112760047D01*
X83550047Y-112599139D01*
X83680568Y-112412734D01*
X83776739Y-112206496D01*
X83835635Y-111986692D01*
X83855468Y-111760001D01*
X85054532Y-111760001D01*
X85074364Y-111986686D01*
X85074366Y-111986697D01*
X85133258Y-112206488D01*
X85133261Y-112206497D01*
X85229431Y-112412732D01*
X85229432Y-112412734D01*
X85359954Y-112599141D01*
X85520858Y-112760045D01*
X85520861Y-112760047D01*
X85707266Y-112890568D01*
X85913504Y-112986739D01*
X86133308Y-113045635D01*
X86295230Y-113059801D01*
X86359998Y-113065468D01*
X86360000Y-113065468D01*
X86360002Y-113065468D01*
X86416807Y-113060498D01*
X86586692Y-113045635D01*
X86806496Y-112986739D01*
X87012734Y-112890568D01*
X87176354Y-112776001D01*
X91444532Y-112776001D01*
X91464364Y-113002686D01*
X91464366Y-113002697D01*
X91523258Y-113222488D01*
X91523261Y-113222497D01*
X91619431Y-113428732D01*
X91619432Y-113428734D01*
X91749954Y-113615141D01*
X91910858Y-113776045D01*
X91910861Y-113776047D01*
X92097266Y-113906568D01*
X92303504Y-114002739D01*
X92523308Y-114061635D01*
X92685230Y-114075801D01*
X92749998Y-114081468D01*
X92750000Y-114081468D01*
X92750002Y-114081468D01*
X92806672Y-114076509D01*
X92976692Y-114061635D01*
X93196496Y-114002739D01*
X93402734Y-113906568D01*
X93589139Y-113776047D01*
X93750047Y-113615139D01*
X93880568Y-113428734D01*
X93976739Y-113222496D01*
X94035635Y-113002692D01*
X94055468Y-112776000D01*
X94035635Y-112549308D01*
X93976739Y-112329504D01*
X93880568Y-112123266D01*
X93750047Y-111936861D01*
X93750045Y-111936858D01*
X93589141Y-111775954D01*
X93402734Y-111645432D01*
X93402732Y-111645431D01*
X93196497Y-111549261D01*
X93196488Y-111549258D01*
X92976697Y-111490366D01*
X92976693Y-111490365D01*
X92976692Y-111490365D01*
X92976691Y-111490364D01*
X92976686Y-111490364D01*
X92750002Y-111470532D01*
X92749998Y-111470532D01*
X92523313Y-111490364D01*
X92523302Y-111490366D01*
X92303511Y-111549258D01*
X92303502Y-111549261D01*
X92097267Y-111645431D01*
X92097265Y-111645432D01*
X91910858Y-111775954D01*
X91749954Y-111936858D01*
X91619432Y-112123265D01*
X91619431Y-112123267D01*
X91523261Y-112329502D01*
X91523258Y-112329511D01*
X91464366Y-112549302D01*
X91464364Y-112549313D01*
X91444532Y-112775998D01*
X91444532Y-112776001D01*
X87176354Y-112776001D01*
X87199139Y-112760047D01*
X87360047Y-112599139D01*
X87490568Y-112412734D01*
X87586739Y-112206496D01*
X87645635Y-111986692D01*
X87665468Y-111760000D01*
X87645635Y-111533308D01*
X87586739Y-111313504D01*
X87490568Y-111107266D01*
X87360047Y-110920861D01*
X87360045Y-110920858D01*
X87199141Y-110759954D01*
X87012734Y-110629432D01*
X87012732Y-110629431D01*
X86806497Y-110533261D01*
X86806488Y-110533258D01*
X86586697Y-110474366D01*
X86586693Y-110474365D01*
X86586692Y-110474365D01*
X86586691Y-110474364D01*
X86586686Y-110474364D01*
X86360002Y-110454532D01*
X86359998Y-110454532D01*
X86133313Y-110474364D01*
X86133302Y-110474366D01*
X85913511Y-110533258D01*
X85913502Y-110533261D01*
X85707267Y-110629431D01*
X85707265Y-110629432D01*
X85520858Y-110759954D01*
X85359954Y-110920858D01*
X85229432Y-111107265D01*
X85229431Y-111107267D01*
X85133261Y-111313502D01*
X85133258Y-111313511D01*
X85074366Y-111533302D01*
X85074364Y-111533313D01*
X85054532Y-111759998D01*
X85054532Y-111760001D01*
X83855468Y-111760001D01*
X83855468Y-111760000D01*
X83835635Y-111533308D01*
X83776739Y-111313504D01*
X83680568Y-111107266D01*
X83550047Y-110920861D01*
X83550045Y-110920858D01*
X83389141Y-110759954D01*
X83202734Y-110629432D01*
X83202732Y-110629431D01*
X82996497Y-110533261D01*
X82996488Y-110533258D01*
X82776697Y-110474366D01*
X82776693Y-110474365D01*
X82776692Y-110474365D01*
X82776691Y-110474364D01*
X82776686Y-110474364D01*
X82550002Y-110454532D01*
X82549998Y-110454532D01*
X82323313Y-110474364D01*
X82323302Y-110474366D01*
X82103511Y-110533258D01*
X82103502Y-110533261D01*
X81897267Y-110629431D01*
X81897265Y-110629432D01*
X81710858Y-110759954D01*
X81549954Y-110920858D01*
X81419432Y-111107265D01*
X81419431Y-111107267D01*
X81323261Y-111313502D01*
X81323258Y-111313511D01*
X81264366Y-111533302D01*
X81264364Y-111533313D01*
X81244532Y-111759998D01*
X81244532Y-111760001D01*
X80040500Y-111760001D01*
X80040499Y-110912128D01*
X80034091Y-110852517D01*
X79999567Y-110759954D01*
X79983797Y-110717671D01*
X79983793Y-110717664D01*
X79897547Y-110602455D01*
X79897544Y-110602452D01*
X79782335Y-110516206D01*
X79782328Y-110516202D01*
X79647482Y-110465908D01*
X79647483Y-110465908D01*
X79587883Y-110459501D01*
X79587881Y-110459500D01*
X79587873Y-110459500D01*
X79587864Y-110459500D01*
X77892129Y-110459500D01*
X77892123Y-110459501D01*
X77832516Y-110465908D01*
X77697671Y-110516202D01*
X77697664Y-110516206D01*
X77582455Y-110602452D01*
X77582452Y-110602455D01*
X77496206Y-110717664D01*
X77496202Y-110717671D01*
X77445908Y-110852517D01*
X77439501Y-110912116D01*
X77439501Y-110912123D01*
X77439500Y-110912135D01*
X77439500Y-112607870D01*
X55000000Y-112607870D01*
X55000000Y-108797870D01*
X69819500Y-108797870D01*
X69819501Y-108797876D01*
X69825908Y-108857483D01*
X69876202Y-108992328D01*
X69876206Y-108992335D01*
X69962452Y-109107544D01*
X69962455Y-109107547D01*
X70077664Y-109193793D01*
X70077671Y-109193797D01*
X70212517Y-109244091D01*
X70212516Y-109244091D01*
X70219444Y-109244835D01*
X70272127Y-109250500D01*
X71967872Y-109250499D01*
X72027483Y-109244091D01*
X72162331Y-109193796D01*
X72277546Y-109107546D01*
X72363796Y-108992331D01*
X72414091Y-108857483D01*
X72420500Y-108797873D01*
X72420499Y-107102128D01*
X72414091Y-107042517D01*
X72363796Y-106907669D01*
X72363795Y-106907668D01*
X72363793Y-106907664D01*
X72277547Y-106792455D01*
X72277544Y-106792452D01*
X72162335Y-106706206D01*
X72162328Y-106706202D01*
X72027482Y-106655908D01*
X72027483Y-106655908D01*
X71967883Y-106649501D01*
X71967881Y-106649500D01*
X71967873Y-106649500D01*
X71967864Y-106649500D01*
X70272129Y-106649500D01*
X70272123Y-106649501D01*
X70212516Y-106655908D01*
X70077671Y-106706202D01*
X70077664Y-106706206D01*
X69962455Y-106792452D01*
X69962452Y-106792455D01*
X69876206Y-106907664D01*
X69876202Y-106907671D01*
X69825908Y-107042517D01*
X69819501Y-107102116D01*
X69819501Y-107102123D01*
X69819500Y-107102135D01*
X69819500Y-108797870D01*
X55000000Y-108797870D01*
X55000000Y-105027870D01*
X78669500Y-105027870D01*
X78669501Y-105027876D01*
X78675908Y-105087483D01*
X78726202Y-105222328D01*
X78726206Y-105222335D01*
X78812452Y-105337544D01*
X78812455Y-105337547D01*
X78927664Y-105423793D01*
X78927671Y-105423797D01*
X79062517Y-105474091D01*
X79062516Y-105474091D01*
X79069444Y-105474835D01*
X79122127Y-105480500D01*
X80917872Y-105480499D01*
X80977483Y-105474091D01*
X81112331Y-105423796D01*
X81227546Y-105337546D01*
X81313796Y-105222331D01*
X81362810Y-105090916D01*
X81404681Y-105034984D01*
X81470145Y-105010566D01*
X81538418Y-105025417D01*
X81566673Y-105046569D01*
X81688599Y-105168495D01*
X81785384Y-105236264D01*
X81882165Y-105304032D01*
X81882167Y-105304033D01*
X81882170Y-105304035D01*
X82096337Y-105403903D01*
X82324592Y-105465063D01*
X82501034Y-105480500D01*
X82559999Y-105485659D01*
X82560000Y-105485659D01*
X82560001Y-105485659D01*
X82618966Y-105480500D01*
X82795408Y-105465063D01*
X83023663Y-105403903D01*
X83237830Y-105304035D01*
X83431401Y-105168495D01*
X83598495Y-105001401D01*
X83728424Y-104815842D01*
X83783002Y-104772217D01*
X83852500Y-104765023D01*
X83914855Y-104796546D01*
X83931575Y-104815842D01*
X84061500Y-105001395D01*
X84061505Y-105001401D01*
X84228599Y-105168495D01*
X84325384Y-105236264D01*
X84422165Y-105304032D01*
X84422167Y-105304033D01*
X84422170Y-105304035D01*
X84636337Y-105403903D01*
X84864592Y-105465063D01*
X85041034Y-105480500D01*
X85099999Y-105485659D01*
X85100000Y-105485659D01*
X85100001Y-105485659D01*
X85158966Y-105480500D01*
X85335408Y-105465063D01*
X85563663Y-105403903D01*
X85777830Y-105304035D01*
X85971401Y-105168495D01*
X86138495Y-105001401D01*
X86274035Y-104807830D01*
X86373903Y-104593663D01*
X86435063Y-104365408D01*
X86455659Y-104130000D01*
X86435063Y-103894592D01*
X86373903Y-103666337D01*
X86274035Y-103452171D01*
X86268425Y-103444158D01*
X86138494Y-103258597D01*
X85971402Y-103091506D01*
X85971395Y-103091501D01*
X85777834Y-102955967D01*
X85777830Y-102955965D01*
X85777828Y-102955964D01*
X85563663Y-102856097D01*
X85563659Y-102856096D01*
X85563655Y-102856094D01*
X85335413Y-102794938D01*
X85335403Y-102794936D01*
X85100001Y-102774341D01*
X85099999Y-102774341D01*
X84864596Y-102794936D01*
X84864586Y-102794938D01*
X84636344Y-102856094D01*
X84636335Y-102856098D01*
X84422171Y-102955964D01*
X84422169Y-102955965D01*
X84228597Y-103091505D01*
X84061505Y-103258597D01*
X83931575Y-103444158D01*
X83876998Y-103487783D01*
X83807500Y-103494977D01*
X83745145Y-103463454D01*
X83728425Y-103444158D01*
X83598494Y-103258597D01*
X83431402Y-103091506D01*
X83431395Y-103091501D01*
X83237834Y-102955967D01*
X83237830Y-102955965D01*
X83237828Y-102955964D01*
X83023663Y-102856097D01*
X83023659Y-102856096D01*
X83023655Y-102856094D01*
X82795413Y-102794938D01*
X82795403Y-102794936D01*
X82560001Y-102774341D01*
X82559999Y-102774341D01*
X82324596Y-102794936D01*
X82324586Y-102794938D01*
X82096344Y-102856094D01*
X82096335Y-102856098D01*
X81882171Y-102955964D01*
X81882169Y-102955965D01*
X81688600Y-103091503D01*
X81566673Y-103213430D01*
X81505350Y-103246914D01*
X81435658Y-103241930D01*
X81379725Y-103200058D01*
X81362810Y-103169081D01*
X81313797Y-103037671D01*
X81313793Y-103037664D01*
X81227547Y-102922455D01*
X81227544Y-102922452D01*
X81112335Y-102836206D01*
X81112328Y-102836202D01*
X80977482Y-102785908D01*
X80977483Y-102785908D01*
X80917883Y-102779501D01*
X80917881Y-102779500D01*
X80917873Y-102779500D01*
X80917864Y-102779500D01*
X79122129Y-102779500D01*
X79122123Y-102779501D01*
X79062516Y-102785908D01*
X78927671Y-102836202D01*
X78927664Y-102836206D01*
X78812455Y-102922452D01*
X78812452Y-102922455D01*
X78726206Y-103037664D01*
X78726202Y-103037671D01*
X78675908Y-103172517D01*
X78669501Y-103232116D01*
X78669500Y-103232135D01*
X78669500Y-105027870D01*
X55000000Y-105027870D01*
X55000000Y-101600001D01*
X88884532Y-101600001D01*
X88904364Y-101826686D01*
X88904366Y-101826697D01*
X88963258Y-102046488D01*
X88963261Y-102046497D01*
X89059431Y-102252732D01*
X89059432Y-102252734D01*
X89189954Y-102439141D01*
X89350858Y-102600045D01*
X89350861Y-102600047D01*
X89537266Y-102730568D01*
X89743504Y-102826739D01*
X89743509Y-102826740D01*
X89743511Y-102826741D01*
X89796415Y-102840916D01*
X89963308Y-102885635D01*
X90125230Y-102899801D01*
X90189998Y-102905468D01*
X90190000Y-102905468D01*
X90190002Y-102905468D01*
X90246672Y-102900509D01*
X90416692Y-102885635D01*
X90636496Y-102826739D01*
X90842734Y-102730568D01*
X91029139Y-102600047D01*
X91190047Y-102439139D01*
X91320568Y-102252734D01*
X91416739Y-102046496D01*
X91475635Y-101826692D01*
X91495468Y-101600001D01*
X96504532Y-101600001D01*
X96524364Y-101826686D01*
X96524366Y-101826697D01*
X96583258Y-102046488D01*
X96583261Y-102046497D01*
X96679431Y-102252732D01*
X96679432Y-102252734D01*
X96809954Y-102439141D01*
X96970858Y-102600045D01*
X96970861Y-102600047D01*
X97157266Y-102730568D01*
X97363504Y-102826739D01*
X97363509Y-102826740D01*
X97363511Y-102826741D01*
X97416415Y-102840916D01*
X97583308Y-102885635D01*
X97745230Y-102899801D01*
X97809998Y-102905468D01*
X97810000Y-102905468D01*
X97810002Y-102905468D01*
X97866673Y-102900509D01*
X98036692Y-102885635D01*
X98256496Y-102826739D01*
X98462734Y-102730568D01*
X98649139Y-102600047D01*
X98810047Y-102439139D01*
X98940568Y-102252734D01*
X99036739Y-102046496D01*
X99095635Y-101826692D01*
X99115468Y-101600000D01*
X99095635Y-101373308D01*
X99036739Y-101153504D01*
X98940568Y-100947266D01*
X98810047Y-100760861D01*
X98810045Y-100760858D01*
X98649141Y-100599954D01*
X98462734Y-100469432D01*
X98462728Y-100469429D01*
X98418993Y-100449035D01*
X98404724Y-100442381D01*
X98352285Y-100396210D01*
X98333133Y-100329017D01*
X98353348Y-100262135D01*
X98404725Y-100217618D01*
X98462734Y-100190568D01*
X98649139Y-100060047D01*
X98810047Y-99899139D01*
X98940568Y-99712734D01*
X99036739Y-99506496D01*
X99095635Y-99286692D01*
X99113240Y-99085468D01*
X99115468Y-99060001D01*
X99115468Y-99059998D01*
X99104755Y-98937547D01*
X99095635Y-98833308D01*
X99040587Y-98627864D01*
X99036741Y-98613511D01*
X99036738Y-98613502D01*
X98940568Y-98407267D01*
X98940567Y-98407265D01*
X98810045Y-98220858D01*
X98649141Y-98059954D01*
X98462734Y-97929432D01*
X98462728Y-97929429D01*
X98404725Y-97902382D01*
X98352285Y-97856210D01*
X98333133Y-97789017D01*
X98353348Y-97722135D01*
X98404725Y-97677618D01*
X98462734Y-97650568D01*
X98649139Y-97520047D01*
X98810047Y-97359139D01*
X98940568Y-97172734D01*
X99036739Y-96966496D01*
X99095635Y-96746692D01*
X99115468Y-96520000D01*
X99113111Y-96493065D01*
X99103239Y-96380223D01*
X99095635Y-96293308D01*
X99036739Y-96073504D01*
X98940568Y-95867266D01*
X98810047Y-95680861D01*
X98810045Y-95680858D01*
X98649141Y-95519954D01*
X98462734Y-95389432D01*
X98462728Y-95389429D01*
X98404725Y-95362382D01*
X98352285Y-95316210D01*
X98333133Y-95249017D01*
X98353348Y-95182135D01*
X98404725Y-95137618D01*
X98462734Y-95110568D01*
X98649139Y-94980047D01*
X98810047Y-94819139D01*
X98940568Y-94632734D01*
X99036739Y-94426496D01*
X99095635Y-94206692D01*
X99115468Y-93980000D01*
X99095635Y-93753308D01*
X99036739Y-93533504D01*
X98940568Y-93327266D01*
X98810047Y-93140861D01*
X98810045Y-93140858D01*
X98649141Y-92979954D01*
X98462734Y-92849432D01*
X98462732Y-92849431D01*
X98256497Y-92753261D01*
X98256488Y-92753258D01*
X98036697Y-92694366D01*
X98036693Y-92694365D01*
X98036692Y-92694365D01*
X98036691Y-92694364D01*
X98036686Y-92694364D01*
X97810002Y-92674532D01*
X97809998Y-92674532D01*
X97583313Y-92694364D01*
X97583302Y-92694366D01*
X97363511Y-92753258D01*
X97363502Y-92753261D01*
X97157267Y-92849431D01*
X97157265Y-92849432D01*
X96970858Y-92979954D01*
X96809954Y-93140858D01*
X96679432Y-93327265D01*
X96679431Y-93327267D01*
X96583261Y-93533502D01*
X96583258Y-93533511D01*
X96524366Y-93753302D01*
X96524364Y-93753313D01*
X96504532Y-93979998D01*
X96504532Y-93980001D01*
X96524364Y-94206686D01*
X96524366Y-94206697D01*
X96583258Y-94426488D01*
X96583261Y-94426497D01*
X96679431Y-94632732D01*
X96679432Y-94632734D01*
X96809954Y-94819141D01*
X96970858Y-94980045D01*
X96970861Y-94980047D01*
X97157266Y-95110568D01*
X97215275Y-95137618D01*
X97267714Y-95183791D01*
X97286866Y-95250984D01*
X97266650Y-95317865D01*
X97215275Y-95362382D01*
X97157267Y-95389431D01*
X97157265Y-95389432D01*
X96970858Y-95519954D01*
X96809954Y-95680858D01*
X96679432Y-95867265D01*
X96679431Y-95867267D01*
X96583261Y-96073502D01*
X96583258Y-96073511D01*
X96524366Y-96293302D01*
X96524364Y-96293313D01*
X96504532Y-96519998D01*
X96504532Y-96520001D01*
X96524364Y-96746686D01*
X96524366Y-96746697D01*
X96583258Y-96966488D01*
X96583261Y-96966497D01*
X96679431Y-97172732D01*
X96679432Y-97172734D01*
X96809954Y-97359141D01*
X96970858Y-97520045D01*
X96970861Y-97520047D01*
X97157266Y-97650568D01*
X97215275Y-97677618D01*
X97267714Y-97723791D01*
X97286866Y-97790984D01*
X97266650Y-97857865D01*
X97215275Y-97902382D01*
X97157267Y-97929431D01*
X97157265Y-97929432D01*
X96970858Y-98059954D01*
X96809954Y-98220858D01*
X96679432Y-98407265D01*
X96679431Y-98407267D01*
X96583261Y-98613502D01*
X96583258Y-98613511D01*
X96524366Y-98833302D01*
X96524364Y-98833313D01*
X96504532Y-99059998D01*
X96504532Y-99060001D01*
X96524364Y-99286686D01*
X96524366Y-99286697D01*
X96583258Y-99506488D01*
X96583261Y-99506497D01*
X96679431Y-99712732D01*
X96679432Y-99712734D01*
X96809954Y-99899141D01*
X96970858Y-100060045D01*
X96970861Y-100060047D01*
X97157266Y-100190568D01*
X97215275Y-100217618D01*
X97267714Y-100263791D01*
X97286866Y-100330984D01*
X97266650Y-100397865D01*
X97215275Y-100442382D01*
X97157267Y-100469431D01*
X97157265Y-100469432D01*
X96970858Y-100599954D01*
X96809954Y-100760858D01*
X96679432Y-100947265D01*
X96679431Y-100947267D01*
X96583261Y-101153502D01*
X96583258Y-101153511D01*
X96524366Y-101373302D01*
X96524364Y-101373313D01*
X96504532Y-101599998D01*
X96504532Y-101600001D01*
X91495468Y-101600001D01*
X91495468Y-101600000D01*
X91475635Y-101373308D01*
X91416739Y-101153504D01*
X91320568Y-100947266D01*
X91190047Y-100760861D01*
X91190045Y-100760858D01*
X91029141Y-100599954D01*
X90842734Y-100469432D01*
X90842728Y-100469429D01*
X90798993Y-100449035D01*
X90784724Y-100442381D01*
X90732285Y-100396210D01*
X90713133Y-100329017D01*
X90733348Y-100262135D01*
X90784725Y-100217618D01*
X90842734Y-100190568D01*
X91029139Y-100060047D01*
X91190047Y-99899139D01*
X91320568Y-99712734D01*
X91416739Y-99506496D01*
X91475635Y-99286692D01*
X91493240Y-99085468D01*
X91495468Y-99060001D01*
X91495468Y-99059998D01*
X91484755Y-98937547D01*
X91475635Y-98833308D01*
X91420587Y-98627864D01*
X91416741Y-98613511D01*
X91416738Y-98613502D01*
X91320568Y-98407267D01*
X91320567Y-98407265D01*
X91190045Y-98220858D01*
X91029141Y-98059954D01*
X90842734Y-97929432D01*
X90842728Y-97929429D01*
X90784725Y-97902382D01*
X90732285Y-97856210D01*
X90713133Y-97789017D01*
X90733348Y-97722135D01*
X90784725Y-97677618D01*
X90842734Y-97650568D01*
X91029139Y-97520047D01*
X91190047Y-97359139D01*
X91320568Y-97172734D01*
X91416739Y-96966496D01*
X91475635Y-96746692D01*
X91495468Y-96520000D01*
X91493111Y-96493065D01*
X91483239Y-96380223D01*
X91475635Y-96293308D01*
X91416739Y-96073504D01*
X91320568Y-95867266D01*
X91190047Y-95680861D01*
X91190045Y-95680858D01*
X91029141Y-95519954D01*
X90842734Y-95389432D01*
X90842732Y-95389431D01*
X90636497Y-95293261D01*
X90636488Y-95293258D01*
X90416697Y-95234366D01*
X90416693Y-95234365D01*
X90416692Y-95234365D01*
X90416691Y-95234364D01*
X90416686Y-95234364D01*
X90190002Y-95214532D01*
X90189998Y-95214532D01*
X89963313Y-95234364D01*
X89963302Y-95234366D01*
X89743511Y-95293258D01*
X89743502Y-95293261D01*
X89537267Y-95389431D01*
X89537265Y-95389432D01*
X89350858Y-95519954D01*
X89189954Y-95680858D01*
X89059432Y-95867265D01*
X89059431Y-95867267D01*
X88963261Y-96073502D01*
X88963258Y-96073511D01*
X88904366Y-96293302D01*
X88904364Y-96293313D01*
X88884532Y-96519998D01*
X88884532Y-96520001D01*
X88904364Y-96746686D01*
X88904366Y-96746697D01*
X88963258Y-96966488D01*
X88963261Y-96966497D01*
X89059431Y-97172732D01*
X89059432Y-97172734D01*
X89189954Y-97359141D01*
X89350858Y-97520045D01*
X89350861Y-97520047D01*
X89537266Y-97650568D01*
X89595275Y-97677618D01*
X89647714Y-97723791D01*
X89666866Y-97790984D01*
X89646650Y-97857865D01*
X89595275Y-97902382D01*
X89537267Y-97929431D01*
X89537265Y-97929432D01*
X89350858Y-98059954D01*
X89189954Y-98220858D01*
X89059432Y-98407265D01*
X89059431Y-98407267D01*
X88963261Y-98613502D01*
X88963258Y-98613511D01*
X88904366Y-98833302D01*
X88904364Y-98833313D01*
X88884532Y-99059998D01*
X88884532Y-99060001D01*
X88904364Y-99286686D01*
X88904366Y-99286697D01*
X88963258Y-99506488D01*
X88963261Y-99506497D01*
X89059431Y-99712732D01*
X89059432Y-99712734D01*
X89189954Y-99899141D01*
X89350858Y-100060045D01*
X89350861Y-100060047D01*
X89537266Y-100190568D01*
X89595275Y-100217618D01*
X89647714Y-100263791D01*
X89666866Y-100330984D01*
X89646650Y-100397865D01*
X89595275Y-100442382D01*
X89537267Y-100469431D01*
X89537265Y-100469432D01*
X89350858Y-100599954D01*
X89189954Y-100760858D01*
X89059432Y-100947265D01*
X89059431Y-100947267D01*
X88963261Y-101153502D01*
X88963258Y-101153511D01*
X88904366Y-101373302D01*
X88904364Y-101373313D01*
X88884532Y-101599998D01*
X88884532Y-101600001D01*
X55000000Y-101600001D01*
X55000000Y-99275000D01*
X55369341Y-99275000D01*
X55389936Y-99510403D01*
X55389938Y-99510413D01*
X55451094Y-99738655D01*
X55451096Y-99738659D01*
X55451097Y-99738663D01*
X55501030Y-99845745D01*
X55550964Y-99952828D01*
X55550965Y-99952830D01*
X55686505Y-100146402D01*
X55853597Y-100313494D01*
X56047169Y-100449034D01*
X56047171Y-100449035D01*
X56261337Y-100548903D01*
X56489592Y-100610063D01*
X56666034Y-100625500D01*
X56783966Y-100625500D01*
X56960408Y-100610063D01*
X57188663Y-100548903D01*
X57402829Y-100449035D01*
X57596401Y-100313495D01*
X57763495Y-100146401D01*
X57899035Y-99952830D01*
X57998903Y-99738663D01*
X58060063Y-99510408D01*
X58080659Y-99275000D01*
X58060063Y-99039592D01*
X58004790Y-98833308D01*
X57998905Y-98811344D01*
X57998904Y-98811343D01*
X57998903Y-98811337D01*
X57899035Y-98597171D01*
X57899034Y-98597169D01*
X57763494Y-98403597D01*
X57596402Y-98236505D01*
X57402830Y-98100965D01*
X57402828Y-98100964D01*
X57295746Y-98051031D01*
X57188663Y-98001097D01*
X57188659Y-98001096D01*
X57188655Y-98001094D01*
X56960413Y-97939938D01*
X56960403Y-97939936D01*
X56783966Y-97924500D01*
X56666034Y-97924500D01*
X56489596Y-97939936D01*
X56489586Y-97939938D01*
X56261344Y-98001094D01*
X56261335Y-98001098D01*
X56047171Y-98100964D01*
X56047169Y-98100965D01*
X55853597Y-98236505D01*
X55686506Y-98403597D01*
X55686501Y-98403604D01*
X55550967Y-98597165D01*
X55550965Y-98597169D01*
X55451098Y-98811335D01*
X55451094Y-98811344D01*
X55389938Y-99039586D01*
X55389936Y-99039596D01*
X55369341Y-99274999D01*
X55369341Y-99275000D01*
X55000000Y-99275000D01*
X55000000Y-97780001D01*
X77444532Y-97780001D01*
X77464364Y-98006686D01*
X77464366Y-98006697D01*
X77523258Y-98226488D01*
X77523261Y-98226497D01*
X77619431Y-98432732D01*
X77619432Y-98432734D01*
X77749954Y-98619141D01*
X77910858Y-98780045D01*
X77910861Y-98780047D01*
X78097266Y-98910568D01*
X78303504Y-99006739D01*
X78523308Y-99065635D01*
X78685230Y-99079801D01*
X78749998Y-99085468D01*
X78750000Y-99085468D01*
X78750002Y-99085468D01*
X78806807Y-99080498D01*
X78976692Y-99065635D01*
X79196496Y-99006739D01*
X79402734Y-98910568D01*
X79589139Y-98780047D01*
X79741316Y-98627870D01*
X81259500Y-98627870D01*
X81259501Y-98627876D01*
X81265908Y-98687483D01*
X81316202Y-98822328D01*
X81316206Y-98822335D01*
X81402452Y-98937544D01*
X81402455Y-98937547D01*
X81517664Y-99023793D01*
X81517671Y-99023797D01*
X81652517Y-99074091D01*
X81652516Y-99074091D01*
X81659444Y-99074835D01*
X81712127Y-99080500D01*
X83407872Y-99080499D01*
X83467483Y-99074091D01*
X83602331Y-99023796D01*
X83717546Y-98937546D01*
X83803796Y-98822331D01*
X83854091Y-98687483D01*
X83860500Y-98627873D01*
X83860500Y-97780001D01*
X85064532Y-97780001D01*
X85084364Y-98006686D01*
X85084366Y-98006697D01*
X85143258Y-98226488D01*
X85143261Y-98226497D01*
X85239431Y-98432732D01*
X85239432Y-98432734D01*
X85369954Y-98619141D01*
X85530858Y-98780045D01*
X85530861Y-98780047D01*
X85717266Y-98910568D01*
X85923504Y-99006739D01*
X86143308Y-99065635D01*
X86305230Y-99079801D01*
X86369998Y-99085468D01*
X86370000Y-99085468D01*
X86370002Y-99085468D01*
X86426807Y-99080498D01*
X86596692Y-99065635D01*
X86816496Y-99006739D01*
X87022734Y-98910568D01*
X87209139Y-98780047D01*
X87370047Y-98619139D01*
X87500568Y-98432734D01*
X87596739Y-98226496D01*
X87655635Y-98006692D01*
X87675468Y-97780000D01*
X87655635Y-97553308D01*
X87596739Y-97333504D01*
X87500568Y-97127266D01*
X87370047Y-96940861D01*
X87370045Y-96940858D01*
X87209141Y-96779954D01*
X87022734Y-96649432D01*
X87022732Y-96649431D01*
X86816497Y-96553261D01*
X86816488Y-96553258D01*
X86596697Y-96494366D01*
X86596693Y-96494365D01*
X86596692Y-96494365D01*
X86596691Y-96494364D01*
X86596686Y-96494364D01*
X86370002Y-96474532D01*
X86369998Y-96474532D01*
X86143313Y-96494364D01*
X86143302Y-96494366D01*
X85923511Y-96553258D01*
X85923502Y-96553261D01*
X85717267Y-96649431D01*
X85717265Y-96649432D01*
X85530858Y-96779954D01*
X85369954Y-96940858D01*
X85239432Y-97127265D01*
X85239431Y-97127267D01*
X85143261Y-97333502D01*
X85143258Y-97333511D01*
X85084366Y-97553302D01*
X85084364Y-97553313D01*
X85064532Y-97779998D01*
X85064532Y-97780001D01*
X83860500Y-97780001D01*
X83860499Y-96932128D01*
X83854091Y-96872517D01*
X83819567Y-96779954D01*
X83803797Y-96737671D01*
X83803793Y-96737664D01*
X83717547Y-96622455D01*
X83717544Y-96622452D01*
X83602335Y-96536206D01*
X83602328Y-96536202D01*
X83467482Y-96485908D01*
X83467483Y-96485908D01*
X83407883Y-96479501D01*
X83407881Y-96479500D01*
X83407873Y-96479500D01*
X83407864Y-96479500D01*
X81712129Y-96479500D01*
X81712123Y-96479501D01*
X81652516Y-96485908D01*
X81517671Y-96536202D01*
X81517664Y-96536206D01*
X81402455Y-96622452D01*
X81402452Y-96622455D01*
X81316206Y-96737664D01*
X81316202Y-96737671D01*
X81265908Y-96872517D01*
X81259501Y-96932116D01*
X81259501Y-96932123D01*
X81259500Y-96932135D01*
X81259500Y-98627870D01*
X79741316Y-98627870D01*
X79750047Y-98619139D01*
X79880568Y-98432734D01*
X79976739Y-98226496D01*
X80035635Y-98006692D01*
X80055468Y-97780000D01*
X80035635Y-97553308D01*
X79976739Y-97333504D01*
X79880568Y-97127266D01*
X79750047Y-96940861D01*
X79750045Y-96940858D01*
X79589141Y-96779954D01*
X79402734Y-96649432D01*
X79402732Y-96649431D01*
X79196497Y-96553261D01*
X79196488Y-96553258D01*
X78976697Y-96494366D01*
X78976693Y-96494365D01*
X78976692Y-96494365D01*
X78976691Y-96494364D01*
X78976686Y-96494364D01*
X78750002Y-96474532D01*
X78749998Y-96474532D01*
X78523313Y-96494364D01*
X78523302Y-96494366D01*
X78303511Y-96553258D01*
X78303502Y-96553261D01*
X78097267Y-96649431D01*
X78097265Y-96649432D01*
X77910858Y-96779954D01*
X77749954Y-96940858D01*
X77619432Y-97127265D01*
X77619431Y-97127267D01*
X77523261Y-97333502D01*
X77523258Y-97333511D01*
X77464366Y-97553302D01*
X77464364Y-97553313D01*
X77444532Y-97779998D01*
X77444532Y-97780001D01*
X55000000Y-97780001D01*
X55000000Y-95812065D01*
X58499500Y-95812065D01*
X58514890Y-95997813D01*
X58514892Y-95997824D01*
X58575936Y-96238881D01*
X58675826Y-96466606D01*
X58811833Y-96674782D01*
X58811836Y-96674785D01*
X58980256Y-96857738D01*
X59176491Y-97010474D01*
X59176493Y-97010475D01*
X59392305Y-97127267D01*
X59395190Y-97128828D01*
X59630386Y-97209571D01*
X59875665Y-97250500D01*
X60124335Y-97250500D01*
X60369614Y-97209571D01*
X60604810Y-97128828D01*
X60823509Y-97010474D01*
X61019744Y-96857738D01*
X61188164Y-96674785D01*
X61324173Y-96466607D01*
X61424063Y-96238881D01*
X61485108Y-95997821D01*
X61487808Y-95965243D01*
X61500500Y-95812065D01*
X61500500Y-95124335D01*
X62424500Y-95124335D01*
X62434145Y-95182135D01*
X62465429Y-95369616D01*
X62546169Y-95604802D01*
X62546172Y-95604811D01*
X62658334Y-95812067D01*
X62664526Y-95823509D01*
X62817262Y-96019744D01*
X62875669Y-96073511D01*
X63000217Y-96188166D01*
X63208393Y-96324173D01*
X63436118Y-96424063D01*
X63677175Y-96485107D01*
X63677179Y-96485108D01*
X63677181Y-96485108D01*
X63677186Y-96485109D01*
X63810376Y-96496145D01*
X63862933Y-96500500D01*
X63862935Y-96500500D01*
X65987065Y-96500500D01*
X65987067Y-96500500D01*
X66048284Y-96495427D01*
X66172813Y-96485109D01*
X66172816Y-96485108D01*
X66172821Y-96485108D01*
X66413881Y-96424063D01*
X66641607Y-96324173D01*
X66849785Y-96188164D01*
X67032738Y-96019744D01*
X67185474Y-95823509D01*
X67303828Y-95604810D01*
X67384571Y-95369614D01*
X67414192Y-95192103D01*
X69595815Y-95192103D01*
X69605634Y-95423269D01*
X69605634Y-95423270D01*
X69654382Y-95649460D01*
X69724320Y-95823506D01*
X69740653Y-95864152D01*
X69861966Y-96061177D01*
X69938399Y-96148022D01*
X70014828Y-96234863D01*
X70014835Y-96234870D01*
X70194846Y-96380218D01*
X70194852Y-96380223D01*
X70396846Y-96493064D01*
X70400528Y-96494365D01*
X70615011Y-96570146D01*
X70742265Y-96591966D01*
X70843052Y-96609249D01*
X70843061Y-96609250D01*
X71098991Y-96609250D01*
X71271790Y-96594543D01*
X71271793Y-96594542D01*
X71271795Y-96594542D01*
X71495707Y-96536239D01*
X71495708Y-96536238D01*
X71495710Y-96536238D01*
X71706536Y-96440939D01*
X71706539Y-96440936D01*
X71706546Y-96440934D01*
X71898245Y-96311368D01*
X72065290Y-96151269D01*
X72202875Y-95965241D01*
X72307043Y-95758637D01*
X72374796Y-95537401D01*
X72404185Y-95307897D01*
X72401061Y-95234366D01*
X72395803Y-95110570D01*
X72394365Y-95076727D01*
X72345618Y-94850542D01*
X72259347Y-94635848D01*
X72138034Y-94438823D01*
X72138031Y-94438820D01*
X72138031Y-94438819D01*
X72134887Y-94435247D01*
X72105376Y-94371915D01*
X72114789Y-94302683D01*
X72153661Y-94254063D01*
X72257546Y-94176296D01*
X72343796Y-94061081D01*
X72394091Y-93926233D01*
X72400500Y-93866623D01*
X72400499Y-92580003D01*
X102527736Y-92580003D01*
X102548059Y-92928927D01*
X102548060Y-92928938D01*
X102608749Y-93273127D01*
X102608751Y-93273134D01*
X102708995Y-93607972D01*
X102847428Y-93928895D01*
X102847434Y-93928908D01*
X103022191Y-94231597D01*
X103230905Y-94511949D01*
X103230910Y-94511955D01*
X103252425Y-94534759D01*
X103470763Y-94766183D01*
X103601239Y-94875665D01*
X103738507Y-94990847D01*
X103738515Y-94990853D01*
X104030524Y-95182911D01*
X104030528Y-95182913D01*
X104342870Y-95339777D01*
X104671310Y-95459319D01*
X105011407Y-95539923D01*
X105358562Y-95580500D01*
X105358569Y-95580500D01*
X105708073Y-95580500D01*
X105708080Y-95580500D01*
X106055235Y-95539923D01*
X106395332Y-95459319D01*
X106723772Y-95339777D01*
X107036114Y-95182913D01*
X107328132Y-94990849D01*
X107595879Y-94766183D01*
X107835733Y-94511953D01*
X108044451Y-94231596D01*
X108219210Y-93928904D01*
X108357647Y-93607971D01*
X108457890Y-93273136D01*
X108480967Y-93142262D01*
X108518581Y-92928938D01*
X108518580Y-92928938D01*
X108518583Y-92928927D01*
X108538906Y-92580000D01*
X108518583Y-92231073D01*
X108493820Y-92090633D01*
X108457892Y-91886872D01*
X108457890Y-91886865D01*
X108449522Y-91858914D01*
X108357647Y-91552029D01*
X108219210Y-91231096D01*
X108062931Y-90960413D01*
X108044450Y-90928402D01*
X107835736Y-90648050D01*
X107835731Y-90648044D01*
X107686238Y-90489592D01*
X107595879Y-90393817D01*
X107437993Y-90261335D01*
X107328134Y-90169152D01*
X107328126Y-90169146D01*
X107036117Y-89977088D01*
X106723779Y-89820226D01*
X106723773Y-89820223D01*
X106395333Y-89700681D01*
X106395330Y-89700680D01*
X106055236Y-89620077D01*
X106011840Y-89615004D01*
X105708080Y-89579500D01*
X105358562Y-89579500D01*
X105054801Y-89615004D01*
X105011406Y-89620077D01*
X105011404Y-89620077D01*
X104671311Y-89700680D01*
X104671308Y-89700681D01*
X104342868Y-89820223D01*
X104342862Y-89820226D01*
X104030524Y-89977088D01*
X103738515Y-90169146D01*
X103738507Y-90169152D01*
X103470763Y-90393817D01*
X103470761Y-90393819D01*
X103230910Y-90648044D01*
X103230905Y-90648050D01*
X103022191Y-90928402D01*
X102847434Y-91231091D01*
X102847428Y-91231104D01*
X102708995Y-91552027D01*
X102608751Y-91886865D01*
X102608749Y-91886872D01*
X102548060Y-92231061D01*
X102548059Y-92231072D01*
X102527736Y-92579996D01*
X102527736Y-92580003D01*
X72400499Y-92580003D01*
X72400499Y-92053378D01*
X72394091Y-91993767D01*
X72372384Y-91935568D01*
X72343797Y-91858921D01*
X72343793Y-91858914D01*
X72257547Y-91743705D01*
X72257544Y-91743702D01*
X72142335Y-91657456D01*
X72142328Y-91657452D01*
X72007482Y-91607158D01*
X72007483Y-91607158D01*
X71947883Y-91600751D01*
X71947881Y-91600750D01*
X71947873Y-91600750D01*
X71947864Y-91600750D01*
X70052129Y-91600750D01*
X70052123Y-91600751D01*
X69992516Y-91607158D01*
X69857671Y-91657452D01*
X69857664Y-91657456D01*
X69742455Y-91743702D01*
X69742452Y-91743705D01*
X69656206Y-91858914D01*
X69656202Y-91858921D01*
X69605908Y-91993767D01*
X69601826Y-92031739D01*
X69599501Y-92053373D01*
X69599500Y-92053385D01*
X69599500Y-93866620D01*
X69599501Y-93866626D01*
X69605908Y-93926233D01*
X69656202Y-94061078D01*
X69656206Y-94061085D01*
X69742452Y-94176294D01*
X69742455Y-94176297D01*
X69849589Y-94256498D01*
X69891460Y-94312431D01*
X69896444Y-94382123D01*
X69874974Y-94429497D01*
X69797131Y-94534749D01*
X69797124Y-94534760D01*
X69692957Y-94741361D01*
X69625203Y-94962600D01*
X69595815Y-95192103D01*
X67414192Y-95192103D01*
X67425500Y-95124335D01*
X67425500Y-94875665D01*
X67384571Y-94630386D01*
X67303828Y-94395190D01*
X67296756Y-94382123D01*
X67185475Y-94176493D01*
X67185474Y-94176491D01*
X67032738Y-93980256D01*
X66849785Y-93811836D01*
X66849782Y-93811833D01*
X66641606Y-93675826D01*
X66413881Y-93575936D01*
X66172824Y-93514892D01*
X66172813Y-93514890D01*
X66007548Y-93501197D01*
X65987067Y-93499500D01*
X63862933Y-93499500D01*
X63843521Y-93501108D01*
X63677186Y-93514890D01*
X63677175Y-93514892D01*
X63436118Y-93575936D01*
X63208393Y-93675826D01*
X63000217Y-93811833D01*
X62817261Y-93980257D01*
X62664524Y-94176493D01*
X62546172Y-94395188D01*
X62546169Y-94395197D01*
X62465429Y-94630383D01*
X62442769Y-94766180D01*
X62424500Y-94875665D01*
X62424500Y-95124335D01*
X61500500Y-95124335D01*
X61500500Y-94187935D01*
X61499535Y-94176294D01*
X61485108Y-94002179D01*
X61479492Y-93980001D01*
X61424063Y-93761118D01*
X61324173Y-93533393D01*
X61188166Y-93325217D01*
X61140220Y-93273134D01*
X61019744Y-93142262D01*
X60823509Y-92989526D01*
X60823507Y-92989525D01*
X60823506Y-92989524D01*
X60604811Y-92871172D01*
X60604802Y-92871169D01*
X60369616Y-92790429D01*
X60124335Y-92749500D01*
X59875665Y-92749500D01*
X59630383Y-92790429D01*
X59395197Y-92871169D01*
X59395188Y-92871172D01*
X59176493Y-92989524D01*
X58980257Y-93142261D01*
X58811833Y-93325217D01*
X58675826Y-93533393D01*
X58575936Y-93761118D01*
X58514892Y-94002175D01*
X58514890Y-94002186D01*
X58501108Y-94168521D01*
X58500465Y-94176294D01*
X58499500Y-94187935D01*
X58499500Y-95812065D01*
X55000000Y-95812065D01*
X55000000Y-90725000D01*
X55369341Y-90725000D01*
X55389936Y-90960403D01*
X55389938Y-90960413D01*
X55451094Y-91188655D01*
X55451096Y-91188659D01*
X55451097Y-91188663D01*
X55470882Y-91231091D01*
X55550964Y-91402828D01*
X55550965Y-91402830D01*
X55686505Y-91596402D01*
X55853597Y-91763494D01*
X56047169Y-91899034D01*
X56047171Y-91899035D01*
X56261337Y-91998903D01*
X56489592Y-92060063D01*
X56666034Y-92075500D01*
X56783966Y-92075500D01*
X56960408Y-92060063D01*
X57188663Y-91998903D01*
X57402829Y-91899035D01*
X57596401Y-91763495D01*
X57763495Y-91596401D01*
X57899035Y-91402830D01*
X57998903Y-91188663D01*
X58047346Y-91007870D01*
X77449500Y-91007870D01*
X77449501Y-91007876D01*
X77455908Y-91067483D01*
X77506202Y-91202328D01*
X77506206Y-91202335D01*
X77592452Y-91317544D01*
X77592455Y-91317547D01*
X77707664Y-91403793D01*
X77707671Y-91403797D01*
X77842517Y-91454091D01*
X77842516Y-91454091D01*
X77849444Y-91454835D01*
X77902127Y-91460500D01*
X79597872Y-91460499D01*
X79657483Y-91454091D01*
X79792331Y-91403796D01*
X79907546Y-91317546D01*
X79993796Y-91202331D01*
X80044091Y-91067483D01*
X80050500Y-91007873D01*
X80050500Y-90160001D01*
X81254532Y-90160001D01*
X81274364Y-90386686D01*
X81274366Y-90386697D01*
X81333258Y-90606488D01*
X81333261Y-90606497D01*
X81429431Y-90812732D01*
X81429432Y-90812734D01*
X81559954Y-90999141D01*
X81720858Y-91160045D01*
X81720861Y-91160047D01*
X81907266Y-91290568D01*
X82113504Y-91386739D01*
X82333308Y-91445635D01*
X82495230Y-91459801D01*
X82559998Y-91465468D01*
X82560000Y-91465468D01*
X82560002Y-91465468D01*
X82616807Y-91460498D01*
X82786692Y-91445635D01*
X83006496Y-91386739D01*
X83212734Y-91290568D01*
X83399139Y-91160047D01*
X83560047Y-90999139D01*
X83690568Y-90812734D01*
X83786739Y-90606496D01*
X83845635Y-90386692D01*
X83865468Y-90160001D01*
X85064532Y-90160001D01*
X85084364Y-90386686D01*
X85084366Y-90386697D01*
X85143258Y-90606488D01*
X85143261Y-90606497D01*
X85239431Y-90812732D01*
X85239432Y-90812734D01*
X85369954Y-90999141D01*
X85530858Y-91160045D01*
X85530861Y-91160047D01*
X85717266Y-91290568D01*
X85923504Y-91386739D01*
X86143308Y-91445635D01*
X86305230Y-91459801D01*
X86369998Y-91465468D01*
X86370000Y-91465468D01*
X86370002Y-91465468D01*
X86426807Y-91460498D01*
X86596692Y-91445635D01*
X86816496Y-91386739D01*
X87022734Y-91290568D01*
X87209139Y-91160047D01*
X87370047Y-90999139D01*
X87500568Y-90812734D01*
X87504174Y-90805001D01*
X93964532Y-90805001D01*
X93984364Y-91031686D01*
X93984366Y-91031697D01*
X94043258Y-91251488D01*
X94043261Y-91251497D01*
X94139431Y-91457732D01*
X94139432Y-91457734D01*
X94269954Y-91644141D01*
X94430858Y-91805045D01*
X94430861Y-91805047D01*
X94617266Y-91935568D01*
X94823504Y-92031739D01*
X95043308Y-92090635D01*
X95205230Y-92104801D01*
X95269998Y-92110468D01*
X95270000Y-92110468D01*
X95270002Y-92110468D01*
X95326673Y-92105509D01*
X95496692Y-92090635D01*
X95716496Y-92031739D01*
X95922734Y-91935568D01*
X96109139Y-91805047D01*
X96270047Y-91644139D01*
X96400568Y-91457734D01*
X96496739Y-91251496D01*
X96555635Y-91031692D01*
X96575468Y-90805000D01*
X96555635Y-90578308D01*
X96496739Y-90358504D01*
X96400568Y-90152266D01*
X96277908Y-89977088D01*
X96270045Y-89965858D01*
X96109141Y-89804954D01*
X95922734Y-89674432D01*
X95922732Y-89674431D01*
X95716497Y-89578261D01*
X95716488Y-89578258D01*
X95496697Y-89519366D01*
X95496693Y-89519365D01*
X95496692Y-89519365D01*
X95496691Y-89519364D01*
X95496686Y-89519364D01*
X95270002Y-89499532D01*
X95269998Y-89499532D01*
X95043313Y-89519364D01*
X95043302Y-89519366D01*
X94823511Y-89578258D01*
X94823502Y-89578261D01*
X94617267Y-89674431D01*
X94617265Y-89674432D01*
X94430858Y-89804954D01*
X94269954Y-89965858D01*
X94139432Y-90152265D01*
X94139431Y-90152267D01*
X94043261Y-90358502D01*
X94043258Y-90358511D01*
X93984366Y-90578302D01*
X93984364Y-90578313D01*
X93964532Y-90804998D01*
X93964532Y-90805001D01*
X87504174Y-90805001D01*
X87596739Y-90606496D01*
X87655635Y-90386692D01*
X87675468Y-90160000D01*
X87674791Y-90152267D01*
X87665597Y-90047170D01*
X87655635Y-89933308D01*
X87596739Y-89713504D01*
X87500568Y-89507266D01*
X87370047Y-89320861D01*
X87370045Y-89320858D01*
X87209141Y-89159954D01*
X87022734Y-89029432D01*
X87022732Y-89029431D01*
X86816497Y-88933261D01*
X86816488Y-88933258D01*
X86596697Y-88874366D01*
X86596693Y-88874365D01*
X86596692Y-88874365D01*
X86596691Y-88874364D01*
X86596686Y-88874364D01*
X86370002Y-88854532D01*
X86369998Y-88854532D01*
X86143313Y-88874364D01*
X86143302Y-88874366D01*
X85923511Y-88933258D01*
X85923502Y-88933261D01*
X85717267Y-89029431D01*
X85717265Y-89029432D01*
X85530858Y-89159954D01*
X85369954Y-89320858D01*
X85239432Y-89507265D01*
X85239431Y-89507267D01*
X85143261Y-89713502D01*
X85143258Y-89713511D01*
X85084366Y-89933302D01*
X85084364Y-89933313D01*
X85064532Y-90159998D01*
X85064532Y-90160001D01*
X83865468Y-90160001D01*
X83865468Y-90160000D01*
X83864791Y-90152267D01*
X83855597Y-90047170D01*
X83845635Y-89933308D01*
X83786739Y-89713504D01*
X83690568Y-89507266D01*
X83560047Y-89320861D01*
X83560045Y-89320858D01*
X83399141Y-89159954D01*
X83212734Y-89029432D01*
X83212732Y-89029431D01*
X83006497Y-88933261D01*
X83006488Y-88933258D01*
X82786697Y-88874366D01*
X82786693Y-88874365D01*
X82786692Y-88874365D01*
X82786691Y-88874364D01*
X82786686Y-88874364D01*
X82560002Y-88854532D01*
X82559998Y-88854532D01*
X82333313Y-88874364D01*
X82333302Y-88874366D01*
X82113511Y-88933258D01*
X82113502Y-88933261D01*
X81907267Y-89029431D01*
X81907265Y-89029432D01*
X81720858Y-89159954D01*
X81559954Y-89320858D01*
X81429432Y-89507265D01*
X81429431Y-89507267D01*
X81333261Y-89713502D01*
X81333258Y-89713511D01*
X81274366Y-89933302D01*
X81274364Y-89933313D01*
X81254532Y-90159998D01*
X81254532Y-90160001D01*
X80050500Y-90160001D01*
X80050499Y-89312128D01*
X80044091Y-89252517D01*
X80009567Y-89159954D01*
X79993797Y-89117671D01*
X79993793Y-89117664D01*
X79907547Y-89002455D01*
X79907544Y-89002452D01*
X79792335Y-88916206D01*
X79792328Y-88916202D01*
X79657482Y-88865908D01*
X79657483Y-88865908D01*
X79597883Y-88859501D01*
X79597881Y-88859500D01*
X79597873Y-88859500D01*
X79597864Y-88859500D01*
X77902129Y-88859500D01*
X77902123Y-88859501D01*
X77842516Y-88865908D01*
X77707671Y-88916202D01*
X77707664Y-88916206D01*
X77592455Y-89002452D01*
X77592452Y-89002455D01*
X77506206Y-89117664D01*
X77506202Y-89117671D01*
X77455908Y-89252517D01*
X77449501Y-89312116D01*
X77449501Y-89312123D01*
X77449500Y-89312135D01*
X77449500Y-91007870D01*
X58047346Y-91007870D01*
X58060063Y-90960408D01*
X58080659Y-90725000D01*
X58060063Y-90489592D01*
X57998903Y-90261337D01*
X57899035Y-90047171D01*
X57899034Y-90047169D01*
X57763494Y-89853597D01*
X57596402Y-89686505D01*
X57402830Y-89550965D01*
X57402828Y-89550964D01*
X57292531Y-89499532D01*
X57188663Y-89451097D01*
X57188659Y-89451096D01*
X57188655Y-89451094D01*
X56960413Y-89389938D01*
X56960403Y-89389936D01*
X56783966Y-89374500D01*
X56666034Y-89374500D01*
X56489596Y-89389936D01*
X56489586Y-89389938D01*
X56261344Y-89451094D01*
X56261335Y-89451098D01*
X56047171Y-89550964D01*
X56047169Y-89550965D01*
X55853597Y-89686505D01*
X55686506Y-89853597D01*
X55686501Y-89853604D01*
X55550967Y-90047165D01*
X55550965Y-90047169D01*
X55451098Y-90261335D01*
X55451094Y-90261344D01*
X55389938Y-90489586D01*
X55389936Y-90489596D01*
X55369341Y-90724999D01*
X55369341Y-90725000D01*
X55000000Y-90725000D01*
X55000000Y-82127870D01*
X69819500Y-82127870D01*
X69819501Y-82127876D01*
X69825908Y-82187483D01*
X69876202Y-82322328D01*
X69876206Y-82322335D01*
X69962452Y-82437544D01*
X69962455Y-82437547D01*
X70077664Y-82523793D01*
X70077671Y-82523797D01*
X70212517Y-82574091D01*
X70212516Y-82574091D01*
X70219444Y-82574835D01*
X70272127Y-82580500D01*
X71967872Y-82580499D01*
X72027483Y-82574091D01*
X72162331Y-82523796D01*
X72277546Y-82437546D01*
X72363796Y-82322331D01*
X72414091Y-82187483D01*
X72420500Y-82127873D01*
X72420499Y-80432128D01*
X72414091Y-80372517D01*
X72363796Y-80237669D01*
X72363795Y-80237668D01*
X72363793Y-80237664D01*
X72277547Y-80122455D01*
X72277544Y-80122452D01*
X72162335Y-80036206D01*
X72162328Y-80036202D01*
X72027482Y-79985908D01*
X72027483Y-79985908D01*
X71967883Y-79979501D01*
X71967881Y-79979500D01*
X71967873Y-79979500D01*
X71967864Y-79979500D01*
X70272129Y-79979500D01*
X70272123Y-79979501D01*
X70212516Y-79985908D01*
X70077671Y-80036202D01*
X70077664Y-80036206D01*
X69962455Y-80122452D01*
X69962452Y-80122455D01*
X69876206Y-80237664D01*
X69876202Y-80237671D01*
X69825908Y-80372517D01*
X69819501Y-80432116D01*
X69819501Y-80432123D01*
X69819500Y-80432135D01*
X69819500Y-82127870D01*
X55000000Y-82127870D01*
X55000000Y-79637870D01*
X78659500Y-79637870D01*
X78659501Y-79637876D01*
X78665908Y-79697483D01*
X78716202Y-79832328D01*
X78716206Y-79832335D01*
X78802452Y-79947544D01*
X78802455Y-79947547D01*
X78917664Y-80033793D01*
X78917671Y-80033797D01*
X79052517Y-80084091D01*
X79052516Y-80084091D01*
X79059444Y-80084835D01*
X79112127Y-80090500D01*
X80907872Y-80090499D01*
X80967483Y-80084091D01*
X81102331Y-80033796D01*
X81217546Y-79947546D01*
X81303796Y-79832331D01*
X81352810Y-79700916D01*
X81394681Y-79644984D01*
X81460145Y-79620566D01*
X81528418Y-79635417D01*
X81556673Y-79656569D01*
X81678599Y-79778495D01*
X81775384Y-79846264D01*
X81872165Y-79914032D01*
X81872167Y-79914033D01*
X81872170Y-79914035D01*
X82086337Y-80013903D01*
X82314592Y-80075063D01*
X82491034Y-80090500D01*
X82549999Y-80095659D01*
X82550000Y-80095659D01*
X82550001Y-80095659D01*
X82608966Y-80090500D01*
X82785408Y-80075063D01*
X83013663Y-80013903D01*
X83227830Y-79914035D01*
X83421401Y-79778495D01*
X83588495Y-79611401D01*
X83718424Y-79425842D01*
X83773002Y-79382217D01*
X83842500Y-79375023D01*
X83904855Y-79406546D01*
X83921575Y-79425842D01*
X84051500Y-79611395D01*
X84051505Y-79611401D01*
X84218599Y-79778495D01*
X84315384Y-79846264D01*
X84412165Y-79914032D01*
X84412167Y-79914033D01*
X84412170Y-79914035D01*
X84626337Y-80013903D01*
X84854592Y-80075063D01*
X85031034Y-80090500D01*
X85089999Y-80095659D01*
X85090000Y-80095659D01*
X85090001Y-80095659D01*
X85148966Y-80090500D01*
X85325408Y-80075063D01*
X85553663Y-80013903D01*
X85767830Y-79914035D01*
X85961401Y-79778495D01*
X86128495Y-79611401D01*
X86264035Y-79417830D01*
X86363903Y-79203663D01*
X86425063Y-78975408D01*
X86445659Y-78740000D01*
X86425063Y-78504592D01*
X86363903Y-78276337D01*
X86264035Y-78062171D01*
X86258425Y-78054158D01*
X86128494Y-77868597D01*
X85961402Y-77701506D01*
X85961395Y-77701501D01*
X85767834Y-77565967D01*
X85767830Y-77565965D01*
X85767828Y-77565964D01*
X85553663Y-77466097D01*
X85553659Y-77466096D01*
X85553655Y-77466094D01*
X85325413Y-77404938D01*
X85325403Y-77404936D01*
X85090001Y-77384341D01*
X85089999Y-77384341D01*
X84854596Y-77404936D01*
X84854586Y-77404938D01*
X84626344Y-77466094D01*
X84626335Y-77466098D01*
X84412171Y-77565964D01*
X84412169Y-77565965D01*
X84218597Y-77701505D01*
X84051505Y-77868597D01*
X83921575Y-78054158D01*
X83866998Y-78097783D01*
X83797500Y-78104977D01*
X83735145Y-78073454D01*
X83718425Y-78054158D01*
X83588494Y-77868597D01*
X83421402Y-77701506D01*
X83421395Y-77701501D01*
X83227834Y-77565967D01*
X83227830Y-77565965D01*
X83227828Y-77565964D01*
X83013663Y-77466097D01*
X83013659Y-77466096D01*
X83013655Y-77466094D01*
X82785413Y-77404938D01*
X82785403Y-77404936D01*
X82550001Y-77384341D01*
X82549999Y-77384341D01*
X82314596Y-77404936D01*
X82314586Y-77404938D01*
X82086344Y-77466094D01*
X82086335Y-77466098D01*
X81872171Y-77565964D01*
X81872169Y-77565965D01*
X81678600Y-77701503D01*
X81556673Y-77823430D01*
X81495350Y-77856914D01*
X81425658Y-77851930D01*
X81369725Y-77810058D01*
X81352810Y-77779081D01*
X81303797Y-77647671D01*
X81303793Y-77647664D01*
X81217547Y-77532455D01*
X81217544Y-77532452D01*
X81102335Y-77446206D01*
X81102328Y-77446202D01*
X80967482Y-77395908D01*
X80967483Y-77395908D01*
X80907883Y-77389501D01*
X80907881Y-77389500D01*
X80907873Y-77389500D01*
X80907864Y-77389500D01*
X79112129Y-77389500D01*
X79112123Y-77389501D01*
X79052516Y-77395908D01*
X78917671Y-77446202D01*
X78917664Y-77446206D01*
X78802455Y-77532452D01*
X78802452Y-77532455D01*
X78716206Y-77647664D01*
X78716202Y-77647671D01*
X78665908Y-77782517D01*
X78659501Y-77842116D01*
X78659500Y-77842135D01*
X78659500Y-79637870D01*
X55000000Y-79637870D01*
X55000000Y-76210001D01*
X88874532Y-76210001D01*
X88894364Y-76436686D01*
X88894366Y-76436697D01*
X88953258Y-76656488D01*
X88953261Y-76656497D01*
X89049431Y-76862732D01*
X89049432Y-76862734D01*
X89179954Y-77049141D01*
X89340858Y-77210045D01*
X89340861Y-77210047D01*
X89527266Y-77340568D01*
X89733504Y-77436739D01*
X89733509Y-77436740D01*
X89733511Y-77436741D01*
X89786415Y-77450916D01*
X89953308Y-77495635D01*
X90115230Y-77509801D01*
X90179998Y-77515468D01*
X90180000Y-77515468D01*
X90180002Y-77515468D01*
X90236673Y-77510509D01*
X90406692Y-77495635D01*
X90626496Y-77436739D01*
X90832734Y-77340568D01*
X91019139Y-77210047D01*
X91180047Y-77049139D01*
X91310568Y-76862734D01*
X91406739Y-76656496D01*
X91465635Y-76436692D01*
X91485468Y-76210001D01*
X96494532Y-76210001D01*
X96514364Y-76436686D01*
X96514366Y-76436697D01*
X96573258Y-76656488D01*
X96573261Y-76656497D01*
X96669431Y-76862732D01*
X96669432Y-76862734D01*
X96799954Y-77049141D01*
X96960858Y-77210045D01*
X96960861Y-77210047D01*
X97147266Y-77340568D01*
X97353504Y-77436739D01*
X97353509Y-77436740D01*
X97353511Y-77436741D01*
X97406415Y-77450916D01*
X97573308Y-77495635D01*
X97735230Y-77509801D01*
X97799998Y-77515468D01*
X97800000Y-77515468D01*
X97800002Y-77515468D01*
X97856673Y-77510509D01*
X98026692Y-77495635D01*
X98246496Y-77436739D01*
X98452734Y-77340568D01*
X98639139Y-77210047D01*
X98800047Y-77049139D01*
X98930568Y-76862734D01*
X99026739Y-76656496D01*
X99085635Y-76436692D01*
X99105468Y-76210000D01*
X99085635Y-75983308D01*
X99026739Y-75763504D01*
X98930568Y-75557266D01*
X98800047Y-75370861D01*
X98800045Y-75370858D01*
X98639141Y-75209954D01*
X98452734Y-75079432D01*
X98452728Y-75079429D01*
X98394725Y-75052382D01*
X98342285Y-75006210D01*
X98323133Y-74939017D01*
X98343348Y-74872135D01*
X98394725Y-74827618D01*
X98452734Y-74800568D01*
X98639139Y-74670047D01*
X98800047Y-74509139D01*
X98930568Y-74322734D01*
X99026739Y-74116496D01*
X99085635Y-73896692D01*
X99103240Y-73695468D01*
X99105468Y-73670001D01*
X99105468Y-73669998D01*
X99094755Y-73547547D01*
X99085635Y-73443308D01*
X99030587Y-73237864D01*
X99026741Y-73223511D01*
X99026738Y-73223502D01*
X98930568Y-73017266D01*
X98800047Y-72830861D01*
X98800045Y-72830858D01*
X98639141Y-72669954D01*
X98452734Y-72539432D01*
X98452728Y-72539429D01*
X98394725Y-72512382D01*
X98342285Y-72466210D01*
X98323133Y-72399017D01*
X98343348Y-72332135D01*
X98394725Y-72287618D01*
X98452734Y-72260568D01*
X98639139Y-72130047D01*
X98800047Y-71969139D01*
X98930568Y-71782734D01*
X99026739Y-71576496D01*
X99085635Y-71356692D01*
X99104922Y-71136238D01*
X99105468Y-71130001D01*
X99105468Y-71129998D01*
X99097676Y-71040934D01*
X99085635Y-70903308D01*
X99026739Y-70683504D01*
X98930568Y-70477266D01*
X98802766Y-70294744D01*
X98800045Y-70290858D01*
X98639141Y-70129954D01*
X98452734Y-69999432D01*
X98452728Y-69999429D01*
X98425038Y-69986517D01*
X98411069Y-69980003D01*
X102527736Y-69980003D01*
X102548059Y-70328927D01*
X102548060Y-70328938D01*
X102608749Y-70673127D01*
X102608751Y-70673134D01*
X102708995Y-71007972D01*
X102847428Y-71328895D01*
X102847434Y-71328908D01*
X103022191Y-71631597D01*
X103230905Y-71911949D01*
X103230910Y-71911955D01*
X103260682Y-71943511D01*
X103470763Y-72166183D01*
X103601750Y-72276094D01*
X103738507Y-72390847D01*
X103738515Y-72390853D01*
X104030524Y-72582911D01*
X104221064Y-72678604D01*
X104342870Y-72739777D01*
X104671310Y-72859319D01*
X105011407Y-72939923D01*
X105358562Y-72980500D01*
X105358569Y-72980500D01*
X105708073Y-72980500D01*
X105708080Y-72980500D01*
X106055235Y-72939923D01*
X106395332Y-72859319D01*
X106723772Y-72739777D01*
X107036114Y-72582913D01*
X107328132Y-72390849D01*
X107595879Y-72166183D01*
X107835733Y-71911953D01*
X108044451Y-71631596D01*
X108219210Y-71328904D01*
X108357647Y-71007971D01*
X108457890Y-70673136D01*
X108476915Y-70565243D01*
X108518581Y-70328938D01*
X108518580Y-70328938D01*
X108518583Y-70328927D01*
X108538906Y-69980000D01*
X108538462Y-69972382D01*
X108534436Y-69903258D01*
X108518583Y-69631073D01*
X108511349Y-69590045D01*
X108457892Y-69286872D01*
X108457890Y-69286865D01*
X108444678Y-69242734D01*
X108357647Y-68952029D01*
X108219210Y-68631096D01*
X108044451Y-68328404D01*
X108006321Y-68277186D01*
X107835736Y-68048050D01*
X107835731Y-68048044D01*
X107649768Y-67850936D01*
X107595879Y-67793817D01*
X107447809Y-67669572D01*
X107328134Y-67569152D01*
X107328126Y-67569146D01*
X107036117Y-67377088D01*
X106723779Y-67220226D01*
X106723773Y-67220223D01*
X106395333Y-67100681D01*
X106395330Y-67100680D01*
X106055236Y-67020077D01*
X106011840Y-67015004D01*
X105708080Y-66979500D01*
X105358562Y-66979500D01*
X105054801Y-67015004D01*
X105011406Y-67020077D01*
X105011404Y-67020077D01*
X104671311Y-67100680D01*
X104671308Y-67100681D01*
X104342868Y-67220223D01*
X104342862Y-67220226D01*
X104030524Y-67377088D01*
X103738515Y-67569146D01*
X103738507Y-67569152D01*
X103470763Y-67793817D01*
X103470761Y-67793819D01*
X103230910Y-68048044D01*
X103230905Y-68048050D01*
X103022191Y-68328402D01*
X102847434Y-68631091D01*
X102847428Y-68631104D01*
X102708995Y-68952027D01*
X102608751Y-69286865D01*
X102608749Y-69286872D01*
X102548060Y-69631061D01*
X102548059Y-69631072D01*
X102527736Y-69979996D01*
X102527736Y-69980003D01*
X98411069Y-69980003D01*
X98394724Y-69972381D01*
X98342285Y-69926210D01*
X98323133Y-69859017D01*
X98343348Y-69792135D01*
X98394725Y-69747618D01*
X98452734Y-69720568D01*
X98639139Y-69590047D01*
X98800047Y-69429139D01*
X98930568Y-69242734D01*
X99026739Y-69036496D01*
X99085635Y-68816692D01*
X99105468Y-68590000D01*
X99085635Y-68363308D01*
X99026739Y-68143504D01*
X98930568Y-67937266D01*
X98800047Y-67750861D01*
X98800045Y-67750858D01*
X98639141Y-67589954D01*
X98452734Y-67459432D01*
X98452732Y-67459431D01*
X98246497Y-67363261D01*
X98246488Y-67363258D01*
X98026697Y-67304366D01*
X98026693Y-67304365D01*
X98026692Y-67304365D01*
X98026691Y-67304364D01*
X98026686Y-67304364D01*
X97800002Y-67284532D01*
X97799998Y-67284532D01*
X97573313Y-67304364D01*
X97573302Y-67304366D01*
X97353511Y-67363258D01*
X97353502Y-67363261D01*
X97147267Y-67459431D01*
X97147265Y-67459432D01*
X96960858Y-67589954D01*
X96799954Y-67750858D01*
X96669432Y-67937265D01*
X96669431Y-67937267D01*
X96573261Y-68143502D01*
X96573258Y-68143511D01*
X96514366Y-68363302D01*
X96514364Y-68363313D01*
X96494532Y-68589998D01*
X96494532Y-68590001D01*
X96514364Y-68816686D01*
X96514366Y-68816697D01*
X96573258Y-69036488D01*
X96573261Y-69036497D01*
X96669431Y-69242732D01*
X96669432Y-69242734D01*
X96799954Y-69429141D01*
X96960858Y-69590045D01*
X96960861Y-69590047D01*
X97147266Y-69720568D01*
X97205275Y-69747618D01*
X97257714Y-69793791D01*
X97276866Y-69860984D01*
X97256650Y-69927865D01*
X97205275Y-69972382D01*
X97147267Y-69999431D01*
X97147265Y-69999432D01*
X96960858Y-70129954D01*
X96799954Y-70290858D01*
X96669432Y-70477265D01*
X96669431Y-70477267D01*
X96573261Y-70683502D01*
X96573258Y-70683511D01*
X96514366Y-70903302D01*
X96514364Y-70903313D01*
X96494532Y-71129998D01*
X96494532Y-71130001D01*
X96514364Y-71356686D01*
X96514366Y-71356697D01*
X96573258Y-71576488D01*
X96573261Y-71576497D01*
X96669431Y-71782732D01*
X96669432Y-71782734D01*
X96799954Y-71969141D01*
X96960858Y-72130045D01*
X96960861Y-72130047D01*
X97147266Y-72260568D01*
X97205275Y-72287618D01*
X97257714Y-72333791D01*
X97276866Y-72400984D01*
X97256650Y-72467865D01*
X97205275Y-72512382D01*
X97147267Y-72539431D01*
X97147265Y-72539432D01*
X96960858Y-72669954D01*
X96799954Y-72830858D01*
X96669432Y-73017265D01*
X96669431Y-73017267D01*
X96573261Y-73223502D01*
X96573258Y-73223511D01*
X96514366Y-73443302D01*
X96514364Y-73443313D01*
X96494532Y-73669998D01*
X96494532Y-73670001D01*
X96514364Y-73896686D01*
X96514366Y-73896697D01*
X96573258Y-74116488D01*
X96573261Y-74116497D01*
X96669431Y-74322732D01*
X96669432Y-74322734D01*
X96799954Y-74509141D01*
X96960858Y-74670045D01*
X96960861Y-74670047D01*
X97147266Y-74800568D01*
X97205275Y-74827618D01*
X97257714Y-74873791D01*
X97276866Y-74940984D01*
X97256650Y-75007865D01*
X97205275Y-75052382D01*
X97147267Y-75079431D01*
X97147265Y-75079432D01*
X96960858Y-75209954D01*
X96799954Y-75370858D01*
X96669432Y-75557265D01*
X96669431Y-75557267D01*
X96573261Y-75763502D01*
X96573258Y-75763511D01*
X96514366Y-75983302D01*
X96514364Y-75983313D01*
X96494532Y-76209998D01*
X96494532Y-76210001D01*
X91485468Y-76210001D01*
X91485468Y-76210000D01*
X91465635Y-75983308D01*
X91406739Y-75763504D01*
X91310568Y-75557266D01*
X91180047Y-75370861D01*
X91180045Y-75370858D01*
X91019141Y-75209954D01*
X90832734Y-75079432D01*
X90832728Y-75079429D01*
X90774725Y-75052382D01*
X90722285Y-75006210D01*
X90703133Y-74939017D01*
X90723348Y-74872135D01*
X90774725Y-74827618D01*
X90832734Y-74800568D01*
X91019139Y-74670047D01*
X91180047Y-74509139D01*
X91310568Y-74322734D01*
X91406739Y-74116496D01*
X91465635Y-73896692D01*
X91483240Y-73695468D01*
X91485468Y-73670001D01*
X91485468Y-73669998D01*
X91474755Y-73547547D01*
X91465635Y-73443308D01*
X91410587Y-73237864D01*
X91406741Y-73223511D01*
X91406738Y-73223502D01*
X91310568Y-73017266D01*
X91180047Y-72830861D01*
X91180045Y-72830858D01*
X91019141Y-72669954D01*
X90832734Y-72539432D01*
X90832728Y-72539429D01*
X90774725Y-72512382D01*
X90722285Y-72466210D01*
X90703133Y-72399017D01*
X90723348Y-72332135D01*
X90774725Y-72287618D01*
X90832734Y-72260568D01*
X91019139Y-72130047D01*
X91180047Y-71969139D01*
X91310568Y-71782734D01*
X91406739Y-71576496D01*
X91465635Y-71356692D01*
X91484922Y-71136238D01*
X91485468Y-71130001D01*
X91485468Y-71129998D01*
X91477676Y-71040934D01*
X91465635Y-70903308D01*
X91406739Y-70683504D01*
X91310568Y-70477266D01*
X91182766Y-70294744D01*
X91180045Y-70290858D01*
X91019141Y-70129954D01*
X90832734Y-69999432D01*
X90832732Y-69999431D01*
X90626497Y-69903261D01*
X90626488Y-69903258D01*
X90406697Y-69844366D01*
X90406693Y-69844365D01*
X90406692Y-69844365D01*
X90406691Y-69844364D01*
X90406686Y-69844364D01*
X90180002Y-69824532D01*
X90179998Y-69824532D01*
X89953313Y-69844364D01*
X89953302Y-69844366D01*
X89733511Y-69903258D01*
X89733502Y-69903261D01*
X89527267Y-69999431D01*
X89527265Y-69999432D01*
X89340858Y-70129954D01*
X89179954Y-70290858D01*
X89049432Y-70477265D01*
X89049431Y-70477267D01*
X88953261Y-70683502D01*
X88953258Y-70683511D01*
X88894366Y-70903302D01*
X88894364Y-70903313D01*
X88874532Y-71129998D01*
X88874532Y-71130001D01*
X88894364Y-71356686D01*
X88894366Y-71356697D01*
X88953258Y-71576488D01*
X88953261Y-71576497D01*
X89049431Y-71782732D01*
X89049432Y-71782734D01*
X89179954Y-71969141D01*
X89340858Y-72130045D01*
X89340861Y-72130047D01*
X89527266Y-72260568D01*
X89585275Y-72287618D01*
X89637714Y-72333791D01*
X89656866Y-72400984D01*
X89636650Y-72467865D01*
X89585275Y-72512382D01*
X89527267Y-72539431D01*
X89527265Y-72539432D01*
X89340858Y-72669954D01*
X89179954Y-72830858D01*
X89049432Y-73017265D01*
X89049431Y-73017267D01*
X88953261Y-73223502D01*
X88953258Y-73223511D01*
X88894366Y-73443302D01*
X88894364Y-73443313D01*
X88874532Y-73669998D01*
X88874532Y-73670001D01*
X88894364Y-73896686D01*
X88894366Y-73896697D01*
X88953258Y-74116488D01*
X88953261Y-74116497D01*
X89049431Y-74322732D01*
X89049432Y-74322734D01*
X89179954Y-74509141D01*
X89340858Y-74670045D01*
X89340861Y-74670047D01*
X89527266Y-74800568D01*
X89585275Y-74827618D01*
X89637714Y-74873791D01*
X89656866Y-74940984D01*
X89636650Y-75007865D01*
X89585275Y-75052382D01*
X89527267Y-75079431D01*
X89527265Y-75079432D01*
X89340858Y-75209954D01*
X89179954Y-75370858D01*
X89049432Y-75557265D01*
X89049431Y-75557267D01*
X88953261Y-75763502D01*
X88953258Y-75763511D01*
X88894366Y-75983302D01*
X88894364Y-75983313D01*
X88874532Y-76209998D01*
X88874532Y-76210001D01*
X55000000Y-76210001D01*
X55000000Y-73550000D01*
X55369341Y-73550000D01*
X55389936Y-73785403D01*
X55389938Y-73785413D01*
X55451094Y-74013655D01*
X55451096Y-74013659D01*
X55451097Y-74013663D01*
X55499045Y-74116488D01*
X55550964Y-74227828D01*
X55550965Y-74227830D01*
X55686505Y-74421402D01*
X55853597Y-74588494D01*
X56047169Y-74724034D01*
X56047171Y-74724035D01*
X56261337Y-74823903D01*
X56261343Y-74823904D01*
X56261344Y-74823905D01*
X56316285Y-74838626D01*
X56489592Y-74885063D01*
X56666034Y-74900500D01*
X56783966Y-74900500D01*
X56960408Y-74885063D01*
X57188663Y-74823903D01*
X57402829Y-74724035D01*
X57596401Y-74588495D01*
X57763495Y-74421401D01*
X57899035Y-74227830D01*
X57998903Y-74013663D01*
X58060063Y-73785408D01*
X58080659Y-73550000D01*
X58060063Y-73314592D01*
X57998903Y-73086337D01*
X57899035Y-72872171D01*
X57899034Y-72872169D01*
X57763494Y-72678597D01*
X57596402Y-72511505D01*
X57422876Y-72390001D01*
X77434532Y-72390001D01*
X77454364Y-72616686D01*
X77454366Y-72616697D01*
X77513258Y-72836488D01*
X77513261Y-72836497D01*
X77609431Y-73042732D01*
X77609432Y-73042734D01*
X77739954Y-73229141D01*
X77900858Y-73390045D01*
X77900861Y-73390047D01*
X78087266Y-73520568D01*
X78293504Y-73616739D01*
X78513308Y-73675635D01*
X78675230Y-73689801D01*
X78739998Y-73695468D01*
X78740000Y-73695468D01*
X78740002Y-73695468D01*
X78796807Y-73690498D01*
X78966692Y-73675635D01*
X79186496Y-73616739D01*
X79392734Y-73520568D01*
X79579139Y-73390047D01*
X79731316Y-73237870D01*
X81249500Y-73237870D01*
X81249501Y-73237876D01*
X81255908Y-73297483D01*
X81306202Y-73432328D01*
X81306206Y-73432335D01*
X81392452Y-73547544D01*
X81392455Y-73547547D01*
X81507664Y-73633793D01*
X81507671Y-73633797D01*
X81642517Y-73684091D01*
X81642516Y-73684091D01*
X81649444Y-73684835D01*
X81702127Y-73690500D01*
X83397872Y-73690499D01*
X83457483Y-73684091D01*
X83592331Y-73633796D01*
X83707546Y-73547546D01*
X83793796Y-73432331D01*
X83844091Y-73297483D01*
X83850500Y-73237873D01*
X83850500Y-72390001D01*
X85054532Y-72390001D01*
X85074364Y-72616686D01*
X85074366Y-72616697D01*
X85133258Y-72836488D01*
X85133261Y-72836497D01*
X85229431Y-73042732D01*
X85229432Y-73042734D01*
X85359954Y-73229141D01*
X85520858Y-73390045D01*
X85520861Y-73390047D01*
X85707266Y-73520568D01*
X85913504Y-73616739D01*
X86133308Y-73675635D01*
X86295230Y-73689801D01*
X86359998Y-73695468D01*
X86360000Y-73695468D01*
X86360002Y-73695468D01*
X86416807Y-73690498D01*
X86586692Y-73675635D01*
X86806496Y-73616739D01*
X87012734Y-73520568D01*
X87199139Y-73390047D01*
X87360047Y-73229139D01*
X87490568Y-73042734D01*
X87586739Y-72836496D01*
X87645635Y-72616692D01*
X87665468Y-72390000D01*
X87645635Y-72163308D01*
X87586739Y-71943504D01*
X87490568Y-71737266D01*
X87360047Y-71550861D01*
X87360045Y-71550858D01*
X87199141Y-71389954D01*
X87012734Y-71259432D01*
X87012732Y-71259431D01*
X86806497Y-71163261D01*
X86806488Y-71163258D01*
X86586697Y-71104366D01*
X86586693Y-71104365D01*
X86586692Y-71104365D01*
X86586691Y-71104364D01*
X86586686Y-71104364D01*
X86360002Y-71084532D01*
X86359998Y-71084532D01*
X86133313Y-71104364D01*
X86133302Y-71104366D01*
X85913511Y-71163258D01*
X85913502Y-71163261D01*
X85707267Y-71259431D01*
X85707265Y-71259432D01*
X85520858Y-71389954D01*
X85359954Y-71550858D01*
X85229432Y-71737265D01*
X85229431Y-71737267D01*
X85133261Y-71943502D01*
X85133258Y-71943511D01*
X85074366Y-72163302D01*
X85074364Y-72163313D01*
X85054532Y-72389998D01*
X85054532Y-72390001D01*
X83850500Y-72390001D01*
X83850499Y-71542128D01*
X83844091Y-71482517D01*
X83809567Y-71389954D01*
X83793797Y-71347671D01*
X83793793Y-71347664D01*
X83707547Y-71232455D01*
X83707544Y-71232452D01*
X83592335Y-71146206D01*
X83592328Y-71146202D01*
X83457482Y-71095908D01*
X83457483Y-71095908D01*
X83397883Y-71089501D01*
X83397881Y-71089500D01*
X83397873Y-71089500D01*
X83397864Y-71089500D01*
X81702129Y-71089500D01*
X81702123Y-71089501D01*
X81642516Y-71095908D01*
X81507671Y-71146202D01*
X81507664Y-71146206D01*
X81392455Y-71232452D01*
X81392452Y-71232455D01*
X81306206Y-71347664D01*
X81306202Y-71347671D01*
X81255908Y-71482517D01*
X81249501Y-71542116D01*
X81249501Y-71542123D01*
X81249500Y-71542135D01*
X81249500Y-73237870D01*
X79731316Y-73237870D01*
X79740047Y-73229139D01*
X79870568Y-73042734D01*
X79966739Y-72836496D01*
X80025635Y-72616692D01*
X80045468Y-72390000D01*
X80025635Y-72163308D01*
X79966739Y-71943504D01*
X79870568Y-71737266D01*
X79740047Y-71550861D01*
X79740045Y-71550858D01*
X79579141Y-71389954D01*
X79392734Y-71259432D01*
X79392732Y-71259431D01*
X79186497Y-71163261D01*
X79186488Y-71163258D01*
X78966697Y-71104366D01*
X78966693Y-71104365D01*
X78966692Y-71104365D01*
X78966691Y-71104364D01*
X78966686Y-71104364D01*
X78740002Y-71084532D01*
X78739998Y-71084532D01*
X78513313Y-71104364D01*
X78513302Y-71104366D01*
X78293511Y-71163258D01*
X78293502Y-71163261D01*
X78087267Y-71259431D01*
X78087265Y-71259432D01*
X77900858Y-71389954D01*
X77739954Y-71550858D01*
X77609432Y-71737265D01*
X77609431Y-71737267D01*
X77513261Y-71943502D01*
X77513258Y-71943511D01*
X77454366Y-72163302D01*
X77454364Y-72163313D01*
X77434532Y-72389998D01*
X77434532Y-72390001D01*
X57422876Y-72390001D01*
X57402830Y-72375965D01*
X57402828Y-72375964D01*
X57295746Y-72326030D01*
X57188663Y-72276097D01*
X57188659Y-72276096D01*
X57188655Y-72276094D01*
X56960413Y-72214938D01*
X56960403Y-72214936D01*
X56783966Y-72199500D01*
X56666034Y-72199500D01*
X56489596Y-72214936D01*
X56489586Y-72214938D01*
X56261344Y-72276094D01*
X56261335Y-72276098D01*
X56047171Y-72375964D01*
X56047169Y-72375965D01*
X55853597Y-72511505D01*
X55686506Y-72678597D01*
X55686501Y-72678604D01*
X55550967Y-72872165D01*
X55550965Y-72872169D01*
X55451098Y-73086335D01*
X55451094Y-73086344D01*
X55389938Y-73314586D01*
X55389936Y-73314596D01*
X55369341Y-73549999D01*
X55369341Y-73550000D01*
X55000000Y-73550000D01*
X55000000Y-70087065D01*
X58499500Y-70087065D01*
X58514890Y-70272813D01*
X58514892Y-70272824D01*
X58575936Y-70513881D01*
X58675826Y-70741606D01*
X58811833Y-70949782D01*
X58811836Y-70949785D01*
X58980256Y-71132738D01*
X59176491Y-71285474D01*
X59395190Y-71403828D01*
X59630386Y-71484571D01*
X59875665Y-71525500D01*
X60124335Y-71525500D01*
X60369614Y-71484571D01*
X60604810Y-71403828D01*
X60823509Y-71285474D01*
X61019744Y-71132738D01*
X61188164Y-70949785D01*
X61324173Y-70741607D01*
X61424063Y-70513881D01*
X61485108Y-70272821D01*
X61500500Y-70087067D01*
X61500500Y-69399334D01*
X62424500Y-69399334D01*
X62465429Y-69644616D01*
X62546169Y-69879802D01*
X62546172Y-69879811D01*
X62658334Y-70087067D01*
X62664526Y-70098509D01*
X62817262Y-70294744D01*
X62976744Y-70441557D01*
X63000217Y-70463166D01*
X63208393Y-70599173D01*
X63436118Y-70699063D01*
X63642267Y-70751267D01*
X63677179Y-70760108D01*
X63677181Y-70760108D01*
X63677186Y-70760109D01*
X63810376Y-70771145D01*
X63862933Y-70775500D01*
X63862935Y-70775500D01*
X65987065Y-70775500D01*
X65987067Y-70775500D01*
X66048284Y-70770427D01*
X66172813Y-70760109D01*
X66172816Y-70760108D01*
X66172821Y-70760108D01*
X66413881Y-70699063D01*
X66641607Y-70599173D01*
X66849785Y-70463164D01*
X67032738Y-70294744D01*
X67185474Y-70098509D01*
X67303828Y-69879810D01*
X67333938Y-69792103D01*
X69595815Y-69792103D01*
X69605634Y-70023269D01*
X69605634Y-70023270D01*
X69654382Y-70249460D01*
X69740651Y-70464148D01*
X69740653Y-70464152D01*
X69861966Y-70661177D01*
X69895310Y-70699063D01*
X70014828Y-70834863D01*
X70014835Y-70834870D01*
X70194846Y-70980218D01*
X70194852Y-70980223D01*
X70396846Y-71093064D01*
X70428831Y-71104365D01*
X70615011Y-71170146D01*
X70742265Y-71191966D01*
X70843052Y-71209249D01*
X70843061Y-71209250D01*
X71098991Y-71209250D01*
X71271790Y-71194543D01*
X71271793Y-71194542D01*
X71271795Y-71194542D01*
X71495707Y-71136239D01*
X71495708Y-71136238D01*
X71495710Y-71136238D01*
X71706536Y-71040939D01*
X71706539Y-71040936D01*
X71706546Y-71040934D01*
X71898245Y-70911368D01*
X72065290Y-70751269D01*
X72202875Y-70565241D01*
X72307043Y-70358637D01*
X72374796Y-70137401D01*
X72404185Y-69907897D01*
X72399267Y-69792135D01*
X72394365Y-69676730D01*
X72394365Y-69676729D01*
X72384525Y-69631073D01*
X72345618Y-69450542D01*
X72337018Y-69429141D01*
X72259348Y-69235851D01*
X72259347Y-69235848D01*
X72138034Y-69038823D01*
X72138031Y-69038820D01*
X72138031Y-69038819D01*
X72134887Y-69035247D01*
X72105376Y-68971915D01*
X72114789Y-68902683D01*
X72153661Y-68854063D01*
X72257546Y-68776296D01*
X72343796Y-68661081D01*
X72394091Y-68526233D01*
X72400500Y-68466623D01*
X72400499Y-66653378D01*
X72394091Y-66593767D01*
X72343796Y-66458919D01*
X72343795Y-66458918D01*
X72343793Y-66458914D01*
X72257547Y-66343705D01*
X72257544Y-66343702D01*
X72142335Y-66257456D01*
X72142328Y-66257452D01*
X72007482Y-66207158D01*
X72007483Y-66207158D01*
X71947883Y-66200751D01*
X71947881Y-66200750D01*
X71947873Y-66200750D01*
X71947864Y-66200750D01*
X70052129Y-66200750D01*
X70052123Y-66200751D01*
X69992516Y-66207158D01*
X69857671Y-66257452D01*
X69857664Y-66257456D01*
X69742455Y-66343702D01*
X69742452Y-66343705D01*
X69656206Y-66458914D01*
X69656202Y-66458921D01*
X69605908Y-66593767D01*
X69600751Y-66641738D01*
X69599501Y-66653373D01*
X69599500Y-66653385D01*
X69599500Y-68466620D01*
X69599501Y-68466626D01*
X69605908Y-68526233D01*
X69656202Y-68661078D01*
X69656206Y-68661085D01*
X69742452Y-68776294D01*
X69742455Y-68776297D01*
X69849589Y-68856498D01*
X69891460Y-68912431D01*
X69896444Y-68982123D01*
X69874974Y-69029497D01*
X69797131Y-69134749D01*
X69797124Y-69134760D01*
X69692957Y-69341361D01*
X69625203Y-69562600D01*
X69595815Y-69792103D01*
X67333938Y-69792103D01*
X67384571Y-69644614D01*
X67425500Y-69399335D01*
X67425500Y-69150665D01*
X67384571Y-68905386D01*
X67303828Y-68670190D01*
X67298898Y-68661081D01*
X67185475Y-68451493D01*
X67185474Y-68451491D01*
X67032738Y-68255256D01*
X66849785Y-68086836D01*
X66849782Y-68086833D01*
X66641606Y-67950826D01*
X66413881Y-67850936D01*
X66172824Y-67789892D01*
X66172813Y-67789890D01*
X66007548Y-67776197D01*
X65987067Y-67774500D01*
X63862933Y-67774500D01*
X63843521Y-67776108D01*
X63677186Y-67789890D01*
X63677175Y-67789892D01*
X63436118Y-67850936D01*
X63208393Y-67950826D01*
X63000217Y-68086833D01*
X62817261Y-68255257D01*
X62664524Y-68451493D01*
X62546172Y-68670188D01*
X62546169Y-68670197D01*
X62465429Y-68905383D01*
X62424500Y-69150665D01*
X62424500Y-69399334D01*
X61500500Y-69399334D01*
X61500500Y-68462933D01*
X61489353Y-68328404D01*
X61485109Y-68277186D01*
X61485107Y-68277175D01*
X61424063Y-68036118D01*
X61324173Y-67808393D01*
X61188166Y-67600217D01*
X61166557Y-67576744D01*
X61019744Y-67417262D01*
X60823509Y-67264526D01*
X60823507Y-67264525D01*
X60823506Y-67264524D01*
X60604811Y-67146172D01*
X60604802Y-67146169D01*
X60369616Y-67065429D01*
X60124335Y-67024500D01*
X59875665Y-67024500D01*
X59630383Y-67065429D01*
X59395197Y-67146169D01*
X59395188Y-67146172D01*
X59176493Y-67264524D01*
X58980257Y-67417261D01*
X58811833Y-67600217D01*
X58675826Y-67808393D01*
X58575936Y-68036118D01*
X58514892Y-68277175D01*
X58514890Y-68277186D01*
X58499500Y-68462935D01*
X58499500Y-70087065D01*
X55000000Y-70087065D01*
X55000000Y-65000000D01*
X55369341Y-65000000D01*
X55389936Y-65235403D01*
X55389938Y-65235413D01*
X55451094Y-65463655D01*
X55451096Y-65463659D01*
X55451097Y-65463663D01*
X55501031Y-65570746D01*
X55550964Y-65677828D01*
X55550965Y-65677830D01*
X55686505Y-65871402D01*
X55853597Y-66038494D01*
X56047169Y-66174034D01*
X56047171Y-66174035D01*
X56261337Y-66273903D01*
X56489592Y-66335063D01*
X56666034Y-66350500D01*
X56783966Y-66350500D01*
X56960408Y-66335063D01*
X57188663Y-66273903D01*
X57402829Y-66174035D01*
X57596401Y-66038495D01*
X57763495Y-65871401D01*
X57899035Y-65677830D01*
X57926995Y-65617870D01*
X77439500Y-65617870D01*
X77439501Y-65617876D01*
X77445908Y-65677483D01*
X77496202Y-65812328D01*
X77496206Y-65812335D01*
X77582452Y-65927544D01*
X77582455Y-65927547D01*
X77697664Y-66013793D01*
X77697671Y-66013797D01*
X77832517Y-66064091D01*
X77832516Y-66064091D01*
X77839444Y-66064835D01*
X77892127Y-66070500D01*
X79587872Y-66070499D01*
X79647483Y-66064091D01*
X79782331Y-66013796D01*
X79897546Y-65927546D01*
X79983796Y-65812331D01*
X80034091Y-65677483D01*
X80040500Y-65617873D01*
X80040500Y-64770001D01*
X81244532Y-64770001D01*
X81264364Y-64996686D01*
X81264366Y-64996697D01*
X81323258Y-65216488D01*
X81323261Y-65216497D01*
X81419431Y-65422732D01*
X81419432Y-65422734D01*
X81549954Y-65609141D01*
X81710858Y-65770045D01*
X81710861Y-65770047D01*
X81897266Y-65900568D01*
X82103504Y-65996739D01*
X82323308Y-66055635D01*
X82485230Y-66069801D01*
X82549998Y-66075468D01*
X82550000Y-66075468D01*
X82550002Y-66075468D01*
X82606807Y-66070498D01*
X82776692Y-66055635D01*
X82996496Y-65996739D01*
X83202734Y-65900568D01*
X83389139Y-65770047D01*
X83550047Y-65609139D01*
X83680568Y-65422734D01*
X83776739Y-65216496D01*
X83835635Y-64996692D01*
X83855468Y-64770001D01*
X85054532Y-64770001D01*
X85074364Y-64996686D01*
X85074366Y-64996697D01*
X85133258Y-65216488D01*
X85133261Y-65216497D01*
X85229431Y-65422732D01*
X85229432Y-65422734D01*
X85359954Y-65609141D01*
X85520858Y-65770045D01*
X85520861Y-65770047D01*
X85707266Y-65900568D01*
X85913504Y-65996739D01*
X86133308Y-66055635D01*
X86295230Y-66069801D01*
X86359998Y-66075468D01*
X86360000Y-66075468D01*
X86360002Y-66075468D01*
X86416807Y-66070498D01*
X86586692Y-66055635D01*
X86806496Y-65996739D01*
X87012734Y-65900568D01*
X87199139Y-65770047D01*
X87360047Y-65609139D01*
X87490568Y-65422734D01*
X87494174Y-65415001D01*
X93904532Y-65415001D01*
X93924364Y-65641686D01*
X93924366Y-65641697D01*
X93983258Y-65861488D01*
X93983261Y-65861497D01*
X94079431Y-66067732D01*
X94079432Y-66067734D01*
X94209954Y-66254141D01*
X94370858Y-66415045D01*
X94370861Y-66415047D01*
X94557266Y-66545568D01*
X94763504Y-66641739D01*
X94763509Y-66641740D01*
X94763511Y-66641741D01*
X94806945Y-66653379D01*
X94983308Y-66700635D01*
X95145230Y-66714801D01*
X95209998Y-66720468D01*
X95210000Y-66720468D01*
X95210002Y-66720468D01*
X95266673Y-66715509D01*
X95436692Y-66700635D01*
X95656496Y-66641739D01*
X95862734Y-66545568D01*
X96049139Y-66415047D01*
X96210047Y-66254139D01*
X96340568Y-66067734D01*
X96436739Y-65861496D01*
X96495635Y-65641692D01*
X96515468Y-65415000D01*
X96495635Y-65188308D01*
X96436739Y-64968504D01*
X96340568Y-64762266D01*
X96210047Y-64575861D01*
X96210045Y-64575858D01*
X96049141Y-64414954D01*
X95862734Y-64284432D01*
X95862732Y-64284431D01*
X95656497Y-64188261D01*
X95656488Y-64188258D01*
X95436697Y-64129366D01*
X95436693Y-64129365D01*
X95436692Y-64129365D01*
X95436691Y-64129364D01*
X95436686Y-64129364D01*
X95210002Y-64109532D01*
X95209998Y-64109532D01*
X94983313Y-64129364D01*
X94983302Y-64129366D01*
X94763511Y-64188258D01*
X94763502Y-64188261D01*
X94557267Y-64284431D01*
X94557265Y-64284432D01*
X94370858Y-64414954D01*
X94209954Y-64575858D01*
X94079432Y-64762265D01*
X94079431Y-64762267D01*
X93983261Y-64968502D01*
X93983258Y-64968511D01*
X93924366Y-65188302D01*
X93924364Y-65188313D01*
X93904532Y-65414998D01*
X93904532Y-65415001D01*
X87494174Y-65415001D01*
X87586739Y-65216496D01*
X87645635Y-64996692D01*
X87665468Y-64770000D01*
X87664791Y-64762267D01*
X87648483Y-64575861D01*
X87645635Y-64543308D01*
X87586739Y-64323504D01*
X87490568Y-64117266D01*
X87360047Y-63930861D01*
X87360045Y-63930858D01*
X87199141Y-63769954D01*
X87012734Y-63639432D01*
X87012732Y-63639431D01*
X86806497Y-63543261D01*
X86806488Y-63543258D01*
X86586697Y-63484366D01*
X86586693Y-63484365D01*
X86586692Y-63484365D01*
X86586691Y-63484364D01*
X86586686Y-63484364D01*
X86360002Y-63464532D01*
X86359998Y-63464532D01*
X86133313Y-63484364D01*
X86133302Y-63484366D01*
X85913511Y-63543258D01*
X85913502Y-63543261D01*
X85707267Y-63639431D01*
X85707265Y-63639432D01*
X85520858Y-63769954D01*
X85359954Y-63930858D01*
X85229432Y-64117265D01*
X85229431Y-64117267D01*
X85133261Y-64323502D01*
X85133258Y-64323511D01*
X85074366Y-64543302D01*
X85074364Y-64543313D01*
X85054532Y-64769998D01*
X85054532Y-64770001D01*
X83855468Y-64770001D01*
X83855468Y-64770000D01*
X83854791Y-64762267D01*
X83838483Y-64575861D01*
X83835635Y-64543308D01*
X83776739Y-64323504D01*
X83680568Y-64117266D01*
X83550047Y-63930861D01*
X83550045Y-63930858D01*
X83389141Y-63769954D01*
X83202734Y-63639432D01*
X83202732Y-63639431D01*
X82996497Y-63543261D01*
X82996488Y-63543258D01*
X82776697Y-63484366D01*
X82776693Y-63484365D01*
X82776692Y-63484365D01*
X82776691Y-63484364D01*
X82776686Y-63484364D01*
X82550002Y-63464532D01*
X82549998Y-63464532D01*
X82323313Y-63484364D01*
X82323302Y-63484366D01*
X82103511Y-63543258D01*
X82103502Y-63543261D01*
X81897267Y-63639431D01*
X81897265Y-63639432D01*
X81710858Y-63769954D01*
X81549954Y-63930858D01*
X81419432Y-64117265D01*
X81419431Y-64117267D01*
X81323261Y-64323502D01*
X81323258Y-64323511D01*
X81264366Y-64543302D01*
X81264364Y-64543313D01*
X81244532Y-64769998D01*
X81244532Y-64770001D01*
X80040500Y-64770001D01*
X80040499Y-63922128D01*
X80034091Y-63862517D01*
X79999567Y-63769954D01*
X79983797Y-63727671D01*
X79983793Y-63727664D01*
X79897547Y-63612455D01*
X79897544Y-63612452D01*
X79782335Y-63526206D01*
X79782328Y-63526202D01*
X79647482Y-63475908D01*
X79647483Y-63475908D01*
X79587883Y-63469501D01*
X79587881Y-63469500D01*
X79587873Y-63469500D01*
X79587864Y-63469500D01*
X77892129Y-63469500D01*
X77892123Y-63469501D01*
X77832516Y-63475908D01*
X77697671Y-63526202D01*
X77697664Y-63526206D01*
X77582455Y-63612452D01*
X77582452Y-63612455D01*
X77496206Y-63727664D01*
X77496202Y-63727671D01*
X77445908Y-63862517D01*
X77439501Y-63922116D01*
X77439501Y-63922123D01*
X77439500Y-63922135D01*
X77439500Y-65617870D01*
X57926995Y-65617870D01*
X57998903Y-65463663D01*
X58060063Y-65235408D01*
X58080659Y-65000000D01*
X58060063Y-64764592D01*
X58009493Y-64575861D01*
X57998905Y-64536344D01*
X57998904Y-64536343D01*
X57998903Y-64536337D01*
X57899035Y-64322171D01*
X57899034Y-64322169D01*
X57763494Y-64128597D01*
X57596402Y-63961505D01*
X57402830Y-63825965D01*
X57402828Y-63825964D01*
X57282712Y-63769953D01*
X57188663Y-63726097D01*
X57188659Y-63726096D01*
X57188655Y-63726094D01*
X56960413Y-63664938D01*
X56960403Y-63664936D01*
X56783966Y-63649500D01*
X56666034Y-63649500D01*
X56489596Y-63664936D01*
X56489586Y-63664938D01*
X56261344Y-63726094D01*
X56261335Y-63726098D01*
X56047171Y-63825964D01*
X56047169Y-63825965D01*
X55853597Y-63961505D01*
X55686506Y-64128597D01*
X55686501Y-64128604D01*
X55550967Y-64322165D01*
X55550965Y-64322169D01*
X55451098Y-64536335D01*
X55451094Y-64536344D01*
X55389938Y-64764586D01*
X55389936Y-64764596D01*
X55369341Y-64999999D01*
X55369341Y-65000000D01*
X55000000Y-65000000D01*
X55000000Y-63092870D01*
X103409500Y-63092870D01*
X103409501Y-63092876D01*
X103415908Y-63152483D01*
X103466202Y-63287328D01*
X103466206Y-63287335D01*
X103552452Y-63402544D01*
X103552455Y-63402547D01*
X103667664Y-63488793D01*
X103667671Y-63488797D01*
X103802517Y-63539091D01*
X103802516Y-63539091D01*
X103809444Y-63539835D01*
X103862127Y-63545500D01*
X106957872Y-63545499D01*
X107017483Y-63539091D01*
X107152331Y-63488796D01*
X107267546Y-63402546D01*
X107353796Y-63287331D01*
X107404091Y-63152483D01*
X107410500Y-63092873D01*
X107410499Y-59997128D01*
X107404091Y-59937517D01*
X107353796Y-59802669D01*
X107353795Y-59802668D01*
X107353793Y-59802664D01*
X107267547Y-59687455D01*
X107267544Y-59687452D01*
X107152335Y-59601206D01*
X107152328Y-59601202D01*
X107017482Y-59550908D01*
X107017483Y-59550908D01*
X106957883Y-59544501D01*
X106957881Y-59544500D01*
X106957873Y-59544500D01*
X106957864Y-59544500D01*
X103862129Y-59544500D01*
X103862123Y-59544501D01*
X103802516Y-59550908D01*
X103667671Y-59601202D01*
X103667664Y-59601206D01*
X103552455Y-59687452D01*
X103552452Y-59687455D01*
X103466206Y-59802664D01*
X103466202Y-59802671D01*
X103415908Y-59937517D01*
X103409501Y-59997116D01*
X103409501Y-59997123D01*
X103409500Y-59997135D01*
X103409500Y-63092870D01*
X55000000Y-63092870D01*
X55000000Y-56727870D01*
X69819500Y-56727870D01*
X69819501Y-56727876D01*
X69825908Y-56787483D01*
X69876202Y-56922328D01*
X69876206Y-56922335D01*
X69962452Y-57037544D01*
X69962455Y-57037547D01*
X70077664Y-57123793D01*
X70077671Y-57123797D01*
X70212517Y-57174091D01*
X70212516Y-57174091D01*
X70219444Y-57174835D01*
X70272127Y-57180500D01*
X71967872Y-57180499D01*
X72027483Y-57174091D01*
X72162331Y-57123796D01*
X72277546Y-57037546D01*
X72363796Y-56922331D01*
X72414091Y-56787483D01*
X72420500Y-56727873D01*
X72420499Y-55032128D01*
X72414091Y-54972517D01*
X72363796Y-54837669D01*
X72363795Y-54837668D01*
X72363793Y-54837664D01*
X72277547Y-54722455D01*
X72277544Y-54722452D01*
X72162335Y-54636206D01*
X72162328Y-54636202D01*
X72027482Y-54585908D01*
X72027483Y-54585908D01*
X71967883Y-54579501D01*
X71967881Y-54579500D01*
X71967873Y-54579500D01*
X71967864Y-54579500D01*
X70272129Y-54579500D01*
X70272123Y-54579501D01*
X70212516Y-54585908D01*
X70077671Y-54636202D01*
X70077664Y-54636206D01*
X69962455Y-54722452D01*
X69962452Y-54722455D01*
X69876206Y-54837664D01*
X69876202Y-54837671D01*
X69825908Y-54972517D01*
X69819501Y-55032116D01*
X69819501Y-55032123D01*
X69819500Y-55032135D01*
X69819500Y-56727870D01*
X55000000Y-56727870D01*
X55000000Y-53925007D01*
X103154671Y-53925007D01*
X103173964Y-54219363D01*
X103173965Y-54219373D01*
X103173966Y-54219380D01*
X103173968Y-54219390D01*
X103231518Y-54508716D01*
X103231521Y-54508730D01*
X103326349Y-54788080D01*
X103456825Y-55052660D01*
X103456829Y-55052667D01*
X103620725Y-55297955D01*
X103815241Y-55519758D01*
X104037043Y-55714273D01*
X104282335Y-55878172D01*
X104546923Y-56008652D01*
X104826278Y-56103481D01*
X105115620Y-56161034D01*
X105143888Y-56162886D01*
X105409993Y-56180329D01*
X105410000Y-56180329D01*
X105410007Y-56180329D01*
X105645675Y-56164881D01*
X105704380Y-56161034D01*
X105993722Y-56103481D01*
X106273077Y-56008652D01*
X106537665Y-55878172D01*
X106782957Y-55714273D01*
X107004758Y-55519758D01*
X107199273Y-55297957D01*
X107363172Y-55052665D01*
X107493652Y-54788077D01*
X107588481Y-54508722D01*
X107646034Y-54219380D01*
X107665329Y-53925000D01*
X107665329Y-53924992D01*
X107646035Y-53630636D01*
X107646034Y-53630620D01*
X107588481Y-53341278D01*
X107493652Y-53061923D01*
X107363172Y-52797336D01*
X107199273Y-52552043D01*
X107156655Y-52503447D01*
X107004758Y-52330241D01*
X106782955Y-52135725D01*
X106537667Y-51971829D01*
X106537660Y-51971825D01*
X106273080Y-51841349D01*
X105993730Y-51746521D01*
X105993724Y-51746519D01*
X105993722Y-51746519D01*
X105704380Y-51688966D01*
X105704373Y-51688965D01*
X105704363Y-51688964D01*
X105410007Y-51669671D01*
X105409993Y-51669671D01*
X105115636Y-51688964D01*
X105115624Y-51688965D01*
X105115620Y-51688966D01*
X105115612Y-51688967D01*
X105115609Y-51688968D01*
X104826283Y-51746518D01*
X104826269Y-51746521D01*
X104546919Y-51841349D01*
X104282334Y-51971828D01*
X104037041Y-52135728D01*
X103815241Y-52330241D01*
X103620728Y-52552041D01*
X103456828Y-52797334D01*
X103326349Y-53061919D01*
X103231521Y-53341269D01*
X103231518Y-53341283D01*
X103173968Y-53630609D01*
X103173964Y-53630636D01*
X103154671Y-53924992D01*
X103154671Y-53925007D01*
X55000000Y-53925007D01*
X55000000Y-52967870D01*
X78659500Y-52967870D01*
X78659501Y-52967876D01*
X78665908Y-53027483D01*
X78716202Y-53162328D01*
X78716206Y-53162335D01*
X78802452Y-53277544D01*
X78802455Y-53277547D01*
X78917664Y-53363793D01*
X78917671Y-53363797D01*
X79052517Y-53414091D01*
X79052516Y-53414091D01*
X79059444Y-53414835D01*
X79112127Y-53420500D01*
X80907872Y-53420499D01*
X80967483Y-53414091D01*
X81102331Y-53363796D01*
X81217546Y-53277546D01*
X81303796Y-53162331D01*
X81352810Y-53030916D01*
X81394681Y-52974984D01*
X81460145Y-52950566D01*
X81528418Y-52965417D01*
X81556672Y-52986569D01*
X81678599Y-53108495D01*
X81775384Y-53176265D01*
X81872165Y-53244032D01*
X81872167Y-53244033D01*
X81872170Y-53244035D01*
X82086337Y-53343903D01*
X82314592Y-53405063D01*
X82491034Y-53420500D01*
X82549999Y-53425659D01*
X82550000Y-53425659D01*
X82550001Y-53425659D01*
X82608966Y-53420500D01*
X82785408Y-53405063D01*
X83013663Y-53343903D01*
X83227830Y-53244035D01*
X83421401Y-53108495D01*
X83588495Y-52941401D01*
X83718424Y-52755842D01*
X83773002Y-52712217D01*
X83842500Y-52705023D01*
X83904855Y-52736546D01*
X83921575Y-52755842D01*
X84051500Y-52941395D01*
X84051505Y-52941401D01*
X84218599Y-53108495D01*
X84315384Y-53176264D01*
X84412165Y-53244032D01*
X84412167Y-53244033D01*
X84412170Y-53244035D01*
X84626337Y-53343903D01*
X84854592Y-53405063D01*
X85031034Y-53420500D01*
X85089999Y-53425659D01*
X85090000Y-53425659D01*
X85090001Y-53425659D01*
X85148966Y-53420500D01*
X85325408Y-53405063D01*
X85553663Y-53343903D01*
X85767830Y-53244035D01*
X85961401Y-53108495D01*
X86128495Y-52941401D01*
X86264035Y-52747830D01*
X86363903Y-52533663D01*
X86425063Y-52305408D01*
X86445659Y-52070000D01*
X86425063Y-51834592D01*
X86363903Y-51606337D01*
X86264035Y-51392171D01*
X86258425Y-51384158D01*
X86128494Y-51198597D01*
X85961402Y-51031506D01*
X85961395Y-51031501D01*
X85767834Y-50895967D01*
X85767830Y-50895965D01*
X85767829Y-50895964D01*
X85583480Y-50810001D01*
X88874532Y-50810001D01*
X88894364Y-51036686D01*
X88894366Y-51036697D01*
X88953258Y-51256488D01*
X88953261Y-51256497D01*
X89049431Y-51462732D01*
X89049432Y-51462734D01*
X89179954Y-51649141D01*
X89340858Y-51810045D01*
X89340861Y-51810047D01*
X89527266Y-51940568D01*
X89733504Y-52036739D01*
X89953308Y-52095635D01*
X90115230Y-52109801D01*
X90179998Y-52115468D01*
X90180000Y-52115468D01*
X90180002Y-52115468D01*
X90236673Y-52110509D01*
X90406692Y-52095635D01*
X90626496Y-52036739D01*
X90832734Y-51940568D01*
X91019139Y-51810047D01*
X91180047Y-51649139D01*
X91310568Y-51462734D01*
X91406739Y-51256496D01*
X91465635Y-51036692D01*
X91485468Y-50810001D01*
X96494532Y-50810001D01*
X96514364Y-51036686D01*
X96514366Y-51036697D01*
X96573258Y-51256488D01*
X96573261Y-51256497D01*
X96669431Y-51462732D01*
X96669432Y-51462734D01*
X96799954Y-51649141D01*
X96960858Y-51810045D01*
X96960861Y-51810047D01*
X97147266Y-51940568D01*
X97353504Y-52036739D01*
X97573308Y-52095635D01*
X97735230Y-52109801D01*
X97799998Y-52115468D01*
X97800000Y-52115468D01*
X97800002Y-52115468D01*
X97856673Y-52110509D01*
X98026692Y-52095635D01*
X98246496Y-52036739D01*
X98452734Y-51940568D01*
X98639139Y-51810047D01*
X98800047Y-51649139D01*
X98930568Y-51462734D01*
X99026739Y-51256496D01*
X99085635Y-51036692D01*
X99105468Y-50810000D01*
X99104251Y-50796094D01*
X99085635Y-50583313D01*
X99085635Y-50583308D01*
X99026739Y-50363504D01*
X98930568Y-50157266D01*
X98800047Y-49970861D01*
X98800045Y-49970858D01*
X98639141Y-49809954D01*
X98452734Y-49679432D01*
X98452728Y-49679429D01*
X98394725Y-49652382D01*
X98342285Y-49606210D01*
X98323133Y-49539017D01*
X98343348Y-49472135D01*
X98394725Y-49427618D01*
X98452734Y-49400568D01*
X98639139Y-49270047D01*
X98800047Y-49109139D01*
X98930568Y-48922734D01*
X99026739Y-48716496D01*
X99085635Y-48496692D01*
X99103240Y-48295468D01*
X99105468Y-48270001D01*
X99105468Y-48269998D01*
X99094755Y-48147547D01*
X99086034Y-48047870D01*
X102909500Y-48047870D01*
X102909501Y-48047876D01*
X102915908Y-48107483D01*
X102966202Y-48242328D01*
X102966206Y-48242335D01*
X103052452Y-48357544D01*
X103052455Y-48357547D01*
X103167664Y-48443793D01*
X103167671Y-48443797D01*
X103302517Y-48494091D01*
X103302516Y-48494091D01*
X103309444Y-48494835D01*
X103362127Y-48500500D01*
X107457872Y-48500499D01*
X107517483Y-48494091D01*
X107652331Y-48443796D01*
X107767546Y-48357546D01*
X107853796Y-48242331D01*
X107904091Y-48107483D01*
X107910500Y-48047873D01*
X107910499Y-45952128D01*
X107904091Y-45892517D01*
X107881689Y-45832455D01*
X107853797Y-45757671D01*
X107853793Y-45757664D01*
X107767547Y-45642455D01*
X107767544Y-45642452D01*
X107652335Y-45556206D01*
X107652328Y-45556202D01*
X107517482Y-45505908D01*
X107517483Y-45505908D01*
X107457883Y-45499501D01*
X107457881Y-45499500D01*
X107457873Y-45499500D01*
X107457864Y-45499500D01*
X103362129Y-45499500D01*
X103362123Y-45499501D01*
X103302516Y-45505908D01*
X103167671Y-45556202D01*
X103167664Y-45556206D01*
X103052455Y-45642452D01*
X103052452Y-45642455D01*
X102966206Y-45757664D01*
X102966202Y-45757671D01*
X102915908Y-45892517D01*
X102909980Y-45947664D01*
X102909501Y-45952123D01*
X102909500Y-45952135D01*
X102909500Y-48047870D01*
X99086034Y-48047870D01*
X99085635Y-48043308D01*
X99030587Y-47837864D01*
X99026741Y-47823511D01*
X99026738Y-47823502D01*
X98964675Y-47690408D01*
X98930568Y-47617266D01*
X98816949Y-47455000D01*
X98800045Y-47430858D01*
X98639141Y-47269954D01*
X98452734Y-47139432D01*
X98452728Y-47139429D01*
X98394725Y-47112382D01*
X98342285Y-47066210D01*
X98323133Y-46999017D01*
X98343348Y-46932135D01*
X98394725Y-46887618D01*
X98452734Y-46860568D01*
X98639139Y-46730047D01*
X98800047Y-46569139D01*
X98930568Y-46382734D01*
X99026739Y-46176496D01*
X99085635Y-45956692D01*
X99105468Y-45730000D01*
X99102485Y-45695909D01*
X99097809Y-45642454D01*
X99085635Y-45503308D01*
X99026739Y-45283504D01*
X98930568Y-45077266D01*
X98800047Y-44890861D01*
X98800045Y-44890858D01*
X98639141Y-44729954D01*
X98486783Y-44623273D01*
X98452734Y-44599432D01*
X98394722Y-44572380D01*
X98342284Y-44526208D01*
X98323133Y-44459014D01*
X98343349Y-44392133D01*
X98394721Y-44347619D01*
X98452734Y-44320568D01*
X98639139Y-44190047D01*
X98800047Y-44029139D01*
X98930568Y-43842734D01*
X99026739Y-43636496D01*
X99085635Y-43416692D01*
X99105468Y-43190000D01*
X99085635Y-42963308D01*
X99026739Y-42743504D01*
X98930568Y-42537266D01*
X98800047Y-42350861D01*
X98800045Y-42350858D01*
X98639141Y-42189954D01*
X98452734Y-42059432D01*
X98452732Y-42059431D01*
X98246497Y-41963261D01*
X98246488Y-41963258D01*
X98026697Y-41904366D01*
X98026693Y-41904365D01*
X98026692Y-41904365D01*
X98026691Y-41904364D01*
X98026686Y-41904364D01*
X97800002Y-41884532D01*
X97799998Y-41884532D01*
X97573313Y-41904364D01*
X97573302Y-41904366D01*
X97353511Y-41963258D01*
X97353502Y-41963261D01*
X97147267Y-42059431D01*
X97147265Y-42059432D01*
X96960858Y-42189954D01*
X96799954Y-42350858D01*
X96669432Y-42537265D01*
X96669431Y-42537267D01*
X96573261Y-42743502D01*
X96573258Y-42743511D01*
X96514366Y-42963302D01*
X96514364Y-42963313D01*
X96494532Y-43189998D01*
X96494532Y-43190001D01*
X96514364Y-43416686D01*
X96514366Y-43416697D01*
X96573258Y-43636488D01*
X96573261Y-43636497D01*
X96669431Y-43842732D01*
X96669432Y-43842734D01*
X96799954Y-44029141D01*
X96960858Y-44190045D01*
X96960861Y-44190047D01*
X97147266Y-44320568D01*
X97205275Y-44347618D01*
X97257714Y-44393791D01*
X97276866Y-44460984D01*
X97256650Y-44527865D01*
X97205275Y-44572382D01*
X97147267Y-44599431D01*
X97147265Y-44599432D01*
X96960858Y-44729954D01*
X96799954Y-44890858D01*
X96669432Y-45077265D01*
X96669431Y-45077267D01*
X96573261Y-45283502D01*
X96573258Y-45283511D01*
X96514366Y-45503302D01*
X96514364Y-45503313D01*
X96494532Y-45729998D01*
X96494532Y-45730001D01*
X96514364Y-45956686D01*
X96514366Y-45956697D01*
X96573258Y-46176488D01*
X96573261Y-46176497D01*
X96669431Y-46382732D01*
X96669432Y-46382734D01*
X96799954Y-46569141D01*
X96960858Y-46730045D01*
X96960861Y-46730047D01*
X97147266Y-46860568D01*
X97205275Y-46887618D01*
X97257714Y-46933791D01*
X97276866Y-47000984D01*
X97256650Y-47067865D01*
X97205275Y-47112382D01*
X97147267Y-47139431D01*
X97147265Y-47139432D01*
X96960858Y-47269954D01*
X96799954Y-47430858D01*
X96669432Y-47617265D01*
X96669431Y-47617267D01*
X96573261Y-47823502D01*
X96573258Y-47823511D01*
X96514366Y-48043302D01*
X96514364Y-48043313D01*
X96494532Y-48269998D01*
X96494532Y-48270001D01*
X96514364Y-48496686D01*
X96514366Y-48496697D01*
X96573258Y-48716488D01*
X96573261Y-48716497D01*
X96669431Y-48922732D01*
X96669432Y-48922734D01*
X96799954Y-49109141D01*
X96960858Y-49270045D01*
X96960861Y-49270047D01*
X97147266Y-49400568D01*
X97205275Y-49427618D01*
X97257714Y-49473791D01*
X97276866Y-49540984D01*
X97256650Y-49607865D01*
X97205275Y-49652382D01*
X97147267Y-49679431D01*
X97147265Y-49679432D01*
X96960858Y-49809954D01*
X96799954Y-49970858D01*
X96669432Y-50157265D01*
X96669431Y-50157267D01*
X96573261Y-50363502D01*
X96573258Y-50363511D01*
X96514366Y-50583302D01*
X96514364Y-50583313D01*
X96494532Y-50809998D01*
X96494532Y-50810001D01*
X91485468Y-50810001D01*
X91485468Y-50810000D01*
X91484251Y-50796094D01*
X91465635Y-50583313D01*
X91465635Y-50583308D01*
X91406739Y-50363504D01*
X91310568Y-50157266D01*
X91180047Y-49970861D01*
X91180045Y-49970858D01*
X91019141Y-49809954D01*
X90832734Y-49679432D01*
X90832728Y-49679429D01*
X90774725Y-49652382D01*
X90722285Y-49606210D01*
X90703133Y-49539017D01*
X90723348Y-49472135D01*
X90774725Y-49427618D01*
X90832734Y-49400568D01*
X91019139Y-49270047D01*
X91180047Y-49109139D01*
X91310568Y-48922734D01*
X91406739Y-48716496D01*
X91465635Y-48496692D01*
X91483240Y-48295468D01*
X91485468Y-48270001D01*
X91485468Y-48269998D01*
X91474755Y-48147547D01*
X91465635Y-48043308D01*
X91410587Y-47837864D01*
X91406741Y-47823511D01*
X91406738Y-47823502D01*
X91344675Y-47690408D01*
X91310568Y-47617266D01*
X91196949Y-47455000D01*
X91180045Y-47430858D01*
X91019141Y-47269954D01*
X90832734Y-47139432D01*
X90832728Y-47139429D01*
X90774725Y-47112382D01*
X90722285Y-47066210D01*
X90703133Y-46999017D01*
X90723348Y-46932135D01*
X90774725Y-46887618D01*
X90832734Y-46860568D01*
X91019139Y-46730047D01*
X91180047Y-46569139D01*
X91310568Y-46382734D01*
X91406739Y-46176496D01*
X91465635Y-45956692D01*
X91485468Y-45730000D01*
X91482485Y-45695909D01*
X91477809Y-45642454D01*
X91465635Y-45503308D01*
X91406739Y-45283504D01*
X91310568Y-45077266D01*
X91180047Y-44890861D01*
X91180045Y-44890858D01*
X91019141Y-44729954D01*
X90832734Y-44599432D01*
X90832732Y-44599431D01*
X90626497Y-44503261D01*
X90626488Y-44503258D01*
X90406697Y-44444366D01*
X90406693Y-44444365D01*
X90406692Y-44444365D01*
X90406691Y-44444364D01*
X90406686Y-44444364D01*
X90180002Y-44424532D01*
X90179998Y-44424532D01*
X89953313Y-44444364D01*
X89953302Y-44444366D01*
X89733511Y-44503258D01*
X89733502Y-44503261D01*
X89527267Y-44599431D01*
X89527265Y-44599432D01*
X89340858Y-44729954D01*
X89179954Y-44890858D01*
X89049432Y-45077265D01*
X89049431Y-45077267D01*
X88953261Y-45283502D01*
X88953258Y-45283511D01*
X88894366Y-45503302D01*
X88894364Y-45503313D01*
X88874532Y-45729998D01*
X88874532Y-45730001D01*
X88894364Y-45956686D01*
X88894366Y-45956697D01*
X88953258Y-46176488D01*
X88953261Y-46176497D01*
X89049431Y-46382732D01*
X89049432Y-46382734D01*
X89179954Y-46569141D01*
X89340858Y-46730045D01*
X89340861Y-46730047D01*
X89527266Y-46860568D01*
X89585275Y-46887618D01*
X89637714Y-46933791D01*
X89656866Y-47000984D01*
X89636650Y-47067865D01*
X89585275Y-47112382D01*
X89527267Y-47139431D01*
X89527265Y-47139432D01*
X89340858Y-47269954D01*
X89179954Y-47430858D01*
X89049432Y-47617265D01*
X89049431Y-47617267D01*
X88953261Y-47823502D01*
X88953258Y-47823511D01*
X88894366Y-48043302D01*
X88894364Y-48043313D01*
X88874532Y-48269998D01*
X88874532Y-48270001D01*
X88894364Y-48496686D01*
X88894366Y-48496697D01*
X88953258Y-48716488D01*
X88953261Y-48716497D01*
X89049431Y-48922732D01*
X89049432Y-48922734D01*
X89179954Y-49109141D01*
X89340858Y-49270045D01*
X89340861Y-49270047D01*
X89527266Y-49400568D01*
X89585275Y-49427618D01*
X89637714Y-49473791D01*
X89656866Y-49540984D01*
X89636650Y-49607865D01*
X89585275Y-49652382D01*
X89527267Y-49679431D01*
X89527265Y-49679432D01*
X89340858Y-49809954D01*
X89179954Y-49970858D01*
X89049432Y-50157265D01*
X89049431Y-50157267D01*
X88953261Y-50363502D01*
X88953258Y-50363511D01*
X88894366Y-50583302D01*
X88894364Y-50583313D01*
X88874532Y-50809998D01*
X88874532Y-50810001D01*
X85583480Y-50810001D01*
X85553663Y-50796097D01*
X85553659Y-50796096D01*
X85553655Y-50796094D01*
X85325413Y-50734938D01*
X85325403Y-50734936D01*
X85090001Y-50714341D01*
X85089999Y-50714341D01*
X84854596Y-50734936D01*
X84854586Y-50734938D01*
X84626344Y-50796094D01*
X84626335Y-50796098D01*
X84412171Y-50895964D01*
X84412169Y-50895965D01*
X84218597Y-51031505D01*
X84051505Y-51198597D01*
X83921575Y-51384158D01*
X83866998Y-51427783D01*
X83797500Y-51434977D01*
X83735145Y-51403454D01*
X83718425Y-51384158D01*
X83588494Y-51198597D01*
X83421402Y-51031506D01*
X83421395Y-51031501D01*
X83227834Y-50895967D01*
X83227830Y-50895965D01*
X83227829Y-50895964D01*
X83013663Y-50796097D01*
X83013659Y-50796096D01*
X83013655Y-50796094D01*
X82785413Y-50734938D01*
X82785403Y-50734936D01*
X82550001Y-50714341D01*
X82549999Y-50714341D01*
X82314596Y-50734936D01*
X82314586Y-50734938D01*
X82086344Y-50796094D01*
X82086335Y-50796098D01*
X81872171Y-50895964D01*
X81872169Y-50895965D01*
X81678600Y-51031503D01*
X81556673Y-51153430D01*
X81495350Y-51186914D01*
X81425658Y-51181930D01*
X81369725Y-51140058D01*
X81352810Y-51109081D01*
X81303797Y-50977671D01*
X81303793Y-50977664D01*
X81217547Y-50862455D01*
X81217544Y-50862452D01*
X81102335Y-50776206D01*
X81102328Y-50776202D01*
X80967482Y-50725908D01*
X80967483Y-50725908D01*
X80907883Y-50719501D01*
X80907881Y-50719500D01*
X80907873Y-50719500D01*
X80907864Y-50719500D01*
X79112129Y-50719500D01*
X79112123Y-50719501D01*
X79052516Y-50725908D01*
X78917671Y-50776202D01*
X78917664Y-50776206D01*
X78802455Y-50862452D01*
X78802452Y-50862455D01*
X78716206Y-50977664D01*
X78716202Y-50977671D01*
X78665908Y-51112517D01*
X78659501Y-51172116D01*
X78659500Y-51172135D01*
X78659500Y-52967870D01*
X55000000Y-52967870D01*
X55000000Y-47455000D01*
X55369341Y-47455000D01*
X55389936Y-47690403D01*
X55389938Y-47690413D01*
X55451094Y-47918655D01*
X55451096Y-47918659D01*
X55451097Y-47918663D01*
X55484383Y-47990045D01*
X55550964Y-48132828D01*
X55550965Y-48132830D01*
X55686505Y-48326402D01*
X55853597Y-48493494D01*
X56047169Y-48629034D01*
X56047171Y-48629035D01*
X56261337Y-48728903D01*
X56489592Y-48790063D01*
X56666034Y-48805500D01*
X56783966Y-48805500D01*
X56960408Y-48790063D01*
X57188663Y-48728903D01*
X57402829Y-48629035D01*
X57596401Y-48493495D01*
X57763495Y-48326401D01*
X57899035Y-48132830D01*
X57998903Y-47918663D01*
X58060063Y-47690408D01*
X58080659Y-47455000D01*
X58060063Y-47219592D01*
X57998903Y-46991337D01*
X57998280Y-46990001D01*
X77434532Y-46990001D01*
X77454364Y-47216686D01*
X77454366Y-47216697D01*
X77513258Y-47436488D01*
X77513261Y-47436497D01*
X77609431Y-47642732D01*
X77609432Y-47642734D01*
X77739954Y-47829141D01*
X77900858Y-47990045D01*
X77900861Y-47990047D01*
X78087266Y-48120568D01*
X78293504Y-48216739D01*
X78513308Y-48275635D01*
X78675230Y-48289801D01*
X78739998Y-48295468D01*
X78740000Y-48295468D01*
X78740002Y-48295468D01*
X78796807Y-48290498D01*
X78966692Y-48275635D01*
X79186496Y-48216739D01*
X79392734Y-48120568D01*
X79579139Y-47990047D01*
X79731316Y-47837870D01*
X81249500Y-47837870D01*
X81249501Y-47837876D01*
X81255908Y-47897483D01*
X81306202Y-48032328D01*
X81306206Y-48032335D01*
X81392452Y-48147544D01*
X81392455Y-48147547D01*
X81507664Y-48233793D01*
X81507671Y-48233797D01*
X81642517Y-48284091D01*
X81642516Y-48284091D01*
X81649444Y-48284835D01*
X81702127Y-48290500D01*
X83397872Y-48290499D01*
X83457483Y-48284091D01*
X83592331Y-48233796D01*
X83707546Y-48147546D01*
X83793796Y-48032331D01*
X83844091Y-47897483D01*
X83850500Y-47837873D01*
X83850500Y-46990001D01*
X85054532Y-46990001D01*
X85074364Y-47216686D01*
X85074366Y-47216697D01*
X85133258Y-47436488D01*
X85133261Y-47436497D01*
X85229431Y-47642732D01*
X85229432Y-47642734D01*
X85359954Y-47829141D01*
X85520858Y-47990045D01*
X85520861Y-47990047D01*
X85707266Y-48120568D01*
X85913504Y-48216739D01*
X86133308Y-48275635D01*
X86295230Y-48289801D01*
X86359998Y-48295468D01*
X86360000Y-48295468D01*
X86360002Y-48295468D01*
X86416807Y-48290498D01*
X86586692Y-48275635D01*
X86806496Y-48216739D01*
X87012734Y-48120568D01*
X87199139Y-47990047D01*
X87360047Y-47829139D01*
X87490568Y-47642734D01*
X87586739Y-47436496D01*
X87645635Y-47216692D01*
X87665468Y-46990000D01*
X87645635Y-46763308D01*
X87586739Y-46543504D01*
X87490568Y-46337266D01*
X87360047Y-46150861D01*
X87360045Y-46150858D01*
X87199141Y-45989954D01*
X87012734Y-45859432D01*
X87012732Y-45859431D01*
X86806497Y-45763261D01*
X86806488Y-45763258D01*
X86586697Y-45704366D01*
X86586693Y-45704365D01*
X86586692Y-45704365D01*
X86586691Y-45704364D01*
X86586686Y-45704364D01*
X86360002Y-45684532D01*
X86359998Y-45684532D01*
X86133313Y-45704364D01*
X86133302Y-45704366D01*
X85913511Y-45763258D01*
X85913502Y-45763261D01*
X85707267Y-45859431D01*
X85707265Y-45859432D01*
X85520858Y-45989954D01*
X85359954Y-46150858D01*
X85229432Y-46337265D01*
X85229431Y-46337267D01*
X85133261Y-46543502D01*
X85133258Y-46543511D01*
X85074366Y-46763302D01*
X85074364Y-46763313D01*
X85054532Y-46989998D01*
X85054532Y-46990001D01*
X83850500Y-46990001D01*
X83850499Y-46142128D01*
X83844091Y-46082517D01*
X83809567Y-45989954D01*
X83793797Y-45947671D01*
X83793793Y-45947664D01*
X83707547Y-45832455D01*
X83707544Y-45832452D01*
X83592335Y-45746206D01*
X83592328Y-45746202D01*
X83457482Y-45695908D01*
X83457483Y-45695908D01*
X83397883Y-45689501D01*
X83397881Y-45689500D01*
X83397873Y-45689500D01*
X83397864Y-45689500D01*
X81702129Y-45689500D01*
X81702123Y-45689501D01*
X81642516Y-45695908D01*
X81507671Y-45746202D01*
X81507664Y-45746206D01*
X81392455Y-45832452D01*
X81392452Y-45832455D01*
X81306206Y-45947664D01*
X81306202Y-45947671D01*
X81255908Y-46082517D01*
X81249501Y-46142116D01*
X81249501Y-46142123D01*
X81249500Y-46142135D01*
X81249500Y-47837870D01*
X79731316Y-47837870D01*
X79740047Y-47829139D01*
X79870568Y-47642734D01*
X79966739Y-47436496D01*
X80025635Y-47216692D01*
X80045468Y-46990000D01*
X80025635Y-46763308D01*
X79966739Y-46543504D01*
X79870568Y-46337266D01*
X79740047Y-46150861D01*
X79740045Y-46150858D01*
X79579141Y-45989954D01*
X79392734Y-45859432D01*
X79392732Y-45859431D01*
X79186497Y-45763261D01*
X79186488Y-45763258D01*
X78966697Y-45704366D01*
X78966693Y-45704365D01*
X78966692Y-45704365D01*
X78966691Y-45704364D01*
X78966686Y-45704364D01*
X78740002Y-45684532D01*
X78739998Y-45684532D01*
X78513313Y-45704364D01*
X78513302Y-45704366D01*
X78293511Y-45763258D01*
X78293502Y-45763261D01*
X78087267Y-45859431D01*
X78087265Y-45859432D01*
X77900858Y-45989954D01*
X77739954Y-46150858D01*
X77609432Y-46337265D01*
X77609431Y-46337267D01*
X77513261Y-46543502D01*
X77513258Y-46543511D01*
X77454366Y-46763302D01*
X77454364Y-46763313D01*
X77434532Y-46989998D01*
X77434532Y-46990001D01*
X57998280Y-46990001D01*
X57899035Y-46777171D01*
X57899034Y-46777169D01*
X57763494Y-46583597D01*
X57596402Y-46416505D01*
X57402830Y-46280965D01*
X57402828Y-46280964D01*
X57295746Y-46231030D01*
X57188663Y-46181097D01*
X57188659Y-46181096D01*
X57188655Y-46181094D01*
X56960413Y-46119938D01*
X56960403Y-46119936D01*
X56783966Y-46104500D01*
X56666034Y-46104500D01*
X56489596Y-46119936D01*
X56489586Y-46119938D01*
X56261344Y-46181094D01*
X56261335Y-46181098D01*
X56047171Y-46280964D01*
X56047169Y-46280965D01*
X55853597Y-46416505D01*
X55686506Y-46583597D01*
X55686501Y-46583604D01*
X55550967Y-46777165D01*
X55550965Y-46777169D01*
X55512076Y-46860567D01*
X55451721Y-46990000D01*
X55451098Y-46991335D01*
X55451094Y-46991344D01*
X55389938Y-47219586D01*
X55389936Y-47219596D01*
X55369341Y-47454999D01*
X55369341Y-47455000D01*
X55000000Y-47455000D01*
X55000000Y-43992065D01*
X58499500Y-43992065D01*
X58514890Y-44177813D01*
X58514892Y-44177824D01*
X58575936Y-44418881D01*
X58675826Y-44646606D01*
X58811833Y-44854782D01*
X58811836Y-44854785D01*
X58980256Y-45037738D01*
X59176491Y-45190474D01*
X59395190Y-45308828D01*
X59630386Y-45389571D01*
X59875665Y-45430500D01*
X60124335Y-45430500D01*
X60369614Y-45389571D01*
X60604810Y-45308828D01*
X60823509Y-45190474D01*
X61019744Y-45037738D01*
X61188164Y-44854785D01*
X61324173Y-44646607D01*
X61424063Y-44418881D01*
X61485108Y-44177821D01*
X61486370Y-44162600D01*
X61500500Y-43992065D01*
X61500500Y-43304334D01*
X62424500Y-43304334D01*
X62465429Y-43549616D01*
X62546169Y-43784802D01*
X62546172Y-43784811D01*
X62658334Y-43992067D01*
X62664526Y-44003509D01*
X62817262Y-44199744D01*
X62948511Y-44320567D01*
X63000217Y-44368166D01*
X63208393Y-44504173D01*
X63436118Y-44604063D01*
X63677175Y-44665107D01*
X63677179Y-44665108D01*
X63677181Y-44665108D01*
X63677186Y-44665109D01*
X63810376Y-44676145D01*
X63862933Y-44680500D01*
X63862935Y-44680500D01*
X65987065Y-44680500D01*
X65987067Y-44680500D01*
X66048284Y-44675427D01*
X66172813Y-44665109D01*
X66172816Y-44665108D01*
X66172821Y-44665108D01*
X66413881Y-44604063D01*
X66641607Y-44504173D01*
X66813144Y-44392103D01*
X69715815Y-44392103D01*
X69725634Y-44623269D01*
X69725634Y-44623270D01*
X69774382Y-44849460D01*
X69850039Y-45037738D01*
X69860653Y-45064152D01*
X69981966Y-45261177D01*
X70023903Y-45308827D01*
X70134828Y-45434863D01*
X70134835Y-45434870D01*
X70314846Y-45580218D01*
X70314852Y-45580223D01*
X70516846Y-45693064D01*
X70548831Y-45704365D01*
X70735011Y-45770146D01*
X70862265Y-45791966D01*
X70963052Y-45809249D01*
X70963061Y-45809250D01*
X71218991Y-45809250D01*
X71391790Y-45794543D01*
X71391793Y-45794542D01*
X71391795Y-45794542D01*
X71615707Y-45736239D01*
X71615708Y-45736238D01*
X71615710Y-45736238D01*
X71826536Y-45640939D01*
X71826539Y-45640936D01*
X71826546Y-45640934D01*
X72018245Y-45511368D01*
X72185290Y-45351269D01*
X72322875Y-45165241D01*
X72427043Y-44958637D01*
X72494796Y-44737401D01*
X72524185Y-44507897D01*
X72522108Y-44459014D01*
X72514365Y-44276730D01*
X72514365Y-44276729D01*
X72497773Y-44199744D01*
X72465618Y-44050542D01*
X72457018Y-44029141D01*
X72379348Y-43835851D01*
X72379347Y-43835848D01*
X72258034Y-43638823D01*
X72258031Y-43638820D01*
X72258031Y-43638819D01*
X72254887Y-43635247D01*
X72225376Y-43571915D01*
X72234789Y-43502683D01*
X72273661Y-43454063D01*
X72377546Y-43376296D01*
X72463796Y-43261081D01*
X72514091Y-43126233D01*
X72520500Y-43066623D01*
X72520499Y-41253378D01*
X72514091Y-41193767D01*
X72486789Y-41120567D01*
X72463797Y-41058921D01*
X72463793Y-41058914D01*
X72377547Y-40943705D01*
X72377544Y-40943702D01*
X72262335Y-40857456D01*
X72262328Y-40857452D01*
X72127482Y-40807158D01*
X72127483Y-40807158D01*
X72067883Y-40800751D01*
X72067881Y-40800750D01*
X72067873Y-40800750D01*
X72067864Y-40800750D01*
X70172129Y-40800750D01*
X70172123Y-40800751D01*
X70112516Y-40807158D01*
X69977671Y-40857452D01*
X69977664Y-40857456D01*
X69862455Y-40943702D01*
X69862452Y-40943705D01*
X69776206Y-41058914D01*
X69776202Y-41058921D01*
X69725908Y-41193767D01*
X69719501Y-41253366D01*
X69719501Y-41253373D01*
X69719500Y-41253385D01*
X69719500Y-43066620D01*
X69719501Y-43066626D01*
X69725908Y-43126233D01*
X69776202Y-43261078D01*
X69776206Y-43261085D01*
X69862452Y-43376294D01*
X69862455Y-43376297D01*
X69969589Y-43456498D01*
X70011460Y-43512431D01*
X70016444Y-43582123D01*
X69994974Y-43629497D01*
X69917131Y-43734749D01*
X69917124Y-43734760D01*
X69812957Y-43941361D01*
X69745203Y-44162600D01*
X69715815Y-44392103D01*
X66813144Y-44392103D01*
X66849785Y-44368164D01*
X67032738Y-44199744D01*
X67185474Y-44003509D01*
X67303828Y-43784810D01*
X67384571Y-43549614D01*
X67425500Y-43304335D01*
X67425500Y-43055665D01*
X67384571Y-42810386D01*
X67303828Y-42575190D01*
X67185474Y-42356491D01*
X67032738Y-42160256D01*
X66849785Y-41991836D01*
X66849782Y-41991833D01*
X66641606Y-41855826D01*
X66413881Y-41755936D01*
X66172824Y-41694892D01*
X66172813Y-41694890D01*
X66007548Y-41681197D01*
X65987067Y-41679500D01*
X63862933Y-41679500D01*
X63843521Y-41681108D01*
X63677186Y-41694890D01*
X63677175Y-41694892D01*
X63436118Y-41755936D01*
X63208393Y-41855826D01*
X63000217Y-41991833D01*
X62817261Y-42160257D01*
X62664524Y-42356493D01*
X62546172Y-42575188D01*
X62546169Y-42575197D01*
X62465429Y-42810383D01*
X62424500Y-43055665D01*
X62424500Y-43304334D01*
X61500500Y-43304334D01*
X61500500Y-42367935D01*
X61485109Y-42182186D01*
X61485107Y-42182175D01*
X61424063Y-41941118D01*
X61324173Y-41713393D01*
X61188166Y-41505217D01*
X61152622Y-41466606D01*
X61019744Y-41322262D01*
X60823509Y-41169526D01*
X60823507Y-41169525D01*
X60823506Y-41169524D01*
X60604811Y-41051172D01*
X60604802Y-41051169D01*
X60369616Y-40970429D01*
X60124335Y-40929500D01*
X59875665Y-40929500D01*
X59630383Y-40970429D01*
X59395197Y-41051169D01*
X59395188Y-41051172D01*
X59176493Y-41169524D01*
X58980257Y-41322261D01*
X58811833Y-41505217D01*
X58675826Y-41713393D01*
X58575936Y-41941118D01*
X58514892Y-42182175D01*
X58514890Y-42182186D01*
X58499500Y-42367935D01*
X58499500Y-43992065D01*
X55000000Y-43992065D01*
X55000000Y-38905000D01*
X55369341Y-38905000D01*
X55389936Y-39140403D01*
X55389938Y-39140413D01*
X55451094Y-39368655D01*
X55451096Y-39368659D01*
X55451097Y-39368663D01*
X55451721Y-39370001D01*
X55550964Y-39582828D01*
X55550965Y-39582830D01*
X55686505Y-39776402D01*
X55853597Y-39943494D01*
X56047169Y-40079034D01*
X56047171Y-40079035D01*
X56261337Y-40178903D01*
X56489592Y-40240063D01*
X56666034Y-40255500D01*
X56783966Y-40255500D01*
X56960408Y-40240063D01*
X57043234Y-40217870D01*
X77439500Y-40217870D01*
X77439501Y-40217876D01*
X77445908Y-40277483D01*
X77496202Y-40412328D01*
X77496206Y-40412335D01*
X77582452Y-40527544D01*
X77582455Y-40527547D01*
X77697664Y-40613793D01*
X77697671Y-40613797D01*
X77832517Y-40664091D01*
X77832516Y-40664091D01*
X77839444Y-40664835D01*
X77892127Y-40670500D01*
X79587872Y-40670499D01*
X79647483Y-40664091D01*
X79782331Y-40613796D01*
X79897546Y-40527546D01*
X79983796Y-40412331D01*
X80034091Y-40277483D01*
X80040500Y-40217873D01*
X80040500Y-39370001D01*
X81244532Y-39370001D01*
X81264364Y-39596686D01*
X81264366Y-39596697D01*
X81323258Y-39816488D01*
X81323261Y-39816497D01*
X81419431Y-40022732D01*
X81419432Y-40022734D01*
X81549954Y-40209141D01*
X81710858Y-40370045D01*
X81710861Y-40370047D01*
X81897266Y-40500568D01*
X82103504Y-40596739D01*
X82323308Y-40655635D01*
X82485230Y-40669801D01*
X82549998Y-40675468D01*
X82550000Y-40675468D01*
X82550002Y-40675468D01*
X82606807Y-40670498D01*
X82776692Y-40655635D01*
X82996496Y-40596739D01*
X83202734Y-40500568D01*
X83389139Y-40370047D01*
X83550047Y-40209139D01*
X83680568Y-40022734D01*
X83776739Y-39816496D01*
X83835635Y-39596692D01*
X83855468Y-39370001D01*
X85054532Y-39370001D01*
X85074364Y-39596686D01*
X85074366Y-39596697D01*
X85133258Y-39816488D01*
X85133261Y-39816497D01*
X85229431Y-40022732D01*
X85229432Y-40022734D01*
X85359954Y-40209141D01*
X85520858Y-40370045D01*
X85520861Y-40370047D01*
X85707266Y-40500568D01*
X85913504Y-40596739D01*
X86133308Y-40655635D01*
X86295230Y-40669801D01*
X86359998Y-40675468D01*
X86360000Y-40675468D01*
X86360002Y-40675468D01*
X86416807Y-40670498D01*
X86586692Y-40655635D01*
X86806496Y-40596739D01*
X87012734Y-40500568D01*
X87199139Y-40370047D01*
X87360047Y-40209139D01*
X87490568Y-40022734D01*
X87505832Y-39990001D01*
X93954532Y-39990001D01*
X93974364Y-40216686D01*
X93974366Y-40216697D01*
X94033258Y-40436488D01*
X94033261Y-40436497D01*
X94129431Y-40642732D01*
X94129432Y-40642734D01*
X94259954Y-40829141D01*
X94420858Y-40990045D01*
X94431968Y-40997824D01*
X94607266Y-41120568D01*
X94813504Y-41216739D01*
X95033308Y-41275635D01*
X95195230Y-41289801D01*
X95259998Y-41295468D01*
X95260000Y-41295468D01*
X95260002Y-41295468D01*
X95316673Y-41290509D01*
X95486692Y-41275635D01*
X95706496Y-41216739D01*
X95912734Y-41120568D01*
X96099139Y-40990047D01*
X96260047Y-40829139D01*
X96272002Y-40812065D01*
X99409500Y-40812065D01*
X99424890Y-40997813D01*
X99424892Y-40997824D01*
X99485936Y-41238881D01*
X99585826Y-41466606D01*
X99721833Y-41674782D01*
X99721836Y-41674785D01*
X99890256Y-41857738D01*
X100086491Y-42010474D01*
X100305190Y-42128828D01*
X100540386Y-42209571D01*
X100785665Y-42250500D01*
X101034335Y-42250500D01*
X101279614Y-42209571D01*
X101514810Y-42128828D01*
X101733509Y-42010474D01*
X101929744Y-41857738D01*
X102098164Y-41674785D01*
X102234173Y-41466607D01*
X102334063Y-41238881D01*
X102395108Y-40997821D01*
X102395753Y-40990045D01*
X102410500Y-40812065D01*
X102410500Y-39187935D01*
X102395109Y-39002186D01*
X102395107Y-39002175D01*
X102334063Y-38761118D01*
X102234173Y-38533393D01*
X102098166Y-38325217D01*
X102007906Y-38227169D01*
X101929744Y-38142262D01*
X101733509Y-37989526D01*
X101733507Y-37989525D01*
X101733506Y-37989524D01*
X101514811Y-37871172D01*
X101514802Y-37871169D01*
X101279616Y-37790429D01*
X101034335Y-37749500D01*
X100785665Y-37749500D01*
X100540383Y-37790429D01*
X100305197Y-37871169D01*
X100305188Y-37871172D01*
X100086493Y-37989524D01*
X99890257Y-38142261D01*
X99721833Y-38325217D01*
X99585826Y-38533393D01*
X99485936Y-38761118D01*
X99424892Y-39002175D01*
X99424890Y-39002186D01*
X99409500Y-39187935D01*
X99409500Y-40812065D01*
X96272002Y-40812065D01*
X96390568Y-40642734D01*
X96486739Y-40436496D01*
X96545635Y-40216692D01*
X96565468Y-39990000D01*
X96545635Y-39763308D01*
X96486739Y-39543504D01*
X96390568Y-39337266D01*
X96260047Y-39150861D01*
X96260045Y-39150858D01*
X96099141Y-38989954D01*
X95912734Y-38859432D01*
X95912732Y-38859431D01*
X95706497Y-38763261D01*
X95706488Y-38763258D01*
X95486697Y-38704366D01*
X95486693Y-38704365D01*
X95486692Y-38704365D01*
X95486691Y-38704364D01*
X95486686Y-38704364D01*
X95260002Y-38684532D01*
X95259998Y-38684532D01*
X95033313Y-38704364D01*
X95033302Y-38704366D01*
X94813511Y-38763258D01*
X94813502Y-38763261D01*
X94607267Y-38859431D01*
X94607265Y-38859432D01*
X94420858Y-38989954D01*
X94259954Y-39150858D01*
X94129432Y-39337265D01*
X94129431Y-39337267D01*
X94033261Y-39543502D01*
X94033258Y-39543511D01*
X93974366Y-39763302D01*
X93974364Y-39763313D01*
X93954532Y-39989998D01*
X93954532Y-39990001D01*
X87505832Y-39990001D01*
X87586739Y-39816496D01*
X87645635Y-39596692D01*
X87665468Y-39370000D01*
X87645635Y-39143308D01*
X87586739Y-38923504D01*
X87490568Y-38717266D01*
X87360047Y-38530861D01*
X87360045Y-38530858D01*
X87199141Y-38369954D01*
X87012734Y-38239432D01*
X87012732Y-38239431D01*
X86806497Y-38143261D01*
X86806488Y-38143258D01*
X86586697Y-38084366D01*
X86586693Y-38084365D01*
X86586692Y-38084365D01*
X86586691Y-38084364D01*
X86586686Y-38084364D01*
X86360002Y-38064532D01*
X86359998Y-38064532D01*
X86133313Y-38084364D01*
X86133302Y-38084366D01*
X85913511Y-38143258D01*
X85913502Y-38143261D01*
X85707267Y-38239431D01*
X85707265Y-38239432D01*
X85520858Y-38369954D01*
X85359954Y-38530858D01*
X85229432Y-38717265D01*
X85229431Y-38717267D01*
X85133261Y-38923502D01*
X85133258Y-38923511D01*
X85074366Y-39143302D01*
X85074364Y-39143313D01*
X85054532Y-39369998D01*
X85054532Y-39370001D01*
X83855468Y-39370001D01*
X83855468Y-39370000D01*
X83835635Y-39143308D01*
X83776739Y-38923504D01*
X83680568Y-38717266D01*
X83550047Y-38530861D01*
X83550045Y-38530858D01*
X83389141Y-38369954D01*
X83202734Y-38239432D01*
X83202732Y-38239431D01*
X82996497Y-38143261D01*
X82996488Y-38143258D01*
X82776697Y-38084366D01*
X82776693Y-38084365D01*
X82776692Y-38084365D01*
X82776691Y-38084364D01*
X82776686Y-38084364D01*
X82550002Y-38064532D01*
X82549998Y-38064532D01*
X82323313Y-38084364D01*
X82323302Y-38084366D01*
X82103511Y-38143258D01*
X82103502Y-38143261D01*
X81897267Y-38239431D01*
X81897265Y-38239432D01*
X81710858Y-38369954D01*
X81549954Y-38530858D01*
X81419432Y-38717265D01*
X81419431Y-38717267D01*
X81323261Y-38923502D01*
X81323258Y-38923511D01*
X81264366Y-39143302D01*
X81264364Y-39143313D01*
X81244532Y-39369998D01*
X81244532Y-39370001D01*
X80040500Y-39370001D01*
X80040499Y-38522128D01*
X80034091Y-38462517D01*
X80026191Y-38441337D01*
X79983797Y-38327671D01*
X79983793Y-38327664D01*
X79897547Y-38212455D01*
X79897544Y-38212452D01*
X79782335Y-38126206D01*
X79782328Y-38126202D01*
X79647482Y-38075908D01*
X79647483Y-38075908D01*
X79587883Y-38069501D01*
X79587881Y-38069500D01*
X79587873Y-38069500D01*
X79587864Y-38069500D01*
X77892129Y-38069500D01*
X77892123Y-38069501D01*
X77832516Y-38075908D01*
X77697671Y-38126202D01*
X77697664Y-38126206D01*
X77582455Y-38212452D01*
X77582452Y-38212455D01*
X77496206Y-38327664D01*
X77496202Y-38327671D01*
X77445908Y-38462517D01*
X77439501Y-38522116D01*
X77439501Y-38522123D01*
X77439500Y-38522135D01*
X77439500Y-40217870D01*
X57043234Y-40217870D01*
X57188663Y-40178903D01*
X57402829Y-40079035D01*
X57596401Y-39943495D01*
X57763495Y-39776401D01*
X57899035Y-39582830D01*
X57998903Y-39368663D01*
X58060063Y-39140408D01*
X58080659Y-38905000D01*
X58060063Y-38669592D01*
X57998903Y-38441337D01*
X57899035Y-38227171D01*
X57899034Y-38227169D01*
X57763494Y-38033597D01*
X57596402Y-37866505D01*
X57402830Y-37730965D01*
X57402828Y-37730964D01*
X57295745Y-37681030D01*
X57188663Y-37631097D01*
X57188659Y-37631096D01*
X57188655Y-37631094D01*
X56960413Y-37569938D01*
X56960403Y-37569936D01*
X56783966Y-37554500D01*
X56666034Y-37554500D01*
X56489596Y-37569936D01*
X56489586Y-37569938D01*
X56261344Y-37631094D01*
X56261335Y-37631098D01*
X56047171Y-37730964D01*
X56047169Y-37730965D01*
X55853597Y-37866505D01*
X55686506Y-38033597D01*
X55686501Y-38033604D01*
X55550967Y-38227165D01*
X55550965Y-38227169D01*
X55451098Y-38441335D01*
X55451094Y-38441344D01*
X55389938Y-38669586D01*
X55389936Y-38669596D01*
X55369341Y-38904999D01*
X55369341Y-38905000D01*
X55000000Y-38905000D01*
X55000000Y-37124000D01*
X55019685Y-37056961D01*
X55072489Y-37011206D01*
X55124000Y-37000000D01*
X104626033Y-37000000D01*
X104693072Y-37019685D01*
G37*
%TD.AperFunction*%
%TD*%
M02*
