%TF.GenerationSoftware,KiCad,Pcbnew,7.0.7*%
%TF.CreationDate,2024-08-23T02:48:45-05:00*%
%TF.ProjectId,telescope_dew_heater,74656c65-7363-46f7-9065-5f6465775f68,rev?*%
%TF.SameCoordinates,Original*%
%TF.FileFunction,Soldermask,Bot*%
%TF.FilePolarity,Negative*%
%FSLAX46Y46*%
G04 Gerber Fmt 4.6, Leading zero omitted, Abs format (unit mm)*
G04 Created by KiCad (PCBNEW 7.0.7) date 2024-08-23 02:48:45*
%MOMM*%
%LPD*%
G01*
G04 APERTURE LIST*
%ADD10C,0.010000*%
%ADD11O,4.000000X2.000000*%
%ADD12O,2.000000X3.500000*%
%ADD13R,3.000000X3.000000*%
%ADD14O,3.500000X3.500000*%
%ADD15O,1.600000X1.600000*%
%ADD16R,1.600000X1.600000*%
%ADD17C,1.600000*%
%ADD18R,1.800000X1.717500*%
%ADD19O,1.800000X1.717500*%
%ADD20O,1.700000X1.700000*%
%ADD21R,1.700000X1.700000*%
%ADD22R,4.000000X2.000000*%
%ADD23O,3.300000X2.000000*%
%ADD24C,5.000000*%
G04 APERTURE END LIST*
D10*
%TO.C,J1*%
X56725000Y-47455000D03*
X56725000Y-38905000D03*
D11*
X64925000Y-43180000D03*
D12*
X60000000Y-43180000D03*
%TD*%
D10*
%TO.C,J2*%
X56725000Y-73550000D03*
X56725000Y-65000000D03*
D11*
X64925000Y-69275000D03*
D12*
X60000000Y-69275000D03*
%TD*%
D10*
%TO.C,J4*%
X56725000Y-124275000D03*
X56725000Y-115725000D03*
D11*
X64925000Y-120000000D03*
D12*
X60000000Y-120000000D03*
%TD*%
D10*
%TO.C,J3*%
X56725000Y-99275000D03*
X56725000Y-90725000D03*
D11*
X64925000Y-95000000D03*
D12*
X60000000Y-95000000D03*
%TD*%
D13*
%TO.C,SW1*%
X105410000Y-61545000D03*
D14*
X105410000Y-53925000D03*
%TD*%
D15*
%TO.C,U3*%
X97810000Y-93980000D03*
X97810000Y-96520000D03*
X97810000Y-99060000D03*
X97810000Y-101600000D03*
X90190000Y-101600000D03*
X90190000Y-99060000D03*
X90190000Y-96520000D03*
D16*
X90190000Y-93980000D03*
%TD*%
D17*
%TO.C,C5*%
X92770000Y-90805000D03*
X95270000Y-90805000D03*
%TD*%
%TO.C,R4*%
X86360000Y-119380000D03*
D15*
X86360000Y-111760000D03*
%TD*%
%TO.C,R3*%
X86370000Y-90160000D03*
D17*
X86370000Y-97780000D03*
%TD*%
D18*
%TO.C,Q4*%
X71120000Y-117090000D03*
D19*
X71120000Y-119380000D03*
X71120000Y-121670000D03*
%TD*%
D18*
%TO.C,Q3*%
X71000000Y-92960000D03*
D19*
X71000000Y-95250000D03*
X71000000Y-97540000D03*
%TD*%
D20*
%TO.C,RV3*%
X85100000Y-104130000D03*
X82560000Y-104130000D03*
D21*
X80020000Y-104130000D03*
%TD*%
%TO.C,RV4*%
X80010000Y-125730000D03*
D20*
X82550000Y-125730000D03*
X85090000Y-125730000D03*
%TD*%
D16*
%TO.C,U4*%
X90180000Y-115961000D03*
D15*
X90180000Y-118501000D03*
X90180000Y-121041000D03*
X90180000Y-123581000D03*
X97800000Y-123581000D03*
X97800000Y-121041000D03*
X97800000Y-118501000D03*
X97800000Y-115961000D03*
%TD*%
D16*
%TO.C,D8*%
X78740000Y-111760000D03*
D15*
X78740000Y-119380000D03*
%TD*%
D17*
%TO.C,C6*%
X92750000Y-112776000D03*
X95250000Y-112776000D03*
%TD*%
D16*
%TO.C,C7*%
X71120000Y-107950000D03*
D17*
X71120000Y-105450000D03*
%TD*%
D16*
%TO.C,C8*%
X71120000Y-130770000D03*
D17*
X71120000Y-128270000D03*
%TD*%
D15*
%TO.C,D5*%
X82560000Y-90160000D03*
D16*
X82560000Y-97780000D03*
%TD*%
D15*
%TO.C,D6*%
X78750000Y-97780000D03*
D16*
X78750000Y-90160000D03*
%TD*%
%TO.C,D7*%
X82550000Y-119380000D03*
D15*
X82550000Y-111760000D03*
%TD*%
D17*
%TO.C,J5*%
X105410000Y-38000000D03*
D22*
X105410000Y-47000000D03*
D23*
X105410000Y-41000000D03*
D12*
X109910000Y-40000000D03*
X100910000Y-40000000D03*
%TD*%
D21*
%TO.C,RV2*%
X80010000Y-78740000D03*
D20*
X82550000Y-78740000D03*
X85090000Y-78740000D03*
%TD*%
D16*
%TO.C,U2*%
X90180000Y-68590000D03*
D15*
X90180000Y-71130000D03*
X90180000Y-73670000D03*
X90180000Y-76210000D03*
X97800000Y-76210000D03*
X97800000Y-73670000D03*
X97800000Y-71130000D03*
X97800000Y-68590000D03*
%TD*%
D18*
%TO.C,Q2*%
X71000000Y-67560000D03*
D19*
X71000000Y-69850000D03*
X71000000Y-72140000D03*
%TD*%
D17*
%TO.C,R2*%
X86360000Y-72390000D03*
D15*
X86360000Y-64770000D03*
%TD*%
D16*
%TO.C,D4*%
X78740000Y-64770000D03*
D15*
X78740000Y-72390000D03*
%TD*%
D24*
%TO.C,F1*%
X105533321Y-69980000D03*
X105533321Y-92580000D03*
%TD*%
D16*
%TO.C,D3*%
X82550000Y-72390000D03*
D15*
X82550000Y-64770000D03*
%TD*%
D16*
%TO.C,C4*%
X71120000Y-81280000D03*
D17*
X71120000Y-78780000D03*
%TD*%
%TO.C,C2*%
X95210000Y-65415000D03*
X92710000Y-65415000D03*
%TD*%
D16*
%TO.C,U1*%
X90180000Y-43190000D03*
D15*
X90180000Y-45730000D03*
X90180000Y-48270000D03*
X90180000Y-50810000D03*
X97800000Y-50810000D03*
X97800000Y-48270000D03*
X97800000Y-45730000D03*
X97800000Y-43190000D03*
%TD*%
D21*
%TO.C,RV1*%
X80010000Y-52070000D03*
D20*
X82550000Y-52070000D03*
X85090000Y-52070000D03*
%TD*%
D17*
%TO.C,R1*%
X86360000Y-46990000D03*
D15*
X86360000Y-39370000D03*
%TD*%
D18*
%TO.C,Q1*%
X71120000Y-42160000D03*
D19*
X71120000Y-44450000D03*
X71120000Y-46740000D03*
%TD*%
D16*
%TO.C,D2*%
X78740000Y-39370000D03*
D15*
X78740000Y-46990000D03*
%TD*%
D16*
%TO.C,D1*%
X82550000Y-46990000D03*
D15*
X82550000Y-39370000D03*
%TD*%
D17*
%TO.C,C3*%
X71120000Y-53380000D03*
D16*
X71120000Y-55880000D03*
%TD*%
D17*
%TO.C,C1*%
X92760000Y-39990000D03*
X95260000Y-39990000D03*
%TD*%
M02*
