%TF.GenerationSoftware,KiCad,Pcbnew,7.0.7*%
%TF.CreationDate,2024-08-23T02:48:45-05:00*%
%TF.ProjectId,telescope_dew_heater,74656c65-7363-46f7-9065-5f6465775f68,rev?*%
%TF.SameCoordinates,Original*%
%TF.FileFunction,Legend,Top*%
%TF.FilePolarity,Positive*%
%FSLAX46Y46*%
G04 Gerber Fmt 4.6, Leading zero omitted, Abs format (unit mm)*
G04 Created by KiCad (PCBNEW 7.0.7) date 2024-08-23 02:48:45*
%MOMM*%
%LPD*%
G01*
G04 APERTURE LIST*
%ADD10C,0.150000*%
%ADD11C,0.100000*%
%ADD12C,0.200000*%
%ADD13C,0.120000*%
G04 APERTURE END LIST*
D10*
X103198628Y-129711316D02*
X104198628Y-129711316D01*
X102627200Y-130068458D02*
X103698628Y-130425601D01*
X103698628Y-130425601D02*
X103698628Y-129497030D01*
X104055771Y-126925602D02*
X104127200Y-126997030D01*
X104127200Y-126997030D02*
X104198628Y-127211316D01*
X104198628Y-127211316D02*
X104198628Y-127354173D01*
X104198628Y-127354173D02*
X104127200Y-127568459D01*
X104127200Y-127568459D02*
X103984342Y-127711316D01*
X103984342Y-127711316D02*
X103841485Y-127782745D01*
X103841485Y-127782745D02*
X103555771Y-127854173D01*
X103555771Y-127854173D02*
X103341485Y-127854173D01*
X103341485Y-127854173D02*
X103055771Y-127782745D01*
X103055771Y-127782745D02*
X102912914Y-127711316D01*
X102912914Y-127711316D02*
X102770057Y-127568459D01*
X102770057Y-127568459D02*
X102698628Y-127354173D01*
X102698628Y-127354173D02*
X102698628Y-127211316D01*
X102698628Y-127211316D02*
X102770057Y-126997030D01*
X102770057Y-126997030D02*
X102841485Y-126925602D01*
X104198628Y-126282745D02*
X102698628Y-126282745D01*
X103412914Y-126282745D02*
X103412914Y-125425602D01*
X104198628Y-125425602D02*
X102698628Y-125425602D01*
X103770057Y-124782744D02*
X103770057Y-124068459D01*
X104198628Y-124925601D02*
X102698628Y-124425601D01*
X102698628Y-124425601D02*
X104198628Y-123925601D01*
X104198628Y-123425602D02*
X102698628Y-123425602D01*
X102698628Y-123425602D02*
X104198628Y-122568459D01*
X104198628Y-122568459D02*
X102698628Y-122568459D01*
X104198628Y-121854173D02*
X102698628Y-121854173D01*
X102698628Y-121854173D02*
X104198628Y-120997030D01*
X104198628Y-120997030D02*
X102698628Y-120997030D01*
X103412914Y-120282744D02*
X103412914Y-119782744D01*
X104198628Y-119568458D02*
X104198628Y-120282744D01*
X104198628Y-120282744D02*
X102698628Y-120282744D01*
X102698628Y-120282744D02*
X102698628Y-119568458D01*
X104198628Y-118211315D02*
X104198628Y-118925601D01*
X104198628Y-118925601D02*
X102698628Y-118925601D01*
X104198628Y-116568458D02*
X102698628Y-116568458D01*
X102698628Y-116568458D02*
X102698628Y-115997029D01*
X102698628Y-115997029D02*
X102770057Y-115854172D01*
X102770057Y-115854172D02*
X102841485Y-115782743D01*
X102841485Y-115782743D02*
X102984342Y-115711315D01*
X102984342Y-115711315D02*
X103198628Y-115711315D01*
X103198628Y-115711315D02*
X103341485Y-115782743D01*
X103341485Y-115782743D02*
X103412914Y-115854172D01*
X103412914Y-115854172D02*
X103484342Y-115997029D01*
X103484342Y-115997029D02*
X103484342Y-116568458D01*
X102698628Y-115211315D02*
X104198628Y-114854172D01*
X104198628Y-114854172D02*
X103127200Y-114568458D01*
X103127200Y-114568458D02*
X104198628Y-114282743D01*
X104198628Y-114282743D02*
X102698628Y-113925601D01*
X104198628Y-113354172D02*
X102698628Y-113354172D01*
X102698628Y-113354172D02*
X103770057Y-112854172D01*
X103770057Y-112854172D02*
X102698628Y-112354172D01*
X102698628Y-112354172D02*
X104198628Y-112354172D01*
X102698628Y-110711314D02*
X102698628Y-109854172D01*
X104198628Y-110282743D02*
X102698628Y-110282743D01*
X103412914Y-109354172D02*
X103412914Y-108854172D01*
X104198628Y-108639886D02*
X104198628Y-109354172D01*
X104198628Y-109354172D02*
X102698628Y-109354172D01*
X102698628Y-109354172D02*
X102698628Y-108639886D01*
X104198628Y-107282743D02*
X104198628Y-107997029D01*
X104198628Y-107997029D02*
X102698628Y-107997029D01*
X103412914Y-106782743D02*
X103412914Y-106282743D01*
X104198628Y-106068457D02*
X104198628Y-106782743D01*
X104198628Y-106782743D02*
X102698628Y-106782743D01*
X102698628Y-106782743D02*
X102698628Y-106068457D01*
X104127200Y-105497028D02*
X104198628Y-105282743D01*
X104198628Y-105282743D02*
X104198628Y-104925600D01*
X104198628Y-104925600D02*
X104127200Y-104782743D01*
X104127200Y-104782743D02*
X104055771Y-104711314D01*
X104055771Y-104711314D02*
X103912914Y-104639885D01*
X103912914Y-104639885D02*
X103770057Y-104639885D01*
X103770057Y-104639885D02*
X103627200Y-104711314D01*
X103627200Y-104711314D02*
X103555771Y-104782743D01*
X103555771Y-104782743D02*
X103484342Y-104925600D01*
X103484342Y-104925600D02*
X103412914Y-105211314D01*
X103412914Y-105211314D02*
X103341485Y-105354171D01*
X103341485Y-105354171D02*
X103270057Y-105425600D01*
X103270057Y-105425600D02*
X103127200Y-105497028D01*
X103127200Y-105497028D02*
X102984342Y-105497028D01*
X102984342Y-105497028D02*
X102841485Y-105425600D01*
X102841485Y-105425600D02*
X102770057Y-105354171D01*
X102770057Y-105354171D02*
X102698628Y-105211314D01*
X102698628Y-105211314D02*
X102698628Y-104854171D01*
X102698628Y-104854171D02*
X102770057Y-104639885D01*
X104055771Y-103139886D02*
X104127200Y-103211314D01*
X104127200Y-103211314D02*
X104198628Y-103425600D01*
X104198628Y-103425600D02*
X104198628Y-103568457D01*
X104198628Y-103568457D02*
X104127200Y-103782743D01*
X104127200Y-103782743D02*
X103984342Y-103925600D01*
X103984342Y-103925600D02*
X103841485Y-103997029D01*
X103841485Y-103997029D02*
X103555771Y-104068457D01*
X103555771Y-104068457D02*
X103341485Y-104068457D01*
X103341485Y-104068457D02*
X103055771Y-103997029D01*
X103055771Y-103997029D02*
X102912914Y-103925600D01*
X102912914Y-103925600D02*
X102770057Y-103782743D01*
X102770057Y-103782743D02*
X102698628Y-103568457D01*
X102698628Y-103568457D02*
X102698628Y-103425600D01*
X102698628Y-103425600D02*
X102770057Y-103211314D01*
X102770057Y-103211314D02*
X102841485Y-103139886D01*
X102698628Y-102211314D02*
X102698628Y-101925600D01*
X102698628Y-101925600D02*
X102770057Y-101782743D01*
X102770057Y-101782743D02*
X102912914Y-101639886D01*
X102912914Y-101639886D02*
X103198628Y-101568457D01*
X103198628Y-101568457D02*
X103698628Y-101568457D01*
X103698628Y-101568457D02*
X103984342Y-101639886D01*
X103984342Y-101639886D02*
X104127200Y-101782743D01*
X104127200Y-101782743D02*
X104198628Y-101925600D01*
X104198628Y-101925600D02*
X104198628Y-102211314D01*
X104198628Y-102211314D02*
X104127200Y-102354172D01*
X104127200Y-102354172D02*
X103984342Y-102497029D01*
X103984342Y-102497029D02*
X103698628Y-102568457D01*
X103698628Y-102568457D02*
X103198628Y-102568457D01*
X103198628Y-102568457D02*
X102912914Y-102497029D01*
X102912914Y-102497029D02*
X102770057Y-102354172D01*
X102770057Y-102354172D02*
X102698628Y-102211314D01*
X104198628Y-100925600D02*
X102698628Y-100925600D01*
X102698628Y-100925600D02*
X102698628Y-100354171D01*
X102698628Y-100354171D02*
X102770057Y-100211314D01*
X102770057Y-100211314D02*
X102841485Y-100139885D01*
X102841485Y-100139885D02*
X102984342Y-100068457D01*
X102984342Y-100068457D02*
X103198628Y-100068457D01*
X103198628Y-100068457D02*
X103341485Y-100139885D01*
X103341485Y-100139885D02*
X103412914Y-100211314D01*
X103412914Y-100211314D02*
X103484342Y-100354171D01*
X103484342Y-100354171D02*
X103484342Y-100925600D01*
X103412914Y-99425600D02*
X103412914Y-98925600D01*
X104198628Y-98711314D02*
X104198628Y-99425600D01*
X104198628Y-99425600D02*
X102698628Y-99425600D01*
X102698628Y-99425600D02*
X102698628Y-98711314D01*
X106613628Y-130354173D02*
X105113628Y-130354173D01*
X105113628Y-130354173D02*
X105113628Y-129997030D01*
X105113628Y-129997030D02*
X105185057Y-129782744D01*
X105185057Y-129782744D02*
X105327914Y-129639887D01*
X105327914Y-129639887D02*
X105470771Y-129568458D01*
X105470771Y-129568458D02*
X105756485Y-129497030D01*
X105756485Y-129497030D02*
X105970771Y-129497030D01*
X105970771Y-129497030D02*
X106256485Y-129568458D01*
X106256485Y-129568458D02*
X106399342Y-129639887D01*
X106399342Y-129639887D02*
X106542200Y-129782744D01*
X106542200Y-129782744D02*
X106613628Y-129997030D01*
X106613628Y-129997030D02*
X106613628Y-130354173D01*
X105827914Y-128854173D02*
X105827914Y-128354173D01*
X106613628Y-128139887D02*
X106613628Y-128854173D01*
X106613628Y-128854173D02*
X105113628Y-128854173D01*
X105113628Y-128854173D02*
X105113628Y-128139887D01*
X105113628Y-127639887D02*
X106613628Y-127282744D01*
X106613628Y-127282744D02*
X105542200Y-126997030D01*
X105542200Y-126997030D02*
X106613628Y-126711315D01*
X106613628Y-126711315D02*
X105113628Y-126354173D01*
X106613628Y-124639887D02*
X105113628Y-124639887D01*
X105827914Y-124639887D02*
X105827914Y-123782744D01*
X106613628Y-123782744D02*
X105113628Y-123782744D01*
X105827914Y-123068458D02*
X105827914Y-122568458D01*
X106613628Y-122354172D02*
X106613628Y-123068458D01*
X106613628Y-123068458D02*
X105113628Y-123068458D01*
X105113628Y-123068458D02*
X105113628Y-122354172D01*
X106185057Y-121782743D02*
X106185057Y-121068458D01*
X106613628Y-121925600D02*
X105113628Y-121425600D01*
X105113628Y-121425600D02*
X106613628Y-120925600D01*
X105113628Y-120639886D02*
X105113628Y-119782744D01*
X106613628Y-120211315D02*
X105113628Y-120211315D01*
X105827914Y-119282744D02*
X105827914Y-118782744D01*
X106613628Y-118568458D02*
X106613628Y-119282744D01*
X106613628Y-119282744D02*
X105113628Y-119282744D01*
X105113628Y-119282744D02*
X105113628Y-118568458D01*
X106613628Y-117068458D02*
X105899342Y-117568458D01*
X106613628Y-117925601D02*
X105113628Y-117925601D01*
X105113628Y-117925601D02*
X105113628Y-117354172D01*
X105113628Y-117354172D02*
X105185057Y-117211315D01*
X105185057Y-117211315D02*
X105256485Y-117139886D01*
X105256485Y-117139886D02*
X105399342Y-117068458D01*
X105399342Y-117068458D02*
X105613628Y-117068458D01*
X105613628Y-117068458D02*
X105756485Y-117139886D01*
X105756485Y-117139886D02*
X105827914Y-117211315D01*
X105827914Y-117211315D02*
X105899342Y-117354172D01*
X105899342Y-117354172D02*
X105899342Y-117925601D01*
X106470771Y-114425601D02*
X106542200Y-114497029D01*
X106542200Y-114497029D02*
X106613628Y-114711315D01*
X106613628Y-114711315D02*
X106613628Y-114854172D01*
X106613628Y-114854172D02*
X106542200Y-115068458D01*
X106542200Y-115068458D02*
X106399342Y-115211315D01*
X106399342Y-115211315D02*
X106256485Y-115282744D01*
X106256485Y-115282744D02*
X105970771Y-115354172D01*
X105970771Y-115354172D02*
X105756485Y-115354172D01*
X105756485Y-115354172D02*
X105470771Y-115282744D01*
X105470771Y-115282744D02*
X105327914Y-115211315D01*
X105327914Y-115211315D02*
X105185057Y-115068458D01*
X105185057Y-115068458D02*
X105113628Y-114854172D01*
X105113628Y-114854172D02*
X105113628Y-114711315D01*
X105113628Y-114711315D02*
X105185057Y-114497029D01*
X105185057Y-114497029D02*
X105256485Y-114425601D01*
X105113628Y-113497029D02*
X105113628Y-113211315D01*
X105113628Y-113211315D02*
X105185057Y-113068458D01*
X105185057Y-113068458D02*
X105327914Y-112925601D01*
X105327914Y-112925601D02*
X105613628Y-112854172D01*
X105613628Y-112854172D02*
X106113628Y-112854172D01*
X106113628Y-112854172D02*
X106399342Y-112925601D01*
X106399342Y-112925601D02*
X106542200Y-113068458D01*
X106542200Y-113068458D02*
X106613628Y-113211315D01*
X106613628Y-113211315D02*
X106613628Y-113497029D01*
X106613628Y-113497029D02*
X106542200Y-113639887D01*
X106542200Y-113639887D02*
X106399342Y-113782744D01*
X106399342Y-113782744D02*
X106113628Y-113854172D01*
X106113628Y-113854172D02*
X105613628Y-113854172D01*
X105613628Y-113854172D02*
X105327914Y-113782744D01*
X105327914Y-113782744D02*
X105185057Y-113639887D01*
X105185057Y-113639887D02*
X105113628Y-113497029D01*
X106613628Y-112211315D02*
X105113628Y-112211315D01*
X105113628Y-112211315D02*
X106613628Y-111354172D01*
X106613628Y-111354172D02*
X105113628Y-111354172D01*
X105113628Y-110854171D02*
X105113628Y-109997029D01*
X106613628Y-110425600D02*
X105113628Y-110425600D01*
X106613628Y-108639886D02*
X105899342Y-109139886D01*
X106613628Y-109497029D02*
X105113628Y-109497029D01*
X105113628Y-109497029D02*
X105113628Y-108925600D01*
X105113628Y-108925600D02*
X105185057Y-108782743D01*
X105185057Y-108782743D02*
X105256485Y-108711314D01*
X105256485Y-108711314D02*
X105399342Y-108639886D01*
X105399342Y-108639886D02*
X105613628Y-108639886D01*
X105613628Y-108639886D02*
X105756485Y-108711314D01*
X105756485Y-108711314D02*
X105827914Y-108782743D01*
X105827914Y-108782743D02*
X105899342Y-108925600D01*
X105899342Y-108925600D02*
X105899342Y-109497029D01*
X105113628Y-107711314D02*
X105113628Y-107425600D01*
X105113628Y-107425600D02*
X105185057Y-107282743D01*
X105185057Y-107282743D02*
X105327914Y-107139886D01*
X105327914Y-107139886D02*
X105613628Y-107068457D01*
X105613628Y-107068457D02*
X106113628Y-107068457D01*
X106113628Y-107068457D02*
X106399342Y-107139886D01*
X106399342Y-107139886D02*
X106542200Y-107282743D01*
X106542200Y-107282743D02*
X106613628Y-107425600D01*
X106613628Y-107425600D02*
X106613628Y-107711314D01*
X106613628Y-107711314D02*
X106542200Y-107854172D01*
X106542200Y-107854172D02*
X106399342Y-107997029D01*
X106399342Y-107997029D02*
X106113628Y-108068457D01*
X106113628Y-108068457D02*
X105613628Y-108068457D01*
X105613628Y-108068457D02*
X105327914Y-107997029D01*
X105327914Y-107997029D02*
X105185057Y-107854172D01*
X105185057Y-107854172D02*
X105113628Y-107711314D01*
X106613628Y-105711314D02*
X106613628Y-106425600D01*
X106613628Y-106425600D02*
X105113628Y-106425600D01*
X106613628Y-104497028D02*
X106613628Y-105211314D01*
X106613628Y-105211314D02*
X105113628Y-105211314D01*
X105827914Y-103997028D02*
X105827914Y-103497028D01*
X106613628Y-103282742D02*
X106613628Y-103997028D01*
X106613628Y-103997028D02*
X105113628Y-103997028D01*
X105113628Y-103997028D02*
X105113628Y-103282742D01*
X106613628Y-101782742D02*
X105899342Y-102282742D01*
X106613628Y-102639885D02*
X105113628Y-102639885D01*
X105113628Y-102639885D02*
X105113628Y-102068456D01*
X105113628Y-102068456D02*
X105185057Y-101925599D01*
X105185057Y-101925599D02*
X105256485Y-101854170D01*
X105256485Y-101854170D02*
X105399342Y-101782742D01*
X105399342Y-101782742D02*
X105613628Y-101782742D01*
X105613628Y-101782742D02*
X105756485Y-101854170D01*
X105756485Y-101854170D02*
X105827914Y-101925599D01*
X105827914Y-101925599D02*
X105899342Y-102068456D01*
X105899342Y-102068456D02*
X105899342Y-102639885D01*
X109028628Y-130354173D02*
X107528628Y-130354173D01*
X107528628Y-130354173D02*
X107528628Y-129997030D01*
X107528628Y-129997030D02*
X107600057Y-129782744D01*
X107600057Y-129782744D02*
X107742914Y-129639887D01*
X107742914Y-129639887D02*
X107885771Y-129568458D01*
X107885771Y-129568458D02*
X108171485Y-129497030D01*
X108171485Y-129497030D02*
X108385771Y-129497030D01*
X108385771Y-129497030D02*
X108671485Y-129568458D01*
X108671485Y-129568458D02*
X108814342Y-129639887D01*
X108814342Y-129639887D02*
X108957200Y-129782744D01*
X108957200Y-129782744D02*
X109028628Y-129997030D01*
X109028628Y-129997030D02*
X109028628Y-130354173D01*
X108242914Y-128854173D02*
X108242914Y-128354173D01*
X109028628Y-128139887D02*
X109028628Y-128854173D01*
X109028628Y-128854173D02*
X107528628Y-128854173D01*
X107528628Y-128854173D02*
X107528628Y-128139887D01*
X108957200Y-127568458D02*
X109028628Y-127354173D01*
X109028628Y-127354173D02*
X109028628Y-126997030D01*
X109028628Y-126997030D02*
X108957200Y-126854173D01*
X108957200Y-126854173D02*
X108885771Y-126782744D01*
X108885771Y-126782744D02*
X108742914Y-126711315D01*
X108742914Y-126711315D02*
X108600057Y-126711315D01*
X108600057Y-126711315D02*
X108457200Y-126782744D01*
X108457200Y-126782744D02*
X108385771Y-126854173D01*
X108385771Y-126854173D02*
X108314342Y-126997030D01*
X108314342Y-126997030D02*
X108242914Y-127282744D01*
X108242914Y-127282744D02*
X108171485Y-127425601D01*
X108171485Y-127425601D02*
X108100057Y-127497030D01*
X108100057Y-127497030D02*
X107957200Y-127568458D01*
X107957200Y-127568458D02*
X107814342Y-127568458D01*
X107814342Y-127568458D02*
X107671485Y-127497030D01*
X107671485Y-127497030D02*
X107600057Y-127425601D01*
X107600057Y-127425601D02*
X107528628Y-127282744D01*
X107528628Y-127282744D02*
X107528628Y-126925601D01*
X107528628Y-126925601D02*
X107600057Y-126711315D01*
X109028628Y-126068459D02*
X107528628Y-126068459D01*
X107600057Y-124568458D02*
X107528628Y-124711316D01*
X107528628Y-124711316D02*
X107528628Y-124925601D01*
X107528628Y-124925601D02*
X107600057Y-125139887D01*
X107600057Y-125139887D02*
X107742914Y-125282744D01*
X107742914Y-125282744D02*
X107885771Y-125354173D01*
X107885771Y-125354173D02*
X108171485Y-125425601D01*
X108171485Y-125425601D02*
X108385771Y-125425601D01*
X108385771Y-125425601D02*
X108671485Y-125354173D01*
X108671485Y-125354173D02*
X108814342Y-125282744D01*
X108814342Y-125282744D02*
X108957200Y-125139887D01*
X108957200Y-125139887D02*
X109028628Y-124925601D01*
X109028628Y-124925601D02*
X109028628Y-124782744D01*
X109028628Y-124782744D02*
X108957200Y-124568458D01*
X108957200Y-124568458D02*
X108885771Y-124497030D01*
X108885771Y-124497030D02*
X108385771Y-124497030D01*
X108385771Y-124497030D02*
X108385771Y-124782744D01*
X109028628Y-123854173D02*
X107528628Y-123854173D01*
X107528628Y-123854173D02*
X109028628Y-122997030D01*
X109028628Y-122997030D02*
X107528628Y-122997030D01*
X108242914Y-122282744D02*
X108242914Y-121782744D01*
X109028628Y-121568458D02*
X109028628Y-122282744D01*
X109028628Y-122282744D02*
X107528628Y-122282744D01*
X107528628Y-122282744D02*
X107528628Y-121568458D01*
X109028628Y-120925601D02*
X107528628Y-120925601D01*
X107528628Y-120925601D02*
X107528628Y-120568458D01*
X107528628Y-120568458D02*
X107600057Y-120354172D01*
X107600057Y-120354172D02*
X107742914Y-120211315D01*
X107742914Y-120211315D02*
X107885771Y-120139886D01*
X107885771Y-120139886D02*
X108171485Y-120068458D01*
X108171485Y-120068458D02*
X108385771Y-120068458D01*
X108385771Y-120068458D02*
X108671485Y-120139886D01*
X108671485Y-120139886D02*
X108814342Y-120211315D01*
X108814342Y-120211315D02*
X108957200Y-120354172D01*
X108957200Y-120354172D02*
X109028628Y-120568458D01*
X109028628Y-120568458D02*
X109028628Y-120925601D01*
X108242914Y-117782744D02*
X108314342Y-117568458D01*
X108314342Y-117568458D02*
X108385771Y-117497029D01*
X108385771Y-117497029D02*
X108528628Y-117425601D01*
X108528628Y-117425601D02*
X108742914Y-117425601D01*
X108742914Y-117425601D02*
X108885771Y-117497029D01*
X108885771Y-117497029D02*
X108957200Y-117568458D01*
X108957200Y-117568458D02*
X109028628Y-117711315D01*
X109028628Y-117711315D02*
X109028628Y-118282744D01*
X109028628Y-118282744D02*
X107528628Y-118282744D01*
X107528628Y-118282744D02*
X107528628Y-117782744D01*
X107528628Y-117782744D02*
X107600057Y-117639887D01*
X107600057Y-117639887D02*
X107671485Y-117568458D01*
X107671485Y-117568458D02*
X107814342Y-117497029D01*
X107814342Y-117497029D02*
X107957200Y-117497029D01*
X107957200Y-117497029D02*
X108100057Y-117568458D01*
X108100057Y-117568458D02*
X108171485Y-117639887D01*
X108171485Y-117639887D02*
X108242914Y-117782744D01*
X108242914Y-117782744D02*
X108242914Y-118282744D01*
X108314342Y-116497029D02*
X109028628Y-116497029D01*
X107528628Y-116997029D02*
X108314342Y-116497029D01*
X108314342Y-116497029D02*
X107528628Y-115997029D01*
X107528628Y-113925601D02*
X108600057Y-113925601D01*
X108600057Y-113925601D02*
X108814342Y-113997030D01*
X108814342Y-113997030D02*
X108957200Y-114139887D01*
X108957200Y-114139887D02*
X109028628Y-114354173D01*
X109028628Y-114354173D02*
X109028628Y-114497030D01*
X108885771Y-113211316D02*
X108957200Y-113139887D01*
X108957200Y-113139887D02*
X109028628Y-113211316D01*
X109028628Y-113211316D02*
X108957200Y-113282744D01*
X108957200Y-113282744D02*
X108885771Y-113211316D01*
X108885771Y-113211316D02*
X109028628Y-113211316D01*
X109028628Y-111354173D02*
X107528628Y-111354173D01*
X107528628Y-111354173D02*
X107528628Y-110782744D01*
X107528628Y-110782744D02*
X107600057Y-110639887D01*
X107600057Y-110639887D02*
X107671485Y-110568458D01*
X107671485Y-110568458D02*
X107814342Y-110497030D01*
X107814342Y-110497030D02*
X108028628Y-110497030D01*
X108028628Y-110497030D02*
X108171485Y-110568458D01*
X108171485Y-110568458D02*
X108242914Y-110639887D01*
X108242914Y-110639887D02*
X108314342Y-110782744D01*
X108314342Y-110782744D02*
X108314342Y-111354173D01*
X108242914Y-109854173D02*
X108242914Y-109354173D01*
X109028628Y-109139887D02*
X109028628Y-109854173D01*
X109028628Y-109854173D02*
X107528628Y-109854173D01*
X107528628Y-109854173D02*
X107528628Y-109139887D01*
X107528628Y-108711315D02*
X107528628Y-107854173D01*
X109028628Y-108282744D02*
X107528628Y-108282744D01*
X108242914Y-107354173D02*
X108242914Y-106854173D01*
X109028628Y-106639887D02*
X109028628Y-107354173D01*
X109028628Y-107354173D02*
X107528628Y-107354173D01*
X107528628Y-107354173D02*
X107528628Y-106639887D01*
X109028628Y-105139887D02*
X108314342Y-105639887D01*
X109028628Y-105997030D02*
X107528628Y-105997030D01*
X107528628Y-105997030D02*
X107528628Y-105425601D01*
X107528628Y-105425601D02*
X107600057Y-105282744D01*
X107600057Y-105282744D02*
X107671485Y-105211315D01*
X107671485Y-105211315D02*
X107814342Y-105139887D01*
X107814342Y-105139887D02*
X108028628Y-105139887D01*
X108028628Y-105139887D02*
X108171485Y-105211315D01*
X108171485Y-105211315D02*
X108242914Y-105282744D01*
X108242914Y-105282744D02*
X108314342Y-105425601D01*
X108314342Y-105425601D02*
X108314342Y-105997030D01*
X108957200Y-104568458D02*
X109028628Y-104354173D01*
X109028628Y-104354173D02*
X109028628Y-103997030D01*
X109028628Y-103997030D02*
X108957200Y-103854173D01*
X108957200Y-103854173D02*
X108885771Y-103782744D01*
X108885771Y-103782744D02*
X108742914Y-103711315D01*
X108742914Y-103711315D02*
X108600057Y-103711315D01*
X108600057Y-103711315D02*
X108457200Y-103782744D01*
X108457200Y-103782744D02*
X108385771Y-103854173D01*
X108385771Y-103854173D02*
X108314342Y-103997030D01*
X108314342Y-103997030D02*
X108242914Y-104282744D01*
X108242914Y-104282744D02*
X108171485Y-104425601D01*
X108171485Y-104425601D02*
X108100057Y-104497030D01*
X108100057Y-104497030D02*
X107957200Y-104568458D01*
X107957200Y-104568458D02*
X107814342Y-104568458D01*
X107814342Y-104568458D02*
X107671485Y-104497030D01*
X107671485Y-104497030D02*
X107600057Y-104425601D01*
X107600057Y-104425601D02*
X107528628Y-104282744D01*
X107528628Y-104282744D02*
X107528628Y-103925601D01*
X107528628Y-103925601D02*
X107600057Y-103711315D01*
X108242914Y-103068459D02*
X108242914Y-102568459D01*
X109028628Y-102354173D02*
X109028628Y-103068459D01*
X109028628Y-103068459D02*
X107528628Y-103068459D01*
X107528628Y-103068459D02*
X107528628Y-102354173D01*
X109028628Y-101711316D02*
X107528628Y-101711316D01*
X107528628Y-101711316D02*
X109028628Y-100854173D01*
X109028628Y-100854173D02*
X107528628Y-100854173D01*
X104423981Y-87944173D02*
X104423981Y-88515601D01*
X104423981Y-88515601D02*
X105138267Y-88572744D01*
X105138267Y-88572744D02*
X105066838Y-88515601D01*
X105066838Y-88515601D02*
X104995410Y-88401316D01*
X104995410Y-88401316D02*
X104995410Y-88115601D01*
X104995410Y-88115601D02*
X105066838Y-88001316D01*
X105066838Y-88001316D02*
X105138267Y-87944173D01*
X105138267Y-87944173D02*
X105281124Y-87887030D01*
X105281124Y-87887030D02*
X105638267Y-87887030D01*
X105638267Y-87887030D02*
X105781124Y-87944173D01*
X105781124Y-87944173D02*
X105852553Y-88001316D01*
X105852553Y-88001316D02*
X105923981Y-88115601D01*
X105923981Y-88115601D02*
X105923981Y-88401316D01*
X105923981Y-88401316D02*
X105852553Y-88515601D01*
X105852553Y-88515601D02*
X105781124Y-88572744D01*
X105495410Y-87429887D02*
X105495410Y-86858459D01*
X105923981Y-87544173D02*
X104423981Y-87144173D01*
X104423981Y-87144173D02*
X105923981Y-86744173D01*
X105138267Y-85029887D02*
X105138267Y-85429887D01*
X105923981Y-85429887D02*
X104423981Y-85429887D01*
X104423981Y-85429887D02*
X104423981Y-84858459D01*
X104423981Y-84401316D02*
X105638267Y-84401316D01*
X105638267Y-84401316D02*
X105781124Y-84344173D01*
X105781124Y-84344173D02*
X105852553Y-84287031D01*
X105852553Y-84287031D02*
X105923981Y-84172745D01*
X105923981Y-84172745D02*
X105923981Y-83944173D01*
X105923981Y-83944173D02*
X105852553Y-83829888D01*
X105852553Y-83829888D02*
X105781124Y-83772745D01*
X105781124Y-83772745D02*
X105638267Y-83715602D01*
X105638267Y-83715602D02*
X104423981Y-83715602D01*
X105852553Y-83201316D02*
X105923981Y-83029888D01*
X105923981Y-83029888D02*
X105923981Y-82744173D01*
X105923981Y-82744173D02*
X105852553Y-82629888D01*
X105852553Y-82629888D02*
X105781124Y-82572745D01*
X105781124Y-82572745D02*
X105638267Y-82515602D01*
X105638267Y-82515602D02*
X105495410Y-82515602D01*
X105495410Y-82515602D02*
X105352553Y-82572745D01*
X105352553Y-82572745D02*
X105281124Y-82629888D01*
X105281124Y-82629888D02*
X105209695Y-82744173D01*
X105209695Y-82744173D02*
X105138267Y-82972745D01*
X105138267Y-82972745D02*
X105066838Y-83087030D01*
X105066838Y-83087030D02*
X104995410Y-83144173D01*
X104995410Y-83144173D02*
X104852553Y-83201316D01*
X104852553Y-83201316D02*
X104709695Y-83201316D01*
X104709695Y-83201316D02*
X104566838Y-83144173D01*
X104566838Y-83144173D02*
X104495410Y-83087030D01*
X104495410Y-83087030D02*
X104423981Y-82972745D01*
X104423981Y-82972745D02*
X104423981Y-82687030D01*
X104423981Y-82687030D02*
X104495410Y-82515602D01*
X105138267Y-82001316D02*
X105138267Y-81601316D01*
X105923981Y-81429888D02*
X105923981Y-82001316D01*
X105923981Y-82001316D02*
X104423981Y-82001316D01*
X104423981Y-82001316D02*
X104423981Y-81429888D01*
X104423981Y-79429888D02*
X104423981Y-80001316D01*
X104423981Y-80001316D02*
X105138267Y-80058459D01*
X105138267Y-80058459D02*
X105066838Y-80001316D01*
X105066838Y-80001316D02*
X104995410Y-79887031D01*
X104995410Y-79887031D02*
X104995410Y-79601316D01*
X104995410Y-79601316D02*
X105066838Y-79487031D01*
X105066838Y-79487031D02*
X105138267Y-79429888D01*
X105138267Y-79429888D02*
X105281124Y-79372745D01*
X105281124Y-79372745D02*
X105638267Y-79372745D01*
X105638267Y-79372745D02*
X105781124Y-79429888D01*
X105781124Y-79429888D02*
X105852553Y-79487031D01*
X105852553Y-79487031D02*
X105923981Y-79601316D01*
X105923981Y-79601316D02*
X105923981Y-79887031D01*
X105923981Y-79887031D02*
X105852553Y-80001316D01*
X105852553Y-80001316D02*
X105781124Y-80058459D01*
X104423981Y-78972745D02*
X105923981Y-78172745D01*
X104423981Y-78172745D02*
X105923981Y-78972745D01*
X104566838Y-77772745D02*
X104495410Y-77715602D01*
X104495410Y-77715602D02*
X104423981Y-77601317D01*
X104423981Y-77601317D02*
X104423981Y-77315602D01*
X104423981Y-77315602D02*
X104495410Y-77201317D01*
X104495410Y-77201317D02*
X104566838Y-77144174D01*
X104566838Y-77144174D02*
X104709695Y-77087031D01*
X104709695Y-77087031D02*
X104852553Y-77087031D01*
X104852553Y-77087031D02*
X105066838Y-77144174D01*
X105066838Y-77144174D02*
X105923981Y-77829888D01*
X105923981Y-77829888D02*
X105923981Y-77087031D01*
X104423981Y-76344174D02*
X104423981Y-76229888D01*
X104423981Y-76229888D02*
X104495410Y-76115602D01*
X104495410Y-76115602D02*
X104566838Y-76058460D01*
X104566838Y-76058460D02*
X104709695Y-76001317D01*
X104709695Y-76001317D02*
X104995410Y-75944174D01*
X104995410Y-75944174D02*
X105352553Y-75944174D01*
X105352553Y-75944174D02*
X105638267Y-76001317D01*
X105638267Y-76001317D02*
X105781124Y-76058460D01*
X105781124Y-76058460D02*
X105852553Y-76115602D01*
X105852553Y-76115602D02*
X105923981Y-76229888D01*
X105923981Y-76229888D02*
X105923981Y-76344174D01*
X105923981Y-76344174D02*
X105852553Y-76458460D01*
X105852553Y-76458460D02*
X105781124Y-76515602D01*
X105781124Y-76515602D02*
X105638267Y-76572745D01*
X105638267Y-76572745D02*
X105352553Y-76629888D01*
X105352553Y-76629888D02*
X104995410Y-76629888D01*
X104995410Y-76629888D02*
X104709695Y-76572745D01*
X104709695Y-76572745D02*
X104566838Y-76515602D01*
X104566838Y-76515602D02*
X104495410Y-76458460D01*
X104495410Y-76458460D02*
X104423981Y-76344174D01*
X105923981Y-75429888D02*
X104423981Y-75429888D01*
X104423981Y-75429888D02*
X105495410Y-75029888D01*
X105495410Y-75029888D02*
X104423981Y-74629888D01*
X104423981Y-74629888D02*
X105923981Y-74629888D01*
X105923981Y-74058459D02*
X104423981Y-74058459D01*
X104423981Y-74058459D02*
X105495410Y-73658459D01*
X105495410Y-73658459D02*
X104423981Y-73258459D01*
X104423981Y-73258459D02*
X105923981Y-73258459D01*
D11*
X64957419Y-48513333D02*
X65671704Y-48513333D01*
X65671704Y-48513333D02*
X65814561Y-48560952D01*
X65814561Y-48560952D02*
X65909800Y-48656190D01*
X65909800Y-48656190D02*
X65957419Y-48799047D01*
X65957419Y-48799047D02*
X65957419Y-48894285D01*
X65957419Y-47513333D02*
X65957419Y-48084761D01*
X65957419Y-47799047D02*
X64957419Y-47799047D01*
X64957419Y-47799047D02*
X65100276Y-47894285D01*
X65100276Y-47894285D02*
X65195514Y-47989523D01*
X65195514Y-47989523D02*
X65243133Y-48084761D01*
X64957419Y-74608333D02*
X65671704Y-74608333D01*
X65671704Y-74608333D02*
X65814561Y-74655952D01*
X65814561Y-74655952D02*
X65909800Y-74751190D01*
X65909800Y-74751190D02*
X65957419Y-74894047D01*
X65957419Y-74894047D02*
X65957419Y-74989285D01*
X65052657Y-74179761D02*
X65005038Y-74132142D01*
X65005038Y-74132142D02*
X64957419Y-74036904D01*
X64957419Y-74036904D02*
X64957419Y-73798809D01*
X64957419Y-73798809D02*
X65005038Y-73703571D01*
X65005038Y-73703571D02*
X65052657Y-73655952D01*
X65052657Y-73655952D02*
X65147895Y-73608333D01*
X65147895Y-73608333D02*
X65243133Y-73608333D01*
X65243133Y-73608333D02*
X65385990Y-73655952D01*
X65385990Y-73655952D02*
X65957419Y-74227380D01*
X65957419Y-74227380D02*
X65957419Y-73608333D01*
X64957419Y-125333333D02*
X65671704Y-125333333D01*
X65671704Y-125333333D02*
X65814561Y-125380952D01*
X65814561Y-125380952D02*
X65909800Y-125476190D01*
X65909800Y-125476190D02*
X65957419Y-125619047D01*
X65957419Y-125619047D02*
X65957419Y-125714285D01*
X65290752Y-124428571D02*
X65957419Y-124428571D01*
X64909800Y-124666666D02*
X65624085Y-124904761D01*
X65624085Y-124904761D02*
X65624085Y-124285714D01*
X64957419Y-100333333D02*
X65671704Y-100333333D01*
X65671704Y-100333333D02*
X65814561Y-100380952D01*
X65814561Y-100380952D02*
X65909800Y-100476190D01*
X65909800Y-100476190D02*
X65957419Y-100619047D01*
X65957419Y-100619047D02*
X65957419Y-100714285D01*
X64957419Y-99952380D02*
X64957419Y-99333333D01*
X64957419Y-99333333D02*
X65338371Y-99666666D01*
X65338371Y-99666666D02*
X65338371Y-99523809D01*
X65338371Y-99523809D02*
X65385990Y-99428571D01*
X65385990Y-99428571D02*
X65433609Y-99380952D01*
X65433609Y-99380952D02*
X65528847Y-99333333D01*
X65528847Y-99333333D02*
X65766942Y-99333333D01*
X65766942Y-99333333D02*
X65862180Y-99380952D01*
X65862180Y-99380952D02*
X65909800Y-99428571D01*
X65909800Y-99428571D02*
X65957419Y-99523809D01*
X65957419Y-99523809D02*
X65957419Y-99809523D01*
X65957419Y-99809523D02*
X65909800Y-99904761D01*
X65909800Y-99904761D02*
X65862180Y-99952380D01*
D10*
X104076667Y-64282200D02*
X104219524Y-64329819D01*
X104219524Y-64329819D02*
X104457619Y-64329819D01*
X104457619Y-64329819D02*
X104552857Y-64282200D01*
X104552857Y-64282200D02*
X104600476Y-64234580D01*
X104600476Y-64234580D02*
X104648095Y-64139342D01*
X104648095Y-64139342D02*
X104648095Y-64044104D01*
X104648095Y-64044104D02*
X104600476Y-63948866D01*
X104600476Y-63948866D02*
X104552857Y-63901247D01*
X104552857Y-63901247D02*
X104457619Y-63853628D01*
X104457619Y-63853628D02*
X104267143Y-63806009D01*
X104267143Y-63806009D02*
X104171905Y-63758390D01*
X104171905Y-63758390D02*
X104124286Y-63710771D01*
X104124286Y-63710771D02*
X104076667Y-63615533D01*
X104076667Y-63615533D02*
X104076667Y-63520295D01*
X104076667Y-63520295D02*
X104124286Y-63425057D01*
X104124286Y-63425057D02*
X104171905Y-63377438D01*
X104171905Y-63377438D02*
X104267143Y-63329819D01*
X104267143Y-63329819D02*
X104505238Y-63329819D01*
X104505238Y-63329819D02*
X104648095Y-63377438D01*
X104981429Y-63329819D02*
X105219524Y-64329819D01*
X105219524Y-64329819D02*
X105410000Y-63615533D01*
X105410000Y-63615533D02*
X105600476Y-64329819D01*
X105600476Y-64329819D02*
X105838572Y-63329819D01*
X106743333Y-64329819D02*
X106171905Y-64329819D01*
X106457619Y-64329819D02*
X106457619Y-63329819D01*
X106457619Y-63329819D02*
X106362381Y-63472676D01*
X106362381Y-63472676D02*
X106267143Y-63567914D01*
X106267143Y-63567914D02*
X106171905Y-63615533D01*
X89428095Y-90894819D02*
X89428095Y-91704342D01*
X89428095Y-91704342D02*
X89475714Y-91799580D01*
X89475714Y-91799580D02*
X89523333Y-91847200D01*
X89523333Y-91847200D02*
X89618571Y-91894819D01*
X89618571Y-91894819D02*
X89809047Y-91894819D01*
X89809047Y-91894819D02*
X89904285Y-91847200D01*
X89904285Y-91847200D02*
X89951904Y-91799580D01*
X89951904Y-91799580D02*
X89999523Y-91704342D01*
X89999523Y-91704342D02*
X89999523Y-90894819D01*
X90380476Y-90894819D02*
X90999523Y-90894819D01*
X90999523Y-90894819D02*
X90666190Y-91275771D01*
X90666190Y-91275771D02*
X90809047Y-91275771D01*
X90809047Y-91275771D02*
X90904285Y-91323390D01*
X90904285Y-91323390D02*
X90951904Y-91371009D01*
X90951904Y-91371009D02*
X90999523Y-91466247D01*
X90999523Y-91466247D02*
X90999523Y-91704342D01*
X90999523Y-91704342D02*
X90951904Y-91799580D01*
X90951904Y-91799580D02*
X90904285Y-91847200D01*
X90904285Y-91847200D02*
X90809047Y-91894819D01*
X90809047Y-91894819D02*
X90523333Y-91894819D01*
X90523333Y-91894819D02*
X90428095Y-91847200D01*
X90428095Y-91847200D02*
X90380476Y-91799580D01*
X93833333Y-89259580D02*
X93785714Y-89307200D01*
X93785714Y-89307200D02*
X93642857Y-89354819D01*
X93642857Y-89354819D02*
X93547619Y-89354819D01*
X93547619Y-89354819D02*
X93404762Y-89307200D01*
X93404762Y-89307200D02*
X93309524Y-89211961D01*
X93309524Y-89211961D02*
X93261905Y-89116723D01*
X93261905Y-89116723D02*
X93214286Y-88926247D01*
X93214286Y-88926247D02*
X93214286Y-88783390D01*
X93214286Y-88783390D02*
X93261905Y-88592914D01*
X93261905Y-88592914D02*
X93309524Y-88497676D01*
X93309524Y-88497676D02*
X93404762Y-88402438D01*
X93404762Y-88402438D02*
X93547619Y-88354819D01*
X93547619Y-88354819D02*
X93642857Y-88354819D01*
X93642857Y-88354819D02*
X93785714Y-88402438D01*
X93785714Y-88402438D02*
X93833333Y-88450057D01*
X94738095Y-88354819D02*
X94261905Y-88354819D01*
X94261905Y-88354819D02*
X94214286Y-88831009D01*
X94214286Y-88831009D02*
X94261905Y-88783390D01*
X94261905Y-88783390D02*
X94357143Y-88735771D01*
X94357143Y-88735771D02*
X94595238Y-88735771D01*
X94595238Y-88735771D02*
X94690476Y-88783390D01*
X94690476Y-88783390D02*
X94738095Y-88831009D01*
X94738095Y-88831009D02*
X94785714Y-88926247D01*
X94785714Y-88926247D02*
X94785714Y-89164342D01*
X94785714Y-89164342D02*
X94738095Y-89259580D01*
X94738095Y-89259580D02*
X94690476Y-89307200D01*
X94690476Y-89307200D02*
X94595238Y-89354819D01*
X94595238Y-89354819D02*
X94357143Y-89354819D01*
X94357143Y-89354819D02*
X94261905Y-89307200D01*
X94261905Y-89307200D02*
X94214286Y-89259580D01*
X86814819Y-122086666D02*
X86338628Y-122419999D01*
X86814819Y-122658094D02*
X85814819Y-122658094D01*
X85814819Y-122658094D02*
X85814819Y-122277142D01*
X85814819Y-122277142D02*
X85862438Y-122181904D01*
X85862438Y-122181904D02*
X85910057Y-122134285D01*
X85910057Y-122134285D02*
X86005295Y-122086666D01*
X86005295Y-122086666D02*
X86148152Y-122086666D01*
X86148152Y-122086666D02*
X86243390Y-122134285D01*
X86243390Y-122134285D02*
X86291009Y-122181904D01*
X86291009Y-122181904D02*
X86338628Y-122277142D01*
X86338628Y-122277142D02*
X86338628Y-122658094D01*
X86148152Y-121229523D02*
X86814819Y-121229523D01*
X85767200Y-121467618D02*
X86481485Y-121705713D01*
X86481485Y-121705713D02*
X86481485Y-121086666D01*
X86824819Y-100486666D02*
X86348628Y-100819999D01*
X86824819Y-101058094D02*
X85824819Y-101058094D01*
X85824819Y-101058094D02*
X85824819Y-100677142D01*
X85824819Y-100677142D02*
X85872438Y-100581904D01*
X85872438Y-100581904D02*
X85920057Y-100534285D01*
X85920057Y-100534285D02*
X86015295Y-100486666D01*
X86015295Y-100486666D02*
X86158152Y-100486666D01*
X86158152Y-100486666D02*
X86253390Y-100534285D01*
X86253390Y-100534285D02*
X86301009Y-100581904D01*
X86301009Y-100581904D02*
X86348628Y-100677142D01*
X86348628Y-100677142D02*
X86348628Y-101058094D01*
X85824819Y-100153332D02*
X85824819Y-99534285D01*
X85824819Y-99534285D02*
X86205771Y-99867618D01*
X86205771Y-99867618D02*
X86205771Y-99724761D01*
X86205771Y-99724761D02*
X86253390Y-99629523D01*
X86253390Y-99629523D02*
X86301009Y-99581904D01*
X86301009Y-99581904D02*
X86396247Y-99534285D01*
X86396247Y-99534285D02*
X86634342Y-99534285D01*
X86634342Y-99534285D02*
X86729580Y-99581904D01*
X86729580Y-99581904D02*
X86777200Y-99629523D01*
X86777200Y-99629523D02*
X86824819Y-99724761D01*
X86824819Y-99724761D02*
X86824819Y-100010475D01*
X86824819Y-100010475D02*
X86777200Y-100105713D01*
X86777200Y-100105713D02*
X86729580Y-100153332D01*
X74060057Y-119475238D02*
X74012438Y-119570476D01*
X74012438Y-119570476D02*
X73917200Y-119665714D01*
X73917200Y-119665714D02*
X73774342Y-119808571D01*
X73774342Y-119808571D02*
X73726723Y-119903809D01*
X73726723Y-119903809D02*
X73726723Y-119999047D01*
X73964819Y-119951428D02*
X73917200Y-120046666D01*
X73917200Y-120046666D02*
X73821961Y-120141904D01*
X73821961Y-120141904D02*
X73631485Y-120189523D01*
X73631485Y-120189523D02*
X73298152Y-120189523D01*
X73298152Y-120189523D02*
X73107676Y-120141904D01*
X73107676Y-120141904D02*
X73012438Y-120046666D01*
X73012438Y-120046666D02*
X72964819Y-119951428D01*
X72964819Y-119951428D02*
X72964819Y-119760952D01*
X72964819Y-119760952D02*
X73012438Y-119665714D01*
X73012438Y-119665714D02*
X73107676Y-119570476D01*
X73107676Y-119570476D02*
X73298152Y-119522857D01*
X73298152Y-119522857D02*
X73631485Y-119522857D01*
X73631485Y-119522857D02*
X73821961Y-119570476D01*
X73821961Y-119570476D02*
X73917200Y-119665714D01*
X73917200Y-119665714D02*
X73964819Y-119760952D01*
X73964819Y-119760952D02*
X73964819Y-119951428D01*
X73298152Y-118665714D02*
X73964819Y-118665714D01*
X72917200Y-118903809D02*
X73631485Y-119141904D01*
X73631485Y-119141904D02*
X73631485Y-118522857D01*
X73940057Y-95345238D02*
X73892438Y-95440476D01*
X73892438Y-95440476D02*
X73797200Y-95535714D01*
X73797200Y-95535714D02*
X73654342Y-95678571D01*
X73654342Y-95678571D02*
X73606723Y-95773809D01*
X73606723Y-95773809D02*
X73606723Y-95869047D01*
X73844819Y-95821428D02*
X73797200Y-95916666D01*
X73797200Y-95916666D02*
X73701961Y-96011904D01*
X73701961Y-96011904D02*
X73511485Y-96059523D01*
X73511485Y-96059523D02*
X73178152Y-96059523D01*
X73178152Y-96059523D02*
X72987676Y-96011904D01*
X72987676Y-96011904D02*
X72892438Y-95916666D01*
X72892438Y-95916666D02*
X72844819Y-95821428D01*
X72844819Y-95821428D02*
X72844819Y-95630952D01*
X72844819Y-95630952D02*
X72892438Y-95535714D01*
X72892438Y-95535714D02*
X72987676Y-95440476D01*
X72987676Y-95440476D02*
X73178152Y-95392857D01*
X73178152Y-95392857D02*
X73511485Y-95392857D01*
X73511485Y-95392857D02*
X73701961Y-95440476D01*
X73701961Y-95440476D02*
X73797200Y-95535714D01*
X73797200Y-95535714D02*
X73844819Y-95630952D01*
X73844819Y-95630952D02*
X73844819Y-95821428D01*
X72844819Y-95059523D02*
X72844819Y-94440476D01*
X72844819Y-94440476D02*
X73225771Y-94773809D01*
X73225771Y-94773809D02*
X73225771Y-94630952D01*
X73225771Y-94630952D02*
X73273390Y-94535714D01*
X73273390Y-94535714D02*
X73321009Y-94488095D01*
X73321009Y-94488095D02*
X73416247Y-94440476D01*
X73416247Y-94440476D02*
X73654342Y-94440476D01*
X73654342Y-94440476D02*
X73749580Y-94488095D01*
X73749580Y-94488095D02*
X73797200Y-94535714D01*
X73797200Y-94535714D02*
X73844819Y-94630952D01*
X73844819Y-94630952D02*
X73844819Y-94916666D01*
X73844819Y-94916666D02*
X73797200Y-95011904D01*
X73797200Y-95011904D02*
X73749580Y-95059523D01*
X78144819Y-104725238D02*
X77668628Y-105058571D01*
X78144819Y-105296666D02*
X77144819Y-105296666D01*
X77144819Y-105296666D02*
X77144819Y-104915714D01*
X77144819Y-104915714D02*
X77192438Y-104820476D01*
X77192438Y-104820476D02*
X77240057Y-104772857D01*
X77240057Y-104772857D02*
X77335295Y-104725238D01*
X77335295Y-104725238D02*
X77478152Y-104725238D01*
X77478152Y-104725238D02*
X77573390Y-104772857D01*
X77573390Y-104772857D02*
X77621009Y-104820476D01*
X77621009Y-104820476D02*
X77668628Y-104915714D01*
X77668628Y-104915714D02*
X77668628Y-105296666D01*
X77144819Y-104439523D02*
X78144819Y-104106190D01*
X78144819Y-104106190D02*
X77144819Y-103772857D01*
X77144819Y-103534761D02*
X77144819Y-102915714D01*
X77144819Y-102915714D02*
X77525771Y-103249047D01*
X77525771Y-103249047D02*
X77525771Y-103106190D01*
X77525771Y-103106190D02*
X77573390Y-103010952D01*
X77573390Y-103010952D02*
X77621009Y-102963333D01*
X77621009Y-102963333D02*
X77716247Y-102915714D01*
X77716247Y-102915714D02*
X77954342Y-102915714D01*
X77954342Y-102915714D02*
X78049580Y-102963333D01*
X78049580Y-102963333D02*
X78097200Y-103010952D01*
X78097200Y-103010952D02*
X78144819Y-103106190D01*
X78144819Y-103106190D02*
X78144819Y-103391904D01*
X78144819Y-103391904D02*
X78097200Y-103487142D01*
X78097200Y-103487142D02*
X78049580Y-103534761D01*
X78134819Y-126325238D02*
X77658628Y-126658571D01*
X78134819Y-126896666D02*
X77134819Y-126896666D01*
X77134819Y-126896666D02*
X77134819Y-126515714D01*
X77134819Y-126515714D02*
X77182438Y-126420476D01*
X77182438Y-126420476D02*
X77230057Y-126372857D01*
X77230057Y-126372857D02*
X77325295Y-126325238D01*
X77325295Y-126325238D02*
X77468152Y-126325238D01*
X77468152Y-126325238D02*
X77563390Y-126372857D01*
X77563390Y-126372857D02*
X77611009Y-126420476D01*
X77611009Y-126420476D02*
X77658628Y-126515714D01*
X77658628Y-126515714D02*
X77658628Y-126896666D01*
X77134819Y-126039523D02*
X78134819Y-125706190D01*
X78134819Y-125706190D02*
X77134819Y-125372857D01*
X77468152Y-124610952D02*
X78134819Y-124610952D01*
X77087200Y-124849047D02*
X77801485Y-125087142D01*
X77801485Y-125087142D02*
X77801485Y-124468095D01*
X89408095Y-113085819D02*
X89408095Y-113895342D01*
X89408095Y-113895342D02*
X89455714Y-113990580D01*
X89455714Y-113990580D02*
X89503333Y-114038200D01*
X89503333Y-114038200D02*
X89598571Y-114085819D01*
X89598571Y-114085819D02*
X89789047Y-114085819D01*
X89789047Y-114085819D02*
X89884285Y-114038200D01*
X89884285Y-114038200D02*
X89931904Y-113990580D01*
X89931904Y-113990580D02*
X89979523Y-113895342D01*
X89979523Y-113895342D02*
X89979523Y-113085819D01*
X90884285Y-113419152D02*
X90884285Y-114085819D01*
X90646190Y-113038200D02*
X90408095Y-113752485D01*
X90408095Y-113752485D02*
X91027142Y-113752485D01*
X79194819Y-122658094D02*
X78194819Y-122658094D01*
X78194819Y-122658094D02*
X78194819Y-122419999D01*
X78194819Y-122419999D02*
X78242438Y-122277142D01*
X78242438Y-122277142D02*
X78337676Y-122181904D01*
X78337676Y-122181904D02*
X78432914Y-122134285D01*
X78432914Y-122134285D02*
X78623390Y-122086666D01*
X78623390Y-122086666D02*
X78766247Y-122086666D01*
X78766247Y-122086666D02*
X78956723Y-122134285D01*
X78956723Y-122134285D02*
X79051961Y-122181904D01*
X79051961Y-122181904D02*
X79147200Y-122277142D01*
X79147200Y-122277142D02*
X79194819Y-122419999D01*
X79194819Y-122419999D02*
X79194819Y-122658094D01*
X78623390Y-121515237D02*
X78575771Y-121610475D01*
X78575771Y-121610475D02*
X78528152Y-121658094D01*
X78528152Y-121658094D02*
X78432914Y-121705713D01*
X78432914Y-121705713D02*
X78385295Y-121705713D01*
X78385295Y-121705713D02*
X78290057Y-121658094D01*
X78290057Y-121658094D02*
X78242438Y-121610475D01*
X78242438Y-121610475D02*
X78194819Y-121515237D01*
X78194819Y-121515237D02*
X78194819Y-121324761D01*
X78194819Y-121324761D02*
X78242438Y-121229523D01*
X78242438Y-121229523D02*
X78290057Y-121181904D01*
X78290057Y-121181904D02*
X78385295Y-121134285D01*
X78385295Y-121134285D02*
X78432914Y-121134285D01*
X78432914Y-121134285D02*
X78528152Y-121181904D01*
X78528152Y-121181904D02*
X78575771Y-121229523D01*
X78575771Y-121229523D02*
X78623390Y-121324761D01*
X78623390Y-121324761D02*
X78623390Y-121515237D01*
X78623390Y-121515237D02*
X78671009Y-121610475D01*
X78671009Y-121610475D02*
X78718628Y-121658094D01*
X78718628Y-121658094D02*
X78813866Y-121705713D01*
X78813866Y-121705713D02*
X79004342Y-121705713D01*
X79004342Y-121705713D02*
X79099580Y-121658094D01*
X79099580Y-121658094D02*
X79147200Y-121610475D01*
X79147200Y-121610475D02*
X79194819Y-121515237D01*
X79194819Y-121515237D02*
X79194819Y-121324761D01*
X79194819Y-121324761D02*
X79147200Y-121229523D01*
X79147200Y-121229523D02*
X79099580Y-121181904D01*
X79099580Y-121181904D02*
X79004342Y-121134285D01*
X79004342Y-121134285D02*
X78813866Y-121134285D01*
X78813866Y-121134285D02*
X78718628Y-121181904D01*
X78718628Y-121181904D02*
X78671009Y-121229523D01*
X78671009Y-121229523D02*
X78623390Y-121324761D01*
X93833333Y-110835580D02*
X93785714Y-110883200D01*
X93785714Y-110883200D02*
X93642857Y-110930819D01*
X93642857Y-110930819D02*
X93547619Y-110930819D01*
X93547619Y-110930819D02*
X93404762Y-110883200D01*
X93404762Y-110883200D02*
X93309524Y-110787961D01*
X93309524Y-110787961D02*
X93261905Y-110692723D01*
X93261905Y-110692723D02*
X93214286Y-110502247D01*
X93214286Y-110502247D02*
X93214286Y-110359390D01*
X93214286Y-110359390D02*
X93261905Y-110168914D01*
X93261905Y-110168914D02*
X93309524Y-110073676D01*
X93309524Y-110073676D02*
X93404762Y-109978438D01*
X93404762Y-109978438D02*
X93547619Y-109930819D01*
X93547619Y-109930819D02*
X93642857Y-109930819D01*
X93642857Y-109930819D02*
X93785714Y-109978438D01*
X93785714Y-109978438D02*
X93833333Y-110026057D01*
X94690476Y-109930819D02*
X94500000Y-109930819D01*
X94500000Y-109930819D02*
X94404762Y-109978438D01*
X94404762Y-109978438D02*
X94357143Y-110026057D01*
X94357143Y-110026057D02*
X94261905Y-110168914D01*
X94261905Y-110168914D02*
X94214286Y-110359390D01*
X94214286Y-110359390D02*
X94214286Y-110740342D01*
X94214286Y-110740342D02*
X94261905Y-110835580D01*
X94261905Y-110835580D02*
X94309524Y-110883200D01*
X94309524Y-110883200D02*
X94404762Y-110930819D01*
X94404762Y-110930819D02*
X94595238Y-110930819D01*
X94595238Y-110930819D02*
X94690476Y-110883200D01*
X94690476Y-110883200D02*
X94738095Y-110835580D01*
X94738095Y-110835580D02*
X94785714Y-110740342D01*
X94785714Y-110740342D02*
X94785714Y-110502247D01*
X94785714Y-110502247D02*
X94738095Y-110407009D01*
X94738095Y-110407009D02*
X94690476Y-110359390D01*
X94690476Y-110359390D02*
X94595238Y-110311771D01*
X94595238Y-110311771D02*
X94404762Y-110311771D01*
X94404762Y-110311771D02*
X94309524Y-110359390D01*
X94309524Y-110359390D02*
X94261905Y-110407009D01*
X94261905Y-110407009D02*
X94214286Y-110502247D01*
X70953333Y-112119580D02*
X70905714Y-112167200D01*
X70905714Y-112167200D02*
X70762857Y-112214819D01*
X70762857Y-112214819D02*
X70667619Y-112214819D01*
X70667619Y-112214819D02*
X70524762Y-112167200D01*
X70524762Y-112167200D02*
X70429524Y-112071961D01*
X70429524Y-112071961D02*
X70381905Y-111976723D01*
X70381905Y-111976723D02*
X70334286Y-111786247D01*
X70334286Y-111786247D02*
X70334286Y-111643390D01*
X70334286Y-111643390D02*
X70381905Y-111452914D01*
X70381905Y-111452914D02*
X70429524Y-111357676D01*
X70429524Y-111357676D02*
X70524762Y-111262438D01*
X70524762Y-111262438D02*
X70667619Y-111214819D01*
X70667619Y-111214819D02*
X70762857Y-111214819D01*
X70762857Y-111214819D02*
X70905714Y-111262438D01*
X70905714Y-111262438D02*
X70953333Y-111310057D01*
X71286667Y-111214819D02*
X71953333Y-111214819D01*
X71953333Y-111214819D02*
X71524762Y-112214819D01*
X70953333Y-134979580D02*
X70905714Y-135027200D01*
X70905714Y-135027200D02*
X70762857Y-135074819D01*
X70762857Y-135074819D02*
X70667619Y-135074819D01*
X70667619Y-135074819D02*
X70524762Y-135027200D01*
X70524762Y-135027200D02*
X70429524Y-134931961D01*
X70429524Y-134931961D02*
X70381905Y-134836723D01*
X70381905Y-134836723D02*
X70334286Y-134646247D01*
X70334286Y-134646247D02*
X70334286Y-134503390D01*
X70334286Y-134503390D02*
X70381905Y-134312914D01*
X70381905Y-134312914D02*
X70429524Y-134217676D01*
X70429524Y-134217676D02*
X70524762Y-134122438D01*
X70524762Y-134122438D02*
X70667619Y-134074819D01*
X70667619Y-134074819D02*
X70762857Y-134074819D01*
X70762857Y-134074819D02*
X70905714Y-134122438D01*
X70905714Y-134122438D02*
X70953333Y-134170057D01*
X71524762Y-134503390D02*
X71429524Y-134455771D01*
X71429524Y-134455771D02*
X71381905Y-134408152D01*
X71381905Y-134408152D02*
X71334286Y-134312914D01*
X71334286Y-134312914D02*
X71334286Y-134265295D01*
X71334286Y-134265295D02*
X71381905Y-134170057D01*
X71381905Y-134170057D02*
X71429524Y-134122438D01*
X71429524Y-134122438D02*
X71524762Y-134074819D01*
X71524762Y-134074819D02*
X71715238Y-134074819D01*
X71715238Y-134074819D02*
X71810476Y-134122438D01*
X71810476Y-134122438D02*
X71858095Y-134170057D01*
X71858095Y-134170057D02*
X71905714Y-134265295D01*
X71905714Y-134265295D02*
X71905714Y-134312914D01*
X71905714Y-134312914D02*
X71858095Y-134408152D01*
X71858095Y-134408152D02*
X71810476Y-134455771D01*
X71810476Y-134455771D02*
X71715238Y-134503390D01*
X71715238Y-134503390D02*
X71524762Y-134503390D01*
X71524762Y-134503390D02*
X71429524Y-134551009D01*
X71429524Y-134551009D02*
X71381905Y-134598628D01*
X71381905Y-134598628D02*
X71334286Y-134693866D01*
X71334286Y-134693866D02*
X71334286Y-134884342D01*
X71334286Y-134884342D02*
X71381905Y-134979580D01*
X71381905Y-134979580D02*
X71429524Y-135027200D01*
X71429524Y-135027200D02*
X71524762Y-135074819D01*
X71524762Y-135074819D02*
X71715238Y-135074819D01*
X71715238Y-135074819D02*
X71810476Y-135027200D01*
X71810476Y-135027200D02*
X71858095Y-134979580D01*
X71858095Y-134979580D02*
X71905714Y-134884342D01*
X71905714Y-134884342D02*
X71905714Y-134693866D01*
X71905714Y-134693866D02*
X71858095Y-134598628D01*
X71858095Y-134598628D02*
X71810476Y-134551009D01*
X71810476Y-134551009D02*
X71715238Y-134503390D01*
X83014819Y-101058094D02*
X82014819Y-101058094D01*
X82014819Y-101058094D02*
X82014819Y-100819999D01*
X82014819Y-100819999D02*
X82062438Y-100677142D01*
X82062438Y-100677142D02*
X82157676Y-100581904D01*
X82157676Y-100581904D02*
X82252914Y-100534285D01*
X82252914Y-100534285D02*
X82443390Y-100486666D01*
X82443390Y-100486666D02*
X82586247Y-100486666D01*
X82586247Y-100486666D02*
X82776723Y-100534285D01*
X82776723Y-100534285D02*
X82871961Y-100581904D01*
X82871961Y-100581904D02*
X82967200Y-100677142D01*
X82967200Y-100677142D02*
X83014819Y-100819999D01*
X83014819Y-100819999D02*
X83014819Y-101058094D01*
X82014819Y-99581904D02*
X82014819Y-100058094D01*
X82014819Y-100058094D02*
X82491009Y-100105713D01*
X82491009Y-100105713D02*
X82443390Y-100058094D01*
X82443390Y-100058094D02*
X82395771Y-99962856D01*
X82395771Y-99962856D02*
X82395771Y-99724761D01*
X82395771Y-99724761D02*
X82443390Y-99629523D01*
X82443390Y-99629523D02*
X82491009Y-99581904D01*
X82491009Y-99581904D02*
X82586247Y-99534285D01*
X82586247Y-99534285D02*
X82824342Y-99534285D01*
X82824342Y-99534285D02*
X82919580Y-99581904D01*
X82919580Y-99581904D02*
X82967200Y-99629523D01*
X82967200Y-99629523D02*
X83014819Y-99724761D01*
X83014819Y-99724761D02*
X83014819Y-99962856D01*
X83014819Y-99962856D02*
X82967200Y-100058094D01*
X82967200Y-100058094D02*
X82919580Y-100105713D01*
X79204819Y-101058094D02*
X78204819Y-101058094D01*
X78204819Y-101058094D02*
X78204819Y-100819999D01*
X78204819Y-100819999D02*
X78252438Y-100677142D01*
X78252438Y-100677142D02*
X78347676Y-100581904D01*
X78347676Y-100581904D02*
X78442914Y-100534285D01*
X78442914Y-100534285D02*
X78633390Y-100486666D01*
X78633390Y-100486666D02*
X78776247Y-100486666D01*
X78776247Y-100486666D02*
X78966723Y-100534285D01*
X78966723Y-100534285D02*
X79061961Y-100581904D01*
X79061961Y-100581904D02*
X79157200Y-100677142D01*
X79157200Y-100677142D02*
X79204819Y-100819999D01*
X79204819Y-100819999D02*
X79204819Y-101058094D01*
X78204819Y-99629523D02*
X78204819Y-99819999D01*
X78204819Y-99819999D02*
X78252438Y-99915237D01*
X78252438Y-99915237D02*
X78300057Y-99962856D01*
X78300057Y-99962856D02*
X78442914Y-100058094D01*
X78442914Y-100058094D02*
X78633390Y-100105713D01*
X78633390Y-100105713D02*
X79014342Y-100105713D01*
X79014342Y-100105713D02*
X79109580Y-100058094D01*
X79109580Y-100058094D02*
X79157200Y-100010475D01*
X79157200Y-100010475D02*
X79204819Y-99915237D01*
X79204819Y-99915237D02*
X79204819Y-99724761D01*
X79204819Y-99724761D02*
X79157200Y-99629523D01*
X79157200Y-99629523D02*
X79109580Y-99581904D01*
X79109580Y-99581904D02*
X79014342Y-99534285D01*
X79014342Y-99534285D02*
X78776247Y-99534285D01*
X78776247Y-99534285D02*
X78681009Y-99581904D01*
X78681009Y-99581904D02*
X78633390Y-99629523D01*
X78633390Y-99629523D02*
X78585771Y-99724761D01*
X78585771Y-99724761D02*
X78585771Y-99915237D01*
X78585771Y-99915237D02*
X78633390Y-100010475D01*
X78633390Y-100010475D02*
X78681009Y-100058094D01*
X78681009Y-100058094D02*
X78776247Y-100105713D01*
X83004819Y-122658094D02*
X82004819Y-122658094D01*
X82004819Y-122658094D02*
X82004819Y-122419999D01*
X82004819Y-122419999D02*
X82052438Y-122277142D01*
X82052438Y-122277142D02*
X82147676Y-122181904D01*
X82147676Y-122181904D02*
X82242914Y-122134285D01*
X82242914Y-122134285D02*
X82433390Y-122086666D01*
X82433390Y-122086666D02*
X82576247Y-122086666D01*
X82576247Y-122086666D02*
X82766723Y-122134285D01*
X82766723Y-122134285D02*
X82861961Y-122181904D01*
X82861961Y-122181904D02*
X82957200Y-122277142D01*
X82957200Y-122277142D02*
X83004819Y-122419999D01*
X83004819Y-122419999D02*
X83004819Y-122658094D01*
X82004819Y-121753332D02*
X82004819Y-121086666D01*
X82004819Y-121086666D02*
X83004819Y-121515237D01*
X105076666Y-48754819D02*
X105076666Y-49469104D01*
X105076666Y-49469104D02*
X105029047Y-49611961D01*
X105029047Y-49611961D02*
X104933809Y-49707200D01*
X104933809Y-49707200D02*
X104790952Y-49754819D01*
X104790952Y-49754819D02*
X104695714Y-49754819D01*
X106029047Y-48754819D02*
X105552857Y-48754819D01*
X105552857Y-48754819D02*
X105505238Y-49231009D01*
X105505238Y-49231009D02*
X105552857Y-49183390D01*
X105552857Y-49183390D02*
X105648095Y-49135771D01*
X105648095Y-49135771D02*
X105886190Y-49135771D01*
X105886190Y-49135771D02*
X105981428Y-49183390D01*
X105981428Y-49183390D02*
X106029047Y-49231009D01*
X106029047Y-49231009D02*
X106076666Y-49326247D01*
X106076666Y-49326247D02*
X106076666Y-49564342D01*
X106076666Y-49564342D02*
X106029047Y-49659580D01*
X106029047Y-49659580D02*
X105981428Y-49707200D01*
X105981428Y-49707200D02*
X105886190Y-49754819D01*
X105886190Y-49754819D02*
X105648095Y-49754819D01*
X105648095Y-49754819D02*
X105552857Y-49707200D01*
X105552857Y-49707200D02*
X105505238Y-49659580D01*
X78134819Y-79335238D02*
X77658628Y-79668571D01*
X78134819Y-79906666D02*
X77134819Y-79906666D01*
X77134819Y-79906666D02*
X77134819Y-79525714D01*
X77134819Y-79525714D02*
X77182438Y-79430476D01*
X77182438Y-79430476D02*
X77230057Y-79382857D01*
X77230057Y-79382857D02*
X77325295Y-79335238D01*
X77325295Y-79335238D02*
X77468152Y-79335238D01*
X77468152Y-79335238D02*
X77563390Y-79382857D01*
X77563390Y-79382857D02*
X77611009Y-79430476D01*
X77611009Y-79430476D02*
X77658628Y-79525714D01*
X77658628Y-79525714D02*
X77658628Y-79906666D01*
X77134819Y-79049523D02*
X78134819Y-78716190D01*
X78134819Y-78716190D02*
X77134819Y-78382857D01*
X77230057Y-78097142D02*
X77182438Y-78049523D01*
X77182438Y-78049523D02*
X77134819Y-77954285D01*
X77134819Y-77954285D02*
X77134819Y-77716190D01*
X77134819Y-77716190D02*
X77182438Y-77620952D01*
X77182438Y-77620952D02*
X77230057Y-77573333D01*
X77230057Y-77573333D02*
X77325295Y-77525714D01*
X77325295Y-77525714D02*
X77420533Y-77525714D01*
X77420533Y-77525714D02*
X77563390Y-77573333D01*
X77563390Y-77573333D02*
X78134819Y-78144761D01*
X78134819Y-78144761D02*
X78134819Y-77525714D01*
X89388095Y-65714819D02*
X89388095Y-66524342D01*
X89388095Y-66524342D02*
X89435714Y-66619580D01*
X89435714Y-66619580D02*
X89483333Y-66667200D01*
X89483333Y-66667200D02*
X89578571Y-66714819D01*
X89578571Y-66714819D02*
X89769047Y-66714819D01*
X89769047Y-66714819D02*
X89864285Y-66667200D01*
X89864285Y-66667200D02*
X89911904Y-66619580D01*
X89911904Y-66619580D02*
X89959523Y-66524342D01*
X89959523Y-66524342D02*
X89959523Y-65714819D01*
X90388095Y-65810057D02*
X90435714Y-65762438D01*
X90435714Y-65762438D02*
X90530952Y-65714819D01*
X90530952Y-65714819D02*
X90769047Y-65714819D01*
X90769047Y-65714819D02*
X90864285Y-65762438D01*
X90864285Y-65762438D02*
X90911904Y-65810057D01*
X90911904Y-65810057D02*
X90959523Y-65905295D01*
X90959523Y-65905295D02*
X90959523Y-66000533D01*
X90959523Y-66000533D02*
X90911904Y-66143390D01*
X90911904Y-66143390D02*
X90340476Y-66714819D01*
X90340476Y-66714819D02*
X90959523Y-66714819D01*
X73940057Y-69945238D02*
X73892438Y-70040476D01*
X73892438Y-70040476D02*
X73797200Y-70135714D01*
X73797200Y-70135714D02*
X73654342Y-70278571D01*
X73654342Y-70278571D02*
X73606723Y-70373809D01*
X73606723Y-70373809D02*
X73606723Y-70469047D01*
X73844819Y-70421428D02*
X73797200Y-70516666D01*
X73797200Y-70516666D02*
X73701961Y-70611904D01*
X73701961Y-70611904D02*
X73511485Y-70659523D01*
X73511485Y-70659523D02*
X73178152Y-70659523D01*
X73178152Y-70659523D02*
X72987676Y-70611904D01*
X72987676Y-70611904D02*
X72892438Y-70516666D01*
X72892438Y-70516666D02*
X72844819Y-70421428D01*
X72844819Y-70421428D02*
X72844819Y-70230952D01*
X72844819Y-70230952D02*
X72892438Y-70135714D01*
X72892438Y-70135714D02*
X72987676Y-70040476D01*
X72987676Y-70040476D02*
X73178152Y-69992857D01*
X73178152Y-69992857D02*
X73511485Y-69992857D01*
X73511485Y-69992857D02*
X73701961Y-70040476D01*
X73701961Y-70040476D02*
X73797200Y-70135714D01*
X73797200Y-70135714D02*
X73844819Y-70230952D01*
X73844819Y-70230952D02*
X73844819Y-70421428D01*
X72940057Y-69611904D02*
X72892438Y-69564285D01*
X72892438Y-69564285D02*
X72844819Y-69469047D01*
X72844819Y-69469047D02*
X72844819Y-69230952D01*
X72844819Y-69230952D02*
X72892438Y-69135714D01*
X72892438Y-69135714D02*
X72940057Y-69088095D01*
X72940057Y-69088095D02*
X73035295Y-69040476D01*
X73035295Y-69040476D02*
X73130533Y-69040476D01*
X73130533Y-69040476D02*
X73273390Y-69088095D01*
X73273390Y-69088095D02*
X73844819Y-69659523D01*
X73844819Y-69659523D02*
X73844819Y-69040476D01*
X86814819Y-75096666D02*
X86338628Y-75429999D01*
X86814819Y-75668094D02*
X85814819Y-75668094D01*
X85814819Y-75668094D02*
X85814819Y-75287142D01*
X85814819Y-75287142D02*
X85862438Y-75191904D01*
X85862438Y-75191904D02*
X85910057Y-75144285D01*
X85910057Y-75144285D02*
X86005295Y-75096666D01*
X86005295Y-75096666D02*
X86148152Y-75096666D01*
X86148152Y-75096666D02*
X86243390Y-75144285D01*
X86243390Y-75144285D02*
X86291009Y-75191904D01*
X86291009Y-75191904D02*
X86338628Y-75287142D01*
X86338628Y-75287142D02*
X86338628Y-75668094D01*
X85910057Y-74715713D02*
X85862438Y-74668094D01*
X85862438Y-74668094D02*
X85814819Y-74572856D01*
X85814819Y-74572856D02*
X85814819Y-74334761D01*
X85814819Y-74334761D02*
X85862438Y-74239523D01*
X85862438Y-74239523D02*
X85910057Y-74191904D01*
X85910057Y-74191904D02*
X86005295Y-74144285D01*
X86005295Y-74144285D02*
X86100533Y-74144285D01*
X86100533Y-74144285D02*
X86243390Y-74191904D01*
X86243390Y-74191904D02*
X86814819Y-74763332D01*
X86814819Y-74763332D02*
X86814819Y-74144285D01*
X79194819Y-75668094D02*
X78194819Y-75668094D01*
X78194819Y-75668094D02*
X78194819Y-75429999D01*
X78194819Y-75429999D02*
X78242438Y-75287142D01*
X78242438Y-75287142D02*
X78337676Y-75191904D01*
X78337676Y-75191904D02*
X78432914Y-75144285D01*
X78432914Y-75144285D02*
X78623390Y-75096666D01*
X78623390Y-75096666D02*
X78766247Y-75096666D01*
X78766247Y-75096666D02*
X78956723Y-75144285D01*
X78956723Y-75144285D02*
X79051961Y-75191904D01*
X79051961Y-75191904D02*
X79147200Y-75287142D01*
X79147200Y-75287142D02*
X79194819Y-75429999D01*
X79194819Y-75429999D02*
X79194819Y-75668094D01*
X78528152Y-74239523D02*
X79194819Y-74239523D01*
X78147200Y-74477618D02*
X78861485Y-74715713D01*
X78861485Y-74715713D02*
X78861485Y-74096666D01*
D11*
X108886666Y-67243609D02*
X108553333Y-67243609D01*
X108553333Y-67767419D02*
X108553333Y-66767419D01*
X108553333Y-66767419D02*
X109029523Y-66767419D01*
X109934285Y-67767419D02*
X109362857Y-67767419D01*
X109648571Y-67767419D02*
X109648571Y-66767419D01*
X109648571Y-66767419D02*
X109553333Y-66910276D01*
X109553333Y-66910276D02*
X109458095Y-67005514D01*
X109458095Y-67005514D02*
X109362857Y-67053133D01*
D10*
X83004819Y-75668094D02*
X82004819Y-75668094D01*
X82004819Y-75668094D02*
X82004819Y-75429999D01*
X82004819Y-75429999D02*
X82052438Y-75287142D01*
X82052438Y-75287142D02*
X82147676Y-75191904D01*
X82147676Y-75191904D02*
X82242914Y-75144285D01*
X82242914Y-75144285D02*
X82433390Y-75096666D01*
X82433390Y-75096666D02*
X82576247Y-75096666D01*
X82576247Y-75096666D02*
X82766723Y-75144285D01*
X82766723Y-75144285D02*
X82861961Y-75191904D01*
X82861961Y-75191904D02*
X82957200Y-75287142D01*
X82957200Y-75287142D02*
X83004819Y-75429999D01*
X83004819Y-75429999D02*
X83004819Y-75668094D01*
X82004819Y-74763332D02*
X82004819Y-74144285D01*
X82004819Y-74144285D02*
X82385771Y-74477618D01*
X82385771Y-74477618D02*
X82385771Y-74334761D01*
X82385771Y-74334761D02*
X82433390Y-74239523D01*
X82433390Y-74239523D02*
X82481009Y-74191904D01*
X82481009Y-74191904D02*
X82576247Y-74144285D01*
X82576247Y-74144285D02*
X82814342Y-74144285D01*
X82814342Y-74144285D02*
X82909580Y-74191904D01*
X82909580Y-74191904D02*
X82957200Y-74239523D01*
X82957200Y-74239523D02*
X83004819Y-74334761D01*
X83004819Y-74334761D02*
X83004819Y-74620475D01*
X83004819Y-74620475D02*
X82957200Y-74715713D01*
X82957200Y-74715713D02*
X82909580Y-74763332D01*
X70953333Y-85449580D02*
X70905714Y-85497200D01*
X70905714Y-85497200D02*
X70762857Y-85544819D01*
X70762857Y-85544819D02*
X70667619Y-85544819D01*
X70667619Y-85544819D02*
X70524762Y-85497200D01*
X70524762Y-85497200D02*
X70429524Y-85401961D01*
X70429524Y-85401961D02*
X70381905Y-85306723D01*
X70381905Y-85306723D02*
X70334286Y-85116247D01*
X70334286Y-85116247D02*
X70334286Y-84973390D01*
X70334286Y-84973390D02*
X70381905Y-84782914D01*
X70381905Y-84782914D02*
X70429524Y-84687676D01*
X70429524Y-84687676D02*
X70524762Y-84592438D01*
X70524762Y-84592438D02*
X70667619Y-84544819D01*
X70667619Y-84544819D02*
X70762857Y-84544819D01*
X70762857Y-84544819D02*
X70905714Y-84592438D01*
X70905714Y-84592438D02*
X70953333Y-84640057D01*
X71810476Y-84878152D02*
X71810476Y-85544819D01*
X71572381Y-84497200D02*
X71334286Y-85211485D01*
X71334286Y-85211485D02*
X71953333Y-85211485D01*
X93793333Y-63859580D02*
X93745714Y-63907200D01*
X93745714Y-63907200D02*
X93602857Y-63954819D01*
X93602857Y-63954819D02*
X93507619Y-63954819D01*
X93507619Y-63954819D02*
X93364762Y-63907200D01*
X93364762Y-63907200D02*
X93269524Y-63811961D01*
X93269524Y-63811961D02*
X93221905Y-63716723D01*
X93221905Y-63716723D02*
X93174286Y-63526247D01*
X93174286Y-63526247D02*
X93174286Y-63383390D01*
X93174286Y-63383390D02*
X93221905Y-63192914D01*
X93221905Y-63192914D02*
X93269524Y-63097676D01*
X93269524Y-63097676D02*
X93364762Y-63002438D01*
X93364762Y-63002438D02*
X93507619Y-62954819D01*
X93507619Y-62954819D02*
X93602857Y-62954819D01*
X93602857Y-62954819D02*
X93745714Y-63002438D01*
X93745714Y-63002438D02*
X93793333Y-63050057D01*
X94174286Y-63050057D02*
X94221905Y-63002438D01*
X94221905Y-63002438D02*
X94317143Y-62954819D01*
X94317143Y-62954819D02*
X94555238Y-62954819D01*
X94555238Y-62954819D02*
X94650476Y-63002438D01*
X94650476Y-63002438D02*
X94698095Y-63050057D01*
X94698095Y-63050057D02*
X94745714Y-63145295D01*
X94745714Y-63145295D02*
X94745714Y-63240533D01*
X94745714Y-63240533D02*
X94698095Y-63383390D01*
X94698095Y-63383390D02*
X94126667Y-63954819D01*
X94126667Y-63954819D02*
X94745714Y-63954819D01*
X89218095Y-40314819D02*
X89218095Y-41124342D01*
X89218095Y-41124342D02*
X89265714Y-41219580D01*
X89265714Y-41219580D02*
X89313333Y-41267200D01*
X89313333Y-41267200D02*
X89408571Y-41314819D01*
X89408571Y-41314819D02*
X89599047Y-41314819D01*
X89599047Y-41314819D02*
X89694285Y-41267200D01*
X89694285Y-41267200D02*
X89741904Y-41219580D01*
X89741904Y-41219580D02*
X89789523Y-41124342D01*
X89789523Y-41124342D02*
X89789523Y-40314819D01*
X90789523Y-41314819D02*
X90218095Y-41314819D01*
X90503809Y-41314819D02*
X90503809Y-40314819D01*
X90503809Y-40314819D02*
X90408571Y-40457676D01*
X90408571Y-40457676D02*
X90313333Y-40552914D01*
X90313333Y-40552914D02*
X90218095Y-40600533D01*
X78134819Y-52665238D02*
X77658628Y-52998571D01*
X78134819Y-53236666D02*
X77134819Y-53236666D01*
X77134819Y-53236666D02*
X77134819Y-52855714D01*
X77134819Y-52855714D02*
X77182438Y-52760476D01*
X77182438Y-52760476D02*
X77230057Y-52712857D01*
X77230057Y-52712857D02*
X77325295Y-52665238D01*
X77325295Y-52665238D02*
X77468152Y-52665238D01*
X77468152Y-52665238D02*
X77563390Y-52712857D01*
X77563390Y-52712857D02*
X77611009Y-52760476D01*
X77611009Y-52760476D02*
X77658628Y-52855714D01*
X77658628Y-52855714D02*
X77658628Y-53236666D01*
X77134819Y-52379523D02*
X78134819Y-52046190D01*
X78134819Y-52046190D02*
X77134819Y-51712857D01*
X78134819Y-50855714D02*
X78134819Y-51427142D01*
X78134819Y-51141428D02*
X77134819Y-51141428D01*
X77134819Y-51141428D02*
X77277676Y-51236666D01*
X77277676Y-51236666D02*
X77372914Y-51331904D01*
X77372914Y-51331904D02*
X77420533Y-51427142D01*
X86756687Y-49368560D02*
X86280496Y-49701893D01*
X86756687Y-49939988D02*
X85756687Y-49939988D01*
X85756687Y-49939988D02*
X85756687Y-49559036D01*
X85756687Y-49559036D02*
X85804306Y-49463798D01*
X85804306Y-49463798D02*
X85851925Y-49416179D01*
X85851925Y-49416179D02*
X85947163Y-49368560D01*
X85947163Y-49368560D02*
X86090020Y-49368560D01*
X86090020Y-49368560D02*
X86185258Y-49416179D01*
X86185258Y-49416179D02*
X86232877Y-49463798D01*
X86232877Y-49463798D02*
X86280496Y-49559036D01*
X86280496Y-49559036D02*
X86280496Y-49939988D01*
X86756687Y-48416179D02*
X86756687Y-48987607D01*
X86756687Y-48701893D02*
X85756687Y-48701893D01*
X85756687Y-48701893D02*
X85899544Y-48797131D01*
X85899544Y-48797131D02*
X85994782Y-48892369D01*
X85994782Y-48892369D02*
X86042401Y-48987607D01*
X74060057Y-44545238D02*
X74012438Y-44640476D01*
X74012438Y-44640476D02*
X73917200Y-44735714D01*
X73917200Y-44735714D02*
X73774342Y-44878571D01*
X73774342Y-44878571D02*
X73726723Y-44973809D01*
X73726723Y-44973809D02*
X73726723Y-45069047D01*
X73964819Y-45021428D02*
X73917200Y-45116666D01*
X73917200Y-45116666D02*
X73821961Y-45211904D01*
X73821961Y-45211904D02*
X73631485Y-45259523D01*
X73631485Y-45259523D02*
X73298152Y-45259523D01*
X73298152Y-45259523D02*
X73107676Y-45211904D01*
X73107676Y-45211904D02*
X73012438Y-45116666D01*
X73012438Y-45116666D02*
X72964819Y-45021428D01*
X72964819Y-45021428D02*
X72964819Y-44830952D01*
X72964819Y-44830952D02*
X73012438Y-44735714D01*
X73012438Y-44735714D02*
X73107676Y-44640476D01*
X73107676Y-44640476D02*
X73298152Y-44592857D01*
X73298152Y-44592857D02*
X73631485Y-44592857D01*
X73631485Y-44592857D02*
X73821961Y-44640476D01*
X73821961Y-44640476D02*
X73917200Y-44735714D01*
X73917200Y-44735714D02*
X73964819Y-44830952D01*
X73964819Y-44830952D02*
X73964819Y-45021428D01*
X73964819Y-43640476D02*
X73964819Y-44211904D01*
X73964819Y-43926190D02*
X72964819Y-43926190D01*
X72964819Y-43926190D02*
X73107676Y-44021428D01*
X73107676Y-44021428D02*
X73202914Y-44116666D01*
X73202914Y-44116666D02*
X73250533Y-44211904D01*
X79213016Y-49853029D02*
X78213016Y-49853029D01*
X78213016Y-49853029D02*
X78213016Y-49614934D01*
X78213016Y-49614934D02*
X78260635Y-49472077D01*
X78260635Y-49472077D02*
X78355873Y-49376839D01*
X78355873Y-49376839D02*
X78451111Y-49329220D01*
X78451111Y-49329220D02*
X78641587Y-49281601D01*
X78641587Y-49281601D02*
X78784444Y-49281601D01*
X78784444Y-49281601D02*
X78974920Y-49329220D01*
X78974920Y-49329220D02*
X79070158Y-49376839D01*
X79070158Y-49376839D02*
X79165397Y-49472077D01*
X79165397Y-49472077D02*
X79213016Y-49614934D01*
X79213016Y-49614934D02*
X79213016Y-49853029D01*
X78308254Y-48900648D02*
X78260635Y-48853029D01*
X78260635Y-48853029D02*
X78213016Y-48757791D01*
X78213016Y-48757791D02*
X78213016Y-48519696D01*
X78213016Y-48519696D02*
X78260635Y-48424458D01*
X78260635Y-48424458D02*
X78308254Y-48376839D01*
X78308254Y-48376839D02*
X78403492Y-48329220D01*
X78403492Y-48329220D02*
X78498730Y-48329220D01*
X78498730Y-48329220D02*
X78641587Y-48376839D01*
X78641587Y-48376839D02*
X79213016Y-48948267D01*
X79213016Y-48948267D02*
X79213016Y-48329220D01*
X82995721Y-49983467D02*
X81995721Y-49983467D01*
X81995721Y-49983467D02*
X81995721Y-49745372D01*
X81995721Y-49745372D02*
X82043340Y-49602515D01*
X82043340Y-49602515D02*
X82138578Y-49507277D01*
X82138578Y-49507277D02*
X82233816Y-49459658D01*
X82233816Y-49459658D02*
X82424292Y-49412039D01*
X82424292Y-49412039D02*
X82567149Y-49412039D01*
X82567149Y-49412039D02*
X82757625Y-49459658D01*
X82757625Y-49459658D02*
X82852863Y-49507277D01*
X82852863Y-49507277D02*
X82948102Y-49602515D01*
X82948102Y-49602515D02*
X82995721Y-49745372D01*
X82995721Y-49745372D02*
X82995721Y-49983467D01*
X82995721Y-48459658D02*
X82995721Y-49031086D01*
X82995721Y-48745372D02*
X81995721Y-48745372D01*
X81995721Y-48745372D02*
X82138578Y-48840610D01*
X82138578Y-48840610D02*
X82233816Y-48935848D01*
X82233816Y-48935848D02*
X82281435Y-49031086D01*
X70953333Y-60049580D02*
X70905714Y-60097200D01*
X70905714Y-60097200D02*
X70762857Y-60144819D01*
X70762857Y-60144819D02*
X70667619Y-60144819D01*
X70667619Y-60144819D02*
X70524762Y-60097200D01*
X70524762Y-60097200D02*
X70429524Y-60001961D01*
X70429524Y-60001961D02*
X70381905Y-59906723D01*
X70381905Y-59906723D02*
X70334286Y-59716247D01*
X70334286Y-59716247D02*
X70334286Y-59573390D01*
X70334286Y-59573390D02*
X70381905Y-59382914D01*
X70381905Y-59382914D02*
X70429524Y-59287676D01*
X70429524Y-59287676D02*
X70524762Y-59192438D01*
X70524762Y-59192438D02*
X70667619Y-59144819D01*
X70667619Y-59144819D02*
X70762857Y-59144819D01*
X70762857Y-59144819D02*
X70905714Y-59192438D01*
X70905714Y-59192438D02*
X70953333Y-59240057D01*
X71286667Y-59144819D02*
X71905714Y-59144819D01*
X71905714Y-59144819D02*
X71572381Y-59525771D01*
X71572381Y-59525771D02*
X71715238Y-59525771D01*
X71715238Y-59525771D02*
X71810476Y-59573390D01*
X71810476Y-59573390D02*
X71858095Y-59621009D01*
X71858095Y-59621009D02*
X71905714Y-59716247D01*
X71905714Y-59716247D02*
X71905714Y-59954342D01*
X71905714Y-59954342D02*
X71858095Y-60049580D01*
X71858095Y-60049580D02*
X71810476Y-60097200D01*
X71810476Y-60097200D02*
X71715238Y-60144819D01*
X71715238Y-60144819D02*
X71429524Y-60144819D01*
X71429524Y-60144819D02*
X71334286Y-60097200D01*
X71334286Y-60097200D02*
X71286667Y-60049580D01*
X93593333Y-38349580D02*
X93545714Y-38397200D01*
X93545714Y-38397200D02*
X93402857Y-38444819D01*
X93402857Y-38444819D02*
X93307619Y-38444819D01*
X93307619Y-38444819D02*
X93164762Y-38397200D01*
X93164762Y-38397200D02*
X93069524Y-38301961D01*
X93069524Y-38301961D02*
X93021905Y-38206723D01*
X93021905Y-38206723D02*
X92974286Y-38016247D01*
X92974286Y-38016247D02*
X92974286Y-37873390D01*
X92974286Y-37873390D02*
X93021905Y-37682914D01*
X93021905Y-37682914D02*
X93069524Y-37587676D01*
X93069524Y-37587676D02*
X93164762Y-37492438D01*
X93164762Y-37492438D02*
X93307619Y-37444819D01*
X93307619Y-37444819D02*
X93402857Y-37444819D01*
X93402857Y-37444819D02*
X93545714Y-37492438D01*
X93545714Y-37492438D02*
X93593333Y-37540057D01*
X94545714Y-38444819D02*
X93974286Y-38444819D01*
X94260000Y-38444819D02*
X94260000Y-37444819D01*
X94260000Y-37444819D02*
X94164762Y-37587676D01*
X94164762Y-37587676D02*
X94069524Y-37682914D01*
X94069524Y-37682914D02*
X93974286Y-37730533D01*
D11*
%TO.C,J1*%
X46500000Y-47330000D02*
X56000000Y-47330000D01*
X46500000Y-47330000D02*
X46500000Y-39030000D01*
X46500000Y-39030000D02*
X56000000Y-39030000D01*
D12*
X66000000Y-48180000D02*
X56000000Y-48180000D01*
X56000000Y-48180000D02*
X56000000Y-38180000D01*
X56000000Y-38180000D02*
X66000000Y-38180000D01*
X66000000Y-38180000D02*
X66000000Y-48180000D01*
D11*
%TO.C,J2*%
X46500000Y-73425000D02*
X56000000Y-73425000D01*
X46500000Y-73425000D02*
X46500000Y-65125000D01*
X46500000Y-65125000D02*
X56000000Y-65125000D01*
D12*
X66000000Y-74275000D02*
X56000000Y-74275000D01*
X56000000Y-74275000D02*
X56000000Y-64275000D01*
X56000000Y-64275000D02*
X66000000Y-64275000D01*
X66000000Y-64275000D02*
X66000000Y-74275000D01*
D11*
%TO.C,J4*%
X46500000Y-124150000D02*
X56000000Y-124150000D01*
X46500000Y-124150000D02*
X46500000Y-115850000D01*
X46500000Y-115850000D02*
X56000000Y-115850000D01*
D12*
X66000000Y-125000000D02*
X56000000Y-125000000D01*
X56000000Y-125000000D02*
X56000000Y-115000000D01*
X56000000Y-115000000D02*
X66000000Y-115000000D01*
X66000000Y-115000000D02*
X66000000Y-125000000D01*
D11*
%TO.C,J3*%
X46500000Y-99150000D02*
X56000000Y-99150000D01*
X46500000Y-99150000D02*
X46500000Y-90850000D01*
X46500000Y-90850000D02*
X56000000Y-90850000D01*
D12*
X66000000Y-100000000D02*
X56000000Y-100000000D01*
X56000000Y-100000000D02*
X56000000Y-90000000D01*
X56000000Y-90000000D02*
X66000000Y-90000000D01*
X66000000Y-90000000D02*
X66000000Y-100000000D01*
D13*
%TO.C,SW1*%
X106740000Y-61545000D02*
X106740000Y-62875000D01*
X106740000Y-52595000D02*
X104080000Y-52595000D01*
X106740000Y-55195000D02*
X106740000Y-52595000D01*
X106740000Y-55195000D02*
X104080000Y-55195000D01*
X106740000Y-62875000D02*
X105410000Y-62875000D01*
X104080000Y-55195000D02*
X104080000Y-52595000D01*
%TO.C,U3*%
X93000000Y-92650000D02*
G75*
G03*
X95000000Y-92650000I1000000J0D01*
G01*
X91350000Y-102930000D02*
X96650000Y-102930000D01*
X93000000Y-92650000D02*
X91350000Y-92650000D01*
X96650000Y-102930000D02*
X96650000Y-92650000D01*
X91350000Y-92650000D02*
X91350000Y-102930000D01*
X96650000Y-92650000D02*
X95000000Y-92650000D01*
%TO.C,C5*%
X95840000Y-91975000D02*
X95840000Y-91730000D01*
X92200000Y-91975000D02*
X92200000Y-91730000D01*
X92200000Y-89880000D02*
X92200000Y-89635000D01*
X95840000Y-89880000D02*
X95840000Y-89635000D01*
X95840000Y-89635000D02*
X92200000Y-89635000D01*
X95840000Y-91975000D02*
X92200000Y-91975000D01*
%TO.C,R4*%
X87730000Y-112300000D02*
X87400000Y-112300000D01*
X84990000Y-118840000D02*
X84990000Y-112300000D01*
X87730000Y-118840000D02*
X87730000Y-112300000D01*
X87400000Y-118840000D02*
X87730000Y-118840000D01*
X85320000Y-118840000D02*
X84990000Y-118840000D01*
X84990000Y-112300000D02*
X85320000Y-112300000D01*
%TO.C,R3*%
X85000000Y-90700000D02*
X85330000Y-90700000D01*
X85330000Y-97240000D02*
X85000000Y-97240000D01*
X87410000Y-97240000D02*
X87740000Y-97240000D01*
X87740000Y-97240000D02*
X87740000Y-90700000D01*
X85000000Y-97240000D02*
X85000000Y-90700000D01*
X87740000Y-90700000D02*
X87410000Y-90700000D01*
%TO.C,Q4*%
X71771000Y-118099000D02*
X71771000Y-118372000D01*
X71771000Y-120389000D02*
X71771000Y-120662000D01*
X72510000Y-115970000D02*
X69970000Y-115970000D01*
X72510000Y-122790000D02*
X69970000Y-122790000D01*
X71771000Y-115970000D02*
X71771000Y-116081000D01*
X69970000Y-115970000D02*
X69970000Y-122790000D01*
X72510000Y-115970000D02*
X72510000Y-122790000D01*
X71771000Y-122679000D02*
X71771000Y-122790000D01*
%TO.C,Q3*%
X71651000Y-93969000D02*
X71651000Y-94242000D01*
X71651000Y-96259000D02*
X71651000Y-96532000D01*
X72390000Y-91840000D02*
X69850000Y-91840000D01*
X72390000Y-98660000D02*
X69850000Y-98660000D01*
X71651000Y-91840000D02*
X71651000Y-91951000D01*
X69850000Y-91840000D02*
X69850000Y-98660000D01*
X72390000Y-91840000D02*
X72390000Y-98660000D01*
X71651000Y-98549000D02*
X71651000Y-98660000D01*
%TO.C,RV3*%
X81290000Y-105460000D02*
X81290000Y-102800000D01*
X78690000Y-105460000D02*
X78690000Y-104130000D01*
X81290000Y-102800000D02*
X86430000Y-102800000D01*
X80020000Y-105460000D02*
X78690000Y-105460000D01*
X81290000Y-105460000D02*
X86430000Y-105460000D01*
X86430000Y-105460000D02*
X86430000Y-102800000D01*
%TO.C,RV4*%
X86420000Y-127060000D02*
X86420000Y-124400000D01*
X81280000Y-127060000D02*
X86420000Y-127060000D01*
X80010000Y-127060000D02*
X78680000Y-127060000D01*
X81280000Y-124400000D02*
X86420000Y-124400000D01*
X78680000Y-127060000D02*
X78680000Y-125730000D01*
X81280000Y-127060000D02*
X81280000Y-124400000D01*
%TO.C,U4*%
X96640000Y-114631000D02*
X94990000Y-114631000D01*
X91340000Y-114631000D02*
X91340000Y-124911000D01*
X96640000Y-124911000D02*
X96640000Y-114631000D01*
X92990000Y-114631000D02*
X91340000Y-114631000D01*
X91340000Y-124911000D02*
X96640000Y-124911000D01*
X92990000Y-114631000D02*
G75*
G03*
X94990000Y-114631000I1000000J0D01*
G01*
%TO.C,D8*%
X79860000Y-117690000D02*
X79860000Y-113450000D01*
X79860000Y-114170000D02*
X77620000Y-114170000D01*
X79860000Y-114050000D02*
X77620000Y-114050000D01*
X77620000Y-117690000D02*
X79860000Y-117690000D01*
X79860000Y-114290000D02*
X77620000Y-114290000D01*
X78740000Y-112800000D02*
X78740000Y-113450000D01*
X79860000Y-113450000D02*
X77620000Y-113450000D01*
X77620000Y-113450000D02*
X77620000Y-117690000D01*
X78740000Y-118340000D02*
X78740000Y-117690000D01*
%TO.C,C6*%
X92180000Y-111606000D02*
X95820000Y-111606000D01*
X92180000Y-113946000D02*
X95820000Y-113946000D01*
X92180000Y-113701000D02*
X92180000Y-113946000D01*
X95820000Y-113701000D02*
X95820000Y-113946000D01*
X95820000Y-111606000D02*
X95820000Y-111851000D01*
X92180000Y-111606000D02*
X92180000Y-111851000D01*
%TO.C,C7*%
X72160000Y-104699000D02*
X73668000Y-104699000D01*
X72160000Y-105219000D02*
X73996000Y-105219000D01*
X68073000Y-105619000D02*
X70080000Y-105619000D01*
X69230000Y-104059000D02*
X73010000Y-104059000D01*
X67989000Y-105899000D02*
X70080000Y-105899000D01*
X67890000Y-106620000D02*
X74350000Y-106620000D01*
X72160000Y-105819000D02*
X74230000Y-105819000D01*
X72160000Y-105699000D02*
X74194000Y-105699000D01*
X67890000Y-106660000D02*
X74350000Y-106660000D01*
X69286000Y-104019000D02*
X72954000Y-104019000D01*
X69125000Y-104139000D02*
X73115000Y-104139000D01*
X72160000Y-106140000D02*
X74302000Y-106140000D01*
X72160000Y-105099000D02*
X73932000Y-105099000D01*
X68264000Y-105179000D02*
X70080000Y-105179000D01*
X68815000Y-104419000D02*
X70080000Y-104419000D01*
X67938000Y-106140000D02*
X70080000Y-106140000D01*
X70318000Y-103539000D02*
X71922000Y-103539000D01*
X67892000Y-106580000D02*
X74348000Y-106580000D01*
X72160000Y-105059000D02*
X73910000Y-105059000D01*
X69281000Y-110200241D02*
X69281000Y-109570241D01*
X72160000Y-104979000D02*
X73862000Y-104979000D01*
X70718000Y-103459000D02*
X71522000Y-103459000D01*
X72160000Y-106060000D02*
X74287000Y-106060000D01*
X72160000Y-105459000D02*
X74106000Y-105459000D01*
X68308000Y-105099000D02*
X70080000Y-105099000D01*
X72160000Y-104939000D02*
X73836000Y-104939000D01*
X72160000Y-106180000D02*
X74309000Y-106180000D01*
X69611000Y-103819000D02*
X72629000Y-103819000D01*
X68896000Y-104339000D02*
X73344000Y-104339000D01*
X72160000Y-105539000D02*
X74138000Y-105539000D01*
X68636000Y-104619000D02*
X70080000Y-104619000D01*
X69470000Y-103899000D02*
X72770000Y-103899000D01*
X72160000Y-106100000D02*
X74295000Y-106100000D01*
X72160000Y-106420000D02*
X74338000Y-106420000D01*
X68456000Y-104859000D02*
X70080000Y-104859000D01*
X69688000Y-103779000D02*
X72552000Y-103779000D01*
X67919000Y-106260000D02*
X70080000Y-106260000D01*
X68286000Y-105139000D02*
X70080000Y-105139000D01*
X72160000Y-105899000D02*
X74251000Y-105899000D01*
X67898000Y-106460000D02*
X70080000Y-106460000D01*
X68704000Y-104539000D02*
X70080000Y-104539000D01*
X68430000Y-104899000D02*
X70080000Y-104899000D01*
X69344000Y-103979000D02*
X72896000Y-103979000D01*
X72160000Y-104819000D02*
X73756000Y-104819000D01*
X70487000Y-103499000D02*
X71753000Y-103499000D01*
X72160000Y-104419000D02*
X73425000Y-104419000D01*
X72160000Y-104739000D02*
X73698000Y-104739000D01*
X72160000Y-106380000D02*
X74335000Y-106380000D01*
X68150000Y-105419000D02*
X70080000Y-105419000D01*
X67905000Y-106380000D02*
X70080000Y-106380000D01*
X68330000Y-105059000D02*
X70080000Y-105059000D01*
X68168000Y-105379000D02*
X70080000Y-105379000D01*
X72160000Y-105019000D02*
X73886000Y-105019000D01*
X68983000Y-104259000D02*
X73257000Y-104259000D01*
X68513000Y-104779000D02*
X70080000Y-104779000D01*
X72160000Y-105939000D02*
X74261000Y-105939000D01*
X72160000Y-105419000D02*
X74090000Y-105419000D01*
X72160000Y-105299000D02*
X74036000Y-105299000D01*
X69076000Y-104179000D02*
X73164000Y-104179000D01*
X69028000Y-104219000D02*
X73212000Y-104219000D01*
X72160000Y-105379000D02*
X74072000Y-105379000D01*
X68777000Y-104459000D02*
X70080000Y-104459000D01*
X72160000Y-105739000D02*
X74206000Y-105739000D01*
X69770000Y-103739000D02*
X72470000Y-103739000D01*
X67970000Y-105979000D02*
X70080000Y-105979000D01*
X68186000Y-105339000D02*
X70080000Y-105339000D01*
X72160000Y-104459000D02*
X73463000Y-104459000D01*
X68102000Y-105539000D02*
X70080000Y-105539000D01*
X72160000Y-105179000D02*
X73976000Y-105179000D01*
X72160000Y-106220000D02*
X74315000Y-106220000D01*
X68010000Y-105819000D02*
X70080000Y-105819000D01*
X72160000Y-104779000D02*
X73727000Y-104779000D01*
X72160000Y-104539000D02*
X73536000Y-104539000D01*
X68087000Y-105579000D02*
X70080000Y-105579000D01*
X72160000Y-105979000D02*
X74270000Y-105979000D01*
X68966000Y-109885241D02*
X69596000Y-109885241D01*
X72160000Y-105139000D02*
X73954000Y-105139000D01*
X69406000Y-103939000D02*
X72834000Y-103939000D01*
X68740000Y-104499000D02*
X70080000Y-104499000D01*
X69539000Y-103859000D02*
X72701000Y-103859000D01*
X67945000Y-106100000D02*
X70080000Y-106100000D01*
X70061000Y-103619000D02*
X72179000Y-103619000D01*
X70180000Y-103579000D02*
X72060000Y-103579000D01*
X72160000Y-106260000D02*
X74321000Y-106260000D01*
X68224000Y-105259000D02*
X70080000Y-105259000D01*
X72160000Y-105659000D02*
X74181000Y-105659000D01*
X67931000Y-106180000D02*
X70080000Y-106180000D01*
X67961000Y-106020000D02*
X70080000Y-106020000D01*
X68022000Y-105779000D02*
X70080000Y-105779000D01*
X67890000Y-106700000D02*
X74350000Y-106700000D01*
X72160000Y-105859000D02*
X74241000Y-105859000D01*
X68354000Y-105019000D02*
X70080000Y-105019000D01*
X67999000Y-105859000D02*
X70080000Y-105859000D01*
X72160000Y-105579000D02*
X74153000Y-105579000D01*
X67979000Y-105939000D02*
X70080000Y-105939000D01*
X67902000Y-106420000D02*
X70080000Y-106420000D01*
X68670000Y-104579000D02*
X70080000Y-104579000D01*
X68855000Y-104379000D02*
X73385000Y-104379000D01*
X72160000Y-105259000D02*
X74016000Y-105259000D01*
X68542000Y-104739000D02*
X70080000Y-104739000D01*
X72160000Y-106460000D02*
X74342000Y-106460000D01*
X68034000Y-105739000D02*
X70080000Y-105739000D01*
X72160000Y-105779000D02*
X74218000Y-105779000D01*
X69955000Y-103659000D02*
X72285000Y-103659000D01*
X68484000Y-104819000D02*
X70080000Y-104819000D01*
X72160000Y-104659000D02*
X73636000Y-104659000D01*
X72160000Y-105619000D02*
X74167000Y-105619000D01*
X68938000Y-104299000D02*
X73302000Y-104299000D01*
X69176000Y-104099000D02*
X73064000Y-104099000D01*
X69858000Y-103699000D02*
X72382000Y-103699000D01*
X72160000Y-106300000D02*
X74326000Y-106300000D01*
X72160000Y-104499000D02*
X73500000Y-104499000D01*
X68378000Y-104979000D02*
X70080000Y-104979000D01*
X67953000Y-106060000D02*
X70080000Y-106060000D01*
X72160000Y-105339000D02*
X74054000Y-105339000D01*
X67893000Y-106540000D02*
X74347000Y-106540000D01*
X72160000Y-104619000D02*
X73604000Y-104619000D01*
X72160000Y-104899000D02*
X73810000Y-104899000D01*
X68572000Y-104699000D02*
X70080000Y-104699000D01*
X72160000Y-106340000D02*
X74331000Y-106340000D01*
X68244000Y-105219000D02*
X70080000Y-105219000D01*
X72160000Y-104859000D02*
X73784000Y-104859000D01*
X67914000Y-106300000D02*
X70080000Y-106300000D01*
X68604000Y-104659000D02*
X70080000Y-104659000D01*
X68134000Y-105459000D02*
X70080000Y-105459000D01*
X68046000Y-105699000D02*
X70080000Y-105699000D01*
X68059000Y-105659000D02*
X70080000Y-105659000D01*
X67909000Y-106340000D02*
X70080000Y-106340000D01*
X68118000Y-105499000D02*
X70080000Y-105499000D01*
X72160000Y-105499000D02*
X74122000Y-105499000D01*
X67925000Y-106220000D02*
X70080000Y-106220000D01*
X68204000Y-105299000D02*
X70080000Y-105299000D01*
X72160000Y-106020000D02*
X74279000Y-106020000D01*
X72160000Y-104579000D02*
X73570000Y-104579000D01*
X68404000Y-104939000D02*
X70080000Y-104939000D01*
X67896000Y-106500000D02*
X74344000Y-106500000D01*
X74390000Y-106700000D02*
G75*
G03*
X74390000Y-106700000I-3270000J0D01*
G01*
%TO.C,C8*%
X72160000Y-127519000D02*
X73668000Y-127519000D01*
X72160000Y-128039000D02*
X73996000Y-128039000D01*
X68073000Y-128439000D02*
X70080000Y-128439000D01*
X69230000Y-126879000D02*
X73010000Y-126879000D01*
X67989000Y-128719000D02*
X70080000Y-128719000D01*
X67890000Y-129440000D02*
X74350000Y-129440000D01*
X72160000Y-128639000D02*
X74230000Y-128639000D01*
X72160000Y-128519000D02*
X74194000Y-128519000D01*
X67890000Y-129480000D02*
X74350000Y-129480000D01*
X69286000Y-126839000D02*
X72954000Y-126839000D01*
X69125000Y-126959000D02*
X73115000Y-126959000D01*
X72160000Y-128960000D02*
X74302000Y-128960000D01*
X72160000Y-127919000D02*
X73932000Y-127919000D01*
X68264000Y-127999000D02*
X70080000Y-127999000D01*
X68815000Y-127239000D02*
X70080000Y-127239000D01*
X67938000Y-128960000D02*
X70080000Y-128960000D01*
X70318000Y-126359000D02*
X71922000Y-126359000D01*
X67892000Y-129400000D02*
X74348000Y-129400000D01*
X72160000Y-127879000D02*
X73910000Y-127879000D01*
X69281000Y-133020241D02*
X69281000Y-132390241D01*
X72160000Y-127799000D02*
X73862000Y-127799000D01*
X70718000Y-126279000D02*
X71522000Y-126279000D01*
X72160000Y-128880000D02*
X74287000Y-128880000D01*
X72160000Y-128279000D02*
X74106000Y-128279000D01*
X68308000Y-127919000D02*
X70080000Y-127919000D01*
X72160000Y-127759000D02*
X73836000Y-127759000D01*
X72160000Y-129000000D02*
X74309000Y-129000000D01*
X69611000Y-126639000D02*
X72629000Y-126639000D01*
X68896000Y-127159000D02*
X73344000Y-127159000D01*
X72160000Y-128359000D02*
X74138000Y-128359000D01*
X68636000Y-127439000D02*
X70080000Y-127439000D01*
X69470000Y-126719000D02*
X72770000Y-126719000D01*
X72160000Y-128920000D02*
X74295000Y-128920000D01*
X72160000Y-129240000D02*
X74338000Y-129240000D01*
X68456000Y-127679000D02*
X70080000Y-127679000D01*
X69688000Y-126599000D02*
X72552000Y-126599000D01*
X67919000Y-129080000D02*
X70080000Y-129080000D01*
X68286000Y-127959000D02*
X70080000Y-127959000D01*
X72160000Y-128719000D02*
X74251000Y-128719000D01*
X67898000Y-129280000D02*
X70080000Y-129280000D01*
X68704000Y-127359000D02*
X70080000Y-127359000D01*
X68430000Y-127719000D02*
X70080000Y-127719000D01*
X69344000Y-126799000D02*
X72896000Y-126799000D01*
X72160000Y-127639000D02*
X73756000Y-127639000D01*
X70487000Y-126319000D02*
X71753000Y-126319000D01*
X72160000Y-127239000D02*
X73425000Y-127239000D01*
X72160000Y-127559000D02*
X73698000Y-127559000D01*
X72160000Y-129200000D02*
X74335000Y-129200000D01*
X68150000Y-128239000D02*
X70080000Y-128239000D01*
X67905000Y-129200000D02*
X70080000Y-129200000D01*
X68330000Y-127879000D02*
X70080000Y-127879000D01*
X68168000Y-128199000D02*
X70080000Y-128199000D01*
X72160000Y-127839000D02*
X73886000Y-127839000D01*
X68983000Y-127079000D02*
X73257000Y-127079000D01*
X68513000Y-127599000D02*
X70080000Y-127599000D01*
X72160000Y-128759000D02*
X74261000Y-128759000D01*
X72160000Y-128239000D02*
X74090000Y-128239000D01*
X72160000Y-128119000D02*
X74036000Y-128119000D01*
X69076000Y-126999000D02*
X73164000Y-126999000D01*
X69028000Y-127039000D02*
X73212000Y-127039000D01*
X72160000Y-128199000D02*
X74072000Y-128199000D01*
X68777000Y-127279000D02*
X70080000Y-127279000D01*
X72160000Y-128559000D02*
X74206000Y-128559000D01*
X69770000Y-126559000D02*
X72470000Y-126559000D01*
X67970000Y-128799000D02*
X70080000Y-128799000D01*
X68186000Y-128159000D02*
X70080000Y-128159000D01*
X72160000Y-127279000D02*
X73463000Y-127279000D01*
X68102000Y-128359000D02*
X70080000Y-128359000D01*
X72160000Y-127999000D02*
X73976000Y-127999000D01*
X72160000Y-129040000D02*
X74315000Y-129040000D01*
X68010000Y-128639000D02*
X70080000Y-128639000D01*
X72160000Y-127599000D02*
X73727000Y-127599000D01*
X72160000Y-127359000D02*
X73536000Y-127359000D01*
X68087000Y-128399000D02*
X70080000Y-128399000D01*
X72160000Y-128799000D02*
X74270000Y-128799000D01*
X68966000Y-132705241D02*
X69596000Y-132705241D01*
X72160000Y-127959000D02*
X73954000Y-127959000D01*
X69406000Y-126759000D02*
X72834000Y-126759000D01*
X68740000Y-127319000D02*
X70080000Y-127319000D01*
X69539000Y-126679000D02*
X72701000Y-126679000D01*
X67945000Y-128920000D02*
X70080000Y-128920000D01*
X70061000Y-126439000D02*
X72179000Y-126439000D01*
X70180000Y-126399000D02*
X72060000Y-126399000D01*
X72160000Y-129080000D02*
X74321000Y-129080000D01*
X68224000Y-128079000D02*
X70080000Y-128079000D01*
X72160000Y-128479000D02*
X74181000Y-128479000D01*
X67931000Y-129000000D02*
X70080000Y-129000000D01*
X67961000Y-128840000D02*
X70080000Y-128840000D01*
X68022000Y-128599000D02*
X70080000Y-128599000D01*
X67890000Y-129520000D02*
X74350000Y-129520000D01*
X72160000Y-128679000D02*
X74241000Y-128679000D01*
X68354000Y-127839000D02*
X70080000Y-127839000D01*
X67999000Y-128679000D02*
X70080000Y-128679000D01*
X72160000Y-128399000D02*
X74153000Y-128399000D01*
X67979000Y-128759000D02*
X70080000Y-128759000D01*
X67902000Y-129240000D02*
X70080000Y-129240000D01*
X68670000Y-127399000D02*
X70080000Y-127399000D01*
X68855000Y-127199000D02*
X73385000Y-127199000D01*
X72160000Y-128079000D02*
X74016000Y-128079000D01*
X68542000Y-127559000D02*
X70080000Y-127559000D01*
X72160000Y-129280000D02*
X74342000Y-129280000D01*
X68034000Y-128559000D02*
X70080000Y-128559000D01*
X72160000Y-128599000D02*
X74218000Y-128599000D01*
X69955000Y-126479000D02*
X72285000Y-126479000D01*
X68484000Y-127639000D02*
X70080000Y-127639000D01*
X72160000Y-127479000D02*
X73636000Y-127479000D01*
X72160000Y-128439000D02*
X74167000Y-128439000D01*
X68938000Y-127119000D02*
X73302000Y-127119000D01*
X69176000Y-126919000D02*
X73064000Y-126919000D01*
X69858000Y-126519000D02*
X72382000Y-126519000D01*
X72160000Y-129120000D02*
X74326000Y-129120000D01*
X72160000Y-127319000D02*
X73500000Y-127319000D01*
X68378000Y-127799000D02*
X70080000Y-127799000D01*
X67953000Y-128880000D02*
X70080000Y-128880000D01*
X72160000Y-128159000D02*
X74054000Y-128159000D01*
X67893000Y-129360000D02*
X74347000Y-129360000D01*
X72160000Y-127439000D02*
X73604000Y-127439000D01*
X72160000Y-127719000D02*
X73810000Y-127719000D01*
X68572000Y-127519000D02*
X70080000Y-127519000D01*
X72160000Y-129160000D02*
X74331000Y-129160000D01*
X68244000Y-128039000D02*
X70080000Y-128039000D01*
X72160000Y-127679000D02*
X73784000Y-127679000D01*
X67914000Y-129120000D02*
X70080000Y-129120000D01*
X68604000Y-127479000D02*
X70080000Y-127479000D01*
X68134000Y-128279000D02*
X70080000Y-128279000D01*
X68046000Y-128519000D02*
X70080000Y-128519000D01*
X68059000Y-128479000D02*
X70080000Y-128479000D01*
X67909000Y-129160000D02*
X70080000Y-129160000D01*
X68118000Y-128319000D02*
X70080000Y-128319000D01*
X72160000Y-128319000D02*
X74122000Y-128319000D01*
X67925000Y-129040000D02*
X70080000Y-129040000D01*
X68204000Y-128119000D02*
X70080000Y-128119000D01*
X72160000Y-128840000D02*
X74279000Y-128840000D01*
X72160000Y-127399000D02*
X73570000Y-127399000D01*
X68404000Y-127759000D02*
X70080000Y-127759000D01*
X67896000Y-129320000D02*
X74344000Y-129320000D01*
X74390000Y-129520000D02*
G75*
G03*
X74390000Y-129520000I-3270000J0D01*
G01*
%TO.C,D5*%
X82560000Y-91200000D02*
X82560000Y-91850000D01*
X83680000Y-96090000D02*
X83680000Y-91850000D01*
X81440000Y-96090000D02*
X83680000Y-96090000D01*
X82560000Y-96740000D02*
X82560000Y-96090000D01*
X81440000Y-95250000D02*
X83680000Y-95250000D01*
X83680000Y-91850000D02*
X81440000Y-91850000D01*
X81440000Y-95490000D02*
X83680000Y-95490000D01*
X81440000Y-95370000D02*
X83680000Y-95370000D01*
X81440000Y-91850000D02*
X81440000Y-96090000D01*
%TO.C,D6*%
X78750000Y-96740000D02*
X78750000Y-96090000D01*
X77630000Y-91850000D02*
X77630000Y-96090000D01*
X79870000Y-91850000D02*
X77630000Y-91850000D01*
X78750000Y-91200000D02*
X78750000Y-91850000D01*
X79870000Y-92690000D02*
X77630000Y-92690000D01*
X77630000Y-96090000D02*
X79870000Y-96090000D01*
X79870000Y-92450000D02*
X77630000Y-92450000D01*
X79870000Y-92570000D02*
X77630000Y-92570000D01*
X79870000Y-96090000D02*
X79870000Y-91850000D01*
%TO.C,D7*%
X81430000Y-113450000D02*
X81430000Y-117690000D01*
X81430000Y-116970000D02*
X83670000Y-116970000D01*
X81430000Y-117090000D02*
X83670000Y-117090000D01*
X83670000Y-113450000D02*
X81430000Y-113450000D01*
X81430000Y-116850000D02*
X83670000Y-116850000D01*
X82550000Y-118340000D02*
X82550000Y-117690000D01*
X81430000Y-117690000D02*
X83670000Y-117690000D01*
X83670000Y-117690000D02*
X83670000Y-113450000D01*
X82550000Y-112800000D02*
X82550000Y-113450000D01*
%TO.C,J5*%
X100300000Y-48110000D02*
X100300000Y-42050000D01*
X110520000Y-34890000D02*
X110520000Y-37950000D01*
X106410000Y-48300000D02*
X104410000Y-48300000D01*
X100300000Y-34890000D02*
X110520000Y-34890000D01*
X110520000Y-48110000D02*
X107710000Y-48110000D01*
X103110000Y-48110000D02*
X100300000Y-48110000D01*
X110520000Y-42050000D02*
X110520000Y-48110000D01*
X100300000Y-37950000D02*
X100300000Y-34890000D01*
%TO.C,RV2*%
X86420000Y-80070000D02*
X86420000Y-77410000D01*
X81280000Y-80070000D02*
X86420000Y-80070000D01*
X80010000Y-80070000D02*
X78680000Y-80070000D01*
X81280000Y-77410000D02*
X86420000Y-77410000D01*
X78680000Y-80070000D02*
X78680000Y-78740000D01*
X81280000Y-80070000D02*
X81280000Y-77410000D01*
%TO.C,U2*%
X96640000Y-67260000D02*
X94990000Y-67260000D01*
X91340000Y-67260000D02*
X91340000Y-77540000D01*
X96640000Y-77540000D02*
X96640000Y-67260000D01*
X92990000Y-67260000D02*
X91340000Y-67260000D01*
X91340000Y-77540000D02*
X96640000Y-77540000D01*
X92990000Y-67260000D02*
G75*
G03*
X94990000Y-67260000I1000000J0D01*
G01*
%TO.C,Q2*%
X71651000Y-68569000D02*
X71651000Y-68842000D01*
X71651000Y-70859000D02*
X71651000Y-71132000D01*
X72390000Y-66440000D02*
X69850000Y-66440000D01*
X72390000Y-73260000D02*
X69850000Y-73260000D01*
X71651000Y-66440000D02*
X71651000Y-66551000D01*
X69850000Y-66440000D02*
X69850000Y-73260000D01*
X72390000Y-66440000D02*
X72390000Y-73260000D01*
X71651000Y-73149000D02*
X71651000Y-73260000D01*
%TO.C,R2*%
X87730000Y-65310000D02*
X87400000Y-65310000D01*
X84990000Y-71850000D02*
X84990000Y-65310000D01*
X87730000Y-71850000D02*
X87730000Y-65310000D01*
X87400000Y-71850000D02*
X87730000Y-71850000D01*
X85320000Y-71850000D02*
X84990000Y-71850000D01*
X84990000Y-65310000D02*
X85320000Y-65310000D01*
%TO.C,D4*%
X79860000Y-70700000D02*
X79860000Y-66460000D01*
X79860000Y-67180000D02*
X77620000Y-67180000D01*
X79860000Y-67060000D02*
X77620000Y-67060000D01*
X77620000Y-70700000D02*
X79860000Y-70700000D01*
X79860000Y-67300000D02*
X77620000Y-67300000D01*
X78740000Y-65810000D02*
X78740000Y-66460000D01*
X79860000Y-66460000D02*
X77620000Y-66460000D01*
X77620000Y-66460000D02*
X77620000Y-70700000D01*
X78740000Y-71350000D02*
X78740000Y-70700000D01*
D12*
%TO.C,F1*%
X100724774Y-69046496D02*
X110124774Y-69046496D01*
X110123308Y-69065787D02*
X110123308Y-93465787D01*
X100695226Y-69065787D02*
X100695226Y-93465787D01*
X100709268Y-93472674D02*
X110109268Y-93472674D01*
D13*
%TO.C,D3*%
X81430000Y-66460000D02*
X81430000Y-70700000D01*
X81430000Y-69980000D02*
X83670000Y-69980000D01*
X81430000Y-70100000D02*
X83670000Y-70100000D01*
X83670000Y-66460000D02*
X81430000Y-66460000D01*
X81430000Y-69860000D02*
X83670000Y-69860000D01*
X82550000Y-71350000D02*
X82550000Y-70700000D01*
X81430000Y-70700000D02*
X83670000Y-70700000D01*
X83670000Y-70700000D02*
X83670000Y-66460000D01*
X82550000Y-65810000D02*
X82550000Y-66460000D01*
%TO.C,C4*%
X72160000Y-78029000D02*
X73668000Y-78029000D01*
X72160000Y-78549000D02*
X73996000Y-78549000D01*
X68073000Y-78949000D02*
X70080000Y-78949000D01*
X69230000Y-77389000D02*
X73010000Y-77389000D01*
X67989000Y-79229000D02*
X70080000Y-79229000D01*
X67890000Y-79950000D02*
X74350000Y-79950000D01*
X72160000Y-79149000D02*
X74230000Y-79149000D01*
X72160000Y-79029000D02*
X74194000Y-79029000D01*
X67890000Y-79990000D02*
X74350000Y-79990000D01*
X69286000Y-77349000D02*
X72954000Y-77349000D01*
X69125000Y-77469000D02*
X73115000Y-77469000D01*
X72160000Y-79470000D02*
X74302000Y-79470000D01*
X72160000Y-78429000D02*
X73932000Y-78429000D01*
X68264000Y-78509000D02*
X70080000Y-78509000D01*
X68815000Y-77749000D02*
X70080000Y-77749000D01*
X67938000Y-79470000D02*
X70080000Y-79470000D01*
X70318000Y-76869000D02*
X71922000Y-76869000D01*
X67892000Y-79910000D02*
X74348000Y-79910000D01*
X72160000Y-78389000D02*
X73910000Y-78389000D01*
X69281000Y-83530241D02*
X69281000Y-82900241D01*
X72160000Y-78309000D02*
X73862000Y-78309000D01*
X70718000Y-76789000D02*
X71522000Y-76789000D01*
X72160000Y-79390000D02*
X74287000Y-79390000D01*
X72160000Y-78789000D02*
X74106000Y-78789000D01*
X68308000Y-78429000D02*
X70080000Y-78429000D01*
X72160000Y-78269000D02*
X73836000Y-78269000D01*
X72160000Y-79510000D02*
X74309000Y-79510000D01*
X69611000Y-77149000D02*
X72629000Y-77149000D01*
X68896000Y-77669000D02*
X73344000Y-77669000D01*
X72160000Y-78869000D02*
X74138000Y-78869000D01*
X68636000Y-77949000D02*
X70080000Y-77949000D01*
X69470000Y-77229000D02*
X72770000Y-77229000D01*
X72160000Y-79430000D02*
X74295000Y-79430000D01*
X72160000Y-79750000D02*
X74338000Y-79750000D01*
X68456000Y-78189000D02*
X70080000Y-78189000D01*
X69688000Y-77109000D02*
X72552000Y-77109000D01*
X67919000Y-79590000D02*
X70080000Y-79590000D01*
X68286000Y-78469000D02*
X70080000Y-78469000D01*
X72160000Y-79229000D02*
X74251000Y-79229000D01*
X67898000Y-79790000D02*
X70080000Y-79790000D01*
X68704000Y-77869000D02*
X70080000Y-77869000D01*
X68430000Y-78229000D02*
X70080000Y-78229000D01*
X69344000Y-77309000D02*
X72896000Y-77309000D01*
X72160000Y-78149000D02*
X73756000Y-78149000D01*
X70487000Y-76829000D02*
X71753000Y-76829000D01*
X72160000Y-77749000D02*
X73425000Y-77749000D01*
X72160000Y-78069000D02*
X73698000Y-78069000D01*
X72160000Y-79710000D02*
X74335000Y-79710000D01*
X68150000Y-78749000D02*
X70080000Y-78749000D01*
X67905000Y-79710000D02*
X70080000Y-79710000D01*
X68330000Y-78389000D02*
X70080000Y-78389000D01*
X68168000Y-78709000D02*
X70080000Y-78709000D01*
X72160000Y-78349000D02*
X73886000Y-78349000D01*
X68983000Y-77589000D02*
X73257000Y-77589000D01*
X68513000Y-78109000D02*
X70080000Y-78109000D01*
X72160000Y-79269000D02*
X74261000Y-79269000D01*
X72160000Y-78749000D02*
X74090000Y-78749000D01*
X72160000Y-78629000D02*
X74036000Y-78629000D01*
X69076000Y-77509000D02*
X73164000Y-77509000D01*
X69028000Y-77549000D02*
X73212000Y-77549000D01*
X72160000Y-78709000D02*
X74072000Y-78709000D01*
X68777000Y-77789000D02*
X70080000Y-77789000D01*
X72160000Y-79069000D02*
X74206000Y-79069000D01*
X69770000Y-77069000D02*
X72470000Y-77069000D01*
X67970000Y-79309000D02*
X70080000Y-79309000D01*
X68186000Y-78669000D02*
X70080000Y-78669000D01*
X72160000Y-77789000D02*
X73463000Y-77789000D01*
X68102000Y-78869000D02*
X70080000Y-78869000D01*
X72160000Y-78509000D02*
X73976000Y-78509000D01*
X72160000Y-79550000D02*
X74315000Y-79550000D01*
X68010000Y-79149000D02*
X70080000Y-79149000D01*
X72160000Y-78109000D02*
X73727000Y-78109000D01*
X72160000Y-77869000D02*
X73536000Y-77869000D01*
X68087000Y-78909000D02*
X70080000Y-78909000D01*
X72160000Y-79309000D02*
X74270000Y-79309000D01*
X68966000Y-83215241D02*
X69596000Y-83215241D01*
X72160000Y-78469000D02*
X73954000Y-78469000D01*
X69406000Y-77269000D02*
X72834000Y-77269000D01*
X68740000Y-77829000D02*
X70080000Y-77829000D01*
X69539000Y-77189000D02*
X72701000Y-77189000D01*
X67945000Y-79430000D02*
X70080000Y-79430000D01*
X70061000Y-76949000D02*
X72179000Y-76949000D01*
X70180000Y-76909000D02*
X72060000Y-76909000D01*
X72160000Y-79590000D02*
X74321000Y-79590000D01*
X68224000Y-78589000D02*
X70080000Y-78589000D01*
X72160000Y-78989000D02*
X74181000Y-78989000D01*
X67931000Y-79510000D02*
X70080000Y-79510000D01*
X67961000Y-79350000D02*
X70080000Y-79350000D01*
X68022000Y-79109000D02*
X70080000Y-79109000D01*
X67890000Y-80030000D02*
X74350000Y-80030000D01*
X72160000Y-79189000D02*
X74241000Y-79189000D01*
X68354000Y-78349000D02*
X70080000Y-78349000D01*
X67999000Y-79189000D02*
X70080000Y-79189000D01*
X72160000Y-78909000D02*
X74153000Y-78909000D01*
X67979000Y-79269000D02*
X70080000Y-79269000D01*
X67902000Y-79750000D02*
X70080000Y-79750000D01*
X68670000Y-77909000D02*
X70080000Y-77909000D01*
X68855000Y-77709000D02*
X73385000Y-77709000D01*
X72160000Y-78589000D02*
X74016000Y-78589000D01*
X68542000Y-78069000D02*
X70080000Y-78069000D01*
X72160000Y-79790000D02*
X74342000Y-79790000D01*
X68034000Y-79069000D02*
X70080000Y-79069000D01*
X72160000Y-79109000D02*
X74218000Y-79109000D01*
X69955000Y-76989000D02*
X72285000Y-76989000D01*
X68484000Y-78149000D02*
X70080000Y-78149000D01*
X72160000Y-77989000D02*
X73636000Y-77989000D01*
X72160000Y-78949000D02*
X74167000Y-78949000D01*
X68938000Y-77629000D02*
X73302000Y-77629000D01*
X69176000Y-77429000D02*
X73064000Y-77429000D01*
X69858000Y-77029000D02*
X72382000Y-77029000D01*
X72160000Y-79630000D02*
X74326000Y-79630000D01*
X72160000Y-77829000D02*
X73500000Y-77829000D01*
X68378000Y-78309000D02*
X70080000Y-78309000D01*
X67953000Y-79390000D02*
X70080000Y-79390000D01*
X72160000Y-78669000D02*
X74054000Y-78669000D01*
X67893000Y-79870000D02*
X74347000Y-79870000D01*
X72160000Y-77949000D02*
X73604000Y-77949000D01*
X72160000Y-78229000D02*
X73810000Y-78229000D01*
X68572000Y-78029000D02*
X70080000Y-78029000D01*
X72160000Y-79670000D02*
X74331000Y-79670000D01*
X68244000Y-78549000D02*
X70080000Y-78549000D01*
X72160000Y-78189000D02*
X73784000Y-78189000D01*
X67914000Y-79630000D02*
X70080000Y-79630000D01*
X68604000Y-77989000D02*
X70080000Y-77989000D01*
X68134000Y-78789000D02*
X70080000Y-78789000D01*
X68046000Y-79029000D02*
X70080000Y-79029000D01*
X68059000Y-78989000D02*
X70080000Y-78989000D01*
X67909000Y-79670000D02*
X70080000Y-79670000D01*
X68118000Y-78829000D02*
X70080000Y-78829000D01*
X72160000Y-78829000D02*
X74122000Y-78829000D01*
X67925000Y-79550000D02*
X70080000Y-79550000D01*
X68204000Y-78629000D02*
X70080000Y-78629000D01*
X72160000Y-79350000D02*
X74279000Y-79350000D01*
X72160000Y-77909000D02*
X73570000Y-77909000D01*
X68404000Y-78269000D02*
X70080000Y-78269000D01*
X67896000Y-79830000D02*
X74344000Y-79830000D01*
X74390000Y-80030000D02*
G75*
G03*
X74390000Y-80030000I-3270000J0D01*
G01*
%TO.C,C2*%
X95780000Y-66585000D02*
X92140000Y-66585000D01*
X95780000Y-64245000D02*
X92140000Y-64245000D01*
X95780000Y-64490000D02*
X95780000Y-64245000D01*
X92140000Y-64490000D02*
X92140000Y-64245000D01*
X92140000Y-66585000D02*
X92140000Y-66340000D01*
X95780000Y-66585000D02*
X95780000Y-66340000D01*
%TO.C,U1*%
X96640000Y-41860000D02*
X94990000Y-41860000D01*
X91340000Y-41860000D02*
X91340000Y-52140000D01*
X96640000Y-52140000D02*
X96640000Y-41860000D01*
X92990000Y-41860000D02*
X91340000Y-41860000D01*
X91340000Y-52140000D02*
X96640000Y-52140000D01*
X92990000Y-41860000D02*
G75*
G03*
X94990000Y-41860000I1000000J0D01*
G01*
%TO.C,RV1*%
X86420000Y-53400000D02*
X86420000Y-50740000D01*
X81280000Y-53400000D02*
X86420000Y-53400000D01*
X80010000Y-53400000D02*
X78680000Y-53400000D01*
X81280000Y-50740000D02*
X86420000Y-50740000D01*
X78680000Y-53400000D02*
X78680000Y-52070000D01*
X81280000Y-53400000D02*
X81280000Y-50740000D01*
%TO.C,R1*%
X87730000Y-39910000D02*
X87400000Y-39910000D01*
X84990000Y-46450000D02*
X84990000Y-39910000D01*
X87730000Y-46450000D02*
X87730000Y-39910000D01*
X87400000Y-46450000D02*
X87730000Y-46450000D01*
X85320000Y-46450000D02*
X84990000Y-46450000D01*
X84990000Y-39910000D02*
X85320000Y-39910000D01*
%TO.C,Q1*%
X71771000Y-43169000D02*
X71771000Y-43442000D01*
X71771000Y-45459000D02*
X71771000Y-45732000D01*
X72510000Y-41040000D02*
X69970000Y-41040000D01*
X72510000Y-47860000D02*
X69970000Y-47860000D01*
X71771000Y-41040000D02*
X71771000Y-41151000D01*
X69970000Y-41040000D02*
X69970000Y-47860000D01*
X72510000Y-41040000D02*
X72510000Y-47860000D01*
X71771000Y-47749000D02*
X71771000Y-47860000D01*
%TO.C,D2*%
X79860000Y-45300000D02*
X79860000Y-41060000D01*
X79860000Y-41780000D02*
X77620000Y-41780000D01*
X79860000Y-41660000D02*
X77620000Y-41660000D01*
X77620000Y-45300000D02*
X79860000Y-45300000D01*
X79860000Y-41900000D02*
X77620000Y-41900000D01*
X78740000Y-40410000D02*
X78740000Y-41060000D01*
X79860000Y-41060000D02*
X77620000Y-41060000D01*
X77620000Y-41060000D02*
X77620000Y-45300000D01*
X78740000Y-45950000D02*
X78740000Y-45300000D01*
%TO.C,D1*%
X81430000Y-41060000D02*
X81430000Y-45300000D01*
X81430000Y-44580000D02*
X83670000Y-44580000D01*
X81430000Y-44700000D02*
X83670000Y-44700000D01*
X83670000Y-41060000D02*
X81430000Y-41060000D01*
X81430000Y-44460000D02*
X83670000Y-44460000D01*
X82550000Y-45950000D02*
X82550000Y-45300000D01*
X81430000Y-45300000D02*
X83670000Y-45300000D01*
X83670000Y-45300000D02*
X83670000Y-41060000D01*
X82550000Y-40410000D02*
X82550000Y-41060000D01*
%TO.C,C3*%
X74390000Y-54630000D02*
G75*
G03*
X74390000Y-54630000I-3270000J0D01*
G01*
X67896000Y-54430000D02*
X74344000Y-54430000D01*
X68404000Y-52869000D02*
X70080000Y-52869000D01*
X72160000Y-52509000D02*
X73570000Y-52509000D01*
X72160000Y-53950000D02*
X74279000Y-53950000D01*
X68204000Y-53229000D02*
X70080000Y-53229000D01*
X67925000Y-54150000D02*
X70080000Y-54150000D01*
X72160000Y-53429000D02*
X74122000Y-53429000D01*
X68118000Y-53429000D02*
X70080000Y-53429000D01*
X67909000Y-54270000D02*
X70080000Y-54270000D01*
X68059000Y-53589000D02*
X70080000Y-53589000D01*
X68046000Y-53629000D02*
X70080000Y-53629000D01*
X68134000Y-53389000D02*
X70080000Y-53389000D01*
X68604000Y-52589000D02*
X70080000Y-52589000D01*
X67914000Y-54230000D02*
X70080000Y-54230000D01*
X72160000Y-52789000D02*
X73784000Y-52789000D01*
X68244000Y-53149000D02*
X70080000Y-53149000D01*
X72160000Y-54270000D02*
X74331000Y-54270000D01*
X68572000Y-52629000D02*
X70080000Y-52629000D01*
X72160000Y-52829000D02*
X73810000Y-52829000D01*
X72160000Y-52549000D02*
X73604000Y-52549000D01*
X67893000Y-54470000D02*
X74347000Y-54470000D01*
X72160000Y-53269000D02*
X74054000Y-53269000D01*
X67953000Y-53990000D02*
X70080000Y-53990000D01*
X68378000Y-52909000D02*
X70080000Y-52909000D01*
X72160000Y-52429000D02*
X73500000Y-52429000D01*
X72160000Y-54230000D02*
X74326000Y-54230000D01*
X69858000Y-51629000D02*
X72382000Y-51629000D01*
X69176000Y-52029000D02*
X73064000Y-52029000D01*
X68938000Y-52229000D02*
X73302000Y-52229000D01*
X72160000Y-53549000D02*
X74167000Y-53549000D01*
X72160000Y-52589000D02*
X73636000Y-52589000D01*
X68484000Y-52749000D02*
X70080000Y-52749000D01*
X69955000Y-51589000D02*
X72285000Y-51589000D01*
X72160000Y-53709000D02*
X74218000Y-53709000D01*
X68034000Y-53669000D02*
X70080000Y-53669000D01*
X72160000Y-54390000D02*
X74342000Y-54390000D01*
X68542000Y-52669000D02*
X70080000Y-52669000D01*
X72160000Y-53189000D02*
X74016000Y-53189000D01*
X68855000Y-52309000D02*
X73385000Y-52309000D01*
X68670000Y-52509000D02*
X70080000Y-52509000D01*
X67902000Y-54350000D02*
X70080000Y-54350000D01*
X67979000Y-53869000D02*
X70080000Y-53869000D01*
X72160000Y-53509000D02*
X74153000Y-53509000D01*
X67999000Y-53789000D02*
X70080000Y-53789000D01*
X68354000Y-52949000D02*
X70080000Y-52949000D01*
X72160000Y-53789000D02*
X74241000Y-53789000D01*
X67890000Y-54630000D02*
X74350000Y-54630000D01*
X68022000Y-53709000D02*
X70080000Y-53709000D01*
X67961000Y-53950000D02*
X70080000Y-53950000D01*
X67931000Y-54110000D02*
X70080000Y-54110000D01*
X72160000Y-53589000D02*
X74181000Y-53589000D01*
X68224000Y-53189000D02*
X70080000Y-53189000D01*
X72160000Y-54190000D02*
X74321000Y-54190000D01*
X70180000Y-51509000D02*
X72060000Y-51509000D01*
X70061000Y-51549000D02*
X72179000Y-51549000D01*
X67945000Y-54030000D02*
X70080000Y-54030000D01*
X69539000Y-51789000D02*
X72701000Y-51789000D01*
X68740000Y-52429000D02*
X70080000Y-52429000D01*
X69406000Y-51869000D02*
X72834000Y-51869000D01*
X72160000Y-53069000D02*
X73954000Y-53069000D01*
X68966000Y-57815241D02*
X69596000Y-57815241D01*
X72160000Y-53909000D02*
X74270000Y-53909000D01*
X68087000Y-53509000D02*
X70080000Y-53509000D01*
X72160000Y-52469000D02*
X73536000Y-52469000D01*
X72160000Y-52709000D02*
X73727000Y-52709000D01*
X68010000Y-53749000D02*
X70080000Y-53749000D01*
X72160000Y-54150000D02*
X74315000Y-54150000D01*
X72160000Y-53109000D02*
X73976000Y-53109000D01*
X68102000Y-53469000D02*
X70080000Y-53469000D01*
X72160000Y-52389000D02*
X73463000Y-52389000D01*
X68186000Y-53269000D02*
X70080000Y-53269000D01*
X67970000Y-53909000D02*
X70080000Y-53909000D01*
X69770000Y-51669000D02*
X72470000Y-51669000D01*
X72160000Y-53669000D02*
X74206000Y-53669000D01*
X68777000Y-52389000D02*
X70080000Y-52389000D01*
X72160000Y-53309000D02*
X74072000Y-53309000D01*
X69028000Y-52149000D02*
X73212000Y-52149000D01*
X69076000Y-52109000D02*
X73164000Y-52109000D01*
X72160000Y-53229000D02*
X74036000Y-53229000D01*
X72160000Y-53349000D02*
X74090000Y-53349000D01*
X72160000Y-53869000D02*
X74261000Y-53869000D01*
X68513000Y-52709000D02*
X70080000Y-52709000D01*
X68983000Y-52189000D02*
X73257000Y-52189000D01*
X72160000Y-52949000D02*
X73886000Y-52949000D01*
X68168000Y-53309000D02*
X70080000Y-53309000D01*
X68330000Y-52989000D02*
X70080000Y-52989000D01*
X67905000Y-54310000D02*
X70080000Y-54310000D01*
X68150000Y-53349000D02*
X70080000Y-53349000D01*
X72160000Y-54310000D02*
X74335000Y-54310000D01*
X72160000Y-52669000D02*
X73698000Y-52669000D01*
X72160000Y-52349000D02*
X73425000Y-52349000D01*
X70487000Y-51429000D02*
X71753000Y-51429000D01*
X72160000Y-52749000D02*
X73756000Y-52749000D01*
X69344000Y-51909000D02*
X72896000Y-51909000D01*
X68430000Y-52829000D02*
X70080000Y-52829000D01*
X68704000Y-52469000D02*
X70080000Y-52469000D01*
X67898000Y-54390000D02*
X70080000Y-54390000D01*
X72160000Y-53829000D02*
X74251000Y-53829000D01*
X68286000Y-53069000D02*
X70080000Y-53069000D01*
X67919000Y-54190000D02*
X70080000Y-54190000D01*
X69688000Y-51709000D02*
X72552000Y-51709000D01*
X68456000Y-52789000D02*
X70080000Y-52789000D01*
X72160000Y-54350000D02*
X74338000Y-54350000D01*
X72160000Y-54030000D02*
X74295000Y-54030000D01*
X69470000Y-51829000D02*
X72770000Y-51829000D01*
X68636000Y-52549000D02*
X70080000Y-52549000D01*
X72160000Y-53469000D02*
X74138000Y-53469000D01*
X68896000Y-52269000D02*
X73344000Y-52269000D01*
X69611000Y-51749000D02*
X72629000Y-51749000D01*
X72160000Y-54110000D02*
X74309000Y-54110000D01*
X72160000Y-52869000D02*
X73836000Y-52869000D01*
X68308000Y-53029000D02*
X70080000Y-53029000D01*
X72160000Y-53389000D02*
X74106000Y-53389000D01*
X72160000Y-53990000D02*
X74287000Y-53990000D01*
X70718000Y-51389000D02*
X71522000Y-51389000D01*
X72160000Y-52909000D02*
X73862000Y-52909000D01*
X69281000Y-58130241D02*
X69281000Y-57500241D01*
X72160000Y-52989000D02*
X73910000Y-52989000D01*
X67892000Y-54510000D02*
X74348000Y-54510000D01*
X70318000Y-51469000D02*
X71922000Y-51469000D01*
X67938000Y-54070000D02*
X70080000Y-54070000D01*
X68815000Y-52349000D02*
X70080000Y-52349000D01*
X68264000Y-53109000D02*
X70080000Y-53109000D01*
X72160000Y-53029000D02*
X73932000Y-53029000D01*
X72160000Y-54070000D02*
X74302000Y-54070000D01*
X69125000Y-52069000D02*
X73115000Y-52069000D01*
X69286000Y-51949000D02*
X72954000Y-51949000D01*
X67890000Y-54590000D02*
X74350000Y-54590000D01*
X72160000Y-53629000D02*
X74194000Y-53629000D01*
X72160000Y-53749000D02*
X74230000Y-53749000D01*
X67890000Y-54550000D02*
X74350000Y-54550000D01*
X67989000Y-53829000D02*
X70080000Y-53829000D01*
X69230000Y-51989000D02*
X73010000Y-51989000D01*
X68073000Y-53549000D02*
X70080000Y-53549000D01*
X72160000Y-53149000D02*
X73996000Y-53149000D01*
X72160000Y-52629000D02*
X73668000Y-52629000D01*
%TO.C,C1*%
X95830000Y-41160000D02*
X95830000Y-40915000D01*
X92190000Y-41160000D02*
X92190000Y-40915000D01*
X92190000Y-39065000D02*
X92190000Y-38820000D01*
X95830000Y-39065000D02*
X95830000Y-38820000D01*
X95830000Y-38820000D02*
X92190000Y-38820000D01*
X95830000Y-41160000D02*
X92190000Y-41160000D01*
%TD*%
M02*
